  0
SECTION
  2
HEADER
  9
$ANGBASE
  50
0.0
  9
$ANGDIR
  70
1
  9
$MEASUREMENT
  70
0
  0
ENDSEC
  0
SECTION
  2
TABLES
  0
TABLE
  2
LTYPE
  70
4
  0
LTYPE
  5
40F
  2
CONTINUOUS
  70
0
  3
Solid line
  72
65
  73
0
  40
0.0
  0
LTYPE
  5
410
  2
DASHDOT
 70
0
  3
Dash Dot ____ _ ____ _
 72
65
 73
4
 40
2.0
 49
1.25
 49
-0.25
 49
0.25
 49
-0.25
  0
LTYPE
  5
411
  2
DASHED
 70
0
  3
Dashed __ __ __ __ __
 72
65
 73
2
 40
0.75
 49
0.5
 49
-0.25
  0
LTYPE
  5
43B
  2
DOTTED
 70
0
  3
Dotted .  .  .  .
 72
65
 73
2
 40
0.2
 49
0.0
 49
-0.2
  0
ENDTAB
  0
TABLE
  2
STYLE
  70
4
  0
STYLE
  2
KICAD
  70
0
  40
0
  41
1
  42
1
  50
0
  71
0
  3
isocp.shx
  0
STYLE
  2
KICADB
  70
0
  40
0
  41
1
  42
1
  50
0
  71
0
  3
isocp.shx
  0
STYLE
  2
KICADI
  70
0
  40
0
  41
1
  42
1
  50
15
  71
0
  3
isocp.shx
  0
STYLE
  2
KICADBI
  70
0
  40
0
  41
1
  42
1
  50
15
  71
0
  3
isocp.shx
  0
ENDTAB
  0
TABLE
  2
LAYER
  70
1
  0
LAYER
  2
BLACK
  70
0
  62
7
  6
CONTINUOUS
  0
ENDTAB
  0
ENDSEC
  0
SECTION
  2
ENTITIES
0
LINE
8
BLACK
6
CONTINUOUS
10
-3.5515499999999998
20
5.6405000000000003
11
-3.6184499999999997
21
5.6405000000000003
0
LINE
8
BLACK
6
CONTINUOUS
10
-3.6184499999999997
20
5.6405000000000003
11
-3.6184499999999997
21
5.6917
0
LINE
8
BLACK
6
CONTINUOUS
10
-3.6184499999999997
20
5.6917
11
-3.5515499999999998
21
5.6917
0
LINE
8
BLACK
6
CONTINUOUS
10
-3.5515499999999998
20
5.6917
11
-3.5515499999999998
21
5.6405000000000003
0
LINE
8
BLACK
6
CONTINUOUS
10
-3.96
20
5.7074999999999996
11
-3.9950000000000001
21
5.7074999999999996
0
LINE
8
BLACK
6
CONTINUOUS
10
-3.9950000000000001
20
5.7074999999999996
11
-3.9950000000000001
21
5.7625000000000002
0
LINE
8
BLACK
6
CONTINUOUS
10
-3.9950000000000001
20
5.7625000000000002
11
-3.96
21
5.7625000000000002
0
LINE
8
BLACK
6
CONTINUOUS
10
-3.96
20
5.7625000000000002
11
-3.96
21
5.7074999999999996
0
LINE
8
BLACK
6
CONTINUOUS
10
-3.8849999999999998
20
5.7074999999999996
11
-3.9199999999999999
21
5.7074999999999996
0
LINE
8
BLACK
6
CONTINUOUS
10
-3.9199999999999999
20
5.7074999999999996
11
-3.9199999999999999
21
5.7625000000000002
0
LINE
8
BLACK
6
CONTINUOUS
10
-3.9199999999999999
20
5.7625000000000002
11
-3.8849999999999998
21
5.7625000000000002
0
LINE
8
BLACK
6
CONTINUOUS
10
-3.8849999999999998
20
5.7625000000000002
11
-3.8849999999999998
21
5.7074999999999996
0
LINE
8
BLACK
6
CONTINUOUS
10
-3.7599999999999998
20
5.7074999999999996
11
-3.7949999999999999
21
5.7074999999999996
0
LINE
8
BLACK
6
CONTINUOUS
10
-3.7949999999999999
20
5.7074999999999996
11
-3.7949999999999999
21
5.7625000000000002
0
LINE
8
BLACK
6
CONTINUOUS
10
-3.7949999999999999
20
5.7625000000000002
11
-3.7599999999999998
21
5.7625000000000002
0
LINE
8
BLACK
6
CONTINUOUS
10
-3.7599999999999998
20
5.7625000000000002
11
-3.7599999999999998
21
5.7074999999999996
0
LINE
8
BLACK
6
CONTINUOUS
10
-3.6850000000000001
20
5.7074999999999996
11
-3.7199999999999998
21
5.7074999999999996
0
LINE
8
BLACK
6
CONTINUOUS
10
-3.7199999999999998
20
5.7074999999999996
11
-3.7199999999999998
21
5.7625000000000002
0
LINE
8
BLACK
6
CONTINUOUS
10
-3.7199999999999998
20
5.7625000000000002
11
-3.6850000000000001
21
5.7625000000000002
0
LINE
8
BLACK
6
CONTINUOUS
10
-3.6850000000000001
20
5.7625000000000002
11
-3.6850000000000001
21
5.7074999999999996
0
LINE
8
BLACK
6
CONTINUOUS
10
-3.5515499999999998
20
5.7782999999999998
11
-3.6184499999999997
21
5.7782999999999998
0
LINE
8
BLACK
6
CONTINUOUS
10
-3.6184499999999997
20
5.7782999999999998
11
-3.6184499999999997
21
5.8294999999999995
0
LINE
8
BLACK
6
CONTINUOUS
10
-3.6184499999999997
20
5.8294999999999995
11
-3.5515499999999998
21
5.8294999999999995
0
LINE
8
BLACK
6
CONTINUOUS
10
-3.5515499999999998
20
5.8294999999999995
11
-3.5515499999999998
21
5.7782999999999998
0
LINE
8
BLACK
6
CONTINUOUS
10
-3.8599999999999999
20
5.7924999999999995
11
-3.895
21
5.7924999999999995
0
LINE
8
BLACK
6
CONTINUOUS
10
-3.895
20
5.7924999999999995
11
-3.895
21
5.8475000000000001
0
LINE
8
BLACK
6
CONTINUOUS
10
-3.895
20
5.8475000000000001
11
-3.8599999999999999
21
5.8475000000000001
0
LINE
8
BLACK
6
CONTINUOUS
10
-3.8599999999999999
20
5.8475000000000001
11
-3.8599999999999999
21
5.7924999999999995
0
LINE
8
BLACK
6
CONTINUOUS
10
-3.7849999999999997
20
5.7924999999999995
11
-3.8199999999999998
21
5.7924999999999995
0
LINE
8
BLACK
6
CONTINUOUS
10
-3.8199999999999998
20
5.7924999999999995
11
-3.8199999999999998
21
5.8475000000000001
0
LINE
8
BLACK
6
CONTINUOUS
10
-3.8199999999999998
20
5.8475000000000001
11
-3.7849999999999997
21
5.8475000000000001
0
LINE
8
BLACK
6
CONTINUOUS
10
-3.7849999999999997
20
5.8475000000000001
11
-3.7849999999999997
21
5.7924999999999995
0
LINE
8
BLACK
6
CONTINUOUS
10
-3.6974999999999998
20
5.8549999999999995
11
-3.7524999999999999
21
5.8549999999999995
0
LINE
8
BLACK
6
CONTINUOUS
10
-3.7524999999999999
20
5.8549999999999995
11
-3.7524999999999999
21
5.8899999999999997
0
LINE
8
BLACK
6
CONTINUOUS
10
-3.7524999999999999
20
5.8899999999999997
11
-3.6974999999999998
21
5.8899999999999997
0
LINE
8
BLACK
6
CONTINUOUS
10
-3.6974999999999998
20
5.8899999999999997
11
-3.6974999999999998
21
5.8549999999999995
0
LINE
8
BLACK
6
CONTINUOUS
10
-3.5874999999999999
20
5.8549999999999995
11
-3.6425000000000001
21
5.8549999999999995
0
LINE
8
BLACK
6
CONTINUOUS
10
-3.6425000000000001
20
5.8549999999999995
11
-3.6425000000000001
21
5.8899999999999997
0
LINE
8
BLACK
6
CONTINUOUS
10
-3.6425000000000001
20
5.8899999999999997
11
-3.5874999999999999
21
5.8899999999999997
0
LINE
8
BLACK
6
CONTINUOUS
10
-3.5874999999999999
20
5.8899999999999997
11
-3.5874999999999999
21
5.8549999999999995
0
LINE
8
BLACK
6
CONTINUOUS
10
-3.8599999999999999
20
5.8875000000000002
11
-3.895
21
5.8875000000000002
0
LINE
8
BLACK
6
CONTINUOUS
10
-3.895
20
5.8875000000000002
11
-3.895
21
5.9424999999999999
0
LINE
8
BLACK
6
CONTINUOUS
10
-3.895
20
5.9424999999999999
11
-3.8599999999999999
21
5.9424999999999999
0
LINE
8
BLACK
6
CONTINUOUS
10
-3.8599999999999999
20
5.9424999999999999
11
-3.8599999999999999
21
5.8875000000000002
0
LINE
8
BLACK
6
CONTINUOUS
10
-3.7849999999999997
20
5.8875000000000002
11
-3.8199999999999998
21
5.8875000000000002
0
LINE
8
BLACK
6
CONTINUOUS
10
-3.8199999999999998
20
5.8875000000000002
11
-3.8199999999999998
21
5.9424999999999999
0
LINE
8
BLACK
6
CONTINUOUS
10
-3.8199999999999998
20
5.9424999999999999
11
-3.7849999999999997
21
5.9424999999999999
0
LINE
8
BLACK
6
CONTINUOUS
10
-3.7849999999999997
20
5.9424999999999999
11
-3.7849999999999997
21
5.8875000000000002
0
LINE
8
BLACK
6
CONTINUOUS
10
-3.6974999999999998
20
5.9299999999999997
11
-3.7524999999999999
21
5.9299999999999997
0
LINE
8
BLACK
6
CONTINUOUS
10
-3.7524999999999999
20
5.9299999999999997
11
-3.7524999999999999
21
5.9649999999999999
0
LINE
8
BLACK
6
CONTINUOUS
10
-3.7524999999999999
20
5.9649999999999999
11
-3.6974999999999998
21
5.9649999999999999
0
LINE
8
BLACK
6
CONTINUOUS
10
-3.6974999999999998
20
5.9649999999999999
11
-3.6974999999999998
21
5.9299999999999997
0
LINE
8
BLACK
6
CONTINUOUS
10
-3.5874999999999999
20
5.9299999999999997
11
-3.6425000000000001
21
5.9299999999999997
0
LINE
8
BLACK
6
CONTINUOUS
10
-3.6425000000000001
20
5.9299999999999997
11
-3.6425000000000001
21
5.9649999999999999
0
LINE
8
BLACK
6
CONTINUOUS
10
-3.6425000000000001
20
5.9649999999999999
11
-3.5874999999999999
21
5.9649999999999999
0
LINE
8
BLACK
6
CONTINUOUS
10
-3.5874999999999999
20
5.9649999999999999
11
-3.5874999999999999
21
5.9299999999999997
0
LINE
8
BLACK
6
CONTINUOUS
10
-3.5324999999999998
20
6.0199999999999996
11
-3.5874999999999999
21
6.0199999999999996
0
LINE
8
BLACK
6
CONTINUOUS
10
-3.5874999999999999
20
6.0199999999999996
11
-3.5874999999999999
21
6.0549999999999997
0
LINE
8
BLACK
6
CONTINUOUS
10
-3.5874999999999999
20
6.0549999999999997
11
-3.5324999999999998
21
6.0549999999999997
0
LINE
8
BLACK
6
CONTINUOUS
10
-3.5324999999999998
20
6.0549999999999997
11
-3.5324999999999998
21
6.0199999999999996
0
LINE
8
BLACK
6
CONTINUOUS
10
-3.8605999999999998
20
6.0237999999999996
11
-3.8755999999999999
21
6.0237999999999996
0
LINE
8
BLACK
6
CONTINUOUS
10
-3.8755999999999999
20
6.0237999999999996
11
-3.8755999999999999
21
6.0737999999999994
0
LINE
8
BLACK
6
CONTINUOUS
10
-3.8755999999999999
20
6.0737999999999994
11
-3.8605999999999998
21
6.0737999999999994
0
LINE
8
BLACK
6
CONTINUOUS
10
-3.8605999999999998
20
6.0737999999999994
11
-3.8605999999999998
21
6.0237999999999996
0
LINE
8
BLACK
6
CONTINUOUS
10
-3.835
20
6.0237999999999996
11
-3.8500000000000001
21
6.0237999999999996
0
LINE
8
BLACK
6
CONTINUOUS
10
-3.8500000000000001
20
6.0237999999999996
11
-3.8500000000000001
21
6.0737999999999994
0
LINE
8
BLACK
6
CONTINUOUS
10
-3.8500000000000001
20
6.0737999999999994
11
-3.835
21
6.0737999999999994
0
LINE
8
BLACK
6
CONTINUOUS
10
-3.835
20
6.0737999999999994
11
-3.835
21
6.0237999999999996
0
LINE
8
BLACK
6
CONTINUOUS
10
-3.8094000000000001
20
6.0237999999999996
11
-3.8243999999999998
21
6.0237999999999996
0
LINE
8
BLACK
6
CONTINUOUS
10
-3.8243999999999998
20
6.0237999999999996
11
-3.8243999999999998
21
6.0737999999999994
0
LINE
8
BLACK
6
CONTINUOUS
10
-3.8243999999999998
20
6.0737999999999994
11
-3.8094000000000001
21
6.0737999999999994
0
LINE
8
BLACK
6
CONTINUOUS
10
-3.8094000000000001
20
6.0737999999999994
11
-3.8094000000000001
21
6.0237999999999996
0
LINE
8
BLACK
6
CONTINUOUS
10
-3.7837999999999998
20
6.0237999999999996
11
-3.7988
21
6.0237999999999996
0
LINE
8
BLACK
6
CONTINUOUS
10
-3.7988
20
6.0237999999999996
11
-3.7988
21
6.0737999999999994
0
LINE
8
BLACK
6
CONTINUOUS
10
-3.7988
20
6.0737999999999994
11
-3.7837999999999998
21
6.0737999999999994
0
LINE
8
BLACK
6
CONTINUOUS
10
-3.7837999999999998
20
6.0737999999999994
11
-3.7837999999999998
21
6.0237999999999996
0
LINE
8
BLACK
6
CONTINUOUS
10
-3.7582
20
6.0237999999999996
11
-3.7732000000000001
21
6.0237999999999996
0
LINE
8
BLACK
6
CONTINUOUS
10
-3.7732000000000001
20
6.0237999999999996
11
-3.7732000000000001
21
6.0737999999999994
0
LINE
8
BLACK
6
CONTINUOUS
10
-3.7732000000000001
20
6.0737999999999994
11
-3.7582
21
6.0737999999999994
0
LINE
8
BLACK
6
CONTINUOUS
10
-3.7582
20
6.0737999999999994
11
-3.7582
21
6.0237999999999996
0
LINE
8
BLACK
6
CONTINUOUS
10
-3.7325999999999997
20
6.0237999999999996
11
-3.7475999999999998
21
6.0237999999999996
0
LINE
8
BLACK
6
CONTINUOUS
10
-3.7475999999999998
20
6.0237999999999996
11
-3.7475999999999998
21
6.0737999999999994
0
LINE
8
BLACK
6
CONTINUOUS
10
-3.7475999999999998
20
6.0737999999999994
11
-3.7325999999999997
21
6.0737999999999994
0
LINE
8
BLACK
6
CONTINUOUS
10
-3.7325999999999997
20
6.0737999999999994
11
-3.7325999999999997
21
6.0237999999999996
0
LINE
8
BLACK
6
CONTINUOUS
10
-3.7069999999999999
20
6.0237999999999996
11
-3.722
21
6.0237999999999996
0
LINE
8
BLACK
6
CONTINUOUS
10
-3.722
20
6.0237999999999996
11
-3.722
21
6.0737999999999994
0
LINE
8
BLACK
6
CONTINUOUS
10
-3.722
20
6.0737999999999994
11
-3.7069999999999999
21
6.0737999999999994
0
LINE
8
BLACK
6
CONTINUOUS
10
-3.7069999999999999
20
6.0737999999999994
11
-3.7069999999999999
21
6.0237999999999996
0
LINE
8
BLACK
6
CONTINUOUS
10
-3.6814
20
6.0237999999999996
11
-3.6964000000000001
21
6.0237999999999996
0
LINE
8
BLACK
6
CONTINUOUS
10
-3.6964000000000001
20
6.0237999999999996
11
-3.6964000000000001
21
6.0737999999999994
0
LINE
8
BLACK
6
CONTINUOUS
10
-3.6964000000000001
20
6.0737999999999994
11
-3.6814
21
6.0737999999999994
0
LINE
8
BLACK
6
CONTINUOUS
10
-3.6814
20
6.0737999999999994
11
-3.6814
21
6.0237999999999996
0
LINE
8
BLACK
6
CONTINUOUS
10
-3.5324999999999998
20
6.0949999999999998
11
-3.5874999999999999
21
6.0949999999999998
0
LINE
8
BLACK
6
CONTINUOUS
10
-3.5874999999999999
20
6.0949999999999998
11
-3.5874999999999999
21
6.1299999999999999
0
LINE
8
BLACK
6
CONTINUOUS
10
-3.5874999999999999
20
6.1299999999999999
11
-3.5324999999999998
21
6.1299999999999999
0
LINE
8
BLACK
6
CONTINUOUS
10
-3.5324999999999998
20
6.1299999999999999
11
-3.5324999999999998
21
6.0949999999999998
0
LINE
8
BLACK
6
CONTINUOUS
10
-3.8605999999999998
20
6.2442000000000002
11
-3.8755999999999999
21
6.2442000000000002
0
LINE
8
BLACK
6
CONTINUOUS
10
-3.8755999999999999
20
6.2442000000000002
11
-3.8755999999999999
21
6.2942
0
LINE
8
BLACK
6
CONTINUOUS
10
-3.8755999999999999
20
6.2942
11
-3.8605999999999998
21
6.2942
0
LINE
8
BLACK
6
CONTINUOUS
10
-3.8605999999999998
20
6.2942
11
-3.8605999999999998
21
6.2442000000000002
0
LINE
8
BLACK
6
CONTINUOUS
10
-3.835
20
6.2442000000000002
11
-3.8500000000000001
21
6.2442000000000002
0
LINE
8
BLACK
6
CONTINUOUS
10
-3.8500000000000001
20
6.2442000000000002
11
-3.8500000000000001
21
6.2942
0
LINE
8
BLACK
6
CONTINUOUS
10
-3.8500000000000001
20
6.2942
11
-3.835
21
6.2942
0
LINE
8
BLACK
6
CONTINUOUS
10
-3.835
20
6.2942
11
-3.835
21
6.2442000000000002
0
LINE
8
BLACK
6
CONTINUOUS
10
-3.8094000000000001
20
6.2442000000000002
11
-3.8243999999999998
21
6.2442000000000002
0
LINE
8
BLACK
6
CONTINUOUS
10
-3.8243999999999998
20
6.2442000000000002
11
-3.8243999999999998
21
6.2942
0
LINE
8
BLACK
6
CONTINUOUS
10
-3.8243999999999998
20
6.2942
11
-3.8094000000000001
21
6.2942
0
LINE
8
BLACK
6
CONTINUOUS
10
-3.8094000000000001
20
6.2942
11
-3.8094000000000001
21
6.2442000000000002
0
LINE
8
BLACK
6
CONTINUOUS
10
-3.7837999999999998
20
6.2442000000000002
11
-3.7988
21
6.2442000000000002
0
LINE
8
BLACK
6
CONTINUOUS
10
-3.7988
20
6.2442000000000002
11
-3.7988
21
6.2942
0
LINE
8
BLACK
6
CONTINUOUS
10
-3.7988
20
6.2942
11
-3.7837999999999998
21
6.2942
0
LINE
8
BLACK
6
CONTINUOUS
10
-3.7837999999999998
20
6.2942
11
-3.7837999999999998
21
6.2442000000000002
0
LINE
8
BLACK
6
CONTINUOUS
10
-3.7582
20
6.2442000000000002
11
-3.7732000000000001
21
6.2442000000000002
0
LINE
8
BLACK
6
CONTINUOUS
10
-3.7732000000000001
20
6.2442000000000002
11
-3.7732000000000001
21
6.2942
0
LINE
8
BLACK
6
CONTINUOUS
10
-3.7732000000000001
20
6.2942
11
-3.7582
21
6.2942
0
LINE
8
BLACK
6
CONTINUOUS
10
-3.7582
20
6.2942
11
-3.7582
21
6.2442000000000002
0
LINE
8
BLACK
6
CONTINUOUS
10
-3.7325999999999997
20
6.2442000000000002
11
-3.7475999999999998
21
6.2442000000000002
0
LINE
8
BLACK
6
CONTINUOUS
10
-3.7475999999999998
20
6.2442000000000002
11
-3.7475999999999998
21
6.2942
0
LINE
8
BLACK
6
CONTINUOUS
10
-3.7475999999999998
20
6.2942
11
-3.7325999999999997
21
6.2942
0
LINE
8
BLACK
6
CONTINUOUS
10
-3.7325999999999997
20
6.2942
11
-3.7325999999999997
21
6.2442000000000002
0
LINE
8
BLACK
6
CONTINUOUS
10
-3.7069999999999999
20
6.2442000000000002
11
-3.722
21
6.2442000000000002
0
LINE
8
BLACK
6
CONTINUOUS
10
-3.722
20
6.2442000000000002
11
-3.722
21
6.2942
0
LINE
8
BLACK
6
CONTINUOUS
10
-3.722
20
6.2942
11
-3.7069999999999999
21
6.2942
0
LINE
8
BLACK
6
CONTINUOUS
10
-3.7069999999999999
20
6.2942
11
-3.7069999999999999
21
6.2442000000000002
0
LINE
8
BLACK
6
CONTINUOUS
10
-3.6814
20
6.2442000000000002
11
-3.6964000000000001
21
6.2442000000000002
0
LINE
8
BLACK
6
CONTINUOUS
10
-3.6964000000000001
20
6.2442000000000002
11
-3.6964000000000001
21
6.2942
0
LINE
8
BLACK
6
CONTINUOUS
10
-3.6964000000000001
20
6.2942
11
-3.6814
21
6.2942
0
LINE
8
BLACK
6
CONTINUOUS
10
-3.6814
20
6.2942
11
-3.6814
21
6.2442000000000002
0
LINE
8
BLACK
6
CONTINUOUS
10
-3.8700000000000001
20
6.5774999999999997
11
-3.9049999999999998
21
6.5774999999999997
0
LINE
8
BLACK
6
CONTINUOUS
10
-3.9049999999999998
20
6.5774999999999997
11
-3.9049999999999998
21
6.6325000000000003
0
LINE
8
BLACK
6
CONTINUOUS
10
-3.9049999999999998
20
6.6325000000000003
11
-3.8700000000000001
21
6.6325000000000003
0
LINE
8
BLACK
6
CONTINUOUS
10
-3.8700000000000001
20
6.6325000000000003
11
-3.8700000000000001
21
6.5774999999999997
0
LINE
8
BLACK
6
CONTINUOUS
10
-3.7949999999999999
20
6.5774999999999997
11
-3.8300000000000001
21
6.5774999999999997
0
LINE
8
BLACK
6
CONTINUOUS
10
-3.8300000000000001
20
6.5774999999999997
11
-3.8300000000000001
21
6.6325000000000003
0
LINE
8
BLACK
6
CONTINUOUS
10
-3.8300000000000001
20
6.6325000000000003
11
-3.7949999999999999
21
6.6325000000000003
0
LINE
8
BLACK
6
CONTINUOUS
10
-3.7949999999999999
20
6.6325000000000003
11
-3.7949999999999999
21
6.5774999999999997
0
LINE
8
BLACK
6
CONTINUOUS
10
-3.7250000000000001
20
6.5774999999999997
11
-3.7599999999999998
21
6.5774999999999997
0
LINE
8
BLACK
6
CONTINUOUS
10
-3.7599999999999998
20
6.5774999999999997
11
-3.7599999999999998
21
6.6325000000000003
0
LINE
8
BLACK
6
CONTINUOUS
10
-3.7599999999999998
20
6.6325000000000003
11
-3.7250000000000001
21
6.6325000000000003
0
LINE
8
BLACK
6
CONTINUOUS
10
-3.7250000000000001
20
6.6325000000000003
11
-3.7250000000000001
21
6.5774999999999997
0
LINE
8
BLACK
6
CONTINUOUS
10
-3.6499999999999999
20
6.5774999999999997
11
-3.6850000000000001
21
6.5774999999999997
0
LINE
8
BLACK
6
CONTINUOUS
10
-3.6850000000000001
20
6.5774999999999997
11
-3.6850000000000001
21
6.6325000000000003
0
LINE
8
BLACK
6
CONTINUOUS
10
-3.6850000000000001
20
6.6325000000000003
11
-3.6499999999999999
21
6.6325000000000003
0
LINE
8
BLACK
6
CONTINUOUS
10
-3.6499999999999999
20
6.6325000000000003
11
-3.6499999999999999
21
6.5774999999999997
  0
ENDSEC
  0
EOF
