  0
SECTION
  2
HEADER
  9
$ANGBASE
  50
0.0
  9
$ANGDIR
  70
1
  9
$MEASUREMENT
  70
0
  0
ENDSEC
  0
SECTION
  2
TABLES
  0
TABLE
  2
LTYPE
  70
4
  0
LTYPE
  5
40F
  2
CONTINUOUS
  70
0
  3
Solid line
  72
65
  73
0
  40
0.0
  0
LTYPE
  5
410
  2
DASHDOT
 70
0
  3
Dash Dot ____ _ ____ _
 72
65
 73
4
 40
2.0
 49
1.25
 49
-0.25
 49
0.25
 49
-0.25
  0
LTYPE
  5
411
  2
DASHED
 70
0
  3
Dashed __ __ __ __ __
 72
65
 73
2
 40
0.75
 49
0.5
 49
-0.25
  0
LTYPE
  5
43B
  2
DOTTED
 70
0
  3
Dotted .  .  .  .
 72
65
 73
2
 40
0.2
 49
0.0
 49
-0.2
  0
ENDTAB
  0
TABLE
  2
STYLE
  70
4
  0
STYLE
  2
KICAD
  70
0
  40
0
  41
1
  42
1
  50
0
  71
0
  3
isocp.shx
  0
STYLE
  2
KICADB
  70
0
  40
0
  41
1
  42
1
  50
0
  71
0
  3
isocp.shx
  0
STYLE
  2
KICADI
  70
0
  40
0
  41
1
  42
1
  50
15
  71
0
  3
isocp.shx
  0
STYLE
  2
KICADBI
  70
0
  40
0
  41
1
  42
1
  50
15
  71
0
  3
isocp.shx
  0
ENDTAB
  0
TABLE
  2
LAYER
  70
1
  0
LAYER
  2
BLACK
  70
0
  62
7
  6
CONTINUOUS
  0
ENDTAB
  0
ENDSEC
  0
SECTION
  2
ENTITIES
0
LINE
8
BLACK
6
CONTINUOUS
10
-3.1843254330708661
20
6.9667399212598422
11
-3.1832600787401573
21
6.9656745669291338
0
LINE
8
BLACK
6
CONTINUOUS
10
-3.1832600787401573
20
6.9656745669291338
11
-3.1831102362204722
21
6.9649212598425194
0
LINE
8
BLACK
6
CONTINUOUS
10
-3.1831102362204722
20
6.9649212598425194
11
-3.1831102362204722
21
5.3850787401574802
0
LINE
8
BLACK
6
CONTINUOUS
10
-3.1831102362204722
20
5.3850787401574802
11
-3.1832600787401573
21
5.3843254330708659
0
LINE
8
BLACK
6
CONTINUOUS
10
-3.1832600787401573
20
5.3843254330708659
11
-3.1843254330708661
21
5.3832600787401574
0
LINE
8
BLACK
6
CONTINUOUS
10
-3.1843254330708661
20
5.3832600787401574
11
-3.18507874015748
21
5.3831102362204719
0
LINE
8
BLACK
6
CONTINUOUS
10
-3.18507874015748
20
5.3831102362204719
11
-4.3649212598425198
21
5.3831102362204719
0
LINE
8
BLACK
6
CONTINUOUS
10
-4.3649212598425198
20
5.3831102362204719
11
-4.3656745669291341
21
5.3832600787401574
0
LINE
8
BLACK
6
CONTINUOUS
10
-4.3656745669291341
20
5.3832600787401574
11
-4.3667399212598426
21
5.3843254330708659
0
LINE
8
BLACK
6
CONTINUOUS
10
-4.3667399212598426
20
5.3843254330708659
11
-4.3668897637795272
21
5.3850787401574802
0
LINE
8
BLACK
6
CONTINUOUS
10
-4.3668897637795272
20
5.3850787401574802
11
-4.3668897637795272
21
6.9649212598425194
0
LINE
8
BLACK
6
CONTINUOUS
10
-4.3668897637795272
20
6.9649212598425194
11
-4.3667399212598426
21
6.9656745669291338
0
LINE
8
BLACK
6
CONTINUOUS
10
-4.3667399212598426
20
6.9656745669291338
11
-4.3656745669291341
21
6.9667399212598422
0
LINE
8
BLACK
6
CONTINUOUS
10
-4.3656745669291341
20
6.9667399212598422
11
-4.3649212598425198
21
6.9668897637795277
0
LINE
8
BLACK
6
CONTINUOUS
10
-4.3649212598425198
20
6.9668897637795277
11
-3.18507874015748
21
6.9668897637795277
0
LINE
8
BLACK
6
CONTINUOUS
10
-3.18507874015748
20
6.9668897637795277
11
-3.1843254330708661
21
6.9667399212598422
0
LINE
8
BLACK
6
CONTINUOUS
10
-4.3629527559055115
20
6.962952755905512
11
-4.3629527559055115
21
5.3870472440944877
0
LINE
8
BLACK
6
CONTINUOUS
10
-4.3629527559055115
20
5.3870472440944877
11
-3.1870472440944879
21
5.3870472440944877
0
LINE
8
BLACK
6
CONTINUOUS
10
-3.1870472440944879
20
5.3870472440944877
11
-3.1870472440944879
21
6.962952755905512
0
LINE
8
BLACK
6
CONTINUOUS
10
-3.1870472440944879
20
6.962952755905512
11
-4.3629527559055115
21
6.962952755905512
0
CIRCLE
8
BLACK
10
-3.3249999999999997
20
6.1699999999999999
40
0.0068897637795276
0
CIRCLE
8
BLACK
10
-3.3249999999999997
20
6.2699999999999996
40
0.0068897637795276
0
CIRCLE
8
BLACK
10
-3.3249999999999997
20
6.3700000000000001
40
0.0068897637795276
0
CIRCLE
8
BLACK
10
-3.4249999999999998
20
6.3700000000000001
40
0.0068897637795276
0
CIRCLE
8
BLACK
10
-3.4249999999999998
20
6.2699999999999996
40
0.0068897637795276
0
CIRCLE
8
BLACK
10
-3.4249999999999998
20
6.1699999999999999
40
0.0068897637795276
0
CIRCLE
8
BLACK
10
-3.3249999999999997
20
5.7999999999999998
40
0.0068897637795276
0
CIRCLE
8
BLACK
10
-3.3249999999999997
20
5.8999999999999995
40
0.0068897637795276
0
CIRCLE
8
BLACK
10
-3.3249999999999997
20
6.
40
0.0068897637795276
0
CIRCLE
8
BLACK
10
-3.4249999999999998
20
6.
40
0.0068897637795276
0
CIRCLE
8
BLACK
10
-3.4249999999999998
20
5.8999999999999995
40
0.0068897637795276
0
CIRCLE
8
BLACK
10
-3.4249999999999998
20
5.7999999999999998
40
0.0068897637795276
0
CIRCLE
8
BLACK
10
-4.1200000000000001
20
5.8849999999999998
40
0.0068897637795276
0
CIRCLE
8
BLACK
10
-4.1200000000000001
20
5.9849999999999994
40
0.0068897637795276
0
CIRCLE
8
BLACK
10
-4.1200000000000001
20
6.085
40
0.0068897637795276
0
CIRCLE
8
BLACK
10
-4.1200000000000001
20
6.1849999999999996
40
0.0068897637795276
0
CIRCLE
8
BLACK
10
-4.1200000000000001
20
6.2850000000000001
40
0.0068897637795276
0
CIRCLE
8
BLACK
10
-4.1200000000000001
20
6.3849999999999998
40
0.0068897637795276
0
CIRCLE
8
BLACK
10
-4.1200000000000001
20
6.4849999999999994
40
0.0068897637795276
0
CIRCLE
8
BLACK
10
-4.2199999999999998
20
6.4849999999999994
40
0.0068897637795276
0
CIRCLE
8
BLACK
10
-4.2199999999999998
20
6.3849999999999998
40
0.0068897637795276
0
CIRCLE
8
BLACK
10
-4.2199999999999998
20
6.2850000000000001
40
0.0068897637795276
0
CIRCLE
8
BLACK
10
-4.2199999999999998
20
6.1849999999999996
40
0.0068897637795276
0
CIRCLE
8
BLACK
10
-4.2199999999999998
20
6.085
40
0.0068897637795276
0
CIRCLE
8
BLACK
10
-4.2199999999999998
20
5.9849999999999994
40
0.0068897637795276
0
CIRCLE
8
BLACK
10
-4.2199999999999998
20
5.8849999999999998
40
0.0068897637795276
0
CIRCLE
8
BLACK
10
-3.5749999999999997
20
6.8300000000000001
40
0.0068897637795276
0
CIRCLE
8
BLACK
10
-3.6749999999999998
20
6.8300000000000001
40
0.0068897637795276
0
CIRCLE
8
BLACK
10
-3.7749999999999999
20
6.8300000000000001
40
0.0068897637795276
0
CIRCLE
8
BLACK
10
-3.875
20
6.8300000000000001
40
0.0068897637795276
0
CIRCLE
8
BLACK
10
-3.9750000000000001
20
6.8300000000000001
40
0.0068897637795276
0
CIRCLE
8
BLACK
10
-3.9750000000000001
20
6.7299999999999995
40
0.0068897637795276
0
CIRCLE
8
BLACK
10
-3.875
20
6.7299999999999995
40
0.0068897637795276
0
CIRCLE
8
BLACK
10
-3.7749999999999999
20
6.7299999999999995
40
0.0068897637795276
0
CIRCLE
8
BLACK
10
-3.6749999999999998
20
6.7299999999999995
40
0.0068897637795276
0
CIRCLE
8
BLACK
10
-3.5749999999999997
20
6.7299999999999995
40
0.0068897637795276
0
CIRCLE
8
BLACK
10
-3.375
20
5.5750000000000002
40
0.0068897637795276
0
CIRCLE
8
BLACK
10
-4.1749999999999998
20
6.7749999999999995
40
0.0068897637795276
0
CIRCLE
8
BLACK
10
-4.1749999999999998
20
5.5750000000000002
40
0.0068897637795276
0
CIRCLE
8
BLACK
10
-3.375
20
6.7749999999999995
40
0.0068897637795276
0
CIRCLE
8
BLACK
10
-3.7149999999999999
20
6.4749999999999996
40
0.0068897637795276
0
CIRCLE
8
BLACK
10
-3.6149999999999998
20
6.4749999999999996
40
0.0068897637795276
0
CIRCLE
8
BLACK
10
-3.8799999999999999
20
5.6299999999999999
40
0.0068897637795276
0
CIRCLE
8
BLACK
10
-3.8799999999999999
20
5.5300000000000002
40
0.0068897637795276
0
CIRCLE
8
BLACK
10
-3.7799999999999998
20
5.5300000000000002
40
0.0068897637795276
0
CIRCLE
8
BLACK
10
-3.7799999999999998
20
5.6299999999999999
40
0.0068897637795276
  0
ENDSEC
  0
EOF
