  0
SECTION
  2
HEADER
  9
$ANGBASE
  50
0.0
  9
$ANGDIR
  70
1
  9
$MEASUREMENT
  70
0
  0
ENDSEC
  0
SECTION
  2
TABLES
  0
TABLE
  2
LTYPE
  70
4
  0
LTYPE
  5
40F
  2
CONTINUOUS
  70
0
  3
Solid line
  72
65
  73
0
  40
0.0
  0
LTYPE
  5
410
  2
DASHDOT
 70
0
  3
Dash Dot ____ _ ____ _
 72
65
 73
4
 40
2.0
 49
1.25
 49
-0.25
 49
0.25
 49
-0.25
  0
LTYPE
  5
411
  2
DASHED
 70
0
  3
Dashed __ __ __ __ __
 72
65
 73
2
 40
0.75
 49
0.5
 49
-0.25
  0
LTYPE
  5
43B
  2
DOTTED
 70
0
  3
Dotted .  .  .  .
 72
65
 73
2
 40
0.2
 49
0.0
 49
-0.2
  0
ENDTAB
  0
TABLE
  2
STYLE
  70
4
  0
STYLE
  2
KICAD
  70
0
  40
0
  41
1
  42
1
  50
0
  71
0
  3
isocp.shx
  0
STYLE
  2
KICADB
  70
0
  40
0
  41
1
  42
1
  50
0
  71
0
  3
isocp.shx
  0
STYLE
  2
KICADI
  70
0
  40
0
  41
1
  42
1
  50
15
  71
0
  3
isocp.shx
  0
STYLE
  2
KICADBI
  70
0
  40
0
  41
1
  42
1
  50
15
  71
0
  3
isocp.shx
  0
ENDTAB
  0
TABLE
  2
LAYER
  70
1
  0
LAYER
  2
BLACK
  70
0
  62
7
  6
CONTINUOUS
  0
ENDTAB
  0
ENDSEC
  0
SECTION
  2
ENTITIES
0
LINE
8
BLACK
6
CONTINUOUS
10
-4.1552157874015743
20
5.691441456692913
11
-4.1423028740157477
21
5.6884941732283467
0
LINE
8
BLACK
6
CONTINUOUS
10
-4.1423028740157477
20
5.6884941732283467
11
-4.1298011811023621
21
5.6841196456692913
0
LINE
8
BLACK
6
CONTINUOUS
10
-4.1298011811023621
20
5.6841196456692913
11
-4.1178678346456694
21
5.6783728346456694
0
LINE
8
BLACK
6
CONTINUOUS
10
-4.1178678346456694
20
5.6783728346456694
11
-4.1066529921259844
21
5.6713261023622046
0
LINE
8
BLACK
6
CONTINUOUS
10
-4.1066529921259844
20
5.6713261023622046
11
-4.0962976377952751
21
5.6630679527559051
0
LINE
8
BLACK
6
CONTINUOUS
10
-4.0962976377952751
20
5.6630679527559051
11
-4.086932047244094
21
5.653702362204724
0
LINE
8
BLACK
6
CONTINUOUS
10
-4.086932047244094
20
5.653702362204724
11
-4.0786738976377954
21
5.6433470078740156
0
LINE
8
BLACK
6
CONTINUOUS
10
-4.0786738976377954
20
5.6433470078740156
11
-4.0716271653543306
21
5.6321321653543306
0
LINE
8
BLACK
6
CONTINUOUS
10
-4.0716271653543306
20
5.6321321653543306
11
-4.0658803543307087
21
5.6201988188976379
0
LINE
8
BLACK
6
CONTINUOUS
10
-4.0658803543307087
20
5.6201988188976379
11
-4.0615058267716533
21
5.6076971259842514
0
LINE
8
BLACK
6
CONTINUOUS
10
-4.0615058267716533
20
5.6076971259842514
11
-4.0585585433070861
21
5.5947842125984248
0
LINE
8
BLACK
6
CONTINUOUS
10
-4.0585585433070861
20
5.5947842125984248
11
-4.0570755905511806
21
5.5816224803149606
0
LINE
8
BLACK
6
CONTINUOUS
10
-4.0570755905511806
20
5.5816224803149606
11
-4.0570755905511806
21
5.5683775196850389
0
LINE
8
BLACK
6
CONTINUOUS
10
-4.0570755905511806
20
5.5683775196850389
11
-4.0585585433070861
21
5.5552157874015746
0
LINE
8
BLACK
6
CONTINUOUS
10
-4.0585585433070861
20
5.5552157874015746
11
-4.0615058267716533
21
5.5423028740157481
0
LINE
8
BLACK
6
CONTINUOUS
10
-4.0615058267716533
20
5.5423028740157481
11
-4.0658803543307087
21
5.5298011811023624
0
LINE
8
BLACK
6
CONTINUOUS
10
-4.0658803543307087
20
5.5298011811023624
11
-4.0716271653543306
21
5.5178678346456689
0
LINE
8
BLACK
6
CONTINUOUS
10
-4.0716271653543306
20
5.5178678346456689
11
-4.0786738976377954
21
5.5066529921259839
0
LINE
8
BLACK
6
CONTINUOUS
10
-4.0786738976377954
20
5.5066529921259839
11
-4.086932047244094
21
5.4962976377952755
0
LINE
8
BLACK
6
CONTINUOUS
10
-4.086932047244094
20
5.4962976377952755
11
-4.0962976377952751
21
5.4869320472440943
0
LINE
8
BLACK
6
CONTINUOUS
10
-4.0962976377952751
20
5.4869320472440943
11
-4.1066529921259844
21
5.4786738976377949
0
LINE
8
BLACK
6
CONTINUOUS
10
-4.1066529921259844
20
5.4786738976377949
11
-4.1178678346456694
21
5.4716271653543309
0
LINE
8
BLACK
6
CONTINUOUS
10
-4.1178678346456694
20
5.4716271653543309
11
-4.1298011811023621
21
5.4658803543307082
0
LINE
8
BLACK
6
CONTINUOUS
10
-4.1298011811023621
20
5.4658803543307082
11
-4.1423028740157477
21
5.4615058267716536
0
LINE
8
BLACK
6
CONTINUOUS
10
-4.1423028740157477
20
5.4615058267716536
11
-4.1552157874015743
21
5.4585585433070865
0
LINE
8
BLACK
6
CONTINUOUS
10
-4.1552157874015743
20
5.4585585433070865
11
-4.1683775196850394
21
5.457075590551181
0
LINE
8
BLACK
6
CONTINUOUS
10
-4.1683775196850394
20
5.457075590551181
11
-4.1816224803149602
21
5.457075590551181
0
LINE
8
BLACK
6
CONTINUOUS
10
-4.1816224803149602
20
5.457075590551181
11
-4.1947842125984254
21
5.4585585433070865
0
LINE
8
BLACK
6
CONTINUOUS
10
-4.1947842125984254
20
5.4585585433070865
11
-4.2076971259842519
21
5.4615058267716536
0
LINE
8
BLACK
6
CONTINUOUS
10
-4.2076971259842519
20
5.4615058267716536
11
-4.2201988188976376
21
5.4658803543307082
0
LINE
8
BLACK
6
CONTINUOUS
10
-4.2201988188976376
20
5.4658803543307082
11
-4.2321321653543302
21
5.4716271653543309
0
LINE
8
BLACK
6
CONTINUOUS
10
-4.2321321653543302
20
5.4716271653543309
11
-4.2433470078740161
21
5.4786738976377949
0
LINE
8
BLACK
6
CONTINUOUS
10
-4.2433470078740161
20
5.4786738976377949
11
-4.2537023622047245
21
5.4869320472440943
0
LINE
8
BLACK
6
CONTINUOUS
10
-4.2537023622047245
20
5.4869320472440943
11
-4.2630679527559057
21
5.4962976377952755
0
LINE
8
BLACK
6
CONTINUOUS
10
-4.2630679527559057
20
5.4962976377952755
11
-4.2713261023622042
21
5.5066529921259839
0
LINE
8
BLACK
6
CONTINUOUS
10
-4.2713261023622042
20
5.5066529921259839
11
-4.2783728346456691
21
5.5178678346456689
0
LINE
8
BLACK
6
CONTINUOUS
10
-4.2783728346456691
20
5.5178678346456689
11
-4.2841196456692909
21
5.5298011811023624
0
LINE
8
BLACK
6
CONTINUOUS
10
-4.2841196456692909
20
5.5298011811023624
11
-4.2884941732283464
21
5.5423028740157481
0
LINE
8
BLACK
6
CONTINUOUS
10
-4.2884941732283464
20
5.5423028740157481
11
-4.2914414566929135
21
5.5552157874015746
0
LINE
8
BLACK
6
CONTINUOUS
10
-4.2914414566929135
20
5.5552157874015746
11
-4.292924409448819
21
5.5683775196850389
0
LINE
8
BLACK
6
CONTINUOUS
10
-4.292924409448819
20
5.5683775196850389
11
-4.292924409448819
21
5.5816224803149606
0
LINE
8
BLACK
6
CONTINUOUS
10
-4.292924409448819
20
5.5816224803149606
11
-4.2914414566929135
21
5.5947842125984248
0
LINE
8
BLACK
6
CONTINUOUS
10
-4.2914414566929135
20
5.5947842125984248
11
-4.2884941732283464
21
5.6076971259842514
0
LINE
8
BLACK
6
CONTINUOUS
10
-4.2884941732283464
20
5.6076971259842514
11
-4.2841196456692909
21
5.6201988188976379
0
LINE
8
BLACK
6
CONTINUOUS
10
-4.2841196456692909
20
5.6201988188976379
11
-4.2783728346456691
21
5.6321321653543306
0
LINE
8
BLACK
6
CONTINUOUS
10
-4.2783728346456691
20
5.6321321653543306
11
-4.2713261023622042
21
5.6433470078740156
0
LINE
8
BLACK
6
CONTINUOUS
10
-4.2713261023622042
20
5.6433470078740156
11
-4.2630679527559057
21
5.653702362204724
0
LINE
8
BLACK
6
CONTINUOUS
10
-4.2630679527559057
20
5.653702362204724
11
-4.2537023622047245
21
5.6630679527559051
0
LINE
8
BLACK
6
CONTINUOUS
10
-4.2537023622047245
20
5.6630679527559051
11
-4.2433470078740161
21
5.6713261023622046
0
LINE
8
BLACK
6
CONTINUOUS
10
-4.2433470078740161
20
5.6713261023622046
11
-4.2321321653543302
21
5.6783728346456694
0
LINE
8
BLACK
6
CONTINUOUS
10
-4.2321321653543302
20
5.6783728346456694
11
-4.2201988188976376
21
5.6841196456692913
0
LINE
8
BLACK
6
CONTINUOUS
10
-4.2201988188976376
20
5.6841196456692913
11
-4.2076971259842519
21
5.6884941732283467
0
LINE
8
BLACK
6
CONTINUOUS
10
-4.2076971259842519
20
5.6884941732283467
11
-4.1947842125984254
21
5.691441456692913
0
LINE
8
BLACK
6
CONTINUOUS
10
-4.1947842125984254
20
5.691441456692913
11
-4.1816224803149602
21
5.6929244094488185
0
LINE
8
BLACK
6
CONTINUOUS
10
-4.1816224803149602
20
5.6929244094488185
11
-4.1683775196850394
21
5.6929244094488185
0
LINE
8
BLACK
6
CONTINUOUS
10
-4.1683775196850394
20
5.6929244094488185
11
-4.1552157874015743
21
5.691441456692913
0
LINE
8
BLACK
6
CONTINUOUS
10
-3.3552157874015749
20
5.691441456692913
11
-3.3423028740157479
21
5.6884941732283467
0
LINE
8
BLACK
6
CONTINUOUS
10
-3.3423028740157479
20
5.6884941732283467
11
-3.3298011811023622
21
5.6841196456692913
0
LINE
8
BLACK
6
CONTINUOUS
10
-3.3298011811023622
20
5.6841196456692913
11
-3.3178678346456691
21
5.6783728346456694
0
LINE
8
BLACK
6
CONTINUOUS
10
-3.3178678346456691
20
5.6783728346456694
11
-3.3066529921259842
21
5.6713261023622046
0
LINE
8
BLACK
6
CONTINUOUS
10
-3.3066529921259842
20
5.6713261023622046
11
-3.2962976377952757
21
5.6630679527559051
0
LINE
8
BLACK
6
CONTINUOUS
10
-3.2962976377952757
20
5.6630679527559051
11
-3.2869320472440946
21
5.653702362204724
0
LINE
8
BLACK
6
CONTINUOUS
10
-3.2869320472440946
20
5.653702362204724
11
-3.2786738976377952
21
5.6433470078740156
0
LINE
8
BLACK
6
CONTINUOUS
10
-3.2786738976377952
20
5.6433470078740156
11
-3.2716271653543307
21
5.6321321653543306
0
LINE
8
BLACK
6
CONTINUOUS
10
-3.2716271653543307
20
5.6321321653543306
11
-3.2658803543307084
21
5.6201988188976379
0
LINE
8
BLACK
6
CONTINUOUS
10
-3.2658803543307084
20
5.6201988188976379
11
-3.2615058267716535
21
5.6076971259842514
0
LINE
8
BLACK
6
CONTINUOUS
10
-3.2615058267716535
20
5.6076971259842514
11
-3.2585585433070867
21
5.5947842125984248
0
LINE
8
BLACK
6
CONTINUOUS
10
-3.2585585433070867
20
5.5947842125984248
11
-3.2570755905511812
21
5.5816224803149606
0
LINE
8
BLACK
6
CONTINUOUS
10
-3.2570755905511812
20
5.5816224803149606
11
-3.2570755905511812
21
5.5683775196850389
0
LINE
8
BLACK
6
CONTINUOUS
10
-3.2570755905511812
20
5.5683775196850389
11
-3.2585585433070867
21
5.5552157874015746
0
LINE
8
BLACK
6
CONTINUOUS
10
-3.2585585433070867
20
5.5552157874015746
11
-3.2615058267716535
21
5.5423028740157481
0
LINE
8
BLACK
6
CONTINUOUS
10
-3.2615058267716535
20
5.5423028740157481
11
-3.2658803543307084
21
5.5298011811023624
0
LINE
8
BLACK
6
CONTINUOUS
10
-3.2658803543307084
20
5.5298011811023624
11
-3.2716271653543307
21
5.5178678346456689
0
LINE
8
BLACK
6
CONTINUOUS
10
-3.2716271653543307
20
5.5178678346456689
11
-3.2786738976377952
21
5.5066529921259839
0
LINE
8
BLACK
6
CONTINUOUS
10
-3.2786738976377952
20
5.5066529921259839
11
-3.2869320472440946
21
5.4962976377952755
0
LINE
8
BLACK
6
CONTINUOUS
10
-3.2869320472440946
20
5.4962976377952755
11
-3.2962976377952757
21
5.4869320472440943
0
LINE
8
BLACK
6
CONTINUOUS
10
-3.2962976377952757
20
5.4869320472440943
11
-3.3066529921259842
21
5.4786738976377949
0
LINE
8
BLACK
6
CONTINUOUS
10
-3.3066529921259842
20
5.4786738976377949
11
-3.3178678346456691
21
5.4716271653543309
0
LINE
8
BLACK
6
CONTINUOUS
10
-3.3178678346456691
20
5.4716271653543309
11
-3.3298011811023622
21
5.4658803543307082
0
LINE
8
BLACK
6
CONTINUOUS
10
-3.3298011811023622
20
5.4658803543307082
11
-3.3423028740157479
21
5.4615058267716536
0
LINE
8
BLACK
6
CONTINUOUS
10
-3.3423028740157479
20
5.4615058267716536
11
-3.3552157874015749
21
5.4585585433070865
0
LINE
8
BLACK
6
CONTINUOUS
10
-3.3552157874015749
20
5.4585585433070865
11
-3.3683775196850392
21
5.457075590551181
0
LINE
8
BLACK
6
CONTINUOUS
10
-3.3683775196850392
20
5.457075590551181
11
-3.3816224803149604
21
5.457075590551181
0
LINE
8
BLACK
6
CONTINUOUS
10
-3.3816224803149604
20
5.457075590551181
11
-3.3947842125984251
21
5.4585585433070865
0
LINE
8
BLACK
6
CONTINUOUS
10
-3.3947842125984251
20
5.4585585433070865
11
-3.4076971259842517
21
5.4615058267716536
0
LINE
8
BLACK
6
CONTINUOUS
10
-3.4076971259842517
20
5.4615058267716536
11
-3.4201988188976378
21
5.4658803543307082
0
LINE
8
BLACK
6
CONTINUOUS
10
-3.4201988188976378
20
5.4658803543307082
11
-3.4321321653543304
21
5.4716271653543309
0
LINE
8
BLACK
6
CONTINUOUS
10
-3.4321321653543304
20
5.4716271653543309
11
-3.4433470078740158
21
5.4786738976377949
0
LINE
8
BLACK
6
CONTINUOUS
10
-3.4433470078740158
20
5.4786738976377949
11
-3.4537023622047243
21
5.4869320472440943
0
LINE
8
BLACK
6
CONTINUOUS
10
-3.4537023622047243
20
5.4869320472440943
11
-3.4630679527559054
21
5.4962976377952755
0
LINE
8
BLACK
6
CONTINUOUS
10
-3.4630679527559054
20
5.4962976377952755
11
-3.4713261023622048
21
5.5066529921259839
0
LINE
8
BLACK
6
CONTINUOUS
10
-3.4713261023622048
20
5.5066529921259839
11
-3.4783728346456693
21
5.5178678346456689
0
LINE
8
BLACK
6
CONTINUOUS
10
-3.4783728346456693
20
5.5178678346456689
11
-3.4841196456692911
21
5.5298011811023624
0
LINE
8
BLACK
6
CONTINUOUS
10
-3.4841196456692911
20
5.5298011811023624
11
-3.4884941732283465
21
5.5423028740157481
0
LINE
8
BLACK
6
CONTINUOUS
10
-3.4884941732283465
20
5.5423028740157481
11
-3.4914414566929133
21
5.5552157874015746
0
LINE
8
BLACK
6
CONTINUOUS
10
-3.4914414566929133
20
5.5552157874015746
11
-3.4929244094488188
21
5.5683775196850389
0
LINE
8
BLACK
6
CONTINUOUS
10
-3.4929244094488188
20
5.5683775196850389
11
-3.4929244094488188
21
5.5816224803149606
0
LINE
8
BLACK
6
CONTINUOUS
10
-3.4929244094488188
20
5.5816224803149606
11
-3.4914414566929133
21
5.5947842125984248
0
LINE
8
BLACK
6
CONTINUOUS
10
-3.4914414566929133
20
5.5947842125984248
11
-3.4884941732283465
21
5.6076971259842514
0
LINE
8
BLACK
6
CONTINUOUS
10
-3.4884941732283465
20
5.6076971259842514
11
-3.4841196456692911
21
5.6201988188976379
0
LINE
8
BLACK
6
CONTINUOUS
10
-3.4841196456692911
20
5.6201988188976379
11
-3.4783728346456693
21
5.6321321653543306
0
LINE
8
BLACK
6
CONTINUOUS
10
-3.4783728346456693
20
5.6321321653543306
11
-3.4713261023622048
21
5.6433470078740156
0
LINE
8
BLACK
6
CONTINUOUS
10
-3.4713261023622048
20
5.6433470078740156
11
-3.4630679527559054
21
5.653702362204724
0
LINE
8
BLACK
6
CONTINUOUS
10
-3.4630679527559054
20
5.653702362204724
11
-3.4537023622047243
21
5.6630679527559051
0
LINE
8
BLACK
6
CONTINUOUS
10
-3.4537023622047243
20
5.6630679527559051
11
-3.4433470078740158
21
5.6713261023622046
0
LINE
8
BLACK
6
CONTINUOUS
10
-3.4433470078740158
20
5.6713261023622046
11
-3.4321321653543304
21
5.6783728346456694
0
LINE
8
BLACK
6
CONTINUOUS
10
-3.4321321653543304
20
5.6783728346456694
11
-3.4201988188976378
21
5.6841196456692913
0
LINE
8
BLACK
6
CONTINUOUS
10
-3.4201988188976378
20
5.6841196456692913
11
-3.4076971259842517
21
5.6884941732283467
0
LINE
8
BLACK
6
CONTINUOUS
10
-3.4076971259842517
20
5.6884941732283467
11
-3.3947842125984251
21
5.691441456692913
0
LINE
8
BLACK
6
CONTINUOUS
10
-3.3947842125984251
20
5.691441456692913
11
-3.3816224803149604
21
5.6929244094488185
0
LINE
8
BLACK
6
CONTINUOUS
10
-3.3816224803149604
20
5.6929244094488185
11
-3.3683775196850392
21
5.6929244094488185
0
LINE
8
BLACK
6
CONTINUOUS
10
-3.3683775196850392
20
5.6929244094488185
11
-3.3552157874015749
21
5.691441456692913
0
LINE
8
BLACK
6
CONTINUOUS
10
-3.8474999999999997
20
5.4974999999999996
11
-3.9125000000000001
21
5.4974999999999996
0
LINE
8
BLACK
6
CONTINUOUS
10
-3.9125000000000001
20
5.4974999999999996
11
-3.9125000000000001
21
5.5625
0
LINE
8
BLACK
6
CONTINUOUS
10
-3.9125000000000001
20
5.5625
11
-3.8474999999999997
21
5.5625
0
LINE
8
BLACK
6
CONTINUOUS
10
-3.8474999999999997
20
5.5625
11
-3.8474999999999997
21
5.4974999999999996
0
LINE
8
BLACK
6
CONTINUOUS
10
-3.7475000000000001
20
5.4974999999999996
11
-3.8125
21
5.4974999999999996
0
LINE
8
BLACK
6
CONTINUOUS
10
-3.8125
20
5.4974999999999996
11
-3.8125
21
5.5625
0
LINE
8
BLACK
6
CONTINUOUS
10
-3.8125
20
5.5625
11
-3.7475000000000001
21
5.5625
0
LINE
8
BLACK
6
CONTINUOUS
10
-3.7475000000000001
20
5.5625
11
-3.7475000000000001
21
5.4974999999999996
0
LINE
8
BLACK
6
CONTINUOUS
10
-3.8474999999999997
20
5.5975000000000001
11
-3.9125000000000001
21
5.5975000000000001
0
LINE
8
BLACK
6
CONTINUOUS
10
-3.9125000000000001
20
5.5975000000000001
11
-3.9125000000000001
21
5.6624999999999996
0
LINE
8
BLACK
6
CONTINUOUS
10
-3.9125000000000001
20
5.6624999999999996
11
-3.8474999999999997
21
5.6624999999999996
0
LINE
8
BLACK
6
CONTINUOUS
10
-3.8474999999999997
20
5.6624999999999996
11
-3.8474999999999997
21
5.5975000000000001
0
LINE
8
BLACK
6
CONTINUOUS
10
-3.7475000000000001
20
5.5975000000000001
11
-3.8125
21
5.5975000000000001
0
LINE
8
BLACK
6
CONTINUOUS
10
-3.8125
20
5.5975000000000001
11
-3.8125
21
5.6624999999999996
0
LINE
8
BLACK
6
CONTINUOUS
10
-3.8125
20
5.6624999999999996
11
-3.7475000000000001
21
5.6624999999999996
0
LINE
8
BLACK
6
CONTINUOUS
10
-3.7475000000000001
20
5.6624999999999996
11
-3.7475000000000001
21
5.5975000000000001
0
LINE
8
BLACK
6
CONTINUOUS
10
-3.3925000000000001
20
5.7675000000000001
11
-3.4575
21
5.7675000000000001
0
LINE
8
BLACK
6
CONTINUOUS
10
-3.4575
20
5.7675000000000001
11
-3.4575
21
5.8324999999999996
0
LINE
8
BLACK
6
CONTINUOUS
10
-3.4575
20
5.8324999999999996
11
-3.3925000000000001
21
5.8324999999999996
0
LINE
8
BLACK
6
CONTINUOUS
10
-3.3925000000000001
20
5.8324999999999996
11
-3.3925000000000001
21
5.7675000000000001
0
LINE
8
BLACK
6
CONTINUOUS
10
-3.2925
20
5.7675000000000001
11
-3.3574999999999999
21
5.7675000000000001
0
LINE
8
BLACK
6
CONTINUOUS
10
-3.3574999999999999
20
5.7675000000000001
11
-3.3574999999999999
21
5.8324999999999996
0
LINE
8
BLACK
6
CONTINUOUS
10
-3.3574999999999999
20
5.8324999999999996
11
-3.2925
21
5.8324999999999996
0
LINE
8
BLACK
6
CONTINUOUS
10
-3.2925
20
5.8324999999999996
11
-3.2925
21
5.7675000000000001
0
LINE
8
BLACK
6
CONTINUOUS
10
-4.1875
20
5.8525
11
-4.2524999999999995
21
5.8525
0
LINE
8
BLACK
6
CONTINUOUS
10
-4.2524999999999995
20
5.8525
11
-4.2524999999999995
21
5.9174999999999995
0
LINE
8
BLACK
6
CONTINUOUS
10
-4.2524999999999995
20
5.9174999999999995
11
-4.1875
21
5.9174999999999995
0
LINE
8
BLACK
6
CONTINUOUS
10
-4.1875
20
5.9174999999999995
11
-4.1875
21
5.8525
0
LINE
8
BLACK
6
CONTINUOUS
10
-4.0874999999999995
20
5.8525
11
-4.1524999999999999
21
5.8525
0
LINE
8
BLACK
6
CONTINUOUS
10
-4.1524999999999999
20
5.8525
11
-4.1524999999999999
21
5.9174999999999995
0
LINE
8
BLACK
6
CONTINUOUS
10
-4.1524999999999999
20
5.9174999999999995
11
-4.0874999999999995
21
5.9174999999999995
0
LINE
8
BLACK
6
CONTINUOUS
10
-4.0874999999999995
20
5.9174999999999995
11
-4.0874999999999995
21
5.8525
0
LINE
8
BLACK
6
CONTINUOUS
10
-3.3925000000000001
20
5.8674999999999997
11
-3.4575
21
5.8674999999999997
0
LINE
8
BLACK
6
CONTINUOUS
10
-3.4575
20
5.8674999999999997
11
-3.4575
21
5.9325000000000001
0
LINE
8
BLACK
6
CONTINUOUS
10
-3.4575
20
5.9325000000000001
11
-3.3925000000000001
21
5.9325000000000001
0
LINE
8
BLACK
6
CONTINUOUS
10
-3.3925000000000001
20
5.9325000000000001
11
-3.3925000000000001
21
5.8674999999999997
0
LINE
8
BLACK
6
CONTINUOUS
10
-3.2925
20
5.8674999999999997
11
-3.3574999999999999
21
5.8674999999999997
0
LINE
8
BLACK
6
CONTINUOUS
10
-3.3574999999999999
20
5.8674999999999997
11
-3.3574999999999999
21
5.9325000000000001
0
LINE
8
BLACK
6
CONTINUOUS
10
-3.3574999999999999
20
5.9325000000000001
11
-3.2925
21
5.9325000000000001
0
LINE
8
BLACK
6
CONTINUOUS
10
-3.2925
20
5.9325000000000001
11
-3.2925
21
5.8674999999999997
0
LINE
8
BLACK
6
CONTINUOUS
10
-4.1875
20
5.9524999999999997
11
-4.2524999999999995
21
5.9524999999999997
0
LINE
8
BLACK
6
CONTINUOUS
10
-4.2524999999999995
20
5.9524999999999997
11
-4.2524999999999995
21
6.0175000000000001
0
LINE
8
BLACK
6
CONTINUOUS
10
-4.2524999999999995
20
6.0175000000000001
11
-4.1875
21
6.0175000000000001
0
LINE
8
BLACK
6
CONTINUOUS
10
-4.1875
20
6.0175000000000001
11
-4.1875
21
5.9524999999999997
0
LINE
8
BLACK
6
CONTINUOUS
10
-4.0874999999999995
20
5.9524999999999997
11
-4.1524999999999999
21
5.9524999999999997
0
LINE
8
BLACK
6
CONTINUOUS
10
-4.1524999999999999
20
5.9524999999999997
11
-4.1524999999999999
21
6.0175000000000001
0
LINE
8
BLACK
6
CONTINUOUS
10
-4.1524999999999999
20
6.0175000000000001
11
-4.0874999999999995
21
6.0175000000000001
0
LINE
8
BLACK
6
CONTINUOUS
10
-4.0874999999999995
20
6.0175000000000001
11
-4.0874999999999995
21
5.9524999999999997
0
LINE
8
BLACK
6
CONTINUOUS
10
-3.3925000000000001
20
5.9675000000000002
11
-3.4575
21
5.9675000000000002
0
LINE
8
BLACK
6
CONTINUOUS
10
-3.4575
20
5.9675000000000002
11
-3.4575
21
6.0324999999999998
0
LINE
8
BLACK
6
CONTINUOUS
10
-3.4575
20
6.0324999999999998
11
-3.3925000000000001
21
6.0324999999999998
0
LINE
8
BLACK
6
CONTINUOUS
10
-3.3925000000000001
20
6.0324999999999998
11
-3.3925000000000001
21
5.9675000000000002
0
LINE
8
BLACK
6
CONTINUOUS
10
-3.2925
20
5.9675000000000002
11
-3.3574999999999999
21
5.9675000000000002
0
LINE
8
BLACK
6
CONTINUOUS
10
-3.3574999999999999
20
5.9675000000000002
11
-3.3574999999999999
21
6.0324999999999998
0
LINE
8
BLACK
6
CONTINUOUS
10
-3.3574999999999999
20
6.0324999999999998
11
-3.2925
21
6.0324999999999998
0
LINE
8
BLACK
6
CONTINUOUS
10
-3.2925
20
6.0324999999999998
11
-3.2925
21
5.9675000000000002
0
LINE
8
BLACK
6
CONTINUOUS
10
-4.1875
20
6.0525000000000002
11
-4.2524999999999995
21
6.0525000000000002
0
LINE
8
BLACK
6
CONTINUOUS
10
-4.2524999999999995
20
6.0525000000000002
11
-4.2524999999999995
21
6.1174999999999997
0
LINE
8
BLACK
6
CONTINUOUS
10
-4.2524999999999995
20
6.1174999999999997
11
-4.1875
21
6.1174999999999997
0
LINE
8
BLACK
6
CONTINUOUS
10
-4.1875
20
6.1174999999999997
11
-4.1875
21
6.0525000000000002
0
LINE
8
BLACK
6
CONTINUOUS
10
-4.0874999999999995
20
6.0525000000000002
11
-4.1524999999999999
21
6.0525000000000002
0
LINE
8
BLACK
6
CONTINUOUS
10
-4.1524999999999999
20
6.0525000000000002
11
-4.1524999999999999
21
6.1174999999999997
0
LINE
8
BLACK
6
CONTINUOUS
10
-4.1524999999999999
20
6.1174999999999997
11
-4.0874999999999995
21
6.1174999999999997
0
LINE
8
BLACK
6
CONTINUOUS
10
-4.0874999999999995
20
6.1174999999999997
11
-4.0874999999999995
21
6.0525000000000002
0
LINE
8
BLACK
6
CONTINUOUS
10
-3.3925000000000001
20
6.1375000000000002
11
-3.4575
21
6.1375000000000002
0
LINE
8
BLACK
6
CONTINUOUS
10
-3.4575
20
6.1375000000000002
11
-3.4575
21
6.2024999999999997
0
LINE
8
BLACK
6
CONTINUOUS
10
-3.4575
20
6.2024999999999997
11
-3.3925000000000001
21
6.2024999999999997
0
LINE
8
BLACK
6
CONTINUOUS
10
-3.3925000000000001
20
6.2024999999999997
11
-3.3925000000000001
21
6.1375000000000002
0
LINE
8
BLACK
6
CONTINUOUS
10
-3.2925
20
6.1375000000000002
11
-3.3574999999999999
21
6.1375000000000002
0
LINE
8
BLACK
6
CONTINUOUS
10
-3.3574999999999999
20
6.1375000000000002
11
-3.3574999999999999
21
6.2024999999999997
0
LINE
8
BLACK
6
CONTINUOUS
10
-3.3574999999999999
20
6.2024999999999997
11
-3.2925
21
6.2024999999999997
0
LINE
8
BLACK
6
CONTINUOUS
10
-3.2925
20
6.2024999999999997
11
-3.2925
21
6.1375000000000002
0
LINE
8
BLACK
6
CONTINUOUS
10
-4.1875
20
6.1524999999999999
11
-4.2524999999999995
21
6.1524999999999999
0
LINE
8
BLACK
6
CONTINUOUS
10
-4.2524999999999995
20
6.1524999999999999
11
-4.2524999999999995
21
6.2175000000000002
0
LINE
8
BLACK
6
CONTINUOUS
10
-4.2524999999999995
20
6.2175000000000002
11
-4.1875
21
6.2175000000000002
0
LINE
8
BLACK
6
CONTINUOUS
10
-4.1875
20
6.2175000000000002
11
-4.1875
21
6.1524999999999999
0
LINE
8
BLACK
6
CONTINUOUS
10
-4.0874999999999995
20
6.1524999999999999
11
-4.1524999999999999
21
6.1524999999999999
0
LINE
8
BLACK
6
CONTINUOUS
10
-4.1524999999999999
20
6.1524999999999999
11
-4.1524999999999999
21
6.2175000000000002
0
LINE
8
BLACK
6
CONTINUOUS
10
-4.1524999999999999
20
6.2175000000000002
11
-4.0874999999999995
21
6.2175000000000002
0
LINE
8
BLACK
6
CONTINUOUS
10
-4.0874999999999995
20
6.2175000000000002
11
-4.0874999999999995
21
6.1524999999999999
0
LINE
8
BLACK
6
CONTINUOUS
10
-3.3925000000000001
20
6.2374999999999998
11
-3.4575
21
6.2374999999999998
0
LINE
8
BLACK
6
CONTINUOUS
10
-3.4575
20
6.2374999999999998
11
-3.4575
21
6.3025000000000002
0
LINE
8
BLACK
6
CONTINUOUS
10
-3.4575
20
6.3025000000000002
11
-3.3925000000000001
21
6.3025000000000002
0
LINE
8
BLACK
6
CONTINUOUS
10
-3.3925000000000001
20
6.3025000000000002
11
-3.3925000000000001
21
6.2374999999999998
0
LINE
8
BLACK
6
CONTINUOUS
10
-3.2925
20
6.2374999999999998
11
-3.3574999999999999
21
6.2374999999999998
0
LINE
8
BLACK
6
CONTINUOUS
10
-3.3574999999999999
20
6.2374999999999998
11
-3.3574999999999999
21
6.3025000000000002
0
LINE
8
BLACK
6
CONTINUOUS
10
-3.3574999999999999
20
6.3025000000000002
11
-3.2925
21
6.3025000000000002
0
LINE
8
BLACK
6
CONTINUOUS
10
-3.2925
20
6.3025000000000002
11
-3.2925
21
6.2374999999999998
0
LINE
8
BLACK
6
CONTINUOUS
10
-4.1875
20
6.2524999999999995
11
-4.2524999999999995
21
6.2524999999999995
0
LINE
8
BLACK
6
CONTINUOUS
10
-4.2524999999999995
20
6.2524999999999995
11
-4.2524999999999995
21
6.3174999999999999
0
LINE
8
BLACK
6
CONTINUOUS
10
-4.2524999999999995
20
6.3174999999999999
11
-4.1875
21
6.3174999999999999
0
LINE
8
BLACK
6
CONTINUOUS
10
-4.1875
20
6.3174999999999999
11
-4.1875
21
6.2524999999999995
0
LINE
8
BLACK
6
CONTINUOUS
10
-4.0874999999999995
20
6.2524999999999995
11
-4.1524999999999999
21
6.2524999999999995
0
LINE
8
BLACK
6
CONTINUOUS
10
-4.1524999999999999
20
6.2524999999999995
11
-4.1524999999999999
21
6.3174999999999999
0
LINE
8
BLACK
6
CONTINUOUS
10
-4.1524999999999999
20
6.3174999999999999
11
-4.0874999999999995
21
6.3174999999999999
0
LINE
8
BLACK
6
CONTINUOUS
10
-4.0874999999999995
20
6.3174999999999999
11
-4.0874999999999995
21
6.2524999999999995
0
LINE
8
BLACK
6
CONTINUOUS
10
-3.3925000000000001
20
6.3374999999999995
11
-3.4575
21
6.3374999999999995
0
LINE
8
BLACK
6
CONTINUOUS
10
-3.4575
20
6.3374999999999995
11
-3.4575
21
6.4024999999999999
0
LINE
8
BLACK
6
CONTINUOUS
10
-3.4575
20
6.4024999999999999
11
-3.3925000000000001
21
6.4024999999999999
0
LINE
8
BLACK
6
CONTINUOUS
10
-3.3925000000000001
20
6.4024999999999999
11
-3.3925000000000001
21
6.3374999999999995
0
LINE
8
BLACK
6
CONTINUOUS
10
-3.2925
20
6.3374999999999995
11
-3.3574999999999999
21
6.3374999999999995
0
LINE
8
BLACK
6
CONTINUOUS
10
-3.3574999999999999
20
6.3374999999999995
11
-3.3574999999999999
21
6.4024999999999999
0
LINE
8
BLACK
6
CONTINUOUS
10
-3.3574999999999999
20
6.4024999999999999
11
-3.2925
21
6.4024999999999999
0
LINE
8
BLACK
6
CONTINUOUS
10
-3.2925
20
6.4024999999999999
11
-3.2925
21
6.3374999999999995
0
LINE
8
BLACK
6
CONTINUOUS
10
-4.1875
20
6.3525
11
-4.2524999999999995
21
6.3525
0
LINE
8
BLACK
6
CONTINUOUS
10
-4.2524999999999995
20
6.3525
11
-4.2524999999999995
21
6.4174999999999995
0
LINE
8
BLACK
6
CONTINUOUS
10
-4.2524999999999995
20
6.4174999999999995
11
-4.1875
21
6.4174999999999995
0
LINE
8
BLACK
6
CONTINUOUS
10
-4.1875
20
6.4174999999999995
11
-4.1875
21
6.3525
0
LINE
8
BLACK
6
CONTINUOUS
10
-4.0874999999999995
20
6.3525
11
-4.1524999999999999
21
6.3525
0
LINE
8
BLACK
6
CONTINUOUS
10
-4.1524999999999999
20
6.3525
11
-4.1524999999999999
21
6.4174999999999995
0
LINE
8
BLACK
6
CONTINUOUS
10
-4.1524999999999999
20
6.4174999999999995
11
-4.0874999999999995
21
6.4174999999999995
0
LINE
8
BLACK
6
CONTINUOUS
10
-4.0874999999999995
20
6.4174999999999995
11
-4.0874999999999995
21
6.3525
0
LINE
8
BLACK
6
CONTINUOUS
10
-3.6825000000000001
20
6.4424999999999999
11
-3.7475000000000001
21
6.4424999999999999
0
LINE
8
BLACK
6
CONTINUOUS
10
-3.7475000000000001
20
6.4424999999999999
11
-3.7475000000000001
21
6.5075000000000003
0
LINE
8
BLACK
6
CONTINUOUS
10
-3.7475000000000001
20
6.5075000000000003
11
-3.6825000000000001
21
6.5075000000000003
0
LINE
8
BLACK
6
CONTINUOUS
10
-3.6825000000000001
20
6.5075000000000003
11
-3.6825000000000001
21
6.4424999999999999
0
LINE
8
BLACK
6
CONTINUOUS
10
-3.5825
20
6.4424999999999999
11
-3.6475
21
6.4424999999999999
0
LINE
8
BLACK
6
CONTINUOUS
10
-3.6475
20
6.4424999999999999
11
-3.6475
21
6.5075000000000003
0
LINE
8
BLACK
6
CONTINUOUS
10
-3.6475
20
6.5075000000000003
11
-3.5825
21
6.5075000000000003
0
LINE
8
BLACK
6
CONTINUOUS
10
-3.5825
20
6.5075000000000003
11
-3.5825
21
6.4424999999999999
0
LINE
8
BLACK
6
CONTINUOUS
10
-4.1875
20
6.4524999999999997
11
-4.2524999999999995
21
6.4524999999999997
0
LINE
8
BLACK
6
CONTINUOUS
10
-4.2524999999999995
20
6.4524999999999997
11
-4.2524999999999995
21
6.5175000000000001
0
LINE
8
BLACK
6
CONTINUOUS
10
-4.2524999999999995
20
6.5175000000000001
11
-4.1875
21
6.5175000000000001
0
LINE
8
BLACK
6
CONTINUOUS
10
-4.1875
20
6.5175000000000001
11
-4.1875
21
6.4524999999999997
0
LINE
8
BLACK
6
CONTINUOUS
10
-4.0874999999999995
20
6.4524999999999997
11
-4.1524999999999999
21
6.4524999999999997
0
LINE
8
BLACK
6
CONTINUOUS
10
-4.1524999999999999
20
6.4524999999999997
11
-4.1524999999999999
21
6.5175000000000001
0
LINE
8
BLACK
6
CONTINUOUS
10
-4.1524999999999999
20
6.5175000000000001
11
-4.0874999999999995
21
6.5175000000000001
0
LINE
8
BLACK
6
CONTINUOUS
10
-4.0874999999999995
20
6.5175000000000001
11
-4.0874999999999995
21
6.4524999999999997
0
LINE
8
BLACK
6
CONTINUOUS
10
-4.1552157874015743
20
6.8914414566929132
11
-4.1423028740157477
21
6.888494173228346
0
LINE
8
BLACK
6
CONTINUOUS
10
-4.1423028740157477
20
6.888494173228346
11
-4.1298011811023621
21
6.8841196456692915
0
LINE
8
BLACK
6
CONTINUOUS
10
-4.1298011811023621
20
6.8841196456692915
11
-4.1178678346456694
21
6.8783728346456687
0
LINE
8
BLACK
6
CONTINUOUS
10
-4.1178678346456694
20
6.8783728346456687
11
-4.1066529921259844
21
6.8713261023622048
0
LINE
8
BLACK
6
CONTINUOUS
10
-4.1066529921259844
20
6.8713261023622048
11
-4.0962976377952751
21
6.8630679527559053
0
LINE
8
BLACK
6
CONTINUOUS
10
-4.0962976377952751
20
6.8630679527559053
11
-4.086932047244094
21
6.8537023622047242
0
LINE
8
BLACK
6
CONTINUOUS
10
-4.086932047244094
20
6.8537023622047242
11
-4.0786738976377954
21
6.8433470078740157
0
LINE
8
BLACK
6
CONTINUOUS
10
-4.0786738976377954
20
6.8433470078740157
11
-4.0716271653543306
21
6.8321321653543308
0
LINE
8
BLACK
6
CONTINUOUS
10
-4.0716271653543306
20
6.8321321653543308
11
-4.0658803543307087
21
6.8201988188976372
0
LINE
8
BLACK
6
CONTINUOUS
10
-4.0658803543307087
20
6.8201988188976372
11
-4.0615058267716533
21
6.8076971259842516
0
LINE
8
BLACK
6
CONTINUOUS
10
-4.0615058267716533
20
6.8076971259842516
11
-4.0585585433070861
21
6.794784212598425
0
LINE
8
BLACK
6
CONTINUOUS
10
-4.0585585433070861
20
6.794784212598425
11
-4.0570755905511806
21
6.7816224803149607
0
LINE
8
BLACK
6
CONTINUOUS
10
-4.0570755905511806
20
6.7816224803149607
11
-4.0570755905511806
21
6.7683775196850391
0
LINE
8
BLACK
6
CONTINUOUS
10
-4.0570755905511806
20
6.7683775196850391
11
-4.0585585433070861
21
6.7552157874015748
0
LINE
8
BLACK
6
CONTINUOUS
10
-4.0585585433070861
20
6.7552157874015748
11
-4.0615058267716533
21
6.7423028740157482
0
LINE
8
BLACK
6
CONTINUOUS
10
-4.0615058267716533
20
6.7423028740157482
11
-4.0658803543307087
21
6.7298011811023617
0
LINE
8
BLACK
6
CONTINUOUS
10
-4.0658803543307087
20
6.7298011811023617
11
-4.0716271653543306
21
6.7178678346456691
0
LINE
8
BLACK
6
CONTINUOUS
10
-4.0716271653543306
20
6.7178678346456691
11
-4.0786738976377954
21
6.7066529921259841
0
LINE
8
BLACK
6
CONTINUOUS
10
-4.0786738976377954
20
6.7066529921259841
11
-4.086932047244094
21
6.6962976377952756
0
LINE
8
BLACK
6
CONTINUOUS
10
-4.086932047244094
20
6.6962976377952756
11
-4.0962976377952751
21
6.6869320472440945
0
LINE
8
BLACK
6
CONTINUOUS
10
-4.0962976377952751
20
6.6869320472440945
11
-4.1066529921259844
21
6.6786738976377951
0
LINE
8
BLACK
6
CONTINUOUS
10
-4.1066529921259844
20
6.6786738976377951
11
-4.1178678346456694
21
6.6716271653543302
0
LINE
8
BLACK
6
CONTINUOUS
10
-4.1178678346456694
20
6.6716271653543302
11
-4.1298011811023621
21
6.6658803543307084
0
LINE
8
BLACK
6
CONTINUOUS
10
-4.1298011811023621
20
6.6658803543307084
11
-4.1423028740157477
21
6.6615058267716538
0
LINE
8
BLACK
6
CONTINUOUS
10
-4.1423028740157477
20
6.6615058267716538
11
-4.1552157874015743
21
6.6585585433070866
0
LINE
8
BLACK
6
CONTINUOUS
10
-4.1552157874015743
20
6.6585585433070866
11
-4.1683775196850394
21
6.6570755905511811
0
LINE
8
BLACK
6
CONTINUOUS
10
-4.1683775196850394
20
6.6570755905511811
11
-4.1816224803149602
21
6.6570755905511811
0
LINE
8
BLACK
6
CONTINUOUS
10
-4.1816224803149602
20
6.6570755905511811
11
-4.1947842125984254
21
6.6585585433070866
0
LINE
8
BLACK
6
CONTINUOUS
10
-4.1947842125984254
20
6.6585585433070866
11
-4.2076971259842519
21
6.6615058267716538
0
LINE
8
BLACK
6
CONTINUOUS
10
-4.2076971259842519
20
6.6615058267716538
11
-4.2201988188976376
21
6.6658803543307084
0
LINE
8
BLACK
6
CONTINUOUS
10
-4.2201988188976376
20
6.6658803543307084
11
-4.2321321653543302
21
6.6716271653543302
0
LINE
8
BLACK
6
CONTINUOUS
10
-4.2321321653543302
20
6.6716271653543302
11
-4.2433470078740161
21
6.6786738976377951
0
LINE
8
BLACK
6
CONTINUOUS
10
-4.2433470078740161
20
6.6786738976377951
11
-4.2537023622047245
21
6.6869320472440945
0
LINE
8
BLACK
6
CONTINUOUS
10
-4.2537023622047245
20
6.6869320472440945
11
-4.2630679527559057
21
6.6962976377952756
0
LINE
8
BLACK
6
CONTINUOUS
10
-4.2630679527559057
20
6.6962976377952756
11
-4.2713261023622042
21
6.7066529921259841
0
LINE
8
BLACK
6
CONTINUOUS
10
-4.2713261023622042
20
6.7066529921259841
11
-4.2783728346456691
21
6.7178678346456691
0
LINE
8
BLACK
6
CONTINUOUS
10
-4.2783728346456691
20
6.7178678346456691
11
-4.2841196456692909
21
6.7298011811023617
0
LINE
8
BLACK
6
CONTINUOUS
10
-4.2841196456692909
20
6.7298011811023617
11
-4.2884941732283464
21
6.7423028740157482
0
LINE
8
BLACK
6
CONTINUOUS
10
-4.2884941732283464
20
6.7423028740157482
11
-4.2914414566929135
21
6.7552157874015748
0
LINE
8
BLACK
6
CONTINUOUS
10
-4.2914414566929135
20
6.7552157874015748
11
-4.292924409448819
21
6.7683775196850391
0
LINE
8
BLACK
6
CONTINUOUS
10
-4.292924409448819
20
6.7683775196850391
11
-4.292924409448819
21
6.7816224803149607
0
LINE
8
BLACK
6
CONTINUOUS
10
-4.292924409448819
20
6.7816224803149607
11
-4.2914414566929135
21
6.794784212598425
0
LINE
8
BLACK
6
CONTINUOUS
10
-4.2914414566929135
20
6.794784212598425
11
-4.2884941732283464
21
6.8076971259842516
0
LINE
8
BLACK
6
CONTINUOUS
10
-4.2884941732283464
20
6.8076971259842516
11
-4.2841196456692909
21
6.8201988188976372
0
LINE
8
BLACK
6
CONTINUOUS
10
-4.2841196456692909
20
6.8201988188976372
11
-4.2783728346456691
21
6.8321321653543308
0
LINE
8
BLACK
6
CONTINUOUS
10
-4.2783728346456691
20
6.8321321653543308
11
-4.2713261023622042
21
6.8433470078740157
0
LINE
8
BLACK
6
CONTINUOUS
10
-4.2713261023622042
20
6.8433470078740157
11
-4.2630679527559057
21
6.8537023622047242
0
LINE
8
BLACK
6
CONTINUOUS
10
-4.2630679527559057
20
6.8537023622047242
11
-4.2537023622047245
21
6.8630679527559053
0
LINE
8
BLACK
6
CONTINUOUS
10
-4.2537023622047245
20
6.8630679527559053
11
-4.2433470078740161
21
6.8713261023622048
0
LINE
8
BLACK
6
CONTINUOUS
10
-4.2433470078740161
20
6.8713261023622048
11
-4.2321321653543302
21
6.8783728346456687
0
LINE
8
BLACK
6
CONTINUOUS
10
-4.2321321653543302
20
6.8783728346456687
11
-4.2201988188976376
21
6.8841196456692915
0
LINE
8
BLACK
6
CONTINUOUS
10
-4.2201988188976376
20
6.8841196456692915
11
-4.2076971259842519
21
6.888494173228346
0
LINE
8
BLACK
6
CONTINUOUS
10
-4.2076971259842519
20
6.888494173228346
11
-4.1947842125984254
21
6.8914414566929132
0
LINE
8
BLACK
6
CONTINUOUS
10
-4.1947842125984254
20
6.8914414566929132
11
-4.1816224803149602
21
6.8929244094488187
0
LINE
8
BLACK
6
CONTINUOUS
10
-4.1816224803149602
20
6.8929244094488187
11
-4.1683775196850394
21
6.8929244094488187
0
LINE
8
BLACK
6
CONTINUOUS
10
-4.1683775196850394
20
6.8929244094488187
11
-4.1552157874015743
21
6.8914414566929132
0
LINE
8
BLACK
6
CONTINUOUS
10
-3.3552157874015749
20
6.8914414566929132
11
-3.3423028740157479
21
6.888494173228346
0
LINE
8
BLACK
6
CONTINUOUS
10
-3.3423028740157479
20
6.888494173228346
11
-3.3298011811023622
21
6.8841196456692915
0
LINE
8
BLACK
6
CONTINUOUS
10
-3.3298011811023622
20
6.8841196456692915
11
-3.3178678346456691
21
6.8783728346456687
0
LINE
8
BLACK
6
CONTINUOUS
10
-3.3178678346456691
20
6.8783728346456687
11
-3.3066529921259842
21
6.8713261023622048
0
LINE
8
BLACK
6
CONTINUOUS
10
-3.3066529921259842
20
6.8713261023622048
11
-3.2962976377952757
21
6.8630679527559053
0
LINE
8
BLACK
6
CONTINUOUS
10
-3.2962976377952757
20
6.8630679527559053
11
-3.2869320472440946
21
6.8537023622047242
0
LINE
8
BLACK
6
CONTINUOUS
10
-3.2869320472440946
20
6.8537023622047242
11
-3.2786738976377952
21
6.8433470078740157
0
LINE
8
BLACK
6
CONTINUOUS
10
-3.2786738976377952
20
6.8433470078740157
11
-3.2716271653543307
21
6.8321321653543308
0
LINE
8
BLACK
6
CONTINUOUS
10
-3.2716271653543307
20
6.8321321653543308
11
-3.2658803543307084
21
6.8201988188976372
0
LINE
8
BLACK
6
CONTINUOUS
10
-3.2658803543307084
20
6.8201988188976372
11
-3.2615058267716535
21
6.8076971259842516
0
LINE
8
BLACK
6
CONTINUOUS
10
-3.2615058267716535
20
6.8076971259842516
11
-3.2585585433070867
21
6.794784212598425
0
LINE
8
BLACK
6
CONTINUOUS
10
-3.2585585433070867
20
6.794784212598425
11
-3.2570755905511812
21
6.7816224803149607
0
LINE
8
BLACK
6
CONTINUOUS
10
-3.2570755905511812
20
6.7816224803149607
11
-3.2570755905511812
21
6.7683775196850391
0
LINE
8
BLACK
6
CONTINUOUS
10
-3.2570755905511812
20
6.7683775196850391
11
-3.2585585433070867
21
6.7552157874015748
0
LINE
8
BLACK
6
CONTINUOUS
10
-3.2585585433070867
20
6.7552157874015748
11
-3.2615058267716535
21
6.7423028740157482
0
LINE
8
BLACK
6
CONTINUOUS
10
-3.2615058267716535
20
6.7423028740157482
11
-3.2658803543307084
21
6.7298011811023617
0
LINE
8
BLACK
6
CONTINUOUS
10
-3.2658803543307084
20
6.7298011811023617
11
-3.2716271653543307
21
6.7178678346456691
0
LINE
8
BLACK
6
CONTINUOUS
10
-3.2716271653543307
20
6.7178678346456691
11
-3.2786738976377952
21
6.7066529921259841
0
LINE
8
BLACK
6
CONTINUOUS
10
-3.2786738976377952
20
6.7066529921259841
11
-3.2869320472440946
21
6.6962976377952756
0
LINE
8
BLACK
6
CONTINUOUS
10
-3.2869320472440946
20
6.6962976377952756
11
-3.2962976377952757
21
6.6869320472440945
0
LINE
8
BLACK
6
CONTINUOUS
10
-3.2962976377952757
20
6.6869320472440945
11
-3.3066529921259842
21
6.6786738976377951
0
LINE
8
BLACK
6
CONTINUOUS
10
-3.3066529921259842
20
6.6786738976377951
11
-3.3178678346456691
21
6.6716271653543302
0
LINE
8
BLACK
6
CONTINUOUS
10
-3.3178678346456691
20
6.6716271653543302
11
-3.3298011811023622
21
6.6658803543307084
0
LINE
8
BLACK
6
CONTINUOUS
10
-3.3298011811023622
20
6.6658803543307084
11
-3.3423028740157479
21
6.6615058267716538
0
LINE
8
BLACK
6
CONTINUOUS
10
-3.3423028740157479
20
6.6615058267716538
11
-3.3552157874015749
21
6.6585585433070866
0
LINE
8
BLACK
6
CONTINUOUS
10
-3.3552157874015749
20
6.6585585433070866
11
-3.3683775196850392
21
6.6570755905511811
0
LINE
8
BLACK
6
CONTINUOUS
10
-3.3683775196850392
20
6.6570755905511811
11
-3.3816224803149604
21
6.6570755905511811
0
LINE
8
BLACK
6
CONTINUOUS
10
-3.3816224803149604
20
6.6570755905511811
11
-3.3947842125984251
21
6.6585585433070866
0
LINE
8
BLACK
6
CONTINUOUS
10
-3.3947842125984251
20
6.6585585433070866
11
-3.4076971259842517
21
6.6615058267716538
0
LINE
8
BLACK
6
CONTINUOUS
10
-3.4076971259842517
20
6.6615058267716538
11
-3.4201988188976378
21
6.6658803543307084
0
LINE
8
BLACK
6
CONTINUOUS
10
-3.4201988188976378
20
6.6658803543307084
11
-3.4321321653543304
21
6.6716271653543302
0
LINE
8
BLACK
6
CONTINUOUS
10
-3.4321321653543304
20
6.6716271653543302
11
-3.4433470078740158
21
6.6786738976377951
0
LINE
8
BLACK
6
CONTINUOUS
10
-3.4433470078740158
20
6.6786738976377951
11
-3.4537023622047243
21
6.6869320472440945
0
LINE
8
BLACK
6
CONTINUOUS
10
-3.4537023622047243
20
6.6869320472440945
11
-3.4630679527559054
21
6.6962976377952756
0
LINE
8
BLACK
6
CONTINUOUS
10
-3.4630679527559054
20
6.6962976377952756
11
-3.4713261023622048
21
6.7066529921259841
0
LINE
8
BLACK
6
CONTINUOUS
10
-3.4713261023622048
20
6.7066529921259841
11
-3.4783728346456693
21
6.7178678346456691
0
LINE
8
BLACK
6
CONTINUOUS
10
-3.4783728346456693
20
6.7178678346456691
11
-3.4841196456692911
21
6.7298011811023617
0
LINE
8
BLACK
6
CONTINUOUS
10
-3.4841196456692911
20
6.7298011811023617
11
-3.4884941732283465
21
6.7423028740157482
0
LINE
8
BLACK
6
CONTINUOUS
10
-3.4884941732283465
20
6.7423028740157482
11
-3.4914414566929133
21
6.7552157874015748
0
LINE
8
BLACK
6
CONTINUOUS
10
-3.4914414566929133
20
6.7552157874015748
11
-3.4929244094488188
21
6.7683775196850391
0
LINE
8
BLACK
6
CONTINUOUS
10
-3.4929244094488188
20
6.7683775196850391
11
-3.4929244094488188
21
6.7816224803149607
0
LINE
8
BLACK
6
CONTINUOUS
10
-3.4929244094488188
20
6.7816224803149607
11
-3.4914414566929133
21
6.794784212598425
0
LINE
8
BLACK
6
CONTINUOUS
10
-3.4914414566929133
20
6.794784212598425
11
-3.4884941732283465
21
6.8076971259842516
0
LINE
8
BLACK
6
CONTINUOUS
10
-3.4884941732283465
20
6.8076971259842516
11
-3.4841196456692911
21
6.8201988188976372
0
LINE
8
BLACK
6
CONTINUOUS
10
-3.4841196456692911
20
6.8201988188976372
11
-3.4783728346456693
21
6.8321321653543308
0
LINE
8
BLACK
6
CONTINUOUS
10
-3.4783728346456693
20
6.8321321653543308
11
-3.4713261023622048
21
6.8433470078740157
0
LINE
8
BLACK
6
CONTINUOUS
10
-3.4713261023622048
20
6.8433470078740157
11
-3.4630679527559054
21
6.8537023622047242
0
LINE
8
BLACK
6
CONTINUOUS
10
-3.4630679527559054
20
6.8537023622047242
11
-3.4537023622047243
21
6.8630679527559053
0
LINE
8
BLACK
6
CONTINUOUS
10
-3.4537023622047243
20
6.8630679527559053
11
-3.4433470078740158
21
6.8713261023622048
0
LINE
8
BLACK
6
CONTINUOUS
10
-3.4433470078740158
20
6.8713261023622048
11
-3.4321321653543304
21
6.8783728346456687
0
LINE
8
BLACK
6
CONTINUOUS
10
-3.4321321653543304
20
6.8783728346456687
11
-3.4201988188976378
21
6.8841196456692915
0
LINE
8
BLACK
6
CONTINUOUS
10
-3.4201988188976378
20
6.8841196456692915
11
-3.4076971259842517
21
6.888494173228346
0
LINE
8
BLACK
6
CONTINUOUS
10
-3.4076971259842517
20
6.888494173228346
11
-3.3947842125984251
21
6.8914414566929132
0
LINE
8
BLACK
6
CONTINUOUS
10
-3.3947842125984251
20
6.8914414566929132
11
-3.3816224803149604
21
6.8929244094488187
0
LINE
8
BLACK
6
CONTINUOUS
10
-3.3816224803149604
20
6.8929244094488187
11
-3.3683775196850392
21
6.8929244094488187
0
LINE
8
BLACK
6
CONTINUOUS
10
-3.3683775196850392
20
6.8929244094488187
11
-3.3552157874015749
21
6.8914414566929132
0
LINE
8
BLACK
6
CONTINUOUS
10
-3.9424999999999999
20
6.6974999999999998
11
-4.0075000000000003
21
6.6974999999999998
0
LINE
8
BLACK
6
CONTINUOUS
10
-4.0075000000000003
20
6.6974999999999998
11
-4.0075000000000003
21
6.7625000000000002
0
LINE
8
BLACK
6
CONTINUOUS
10
-4.0075000000000003
20
6.7625000000000002
11
-3.9424999999999999
21
6.7625000000000002
0
LINE
8
BLACK
6
CONTINUOUS
10
-3.9424999999999999
20
6.7625000000000002
11
-3.9424999999999999
21
6.6974999999999998
0
LINE
8
BLACK
6
CONTINUOUS
10
-3.8424999999999998
20
6.6974999999999998
11
-3.9074999999999998
21
6.6974999999999998
0
LINE
8
BLACK
6
CONTINUOUS
10
-3.9074999999999998
20
6.6974999999999998
11
-3.9074999999999998
21
6.7625000000000002
0
LINE
8
BLACK
6
CONTINUOUS
10
-3.9074999999999998
20
6.7625000000000002
11
-3.8424999999999998
21
6.7625000000000002
0
LINE
8
BLACK
6
CONTINUOUS
10
-3.8424999999999998
20
6.7625000000000002
11
-3.8424999999999998
21
6.6974999999999998
0
LINE
8
BLACK
6
CONTINUOUS
10
-3.7424999999999997
20
6.6974999999999998
11
-3.8075000000000001
21
6.6974999999999998
0
LINE
8
BLACK
6
CONTINUOUS
10
-3.8075000000000001
20
6.6974999999999998
11
-3.8075000000000001
21
6.7625000000000002
0
LINE
8
BLACK
6
CONTINUOUS
10
-3.8075000000000001
20
6.7625000000000002
11
-3.7424999999999997
21
6.7625000000000002
0
LINE
8
BLACK
6
CONTINUOUS
10
-3.7424999999999997
20
6.7625000000000002
11
-3.7424999999999997
21
6.6974999999999998
0
LINE
8
BLACK
6
CONTINUOUS
10
-3.6425000000000001
20
6.6974999999999998
11
-3.7075
21
6.6974999999999998
0
LINE
8
BLACK
6
CONTINUOUS
10
-3.7075
20
6.6974999999999998
11
-3.7075
21
6.7625000000000002
0
LINE
8
BLACK
6
CONTINUOUS
10
-3.7075
20
6.7625000000000002
11
-3.6425000000000001
21
6.7625000000000002
0
LINE
8
BLACK
6
CONTINUOUS
10
-3.6425000000000001
20
6.7625000000000002
11
-3.6425000000000001
21
6.6974999999999998
0
LINE
8
BLACK
6
CONTINUOUS
10
-3.5425
20
6.6974999999999998
11
-3.6074999999999999
21
6.6974999999999998
0
LINE
8
BLACK
6
CONTINUOUS
10
-3.6074999999999999
20
6.6974999999999998
11
-3.6074999999999999
21
6.7625000000000002
0
LINE
8
BLACK
6
CONTINUOUS
10
-3.6074999999999999
20
6.7625000000000002
11
-3.5425
21
6.7625000000000002
0
LINE
8
BLACK
6
CONTINUOUS
10
-3.5425
20
6.7625000000000002
11
-3.5425
21
6.6974999999999998
0
LINE
8
BLACK
6
CONTINUOUS
10
-3.9424999999999999
20
6.7974999999999994
11
-4.0075000000000003
21
6.7974999999999994
0
LINE
8
BLACK
6
CONTINUOUS
10
-4.0075000000000003
20
6.7974999999999994
11
-4.0075000000000003
21
6.8624999999999998
0
LINE
8
BLACK
6
CONTINUOUS
10
-4.0075000000000003
20
6.8624999999999998
11
-3.9424999999999999
21
6.8624999999999998
0
LINE
8
BLACK
6
CONTINUOUS
10
-3.9424999999999999
20
6.8624999999999998
11
-3.9424999999999999
21
6.7974999999999994
0
LINE
8
BLACK
6
CONTINUOUS
10
-3.8424999999999998
20
6.7974999999999994
11
-3.9074999999999998
21
6.7974999999999994
0
LINE
8
BLACK
6
CONTINUOUS
10
-3.9074999999999998
20
6.7974999999999994
11
-3.9074999999999998
21
6.8624999999999998
0
LINE
8
BLACK
6
CONTINUOUS
10
-3.9074999999999998
20
6.8624999999999998
11
-3.8424999999999998
21
6.8624999999999998
0
LINE
8
BLACK
6
CONTINUOUS
10
-3.8424999999999998
20
6.8624999999999998
11
-3.8424999999999998
21
6.7974999999999994
0
LINE
8
BLACK
6
CONTINUOUS
10
-3.7424999999999997
20
6.7974999999999994
11
-3.8075000000000001
21
6.7974999999999994
0
LINE
8
BLACK
6
CONTINUOUS
10
-3.8075000000000001
20
6.7974999999999994
11
-3.8075000000000001
21
6.8624999999999998
0
LINE
8
BLACK
6
CONTINUOUS
10
-3.8075000000000001
20
6.8624999999999998
11
-3.7424999999999997
21
6.8624999999999998
0
LINE
8
BLACK
6
CONTINUOUS
10
-3.7424999999999997
20
6.8624999999999998
11
-3.7424999999999997
21
6.7974999999999994
0
LINE
8
BLACK
6
CONTINUOUS
10
-3.6425000000000001
20
6.7974999999999994
11
-3.7075
21
6.7974999999999994
0
LINE
8
BLACK
6
CONTINUOUS
10
-3.7075
20
6.7974999999999994
11
-3.7075
21
6.8624999999999998
0
LINE
8
BLACK
6
CONTINUOUS
10
-3.7075
20
6.8624999999999998
11
-3.6425000000000001
21
6.8624999999999998
0
LINE
8
BLACK
6
CONTINUOUS
10
-3.6425000000000001
20
6.8624999999999998
11
-3.6425000000000001
21
6.7974999999999994
0
LINE
8
BLACK
6
CONTINUOUS
10
-3.5425
20
6.7974999999999994
11
-3.6074999999999999
21
6.7974999999999994
0
LINE
8
BLACK
6
CONTINUOUS
10
-3.6074999999999999
20
6.7974999999999994
11
-3.6074999999999999
21
6.8624999999999998
0
LINE
8
BLACK
6
CONTINUOUS
10
-3.6074999999999999
20
6.8624999999999998
11
-3.5425
21
6.8624999999999998
0
LINE
8
BLACK
6
CONTINUOUS
10
-3.5425
20
6.8624999999999998
11
-3.5425
21
6.7974999999999994
0
CIRCLE
8
BLACK
10
-3.3249999999999997
20
6.1699999999999999
40
0.0068897637795276
0
CIRCLE
8
BLACK
10
-3.3249999999999997
20
6.2699999999999996
40
0.0068897637795276
0
CIRCLE
8
BLACK
10
-3.3249999999999997
20
6.3700000000000001
40
0.0068897637795276
0
CIRCLE
8
BLACK
10
-3.4249999999999998
20
6.3700000000000001
40
0.0068897637795276
0
CIRCLE
8
BLACK
10
-3.4249999999999998
20
6.2699999999999996
40
0.0068897637795276
0
CIRCLE
8
BLACK
10
-3.4249999999999998
20
6.1699999999999999
40
0.0068897637795276
0
CIRCLE
8
BLACK
10
-3.3249999999999997
20
5.7999999999999998
40
0.0068897637795276
0
CIRCLE
8
BLACK
10
-3.3249999999999997
20
5.8999999999999995
40
0.0068897637795276
0
CIRCLE
8
BLACK
10
-3.3249999999999997
20
6.
40
0.0068897637795276
0
CIRCLE
8
BLACK
10
-3.4249999999999998
20
6.
40
0.0068897637795276
0
CIRCLE
8
BLACK
10
-3.4249999999999998
20
5.8999999999999995
40
0.0068897637795276
0
CIRCLE
8
BLACK
10
-3.4249999999999998
20
5.7999999999999998
40
0.0068897637795276
0
CIRCLE
8
BLACK
10
-4.1200000000000001
20
5.8849999999999998
40
0.0068897637795276
0
CIRCLE
8
BLACK
10
-4.1200000000000001
20
5.9849999999999994
40
0.0068897637795276
0
CIRCLE
8
BLACK
10
-4.1200000000000001
20
6.085
40
0.0068897637795276
0
CIRCLE
8
BLACK
10
-4.1200000000000001
20
6.1849999999999996
40
0.0068897637795276
0
CIRCLE
8
BLACK
10
-4.1200000000000001
20
6.2850000000000001
40
0.0068897637795276
0
CIRCLE
8
BLACK
10
-4.1200000000000001
20
6.3849999999999998
40
0.0068897637795276
0
CIRCLE
8
BLACK
10
-4.1200000000000001
20
6.4849999999999994
40
0.0068897637795276
0
CIRCLE
8
BLACK
10
-4.2199999999999998
20
6.4849999999999994
40
0.0068897637795276
0
CIRCLE
8
BLACK
10
-4.2199999999999998
20
6.3849999999999998
40
0.0068897637795276
0
CIRCLE
8
BLACK
10
-4.2199999999999998
20
6.2850000000000001
40
0.0068897637795276
0
CIRCLE
8
BLACK
10
-4.2199999999999998
20
6.1849999999999996
40
0.0068897637795276
0
CIRCLE
8
BLACK
10
-4.2199999999999998
20
6.085
40
0.0068897637795276
0
CIRCLE
8
BLACK
10
-4.2199999999999998
20
5.9849999999999994
40
0.0068897637795276
0
CIRCLE
8
BLACK
10
-4.2199999999999998
20
5.8849999999999998
40
0.0068897637795276
0
CIRCLE
8
BLACK
10
-3.5749999999999997
20
6.8300000000000001
40
0.0068897637795276
0
CIRCLE
8
BLACK
10
-3.6749999999999998
20
6.8300000000000001
40
0.0068897637795276
0
CIRCLE
8
BLACK
10
-3.7749999999999999
20
6.8300000000000001
40
0.0068897637795276
0
CIRCLE
8
BLACK
10
-3.875
20
6.8300000000000001
40
0.0068897637795276
0
CIRCLE
8
BLACK
10
-3.9750000000000001
20
6.8300000000000001
40
0.0068897637795276
0
CIRCLE
8
BLACK
10
-3.9750000000000001
20
6.7299999999999995
40
0.0068897637795276
0
CIRCLE
8
BLACK
10
-3.875
20
6.7299999999999995
40
0.0068897637795276
0
CIRCLE
8
BLACK
10
-3.7749999999999999
20
6.7299999999999995
40
0.0068897637795276
0
CIRCLE
8
BLACK
10
-3.6749999999999998
20
6.7299999999999995
40
0.0068897637795276
0
CIRCLE
8
BLACK
10
-3.5749999999999997
20
6.7299999999999995
40
0.0068897637795276
0
CIRCLE
8
BLACK
10
-3.375
20
5.5750000000000002
40
0.0068897637795276
0
CIRCLE
8
BLACK
10
-4.1749999999999998
20
6.7749999999999995
40
0.0068897637795276
0
CIRCLE
8
BLACK
10
-4.1749999999999998
20
5.5750000000000002
40
0.0068897637795276
0
CIRCLE
8
BLACK
10
-3.375
20
6.7749999999999995
40
0.0068897637795276
0
CIRCLE
8
BLACK
10
-3.7149999999999999
20
6.4749999999999996
40
0.0068897637795276
0
CIRCLE
8
BLACK
10
-3.6149999999999998
20
6.4749999999999996
40
0.0068897637795276
0
CIRCLE
8
BLACK
10
-3.8799999999999999
20
5.6299999999999999
40
0.0068897637795276
0
CIRCLE
8
BLACK
10
-3.8799999999999999
20
5.5300000000000002
40
0.0068897637795276
0
CIRCLE
8
BLACK
10
-3.7799999999999998
20
5.5300000000000002
40
0.0068897637795276
0
CIRCLE
8
BLACK
10
-3.7799999999999998
20
5.6299999999999999
40
0.0068897637795276
0
CIRCLE
8
WHITE
10
-3.3249999999999997
20
6.1699999999999999
40
0.0068897637795276
0
CIRCLE
8
WHITE
10
-3.3249999999999997
20
6.2699999999999996
40
0.0068897637795276
0
CIRCLE
8
WHITE
10
-3.3249999999999997
20
6.3700000000000001
40
0.0068897637795276
0
CIRCLE
8
WHITE
10
-3.4249999999999998
20
6.3700000000000001
40
0.0068897637795276
0
CIRCLE
8
WHITE
10
-3.4249999999999998
20
6.2699999999999996
40
0.0068897637795276
0
CIRCLE
8
WHITE
10
-3.4249999999999998
20
6.1699999999999999
40
0.0068897637795276
0
CIRCLE
8
WHITE
10
-3.3249999999999997
20
5.7999999999999998
40
0.0068897637795276
0
CIRCLE
8
WHITE
10
-3.3249999999999997
20
5.8999999999999995
40
0.0068897637795276
0
CIRCLE
8
WHITE
10
-3.3249999999999997
20
6.
40
0.0068897637795276
0
CIRCLE
8
WHITE
10
-3.4249999999999998
20
6.
40
0.0068897637795276
0
CIRCLE
8
WHITE
10
-3.4249999999999998
20
5.8999999999999995
40
0.0068897637795276
0
CIRCLE
8
WHITE
10
-3.4249999999999998
20
5.7999999999999998
40
0.0068897637795276
0
CIRCLE
8
WHITE
10
-4.1200000000000001
20
5.8849999999999998
40
0.0068897637795276
0
CIRCLE
8
WHITE
10
-4.1200000000000001
20
5.9849999999999994
40
0.0068897637795276
0
CIRCLE
8
WHITE
10
-4.1200000000000001
20
6.085
40
0.0068897637795276
0
CIRCLE
8
WHITE
10
-4.1200000000000001
20
6.1849999999999996
40
0.0068897637795276
0
CIRCLE
8
WHITE
10
-4.1200000000000001
20
6.2850000000000001
40
0.0068897637795276
0
CIRCLE
8
WHITE
10
-4.1200000000000001
20
6.3849999999999998
40
0.0068897637795276
0
CIRCLE
8
WHITE
10
-4.1200000000000001
20
6.4849999999999994
40
0.0068897637795276
0
CIRCLE
8
WHITE
10
-4.2199999999999998
20
6.4849999999999994
40
0.0068897637795276
0
CIRCLE
8
WHITE
10
-4.2199999999999998
20
6.3849999999999998
40
0.0068897637795276
0
CIRCLE
8
WHITE
10
-4.2199999999999998
20
6.2850000000000001
40
0.0068897637795276
0
CIRCLE
8
WHITE
10
-4.2199999999999998
20
6.1849999999999996
40
0.0068897637795276
0
CIRCLE
8
WHITE
10
-4.2199999999999998
20
6.085
40
0.0068897637795276
0
CIRCLE
8
WHITE
10
-4.2199999999999998
20
5.9849999999999994
40
0.0068897637795276
0
CIRCLE
8
WHITE
10
-4.2199999999999998
20
5.8849999999999998
40
0.0068897637795276
0
CIRCLE
8
WHITE
10
-3.5749999999999997
20
6.8300000000000001
40
0.0068897637795276
0
CIRCLE
8
WHITE
10
-3.6749999999999998
20
6.8300000000000001
40
0.0068897637795276
0
CIRCLE
8
WHITE
10
-3.7749999999999999
20
6.8300000000000001
40
0.0068897637795276
0
CIRCLE
8
WHITE
10
-3.875
20
6.8300000000000001
40
0.0068897637795276
0
CIRCLE
8
WHITE
10
-3.9750000000000001
20
6.8300000000000001
40
0.0068897637795276
0
CIRCLE
8
WHITE
10
-3.9750000000000001
20
6.7299999999999995
40
0.0068897637795276
0
CIRCLE
8
WHITE
10
-3.875
20
6.7299999999999995
40
0.0068897637795276
0
CIRCLE
8
WHITE
10
-3.7749999999999999
20
6.7299999999999995
40
0.0068897637795276
0
CIRCLE
8
WHITE
10
-3.6749999999999998
20
6.7299999999999995
40
0.0068897637795276
0
CIRCLE
8
WHITE
10
-3.5749999999999997
20
6.7299999999999995
40
0.0068897637795276
0
CIRCLE
8
WHITE
10
-3.375
20
5.5750000000000002
40
0.0068897637795276
0
CIRCLE
8
WHITE
10
-4.1749999999999998
20
6.7749999999999995
40
0.0068897637795276
0
CIRCLE
8
WHITE
10
-4.1749999999999998
20
5.5750000000000002
40
0.0068897637795276
0
CIRCLE
8
WHITE
10
-3.375
20
6.7749999999999995
40
0.0068897637795276
0
CIRCLE
8
WHITE
10
-3.7149999999999999
20
6.4749999999999996
40
0.0068897637795276
0
CIRCLE
8
WHITE
10
-3.6149999999999998
20
6.4749999999999996
40
0.0068897637795276
0
CIRCLE
8
WHITE
10
-3.8799999999999999
20
5.6299999999999999
40
0.0068897637795276
0
CIRCLE
8
WHITE
10
-3.8799999999999999
20
5.5300000000000002
40
0.0068897637795276
0
CIRCLE
8
WHITE
10
-3.7799999999999998
20
5.5300000000000002
40
0.0068897637795276
0
CIRCLE
8
WHITE
10
-3.7799999999999998
20
5.6299999999999999
40
0.0068897637795276
  0
ENDSEC
  0
EOF
