  0
SECTION
  2
HEADER
  9
$ANGBASE
  50
0.0
  9
$ANGDIR
  70
1
  9
$MEASUREMENT
  70
0
  0
ENDSEC
  0
SECTION
  2
TABLES
  0
TABLE
  2
LTYPE
  70
4
  0
LTYPE
  5
40F
  2
CONTINUOUS
  70
0
  3
Solid line
  72
65
  73
0
  40
0.0
  0
LTYPE
  5
410
  2
DASHDOT
 70
0
  3
Dash Dot ____ _ ____ _
 72
65
 73
4
 40
2.0
 49
1.25
 49
-0.25
 49
0.25
 49
-0.25
  0
LTYPE
  5
411
  2
DASHED
 70
0
  3
Dashed __ __ __ __ __
 72
65
 73
2
 40
0.75
 49
0.5
 49
-0.25
  0
LTYPE
  5
43B
  2
DOTTED
 70
0
  3
Dotted .  .  .  .
 72
65
 73
2
 40
0.2
 49
0.0
 49
-0.2
  0
ENDTAB
  0
TABLE
  2
STYLE
  70
4
  0
STYLE
  2
KICAD
  70
0
  40
0
  41
1
  42
1
  50
0
  71
0
  3
isocp.shx
  0
STYLE
  2
KICADB
  70
0
  40
0
  41
1
  42
1
  50
0
  71
0
  3
isocp.shx
  0
STYLE
  2
KICADI
  70
0
  40
0
  41
1
  42
1
  50
15
  71
0
  3
isocp.shx
  0
STYLE
  2
KICADBI
  70
0
  40
0
  41
1
  42
1
  50
15
  71
0
  3
isocp.shx
  0
ENDTAB
  0
TABLE
  2
LAYER
  70
1
  0
LAYER
  2
BLACK
  70
0
  62
7
  6
CONTINUOUS
  0
ENDTAB
  0
ENDSEC
  0
SECTION
  2
ENTITIES
0
LINE
8
BLACK
6
CONTINUOUS
10
-3.8474999999999997
20
5.5975000000000001
11
-3.9125000000000001
21
5.5975000000000001
0
LINE
8
BLACK
6
CONTINUOUS
10
-3.9125000000000001
20
5.5975000000000001
11
-3.9125000000000001
21
5.6624999999999996
0
LINE
8
BLACK
6
CONTINUOUS
10
-3.9125000000000001
20
5.6624999999999996
11
-3.8474999999999997
21
5.6624999999999996
0
LINE
8
BLACK
6
CONTINUOUS
10
-3.8474999999999997
20
5.6624999999999996
11
-3.8474999999999997
21
5.5975000000000001
0
LINE
8
BLACK
6
CONTINUOUS
10
-3.7475000000000001
20
5.5975000000000001
11
-3.8125
21
5.5975000000000001
0
LINE
8
BLACK
6
CONTINUOUS
10
-3.8125
20
5.5975000000000001
11
-3.8125
21
5.6624999999999996
0
LINE
8
BLACK
6
CONTINUOUS
10
-3.8125
20
5.6624999999999996
11
-3.7475000000000001
21
5.6624999999999996
0
LINE
8
BLACK
6
CONTINUOUS
10
-3.7475000000000001
20
5.6624999999999996
11
-3.7475000000000001
21
5.5975000000000001
0
LINE
8
BLACK
6
CONTINUOUS
10
-3.3925000000000001
20
5.8674999999999997
11
-3.4575
21
5.8674999999999997
0
LINE
8
BLACK
6
CONTINUOUS
10
-3.4575
20
5.8674999999999997
11
-3.4575
21
5.9325000000000001
0
LINE
8
BLACK
6
CONTINUOUS
10
-3.4575
20
5.9325000000000001
11
-3.3925000000000001
21
5.9325000000000001
0
LINE
8
BLACK
6
CONTINUOUS
10
-3.3925000000000001
20
5.9325000000000001
11
-3.3925000000000001
21
5.8674999999999997
0
LINE
8
BLACK
6
CONTINUOUS
10
-3.2925
20
5.8674999999999997
11
-3.3574999999999999
21
5.8674999999999997
0
LINE
8
BLACK
6
CONTINUOUS
10
-3.3574999999999999
20
5.8674999999999997
11
-3.3574999999999999
21
5.9325000000000001
0
LINE
8
BLACK
6
CONTINUOUS
10
-3.3574999999999999
20
5.9325000000000001
11
-3.2925
21
5.9325000000000001
0
LINE
8
BLACK
6
CONTINUOUS
10
-3.2925
20
5.9325000000000001
11
-3.2925
21
5.8674999999999997
0
LINE
8
BLACK
6
CONTINUOUS
10
-4.1875
20
5.8525
11
-4.2524999999999995
21
5.8525
0
LINE
8
BLACK
6
CONTINUOUS
10
-4.2524999999999995
20
5.8525
11
-4.2524999999999995
21
5.9174999999999995
0
LINE
8
BLACK
6
CONTINUOUS
10
-4.2524999999999995
20
5.9174999999999995
11
-4.1875
21
5.9174999999999995
0
LINE
8
BLACK
6
CONTINUOUS
10
-4.1875
20
5.9174999999999995
11
-4.1875
21
5.8525
0
LINE
8
BLACK
6
CONTINUOUS
10
-4.0874999999999995
20
5.8525
11
-4.1524999999999999
21
5.8525
0
LINE
8
BLACK
6
CONTINUOUS
10
-4.1524999999999999
20
5.8525
11
-4.1524999999999999
21
5.9174999999999995
0
LINE
8
BLACK
6
CONTINUOUS
10
-4.1524999999999999
20
5.9174999999999995
11
-4.0874999999999995
21
5.9174999999999995
0
LINE
8
BLACK
6
CONTINUOUS
10
-4.0874999999999995
20
5.9174999999999995
11
-4.0874999999999995
21
5.8525
0
LINE
8
BLACK
6
CONTINUOUS
10
-4.1875
20
5.9524999999999997
11
-4.2524999999999995
21
5.9524999999999997
0
LINE
8
BLACK
6
CONTINUOUS
10
-4.2524999999999995
20
5.9524999999999997
11
-4.2524999999999995
21
6.0175000000000001
0
LINE
8
BLACK
6
CONTINUOUS
10
-4.2524999999999995
20
6.0175000000000001
11
-4.1875
21
6.0175000000000001
0
LINE
8
BLACK
6
CONTINUOUS
10
-4.1875
20
6.0175000000000001
11
-4.1875
21
5.9524999999999997
0
LINE
8
BLACK
6
CONTINUOUS
10
-4.0874999999999995
20
5.9524999999999997
11
-4.1524999999999999
21
5.9524999999999997
0
LINE
8
BLACK
6
CONTINUOUS
10
-4.1524999999999999
20
5.9524999999999997
11
-4.1524999999999999
21
6.0175000000000001
0
LINE
8
BLACK
6
CONTINUOUS
10
-4.1524999999999999
20
6.0175000000000001
11
-4.0874999999999995
21
6.0175000000000001
0
LINE
8
BLACK
6
CONTINUOUS
10
-4.0874999999999995
20
6.0175000000000001
11
-4.0874999999999995
21
5.9524999999999997
0
LINE
8
BLACK
6
CONTINUOUS
10
-4.1875
20
6.0525000000000002
11
-4.2524999999999995
21
6.0525000000000002
0
LINE
8
BLACK
6
CONTINUOUS
10
-4.2524999999999995
20
6.0525000000000002
11
-4.2524999999999995
21
6.1174999999999997
0
LINE
8
BLACK
6
CONTINUOUS
10
-4.2524999999999995
20
6.1174999999999997
11
-4.1875
21
6.1174999999999997
0
LINE
8
BLACK
6
CONTINUOUS
10
-4.1875
20
6.1174999999999997
11
-4.1875
21
6.0525000000000002
0
LINE
8
BLACK
6
CONTINUOUS
10
-4.0874999999999995
20
6.0525000000000002
11
-4.1524999999999999
21
6.0525000000000002
0
LINE
8
BLACK
6
CONTINUOUS
10
-4.1524999999999999
20
6.0525000000000002
11
-4.1524999999999999
21
6.1174999999999997
0
LINE
8
BLACK
6
CONTINUOUS
10
-4.1524999999999999
20
6.1174999999999997
11
-4.0874999999999995
21
6.1174999999999997
0
LINE
8
BLACK
6
CONTINUOUS
10
-4.0874999999999995
20
6.1174999999999997
11
-4.0874999999999995
21
6.0525000000000002
0
LINE
8
BLACK
6
CONTINUOUS
10
-4.1875
20
6.1524999999999999
11
-4.2524999999999995
21
6.1524999999999999
0
LINE
8
BLACK
6
CONTINUOUS
10
-4.2524999999999995
20
6.1524999999999999
11
-4.2524999999999995
21
6.2175000000000002
0
LINE
8
BLACK
6
CONTINUOUS
10
-4.2524999999999995
20
6.2175000000000002
11
-4.1875
21
6.2175000000000002
0
LINE
8
BLACK
6
CONTINUOUS
10
-4.1875
20
6.2175000000000002
11
-4.1875
21
6.1524999999999999
0
LINE
8
BLACK
6
CONTINUOUS
10
-4.0874999999999995
20
6.1524999999999999
11
-4.1524999999999999
21
6.1524999999999999
0
LINE
8
BLACK
6
CONTINUOUS
10
-4.1524999999999999
20
6.1524999999999999
11
-4.1524999999999999
21
6.2175000000000002
0
LINE
8
BLACK
6
CONTINUOUS
10
-4.1524999999999999
20
6.2175000000000002
11
-4.0874999999999995
21
6.2175000000000002
0
LINE
8
BLACK
6
CONTINUOUS
10
-4.0874999999999995
20
6.2175000000000002
11
-4.0874999999999995
21
6.1524999999999999
0
LINE
8
BLACK
6
CONTINUOUS
10
-4.1875
20
6.2524999999999995
11
-4.2524999999999995
21
6.2524999999999995
0
LINE
8
BLACK
6
CONTINUOUS
10
-4.2524999999999995
20
6.2524999999999995
11
-4.2524999999999995
21
6.3174999999999999
0
LINE
8
BLACK
6
CONTINUOUS
10
-4.2524999999999995
20
6.3174999999999999
11
-4.1875
21
6.3174999999999999
0
LINE
8
BLACK
6
CONTINUOUS
10
-4.1875
20
6.3174999999999999
11
-4.1875
21
6.2524999999999995
0
LINE
8
BLACK
6
CONTINUOUS
10
-4.0874999999999995
20
6.2524999999999995
11
-4.1524999999999999
21
6.2524999999999995
0
LINE
8
BLACK
6
CONTINUOUS
10
-4.1524999999999999
20
6.2524999999999995
11
-4.1524999999999999
21
6.3174999999999999
0
LINE
8
BLACK
6
CONTINUOUS
10
-4.1524999999999999
20
6.3174999999999999
11
-4.0874999999999995
21
6.3174999999999999
0
LINE
8
BLACK
6
CONTINUOUS
10
-4.0874999999999995
20
6.3174999999999999
11
-4.0874999999999995
21
6.2524999999999995
0
LINE
8
BLACK
6
CONTINUOUS
10
-4.1875
20
6.3525
11
-4.2524999999999995
21
6.3525
0
LINE
8
BLACK
6
CONTINUOUS
10
-4.2524999999999995
20
6.3525
11
-4.2524999999999995
21
6.4174999999999995
0
LINE
8
BLACK
6
CONTINUOUS
10
-4.2524999999999995
20
6.4174999999999995
11
-4.1875
21
6.4174999999999995
0
LINE
8
BLACK
6
CONTINUOUS
10
-4.1875
20
6.4174999999999995
11
-4.1875
21
6.3525
0
LINE
8
BLACK
6
CONTINUOUS
10
-4.0874999999999995
20
6.3525
11
-4.1524999999999999
21
6.3525
0
LINE
8
BLACK
6
CONTINUOUS
10
-4.1524999999999999
20
6.3525
11
-4.1524999999999999
21
6.4174999999999995
0
LINE
8
BLACK
6
CONTINUOUS
10
-4.1524999999999999
20
6.4174999999999995
11
-4.0874999999999995
21
6.4174999999999995
0
LINE
8
BLACK
6
CONTINUOUS
10
-4.0874999999999995
20
6.4174999999999995
11
-4.0874999999999995
21
6.3525
0
LINE
8
BLACK
6
CONTINUOUS
10
-3.5825
20
6.4424999999999999
11
-3.605
21
6.4424999999999999
0
LINE
8
BLACK
6
CONTINUOUS
10
-3.605
20
6.4424999999999999
11
-3.605
21
6.1691421259842523
0
LINE
8
BLACK
6
CONTINUOUS
10
-3.605
20
6.1691421259842523
11
-3.4980129133858266
21
6.0621549999999997
0
LINE
8
BLACK
6
CONTINUOUS
10
-3.4980129133858266
20
6.0621549999999997
11
-3.4972842125984251
21
6.0623502755905507
0
LINE
8
BLACK
6
CONTINUOUS
10
-3.4972842125984251
20
6.0623502755905507
11
-3.4927157874015746
21
6.0623502755905507
0
LINE
8
BLACK
6
CONTINUOUS
10
-3.4927157874015746
20
6.0623502755905507
11
-3.4883030314960628
21
6.061167874015748
0
LINE
8
BLACK
6
CONTINUOUS
10
-3.4883030314960628
20
6.061167874015748
11
-3.4843466929133857
21
6.0588837007874012
0
LINE
8
BLACK
6
CONTINUOUS
10
-3.4843466929133857
20
6.0588837007874012
11
-3.4811162992125984
21
6.0556533070866143
0
LINE
8
BLACK
6
CONTINUOUS
10
-3.4811162992125984
20
6.0556533070866143
11
-3.4788321259842521
21
6.0516969685039372
0
LINE
8
BLACK
6
CONTINUOUS
10
-3.4788321259842521
20
6.0516969685039372
11
-3.4776497244094489
21
6.0472842125984254
0
LINE
8
BLACK
6
CONTINUOUS
10
-3.4776497244094489
20
6.0472842125984254
11
-3.4776497244094489
21
6.0427157874015744
0
LINE
8
BLACK
6
CONTINUOUS
10
-3.4776497244094489
20
6.0427157874015744
11
-3.4788321259842521
21
6.0383030314960626
0
LINE
8
BLACK
6
CONTINUOUS
10
-3.4788321259842521
20
6.0383030314960626
11
-3.4811162992125984
21
6.0343466929133855
0
LINE
8
BLACK
6
CONTINUOUS
10
-3.4811162992125984
20
6.0343466929133855
11
-3.4843466929133857
21
6.0311162992125986
0
LINE
8
BLACK
6
CONTINUOUS
10
-3.4843466929133857
20
6.0311162992125986
11
-3.4883030314960628
21
6.0288321259842519
0
LINE
8
BLACK
6
CONTINUOUS
10
-3.4883030314960628
20
6.0288321259842519
11
-3.4927157874015746
21
6.0276497244094482
0
LINE
8
BLACK
6
CONTINUOUS
10
-3.4927157874015746
20
6.0276497244094482
11
-3.4972842125984251
21
6.0276497244094482
0
LINE
8
BLACK
6
CONTINUOUS
10
-3.4972842125984251
20
6.0276497244094482
11
-3.501696968503937
21
6.0288321259842519
0
LINE
8
BLACK
6
CONTINUOUS
10
-3.501696968503937
20
6.0288321259842519
11
-3.505653307086614
21
6.0311162992125986
0
LINE
8
BLACK
6
CONTINUOUS
10
-3.505653307086614
20
6.0311162992125986
11
-3.5088837007874014
21
6.0343466929133855
0
LINE
8
BLACK
6
CONTINUOUS
10
-3.5088837007874014
20
6.0343466929133855
11
-3.5111678740157481
21
6.0383030314960626
0
LINE
8
BLACK
6
CONTINUOUS
10
-3.5111678740157481
20
6.0383030314960626
11
-3.5123502755905509
21
6.0427157874015744
0
LINE
8
BLACK
6
CONTINUOUS
10
-3.5123502755905509
20
6.0427157874015744
11
-3.5123502755905509
21
6.0472842125984254
0
LINE
8
BLACK
6
CONTINUOUS
10
-3.5123502755905509
20
6.0472842125984254
11
-3.5121550393700787
21
6.0480128740157477
0
LINE
8
BLACK
6
CONTINUOUS
10
-3.5121550393700787
20
6.0480128740157477
11
-3.6220710629921258
21
6.157928937007874
0
LINE
8
BLACK
6
CONTINUOUS
10
-3.6220710629921258
20
6.157928937007874
11
-3.6233145275590553
21
6.1594440944881885
0
LINE
8
BLACK
6
CONTINUOUS
10
-3.6233145275590553
20
6.1594440944881885
11
-3.6233146850393698
21
6.1594442913385823
0
LINE
8
BLACK
6
CONTINUOUS
10
-3.6233146850393698
20
6.1594442913385823
11
-3.6248078346456691
21
6.1630490944881888
0
LINE
8
BLACK
6
CONTINUOUS
10
-3.6248078346456691
20
6.1630490944881888
11
-3.625
21
6.165
0
LINE
8
BLACK
6
CONTINUOUS
10
-3.625
20
6.165
11
-3.625
21
6.4424999999999999
0
LINE
8
BLACK
6
CONTINUOUS
10
-3.625
20
6.4424999999999999
11
-3.6475
21
6.4424999999999999
0
LINE
8
BLACK
6
CONTINUOUS
10
-3.6475
20
6.4424999999999999
11
-3.6475
21
6.5075000000000003
0
LINE
8
BLACK
6
CONTINUOUS
10
-3.6475
20
6.5075000000000003
11
-3.5825
21
6.5075000000000003
0
LINE
8
BLACK
6
CONTINUOUS
10
-3.5825
20
6.5075000000000003
11
-3.5825
21
6.4424999999999999
0
LINE
8
BLACK
6
CONTINUOUS
10
-3.6825000000000001
20
6.4424999999999999
11
-3.7475000000000001
21
6.4424999999999999
0
LINE
8
BLACK
6
CONTINUOUS
10
-3.7475000000000001
20
6.4424999999999999
11
-3.7475000000000001
21
6.5075000000000003
0
LINE
8
BLACK
6
CONTINUOUS
10
-3.7475000000000001
20
6.5075000000000003
11
-3.6825000000000001
21
6.5075000000000003
0
LINE
8
BLACK
6
CONTINUOUS
10
-3.6825000000000001
20
6.5075000000000003
11
-3.6825000000000001
21
6.4424999999999999
0
LINE
8
BLACK
6
CONTINUOUS
10
-3.3925000000000001
20
6.1375000000000002
11
-3.4575
21
6.1375000000000002
0
LINE
8
BLACK
6
CONTINUOUS
10
-3.4575
20
6.1375000000000002
11
-3.4575
21
6.2024999999999997
0
LINE
8
BLACK
6
CONTINUOUS
10
-3.4575
20
6.2024999999999997
11
-3.3925000000000001
21
6.2024999999999997
0
LINE
8
BLACK
6
CONTINUOUS
10
-3.3925000000000001
20
6.2024999999999997
11
-3.3925000000000001
21
6.1375000000000002
0
LINE
8
BLACK
6
CONTINUOUS
10
-3.2925
20
6.1375000000000002
11
-3.3574999999999999
21
6.1375000000000002
0
LINE
8
BLACK
6
CONTINUOUS
10
-3.3574999999999999
20
6.1375000000000002
11
-3.3574999999999999
21
6.2024999999999997
0
LINE
8
BLACK
6
CONTINUOUS
10
-3.3574999999999999
20
6.2024999999999997
11
-3.2925
21
6.2024999999999997
0
LINE
8
BLACK
6
CONTINUOUS
10
-3.2925
20
6.2024999999999997
11
-3.2925
21
6.1375000000000002
0
LINE
8
BLACK
6
CONTINUOUS
10
-3.3925000000000001
20
6.2374999999999998
11
-3.4575
21
6.2374999999999998
0
LINE
8
BLACK
6
CONTINUOUS
10
-3.4575
20
6.2374999999999998
11
-3.4575
21
6.3025000000000002
0
LINE
8
BLACK
6
CONTINUOUS
10
-3.4575
20
6.3025000000000002
11
-3.3925000000000001
21
6.3025000000000002
0
LINE
8
BLACK
6
CONTINUOUS
10
-3.3925000000000001
20
6.3025000000000002
11
-3.3925000000000001
21
6.2374999999999998
0
LINE
8
BLACK
6
CONTINUOUS
10
-3.2925
20
6.2374999999999998
11
-3.3574999999999999
21
6.2374999999999998
0
LINE
8
BLACK
6
CONTINUOUS
10
-3.3574999999999999
20
6.2374999999999998
11
-3.3574999999999999
21
6.3025000000000002
0
LINE
8
BLACK
6
CONTINUOUS
10
-3.3574999999999999
20
6.3025000000000002
11
-3.2925
21
6.3025000000000002
0
LINE
8
BLACK
6
CONTINUOUS
10
-3.2925
20
6.3025000000000002
11
-3.2925
21
6.2374999999999998
0
LINE
8
BLACK
6
CONTINUOUS
10
-3.3925000000000001
20
6.3374999999999995
11
-3.4575
21
6.3374999999999995
0
LINE
8
BLACK
6
CONTINUOUS
10
-3.4575
20
6.3374999999999995
11
-3.4575
21
6.4024999999999999
0
LINE
8
BLACK
6
CONTINUOUS
10
-3.4575
20
6.4024999999999999
11
-3.3925000000000001
21
6.4024999999999999
0
LINE
8
BLACK
6
CONTINUOUS
10
-3.3925000000000001
20
6.4024999999999999
11
-3.3925000000000001
21
6.3374999999999995
0
LINE
8
BLACK
6
CONTINUOUS
10
-3.2925
20
6.3374999999999995
11
-3.3574999999999999
21
6.3374999999999995
0
LINE
8
BLACK
6
CONTINUOUS
10
-3.3574999999999999
20
6.3374999999999995
11
-3.3574999999999999
21
6.4024999999999999
0
LINE
8
BLACK
6
CONTINUOUS
10
-3.3574999999999999
20
6.4024999999999999
11
-3.2925
21
6.4024999999999999
0
LINE
8
BLACK
6
CONTINUOUS
10
-3.2925
20
6.4024999999999999
11
-3.2925
21
6.3374999999999995
0
LINE
8
BLACK
6
CONTINUOUS
10
-3.8424999999999998
20
6.6974999999999998
11
-3.9074999999999998
21
6.6974999999999998
0
LINE
8
BLACK
6
CONTINUOUS
10
-3.9074999999999998
20
6.6974999999999998
11
-3.9074999999999998
21
6.7625000000000002
0
LINE
8
BLACK
6
CONTINUOUS
10
-3.9074999999999998
20
6.7625000000000002
11
-3.8424999999999998
21
6.7625000000000002
0
LINE
8
BLACK
6
CONTINUOUS
10
-3.8424999999999998
20
6.7625000000000002
11
-3.8424999999999998
21
6.6974999999999998
0
LINE
8
BLACK
6
CONTINUOUS
10
-3.7424999999999997
20
6.6974999999999998
11
-3.8075000000000001
21
6.6974999999999998
0
LINE
8
BLACK
6
CONTINUOUS
10
-3.8075000000000001
20
6.6974999999999998
11
-3.8075000000000001
21
6.7625000000000002
0
LINE
8
BLACK
6
CONTINUOUS
10
-3.8075000000000001
20
6.7625000000000002
11
-3.7424999999999997
21
6.7625000000000002
0
LINE
8
BLACK
6
CONTINUOUS
10
-3.7424999999999997
20
6.7625000000000002
11
-3.7424999999999997
21
6.6974999999999998
0
LINE
8
BLACK
6
CONTINUOUS
10
-3.6425000000000001
20
6.6974999999999998
11
-3.7075
21
6.6974999999999998
0
LINE
8
BLACK
6
CONTINUOUS
10
-3.7075
20
6.6974999999999998
11
-3.7075
21
6.7625000000000002
0
LINE
8
BLACK
6
CONTINUOUS
10
-3.7075
20
6.7625000000000002
11
-3.6425000000000001
21
6.7625000000000002
0
LINE
8
BLACK
6
CONTINUOUS
10
-3.6425000000000001
20
6.7625000000000002
11
-3.6425000000000001
21
6.6974999999999998
0
LINE
8
BLACK
6
CONTINUOUS
10
-3.8424999999999998
20
6.7974999999999994
11
-3.9074999999999998
21
6.7974999999999994
0
LINE
8
BLACK
6
CONTINUOUS
10
-3.9074999999999998
20
6.7974999999999994
11
-3.9074999999999998
21
6.8624999999999998
0
LINE
8
BLACK
6
CONTINUOUS
10
-3.9074999999999998
20
6.8624999999999998
11
-3.8424999999999998
21
6.8624999999999998
0
LINE
8
BLACK
6
CONTINUOUS
10
-3.8424999999999998
20
6.8624999999999998
11
-3.8424999999999998
21
6.7974999999999994
0
LINE
8
BLACK
6
CONTINUOUS
10
-3.7424999999999997
20
6.7974999999999994
11
-3.8075000000000001
21
6.7974999999999994
0
LINE
8
BLACK
6
CONTINUOUS
10
-3.8075000000000001
20
6.7974999999999994
11
-3.8075000000000001
21
6.8624999999999998
0
LINE
8
BLACK
6
CONTINUOUS
10
-3.8075000000000001
20
6.8624999999999998
11
-3.7424999999999997
21
6.8624999999999998
0
LINE
8
BLACK
6
CONTINUOUS
10
-3.7424999999999997
20
6.8624999999999998
11
-3.7424999999999997
21
6.7974999999999994
0
LINE
8
BLACK
6
CONTINUOUS
10
-3.6425000000000001
20
6.7974999999999994
11
-3.7075
21
6.7974999999999994
0
LINE
8
BLACK
6
CONTINUOUS
10
-3.7075
20
6.7974999999999994
11
-3.7075
21
6.8624999999999998
0
LINE
8
BLACK
6
CONTINUOUS
10
-3.7075
20
6.8624999999999998
11
-3.6425000000000001
21
6.8624999999999998
0
LINE
8
BLACK
6
CONTINUOUS
10
-3.6425000000000001
20
6.8624999999999998
11
-3.6425000000000001
21
6.7974999999999994
0
LINE
8
BLACK
6
CONTINUOUS
10
-3.1893456299212599
20
6.9621455905511809
11
-3.1875151968503936
21
6.960033149606299
0
LINE
8
BLACK
6
CONTINUOUS
10
-3.1875151968503936
20
6.960033149606299
11
-3.187066929133858
21
6.9579724409448813
0
LINE
8
BLACK
6
CONTINUOUS
10
-3.187066929133858
20
6.9579724409448813
11
-3.187066929133858
21
5.3920275590551183
0
LINE
8
BLACK
6
CONTINUOUS
10
-3.187066929133858
20
5.3920275590551183
11
-3.187854409448819
21
5.3893456299212597
0
LINE
8
BLACK
6
CONTINUOUS
10
-3.187854409448819
20
5.3893456299212597
11
-3.1899668503937009
21
5.3875151968503934
0
LINE
8
BLACK
6
CONTINUOUS
10
-3.1899668503937009
20
5.3875151968503934
11
-3.1920275590551181
21
5.3870669291338578
0
LINE
8
BLACK
6
CONTINUOUS
10
-3.1920275590551181
20
5.3870669291338578
11
-4.3579724409448817
21
5.3870669291338578
0
LINE
8
BLACK
6
CONTINUOUS
10
-4.3579724409448817
20
5.3870669291338578
11
-4.3606543700787403
21
5.3878544094488188
0
LINE
8
BLACK
6
CONTINUOUS
10
-4.3606543700787403
20
5.3878544094488188
11
-4.3624848031496066
21
5.3899668503937006
0
LINE
8
BLACK
6
CONTINUOUS
10
-4.3624848031496066
20
5.3899668503937006
11
-4.3629330708661413
21
5.3920275590551183
0
LINE
8
BLACK
6
CONTINUOUS
10
-4.3629330708661413
20
5.3920275590551183
11
-4.3629330708661413
21
5.66441531496063
0
LINE
8
BLACK
6
CONTINUOUS
10
-4.3629330708661413
20
5.66441531496063
11
-4.3629330708661413
21
6.4194153149606299
0
LINE
8
BLACK
6
CONTINUOUS
10
-4.3629330708661413
20
6.4194153149606299
11
-4.3629330708661413
21
6.864413267716535
0
LINE
8
BLACK
6
CONTINUOUS
10
-4.3629330708661413
20
6.864413267716535
11
-4.3629330708661413
21
6.9579724409448813
0
LINE
8
BLACK
6
CONTINUOUS
10
-4.3629330708661413
20
6.9579724409448813
11
-4.3621455905511812
21
6.96065437007874
0
LINE
8
BLACK
6
CONTINUOUS
10
-4.3621455905511812
20
6.96065437007874
11
-4.3600331496062994
21
6.9624848031496063
0
LINE
8
BLACK
6
CONTINUOUS
10
-4.3600331496062994
20
6.9624848031496063
11
-4.3579724409448817
21
6.9629330708661419
0
LINE
8
BLACK
6
CONTINUOUS
10
-4.3579724409448817
20
6.9629330708661419
11
-3.1920275590551181
21
6.9629330708661419
0
LINE
8
BLACK
6
CONTINUOUS
10
-3.1920275590551181
20
6.9629330708661419
11
-3.1893456299212599
21
6.9621455905511809
0
LINE
8
BLACK
6
CONTINUOUS
10
-3.9325000000000001
20
5.5199999999999996
11
-3.9325000000000001
21
5.4955866929133856
0
LINE
8
BLACK
6
CONTINUOUS
10
-3.9325000000000001
20
5.4955866929133856
11
-3.9322438976377954
21
5.4932049606299209
0
LINE
8
BLACK
6
CONTINUOUS
10
-3.9322438976377954
20
5.4932049606299209
11
-3.9302340551181101
21
5.487816338582677
0
LINE
8
BLACK
6
CONTINUOUS
10
-3.9302340551181101
20
5.487816338582677
11
-3.9302340551181101
21
5.4878162992125983
0
LINE
8
BLACK
6
CONTINUOUS
10
-3.9302340551181101
20
5.4878162992125983
11
-3.926787598425197
21
5.4832124015748027
0
LINE
8
BLACK
6
CONTINUOUS
10
-3.926787598425197
20
5.4832124015748027
11
-3.9221837007874014
21
5.4797659448818896
0
LINE
8
BLACK
6
CONTINUOUS
10
-3.9221837007874014
20
5.4797659448818896
11
-3.9167950393700788
21
5.4777561023622043
0
LINE
8
BLACK
6
CONTINUOUS
10
-3.9167950393700788
20
5.4777561023622043
11
-3.9144133070866141
21
5.4775
0
LINE
8
BLACK
6
CONTINUOUS
10
-3.9144133070866141
20
5.4775
11
-3.8900000000000001
21
5.4775
0
LINE
8
BLACK
6
CONTINUOUS
10
-3.8900000000000001
20
5.4775
11
-3.8900000000000001
21
5.4974999999999996
0
LINE
8
BLACK
6
CONTINUOUS
10
-3.8900000000000001
20
5.4974999999999996
11
-3.9125000000000001
21
5.4974999999999996
0
LINE
8
BLACK
6
CONTINUOUS
10
-3.9125000000000001
20
5.4974999999999996
11
-3.9125000000000001
21
5.5199999999999996
0
LINE
8
BLACK
6
CONTINUOUS
10
-3.9125000000000001
20
5.5199999999999996
11
-3.9325000000000001
21
5.5199999999999996
0
LINE
8
BLACK
6
CONTINUOUS
10
-3.8474999999999997
20
5.5199999999999996
11
-3.8474999999999997
21
5.4974999999999996
0
LINE
8
BLACK
6
CONTINUOUS
10
-3.8474999999999997
20
5.4974999999999996
11
-3.8700000000000001
21
5.4974999999999996
0
LINE
8
BLACK
6
CONTINUOUS
10
-3.8700000000000001
20
5.4974999999999996
11
-3.8700000000000001
21
5.4775
0
LINE
8
BLACK
6
CONTINUOUS
10
-3.8700000000000001
20
5.4775
11
-3.8455867322834645
21
5.4775
0
LINE
8
BLACK
6
CONTINUOUS
10
-3.8455867322834645
20
5.4775
11
-3.8432049999999998
21
5.4777561023622043
0
LINE
8
BLACK
6
CONTINUOUS
10
-3.8432049999999998
20
5.4777561023622043
11
-3.8378163779527559
21
5.4797659448818896
0
LINE
8
BLACK
6
CONTINUOUS
10
-3.8378163779527559
20
5.4797659448818896
11
-3.8378163385826771
21
5.4797659448818896
0
LINE
8
BLACK
6
CONTINUOUS
10
-3.8378163385826771
20
5.4797659448818896
11
-3.8329727952755905
21
5.4833918110236217
0
LINE
8
BLACK
6
CONTINUOUS
10
-3.8329727952755905
20
5.4833918110236217
11
-3.8303538976377953
21
5.4843686220472438
0
LINE
8
BLACK
6
CONTINUOUS
10
-3.8303538976377953
20
5.4843686220472438
11
-3.8276226377952756
21
5.4837744881889758
0
LINE
8
BLACK
6
CONTINUOUS
10
-3.8276226377952756
20
5.4837744881889758
11
-3.8270272047244092
21
5.4833918110236217
0
LINE
8
BLACK
6
CONTINUOUS
10
-3.8270272047244092
20
5.4833918110236217
11
-3.8221837007874013
21
5.4797659448818896
0
LINE
8
BLACK
6
CONTINUOUS
10
-3.8221837007874013
20
5.4797659448818896
11
-3.8167950393700787
21
5.4777561023622043
0
LINE
8
BLACK
6
CONTINUOUS
10
-3.8167950393700787
20
5.4777561023622043
11
-3.814413307086614
21
5.4775
0
LINE
8
BLACK
6
CONTINUOUS
10
-3.814413307086614
20
5.4775
11
-3.79
21
5.4775
0
LINE
8
BLACK
6
CONTINUOUS
10
-3.79
20
5.4775
11
-3.79
21
5.4974999999999996
0
LINE
8
BLACK
6
CONTINUOUS
10
-3.79
20
5.4974999999999996
11
-3.8125
21
5.4974999999999996
0
LINE
8
BLACK
6
CONTINUOUS
10
-3.8125
20
5.4974999999999996
11
-3.8125
21
5.5199999999999996
0
LINE
8
BLACK
6
CONTINUOUS
10
-3.8125
20
5.5199999999999996
11
-3.8474999999999997
21
5.5199999999999996
0
LINE
8
BLACK
6
CONTINUOUS
10
-3.7475000000000001
20
5.4974999999999996
11
-3.77
21
5.4974999999999996
0
LINE
8
BLACK
6
CONTINUOUS
10
-3.77
20
5.4974999999999996
11
-3.77
21
5.4775
0
LINE
8
BLACK
6
CONTINUOUS
10
-3.77
20
5.4775
11
-3.7455867322834644
21
5.4775
0
LINE
8
BLACK
6
CONTINUOUS
10
-3.7455867322834644
20
5.4775
11
-3.7432050000000001
21
5.4777561023622043
0
LINE
8
BLACK
6
CONTINUOUS
10
-3.7432050000000001
20
5.4777561023622043
11
-3.7378163779527558
21
5.4797659448818896
0
LINE
8
BLACK
6
CONTINUOUS
10
-3.7378163779527558
20
5.4797659448818896
11
-3.737816338582677
21
5.4797659448818896
0
LINE
8
BLACK
6
CONTINUOUS
10
-3.737816338582677
20
5.4797659448818896
11
-3.7332124409448819
21
5.4832124015748027
0
LINE
8
BLACK
6
CONTINUOUS
10
-3.7332124409448819
20
5.4832124015748027
11
-3.7297659842519684
21
5.4878162992125983
0
LINE
8
BLACK
6
CONTINUOUS
10
-3.7297659842519684
20
5.4878162992125983
11
-3.7297659842519684
21
5.487816338582677
0
LINE
8
BLACK
6
CONTINUOUS
10
-3.7297659842519684
20
5.487816338582677
11
-3.7277561417322835
21
5.4932049606299209
0
LINE
8
BLACK
6
CONTINUOUS
10
-3.7277561417322835
20
5.4932049606299209
11
-3.7275000393700788
21
5.4955866929133856
0
LINE
8
BLACK
6
CONTINUOUS
10
-3.7275000393700788
20
5.4955866929133856
11
-3.7275
21
5.4955871653543307
0
LINE
8
BLACK
6
CONTINUOUS
10
-3.7275
20
5.4955871653543307
11
-3.7275
21
5.5199999999999996
0
LINE
8
BLACK
6
CONTINUOUS
10
-3.7275
20
5.5199999999999996
11
-3.7475000000000001
21
5.5199999999999996
0
LINE
8
BLACK
6
CONTINUOUS
10
-3.7475000000000001
20
5.5199999999999996
11
-3.7475000000000001
21
5.4974999999999996
0
LINE
8
BLACK
6
CONTINUOUS
10
-3.914415157480315
20
5.6825196456692915
11
-3.9144153543307088
21
5.6825196456692915
0
LINE
8
BLACK
6
CONTINUOUS
10
-3.9144153543307088
20
5.6825196456692915
11
-3.916799094488189
21
5.6822633858267713
0
LINE
8
BLACK
6
CONTINUOUS
10
-3.916799094488189
20
5.6822633858267713
11
-3.916799409448819
21
5.6822633070866138
0
LINE
8
BLACK
6
CONTINUOUS
10
-3.916799409448819
20
5.6822633070866138
11
-3.9198671259842519
21
5.6811190551181099
0
LINE
8
BLACK
6
CONTINUOUS
10
-3.9198671259842519
20
5.6811190551181099
11
-3.9221930708661414
21
5.6802515354330705
0
LINE
8
BLACK
6
CONTINUOUS
10
-3.9221930708661414
20
5.6802515354330705
11
-3.9221931496062989
21
5.6802514960629917
0
LINE
8
BLACK
6
CONTINUOUS
10
-3.9221931496062989
20
5.6802514960629917
11
-3.9221932283464565
21
5.680251456692913
0
LINE
8
BLACK
6
CONTINUOUS
10
-3.9221932283464565
20
5.680251456692913
11
-3.9268016535433068
21
5.676801614173228
0
LINE
8
BLACK
6
CONTINUOUS
10
-3.9268016535433068
20
5.676801614173228
11
-3.9302514960629922
21
5.6721931889763777
0
LINE
8
BLACK
6
CONTINUOUS
10
-3.9302514960629922
20
5.6721931889763777
11
-3.9302515748031497
21
5.6721929921259839
0
LINE
8
BLACK
6
CONTINUOUS
10
-3.9302515748031497
20
5.6721929921259839
11
-3.932263346456693
21
5.6667993700787402
0
LINE
8
BLACK
6
CONTINUOUS
10
-3.932263346456693
20
5.6667993700787402
11
-3.9322634251968505
21
5.6667990551181102
0
LINE
8
BLACK
6
CONTINUOUS
10
-3.9322634251968505
20
5.6667990551181102
11
-3.9325196850393698
21
5.66441531496063
0
LINE
8
BLACK
6
CONTINUOUS
10
-3.9325196850393698
20
5.66441531496063
11
-3.9325196850393698
21
5.595584645669291
0
LINE
8
BLACK
6
CONTINUOUS
10
-3.9325196850393698
20
5.595584645669291
11
-3.9322634251968505
21
5.5932009055118108
0
LINE
8
BLACK
6
CONTINUOUS
10
-3.9322634251968505
20
5.5932009055118108
11
-3.932263346456693
21
5.5932005905511808
0
LINE
8
BLACK
6
CONTINUOUS
10
-3.932263346456693
20
5.5932005905511808
11
-3.9302515748031497
21
5.5878069685039371
0
LINE
8
BLACK
6
CONTINUOUS
10
-3.9302515748031497
20
5.5878069685039371
11
-3.9302514960629922
21
5.5878067716535433
0
LINE
8
BLACK
6
CONTINUOUS
10
-3.9302514960629922
20
5.5878067716535433
11
-3.9266204724409448
21
5.5829563779527556
0
LINE
8
BLACK
6
CONTINUOUS
10
-3.9266204724409448
20
5.5829563779527556
11
-3.9256436614173227
21
5.5803374803149604
0
LINE
8
BLACK
6
CONTINUOUS
10
-3.9256436614173227
20
5.5803374803149604
11
-3.9262377952755902
21
5.5776062204724406
0
LINE
8
BLACK
6
CONTINUOUS
10
-3.9262377952755902
20
5.5776062204724406
11
-3.9266204724409448
21
5.5770107874015746
0
LINE
8
BLACK
6
CONTINUOUS
10
-3.9266204724409448
20
5.5770107874015746
11
-3.9302340551181101
21
5.5721836614173226
0
LINE
8
BLACK
6
CONTINUOUS
10
-3.9302340551181101
20
5.5721836614173226
11
-3.9302340551181101
21
5.5721836220472438
0
LINE
8
BLACK
6
CONTINUOUS
10
-3.9302340551181101
20
5.5721836220472438
11
-3.9322438976377954
21
5.5667949999999999
0
LINE
8
BLACK
6
CONTINUOUS
10
-3.9322438976377954
20
5.5667949999999999
11
-3.9325000000000001
21
5.5644132677165352
0
LINE
8
BLACK
6
CONTINUOUS
10
-3.9325000000000001
20
5.5644132677165352
11
-3.9325000000000001
21
5.54
0
LINE
8
BLACK
6
CONTINUOUS
10
-3.9325000000000001
20
5.54
11
-3.9125000000000001
21
5.54
0
LINE
8
BLACK
6
CONTINUOUS
10
-3.9125000000000001
20
5.54
11
-3.9125000000000001
21
5.5625
0
LINE
8
BLACK
6
CONTINUOUS
10
-3.9125000000000001
20
5.5625
11
-3.8474999999999997
21
5.5625
0
LINE
8
BLACK
6
CONTINUOUS
10
-3.8474999999999997
20
5.5625
11
-3.8474999999999997
21
5.54
0
LINE
8
BLACK
6
CONTINUOUS
10
-3.8474999999999997
20
5.54
11
-3.8125
21
5.54
0
LINE
8
BLACK
6
CONTINUOUS
10
-3.8125
20
5.54
11
-3.8125
21
5.5625
0
LINE
8
BLACK
6
CONTINUOUS
10
-3.8125
20
5.5625
11
-3.7475000000000001
21
5.5625
0
LINE
8
BLACK
6
CONTINUOUS
10
-3.7475000000000001
20
5.5625
11
-3.7475000000000001
21
5.54
0
LINE
8
BLACK
6
CONTINUOUS
10
-3.7475000000000001
20
5.54
11
-3.7275
21
5.54
0
LINE
8
BLACK
6
CONTINUOUS
10
-3.7275
20
5.54
11
-3.7275
21
5.5644127952755902
0
LINE
8
BLACK
6
CONTINUOUS
10
-3.7275
20
5.5644127952755902
11
-3.7275000393700788
21
5.5644132677165352
0
LINE
8
BLACK
6
CONTINUOUS
10
-3.7275000393700788
20
5.5644132677165352
11
-3.7277561417322835
21
5.5667949999999999
0
LINE
8
BLACK
6
CONTINUOUS
10
-3.7277561417322835
20
5.5667949999999999
11
-3.7297659842519684
21
5.5721836220472438
0
LINE
8
BLACK
6
CONTINUOUS
10
-3.7297659842519684
20
5.5721836220472438
11
-3.7297660236220471
21
5.5721837007874013
0
LINE
8
BLACK
6
CONTINUOUS
10
-3.7297660236220471
20
5.5721837007874013
11
-3.7333795275590549
21
5.5770107086614171
0
LINE
8
BLACK
6
CONTINUOUS
10
-3.7333795275590549
20
5.5770107086614171
11
-3.7343563779527558
21
5.5796296062992123
0
LINE
8
BLACK
6
CONTINUOUS
10
-3.7343563779527558
20
5.5796296062992123
11
-3.7337622440944882
21
5.5823608661417321
0
LINE
8
BLACK
6
CONTINUOUS
10
-3.7337622440944882
20
5.5823608661417321
11
-3.7333795669291336
21
5.5829563385826768
0
LINE
8
BLACK
6
CONTINUOUS
10
-3.7333795669291336
20
5.5829563385826768
11
-3.7297485433070867
21
5.5878067716535433
0
LINE
8
BLACK
6
CONTINUOUS
10
-3.7297485433070867
20
5.5878067716535433
11
-3.7297484645669292
21
5.5878069685039371
0
LINE
8
BLACK
6
CONTINUOUS
10
-3.7297484645669292
20
5.5878069685039371
11
-3.7277366929133859
21
5.5932005905511808
0
LINE
8
BLACK
6
CONTINUOUS
10
-3.7277366929133859
20
5.5932005905511808
11
-3.7277366141732284
21
5.5932009055118108
0
LINE
8
BLACK
6
CONTINUOUS
10
-3.7277366141732284
20
5.5932009055118108
11
-3.7274803543307087
21
5.595584645669291
0
LINE
8
BLACK
6
CONTINUOUS
10
-3.7274803543307087
20
5.595584645669291
11
-3.7274803149606299
21
5.5955853149606298
0
LINE
8
BLACK
6
CONTINUOUS
10
-3.7274803149606299
20
5.5955853149606298
11
-3.7274803149606299
21
5.6644146456692912
0
LINE
8
BLACK
6
CONTINUOUS
10
-3.7274803149606299
20
5.6644146456692912
11
-3.7274803543307087
21
5.66441531496063
0
LINE
8
BLACK
6
CONTINUOUS
10
-3.7274803543307087
20
5.66441531496063
11
-3.7277366141732284
21
5.6667990551181102
0
LINE
8
BLACK
6
CONTINUOUS
10
-3.7277366141732284
20
5.6667990551181102
11
-3.7277366929133859
21
5.6667993700787402
0
LINE
8
BLACK
6
CONTINUOUS
10
-3.7277366929133859
20
5.6667993700787402
11
-3.7280133858267717
21
5.6675411417322836
0
LINE
8
BLACK
6
CONTINUOUS
10
-3.7280133858267717
20
5.6675411417322836
11
-3.7297484645669292
21
5.6721930708661414
0
LINE
8
BLACK
6
CONTINUOUS
10
-3.7297484645669292
20
5.6721930708661414
11
-3.7331983858267717
21
5.676801614173228
0
LINE
8
BLACK
6
CONTINUOUS
10
-3.7331983858267717
20
5.676801614173228
11
-3.7378069291338583
21
5.6802515354330705
0
LINE
8
BLACK
6
CONTINUOUS
10
-3.7378069291338583
20
5.6802515354330705
11
-3.7432007480314962
21
5.6822633464566925
0
LINE
8
BLACK
6
CONTINUOUS
10
-3.7432007480314962
20
5.6822633464566925
11
-3.7432008267716537
21
5.6822633464566925
0
LINE
8
BLACK
6
CONTINUOUS
10
-3.7432008267716537
20
5.6822633464566925
11
-3.7432009448818895
21
5.6822633858267713
0
LINE
8
BLACK
6
CONTINUOUS
10
-3.7432009448818895
20
5.6822633858267713
11
-3.7455846850393701
21
5.6825196456692915
0
LINE
8
BLACK
6
CONTINUOUS
10
-3.7455846850393701
20
5.6825196456692915
11
-3.7455848425196852
21
5.6825196456692915
0
LINE
8
BLACK
6
CONTINUOUS
10
-3.7455848425196852
20
5.6825196456692915
11
-3.745585118110236
21
5.6825196850393702
0
LINE
8
BLACK
6
CONTINUOUS
10
-3.745585118110236
20
5.6825196850393702
11
-3.8144148818897636
21
5.6825196850393702
0
LINE
8
BLACK
6
CONTINUOUS
10
-3.8144148818897636
20
5.6825196850393702
11
-3.8144151574803149
21
5.6825196456692915
0
LINE
8
BLACK
6
CONTINUOUS
10
-3.8144151574803149
20
5.6825196456692915
11
-3.8144153543307087
21
5.6825196456692915
0
LINE
8
BLACK
6
CONTINUOUS
10
-3.8144153543307087
20
5.6825196456692915
11
-3.8167990944881889
21
5.6822633858267713
0
LINE
8
BLACK
6
CONTINUOUS
10
-3.8167990944881889
20
5.6822633858267713
11
-3.8167994094488189
21
5.6822633070866138
0
LINE
8
BLACK
6
CONTINUOUS
10
-3.8167994094488189
20
5.6822633070866138
11
-3.8198671259842518
21
5.6811190551181099
0
LINE
8
BLACK
6
CONTINUOUS
10
-3.8198671259842518
20
5.6811190551181099
11
-3.8221930708661418
21
5.6802515354330705
0
LINE
8
BLACK
6
CONTINUOUS
10
-3.8221930708661418
20
5.6802515354330705
11
-3.8268016141732284
21
5.676801614173228
0
LINE
8
BLACK
6
CONTINUOUS
10
-3.8268016141732284
20
5.676801614173228
11
-3.8268017322834647
21
5.6768014960629918
0
LINE
8
BLACK
6
CONTINUOUS
10
-3.8268017322834647
20
5.6768014960629918
11
-3.8270271653543304
21
5.6766327165354333
0
LINE
8
BLACK
6
CONTINUOUS
10
-3.8270271653543304
20
5.6766327165354333
11
-3.8296460629921261
21
5.6756559055118112
0
LINE
8
BLACK
6
CONTINUOUS
10
-3.8296460629921261
20
5.6756559055118112
11
-3.8323773622047241
21
5.6762500393700783
0
LINE
8
BLACK
6
CONTINUOUS
10
-3.8323773622047241
20
5.6762500393700783
11
-3.8329728346456693
21
5.6766327165354333
0
LINE
8
BLACK
6
CONTINUOUS
10
-3.8329728346456693
20
5.6766327165354333
11
-3.8331983070866142
21
5.6768014960629918
0
LINE
8
BLACK
6
CONTINUOUS
10
-3.8331983070866142
20
5.6768014960629918
11
-3.8331983858267717
21
5.676801614173228
0
LINE
8
BLACK
6
CONTINUOUS
10
-3.8331983858267717
20
5.676801614173228
11
-3.8378069291338583
21
5.6802515354330705
0
LINE
8
BLACK
6
CONTINUOUS
10
-3.8378069291338583
20
5.6802515354330705
11
-3.8432007480314958
21
5.6822633464566925
0
LINE
8
BLACK
6
CONTINUOUS
10
-3.8432007480314958
20
5.6822633464566925
11
-3.8432008267716533
21
5.6822633464566925
0
LINE
8
BLACK
6
CONTINUOUS
10
-3.8432008267716533
20
5.6822633464566925
11
-3.8432009448818896
21
5.6822633858267713
0
LINE
8
BLACK
6
CONTINUOUS
10
-3.8432009448818896
20
5.6822633858267713
11
-3.8455846850393698
21
5.6825196456692915
0
LINE
8
BLACK
6
CONTINUOUS
10
-3.8455846850393698
20
5.6825196456692915
11
-3.8455848425196848
21
5.6825196456692915
0
LINE
8
BLACK
6
CONTINUOUS
10
-3.8455848425196848
20
5.6825196456692915
11
-3.8455851181102361
21
5.6825196850393702
0
LINE
8
BLACK
6
CONTINUOUS
10
-3.8455851181102361
20
5.6825196850393702
11
-3.9144148818897637
21
5.6825196850393702
0
LINE
8
BLACK
6
CONTINUOUS
10
-3.9144148818897637
20
5.6825196850393702
11
-3.914415157480315
21
5.6825196456692915
0
LINE
8
BLACK
6
CONTINUOUS
10
-3.4775
20
5.79
11
-3.4775
21
5.7655866929133861
0
LINE
8
BLACK
6
CONTINUOUS
10
-3.4775
20
5.7655866929133861
11
-3.4772438976377953
21
5.7632049606299214
0
LINE
8
BLACK
6
CONTINUOUS
10
-3.4772438976377953
20
5.7632049606299214
11
-3.47523405511811
21
5.7578163385826766
0
LINE
8
BLACK
6
CONTINUOUS
10
-3.47523405511811
20
5.7578163385826766
11
-3.47523405511811
21
5.7578162992125979
0
LINE
8
BLACK
6
CONTINUOUS
10
-3.47523405511811
20
5.7578162992125979
11
-3.4717875984251969
21
5.7532124015748032
0
LINE
8
BLACK
6
CONTINUOUS
10
-3.4717875984251969
20
5.7532124015748032
11
-3.4671837007874013
21
5.7497659448818892
0
LINE
8
BLACK
6
CONTINUOUS
10
-3.4671837007874013
20
5.7497659448818892
11
-3.4617950393700787
21
5.7477561023622048
0
LINE
8
BLACK
6
CONTINUOUS
10
-3.4617950393700787
20
5.7477561023622048
11
-3.459413307086614
21
5.7474999999999996
0
LINE
8
BLACK
6
CONTINUOUS
10
-3.459413307086614
20
5.7474999999999996
11
-3.4350000000000001
21
5.7474999999999996
0
LINE
8
BLACK
6
CONTINUOUS
10
-3.4350000000000001
20
5.7474999999999996
11
-3.4350000000000001
21
5.7675000000000001
0
LINE
8
BLACK
6
CONTINUOUS
10
-3.4350000000000001
20
5.7675000000000001
11
-3.4575
21
5.7675000000000001
0
LINE
8
BLACK
6
CONTINUOUS
10
-3.4575
20
5.7675000000000001
11
-3.4575
21
5.79
0
LINE
8
BLACK
6
CONTINUOUS
10
-3.4575
20
5.79
11
-3.4775
21
5.79
0
LINE
8
BLACK
6
CONTINUOUS
10
-3.3925000000000001
20
5.79
11
-3.3925000000000001
21
5.7675000000000001
0
LINE
8
BLACK
6
CONTINUOUS
10
-3.3925000000000001
20
5.7675000000000001
11
-3.415
21
5.7675000000000001
0
LINE
8
BLACK
6
CONTINUOUS
10
-3.415
20
5.7675000000000001
11
-3.415
21
5.7474999999999996
0
LINE
8
BLACK
6
CONTINUOUS
10
-3.415
20
5.7474999999999996
11
-3.3905867322834644
21
5.7474999999999996
0
LINE
8
BLACK
6
CONTINUOUS
10
-3.3905867322834644
20
5.7474999999999996
11
-3.3882050000000001
21
5.7477561023622048
0
LINE
8
BLACK
6
CONTINUOUS
10
-3.3882050000000001
20
5.7477561023622048
11
-3.3828163779527558
21
5.7497659448818892
0
LINE
8
BLACK
6
CONTINUOUS
10
-3.3828163779527558
20
5.7497659448818892
11
-3.3828163385826771
21
5.7497659448818892
0
LINE
8
BLACK
6
CONTINUOUS
10
-3.3828163385826771
20
5.7497659448818892
11
-3.3779727952755905
21
5.7533918110236222
0
LINE
8
BLACK
6
CONTINUOUS
10
-3.3779727952755905
20
5.7533918110236222
11
-3.3753538976377953
21
5.7543686220472443
0
LINE
8
BLACK
6
CONTINUOUS
10
-3.3753538976377953
20
5.7543686220472443
11
-3.3726226377952755
21
5.7537744881889763
0
LINE
8
BLACK
6
CONTINUOUS
10
-3.3726226377952755
20
5.7537744881889763
11
-3.3720272047244095
21
5.7533918110236222
0
LINE
8
BLACK
6
CONTINUOUS
10
-3.3720272047244095
20
5.7533918110236222
11
-3.3671837007874017
21
5.7497659448818892
0
LINE
8
BLACK
6
CONTINUOUS
10
-3.3671837007874017
20
5.7497659448818892
11
-3.3617950393700786
21
5.7477561023622048
0
LINE
8
BLACK
6
CONTINUOUS
10
-3.3617950393700786
20
5.7477561023622048
11
-3.3594133070866139
21
5.7474999999999996
0
LINE
8
BLACK
6
CONTINUOUS
10
-3.3594133070866139
20
5.7474999999999996
11
-3.335
21
5.7474999999999996
0
LINE
8
BLACK
6
CONTINUOUS
10
-3.335
20
5.7474999999999996
11
-3.335
21
5.7675000000000001
0
LINE
8
BLACK
6
CONTINUOUS
10
-3.335
20
5.7675000000000001
11
-3.3574999999999999
21
5.7675000000000001
0
LINE
8
BLACK
6
CONTINUOUS
10
-3.3574999999999999
20
5.7675000000000001
11
-3.3574999999999999
21
5.79
0
LINE
8
BLACK
6
CONTINUOUS
10
-3.3574999999999999
20
5.79
11
-3.3925000000000001
21
5.79
0
LINE
8
BLACK
6
CONTINUOUS
10
-3.2925
20
5.7675000000000001
11
-3.3149999999999999
21
5.7675000000000001
0
LINE
8
BLACK
6
CONTINUOUS
10
-3.3149999999999999
20
5.7675000000000001
11
-3.3149999999999999
21
5.7474999999999996
0
LINE
8
BLACK
6
CONTINUOUS
10
-3.3149999999999999
20
5.7474999999999996
11
-3.2905867322834643
21
5.7474999999999996
0
LINE
8
BLACK
6
CONTINUOUS
10
-3.2905867322834643
20
5.7474999999999996
11
-3.288205
21
5.7477561023622048
0
LINE
8
BLACK
6
CONTINUOUS
10
-3.288205
20
5.7477561023622048
11
-3.2828163779527557
21
5.7497659448818892
0
LINE
8
BLACK
6
CONTINUOUS
10
-3.2828163779527557
20
5.7497659448818892
11
-3.282816338582677
21
5.7497659448818892
0
LINE
8
BLACK
6
CONTINUOUS
10
-3.282816338582677
20
5.7497659448818892
11
-3.2782124409448818
21
5.7532124015748032
0
LINE
8
BLACK
6
CONTINUOUS
10
-3.2782124409448818
20
5.7532124015748032
11
-3.2747659842519683
21
5.7578162992125979
0
LINE
8
BLACK
6
CONTINUOUS
10
-3.2747659842519683
20
5.7578162992125979
11
-3.2747659842519683
21
5.7578163385826766
0
LINE
8
BLACK
6
CONTINUOUS
10
-3.2747659842519683
20
5.7578163385826766
11
-3.2727561417322835
21
5.7632049606299214
0
LINE
8
BLACK
6
CONTINUOUS
10
-3.2727561417322835
20
5.7632049606299214
11
-3.2725000393700787
21
5.7655866929133861
0
LINE
8
BLACK
6
CONTINUOUS
10
-3.2725000393700787
20
5.7655866929133861
11
-3.2725
21
5.7655871653543302
0
LINE
8
BLACK
6
CONTINUOUS
10
-3.2725
20
5.7655871653543302
11
-3.2725
21
5.79
0
LINE
8
BLACK
6
CONTINUOUS
10
-3.2725
20
5.79
11
-3.2925
21
5.79
0
LINE
8
BLACK
6
CONTINUOUS
10
-3.2925
20
5.79
11
-3.2925
21
5.7675000000000001
0
LINE
8
BLACK
6
CONTINUOUS
10
-3.3925000000000001
20
5.9900000000000002
11
-3.3925000000000001
21
5.9675000000000002
0
LINE
8
BLACK
6
CONTINUOUS
10
-3.3925000000000001
20
5.9675000000000002
11
-3.4575
21
5.9675000000000002
0
LINE
8
BLACK
6
CONTINUOUS
10
-3.4575
20
5.9675000000000002
11
-3.4575
21
5.9900000000000002
0
LINE
8
BLACK
6
CONTINUOUS
10
-3.4575
20
5.9900000000000002
11
-3.4775
21
5.9900000000000002
0
LINE
8
BLACK
6
CONTINUOUS
10
-3.4775
20
5.9900000000000002
11
-3.4775
21
5.9655866929133854
0
LINE
8
BLACK
6
CONTINUOUS
10
-3.4775
20
5.9655866929133854
11
-3.4772438976377953
21
5.9632049606299216
0
LINE
8
BLACK
6
CONTINUOUS
10
-3.4772438976377953
20
5.9632049606299216
11
-3.47523405511811
21
5.9578163385826768
0
LINE
8
BLACK
6
CONTINUOUS
10
-3.47523405511811
20
5.9578163385826768
11
-3.47523405511811
21
5.957816299212598
0
LINE
8
BLACK
6
CONTINUOUS
10
-3.47523405511811
20
5.957816299212598
11
-3.4716204724409447
21
5.952989173228346
0
LINE
8
BLACK
6
CONTINUOUS
10
-3.4716204724409447
20
5.952989173228346
11
-3.4706436614173226
21
5.9503702755905508
0
LINE
8
BLACK
6
CONTINUOUS
10
-3.4706436614173226
20
5.9503702755905508
11
-3.4712378346456694
21
5.9476389763779522
0
LINE
8
BLACK
6
CONTINUOUS
10
-3.4712378346456694
20
5.9476389763779522
11
-3.4716204724409447
21
5.9470435433070863
0
LINE
8
BLACK
6
CONTINUOUS
10
-3.4716204724409447
20
5.9470435433070863
11
-3.4718015748031497
21
5.9468016535433073
0
LINE
8
BLACK
6
CONTINUOUS
10
-3.4718015748031497
20
5.9468016535433073
11
-3.4718016141732284
21
5.9468016141732285
0
LINE
8
BLACK
6
CONTINUOUS
10
-3.4718016141732284
20
5.9468016141732285
11
-3.4744578346456692
21
5.9432533070866143
0
LINE
8
BLACK
6
CONTINUOUS
10
-3.4744578346456692
20
5.9432533070866143
11
-3.4752515748031496
21
5.9421930314960631
0
LINE
8
BLACK
6
CONTINUOUS
10
-3.4752515748031496
20
5.9421930314960631
11
-3.4752515748031496
21
5.9421929921259844
0
LINE
8
BLACK
6
CONTINUOUS
10
-3.4752515748031496
20
5.9421929921259844
11
-3.4772633464566929
21
5.9367993700787398
0
LINE
8
BLACK
6
CONTINUOUS
10
-3.4772633464566929
20
5.9367993700787398
11
-3.4772634251968504
21
5.9367990551181098
0
LINE
8
BLACK
6
CONTINUOUS
10
-3.4772634251968504
20
5.9367990551181098
11
-3.4775196850393701
21
5.9344153149606296
0
LINE
8
BLACK
6
CONTINUOUS
10
-3.4775196850393701
20
5.9344153149606296
11
-3.4775196850393701
21
5.8655846456692915
0
LINE
8
BLACK
6
CONTINUOUS
10
-3.4775196850393701
20
5.8655846456692915
11
-3.4772634251968504
21
5.8632009055118113
0
LINE
8
BLACK
6
CONTINUOUS
10
-3.4772634251968504
20
5.8632009055118113
11
-3.4772633464566929
21
5.8632005905511813
0
LINE
8
BLACK
6
CONTINUOUS
10
-3.4772633464566929
20
5.8632005905511813
11
-3.4752515748031496
21
5.8578069685039367
0
LINE
8
BLACK
6
CONTINUOUS
10
-3.4752515748031496
20
5.8578069685039367
11
-3.4752514960629921
21
5.8578067716535429
0
LINE
8
BLACK
6
CONTINUOUS
10
-3.4752514960629921
20
5.8578067716535429
11
-3.4716204724409447
21
5.852956377952756
0
LINE
8
BLACK
6
CONTINUOUS
10
-3.4716204724409447
20
5.852956377952756
11
-3.4706436614173226
21
5.8503374803149608
0
LINE
8
BLACK
6
CONTINUOUS
10
-3.4706436614173226
20
5.8503374803149608
11
-3.4712377952755906
21
5.8476062204724411
0
LINE
8
BLACK
6
CONTINUOUS
10
-3.4712377952755906
20
5.8476062204724411
11
-3.4716204724409447
21
5.8470107874015751
0
LINE
8
BLACK
6
CONTINUOUS
10
-3.4716204724409447
20
5.8470107874015751
11
-3.47523405511811
21
5.842183661417323
0
LINE
8
BLACK
6
CONTINUOUS
10
-3.47523405511811
20
5.842183661417323
11
-3.47523405511811
21
5.8421836220472443
0
LINE
8
BLACK
6
CONTINUOUS
10
-3.47523405511811
20
5.8421836220472443
11
-3.4772438976377953
21
5.8367949999999995
0
LINE
8
BLACK
6
CONTINUOUS
10
-3.4772438976377953
20
5.8367949999999995
11
-3.4775
21
5.8344132677165357
0
LINE
8
BLACK
6
CONTINUOUS
10
-3.4775
20
5.8344132677165357
11
-3.4775
21
5.8099999999999996
0
LINE
8
BLACK
6
CONTINUOUS
10
-3.4775
20
5.8099999999999996
11
-3.4575
21
5.8099999999999996
0
LINE
8
BLACK
6
CONTINUOUS
10
-3.4575
20
5.8099999999999996
11
-3.4575
21
5.8324999999999996
0
LINE
8
BLACK
6
CONTINUOUS
10
-3.4575
20
5.8324999999999996
11
-3.3925000000000001
21
5.8324999999999996
0
LINE
8
BLACK
6
CONTINUOUS
10
-3.3925000000000001
20
5.8324999999999996
11
-3.3925000000000001
21
5.8099999999999996
0
LINE
8
BLACK
6
CONTINUOUS
10
-3.3925000000000001
20
5.8099999999999996
11
-3.3574999999999999
21
5.8099999999999996
0
LINE
8
BLACK
6
CONTINUOUS
10
-3.3574999999999999
20
5.8099999999999996
11
-3.3574999999999999
21
5.8324999999999996
0
LINE
8
BLACK
6
CONTINUOUS
10
-3.3574999999999999
20
5.8324999999999996
11
-3.2925
21
5.8324999999999996
0
LINE
8
BLACK
6
CONTINUOUS
10
-3.2925
20
5.8324999999999996
11
-3.2925
21
5.8099999999999996
0
LINE
8
BLACK
6
CONTINUOUS
10
-3.2925
20
5.8099999999999996
11
-3.2725
21
5.8099999999999996
0
LINE
8
BLACK
6
CONTINUOUS
10
-3.2725
20
5.8099999999999996
11
-3.2725
21
5.8344127952755906
0
LINE
8
BLACK
6
CONTINUOUS
10
-3.2725
20
5.8344127952755906
11
-3.2725000393700787
21
5.8344132677165357
0
LINE
8
BLACK
6
CONTINUOUS
10
-3.2725000393700787
20
5.8344132677165357
11
-3.2727561417322835
21
5.8367949999999995
0
LINE
8
BLACK
6
CONTINUOUS
10
-3.2727561417322835
20
5.8367949999999995
11
-3.2747659842519683
21
5.8421836220472443
0
LINE
8
BLACK
6
CONTINUOUS
10
-3.2747659842519683
20
5.8421836220472443
11
-3.2747660236220471
21
5.8421837007874018
0
LINE
8
BLACK
6
CONTINUOUS
10
-3.2747660236220471
20
5.8421837007874018
11
-3.2783795275590553
21
5.8470107086614176
0
LINE
8
BLACK
6
CONTINUOUS
10
-3.2783795275590553
20
5.8470107086614176
11
-3.2793563779527557
21
5.8496296062992128
0
LINE
8
BLACK
6
CONTINUOUS
10
-3.2793563779527557
20
5.8496296062992128
11
-3.2787622440944881
21
5.8523608661417326
0
LINE
8
BLACK
6
CONTINUOUS
10
-3.2787622440944881
20
5.8523608661417326
11
-3.2783795669291336
21
5.8529563385826773
0
LINE
8
BLACK
6
CONTINUOUS
10
-3.2783795669291336
20
5.8529563385826773
11
-3.2747485433070866
21
5.8578067716535429
0
LINE
8
BLACK
6
CONTINUOUS
10
-3.2747485433070866
20
5.8578067716535429
11
-3.2747484645669291
21
5.8578069685039367
0
LINE
8
BLACK
6
CONTINUOUS
10
-3.2747484645669291
20
5.8578069685039367
11
-3.2727366929133859
21
5.8632005905511813
0
LINE
8
BLACK
6
CONTINUOUS
10
-3.2727366929133859
20
5.8632005905511813
11
-3.2727366141732284
21
5.8632009055118113
0
LINE
8
BLACK
6
CONTINUOUS
10
-3.2727366141732284
20
5.8632009055118113
11
-3.2724803543307086
21
5.8655846456692915
0
LINE
8
BLACK
6
CONTINUOUS
10
-3.2724803543307086
20
5.8655846456692915
11
-3.2724803149606299
21
5.8655853149606294
0
LINE
8
BLACK
6
CONTINUOUS
10
-3.2724803149606299
20
5.8655853149606294
11
-3.2724803149606299
21
5.9344146456692908
0
LINE
8
BLACK
6
CONTINUOUS
10
-3.2724803149606299
20
5.9344146456692908
11
-3.2724803543307086
21
5.9344153149606296
0
LINE
8
BLACK
6
CONTINUOUS
10
-3.2724803543307086
20
5.9344153149606296
11
-3.2727366141732284
21
5.9367990551181098
0
LINE
8
BLACK
6
CONTINUOUS
10
-3.2727366141732284
20
5.9367990551181098
11
-3.2727366929133859
21
5.9367993700787398
0
LINE
8
BLACK
6
CONTINUOUS
10
-3.2727366929133859
20
5.9367993700787398
11
-3.2732585039370079
21
5.9381983858267713
0
LINE
8
BLACK
6
CONTINUOUS
10
-3.2732585039370079
20
5.9381983858267713
11
-3.2747484645669291
21
5.9421930708661419
0
LINE
8
BLACK
6
CONTINUOUS
10
-3.2747484645669291
20
5.9421930708661419
11
-3.2781983858267716
21
5.9468016141732285
0
LINE
8
BLACK
6
CONTINUOUS
10
-3.2781983858267716
20
5.9468016141732285
11
-3.2781984645669291
21
5.9468016535433073
0
LINE
8
BLACK
6
CONTINUOUS
10
-3.2781984645669291
20
5.9468016535433073
11
-3.2783795275590553
21
5.9470435433070863
0
LINE
8
BLACK
6
CONTINUOUS
10
-3.2783795275590553
20
5.9470435433070863
11
-3.2793563779527557
21
5.9496624409448815
0
LINE
8
BLACK
6
CONTINUOUS
10
-3.2793563779527557
20
5.9496624409448815
11
-3.2787622440944881
21
5.9523937007874013
0
LINE
8
BLACK
6
CONTINUOUS
10
-3.2787622440944881
20
5.9523937007874013
11
-3.2783795669291336
21
5.952989173228346
0
LINE
8
BLACK
6
CONTINUOUS
10
-3.2783795669291336
20
5.952989173228346
11
-3.2747659842519683
21
5.957816299212598
0
LINE
8
BLACK
6
CONTINUOUS
10
-3.2747659842519683
20
5.957816299212598
11
-3.2747659842519683
21
5.9578163385826768
0
LINE
8
BLACK
6
CONTINUOUS
10
-3.2747659842519683
20
5.9578163385826768
11
-3.2727561417322835
21
5.9632049606299216
0
LINE
8
BLACK
6
CONTINUOUS
10
-3.2727561417322835
20
5.9632049606299216
11
-3.2725000393700787
21
5.9655866929133854
0
LINE
8
BLACK
6
CONTINUOUS
10
-3.2725000393700787
20
5.9655866929133854
11
-3.2725
21
5.9655871653543304
0
LINE
8
BLACK
6
CONTINUOUS
10
-3.2725
20
5.9655871653543304
11
-3.2725
21
5.9900000000000002
0
LINE
8
BLACK
6
CONTINUOUS
10
-3.2725
20
5.9900000000000002
11
-3.2925
21
5.9900000000000002
0
LINE
8
BLACK
6
CONTINUOUS
10
-3.2925
20
5.9900000000000002
11
-3.2925
21
5.9675000000000002
0
LINE
8
BLACK
6
CONTINUOUS
10
-3.2925
20
5.9675000000000002
11
-3.3574999999999999
21
5.9675000000000002
0
LINE
8
BLACK
6
CONTINUOUS
10
-3.3574999999999999
20
5.9675000000000002
11
-3.3574999999999999
21
5.9900000000000002
0
LINE
8
BLACK
6
CONTINUOUS
10
-3.3574999999999999
20
5.9900000000000002
11
-3.3925000000000001
21
5.9900000000000002
0
LINE
8
BLACK
6
CONTINUOUS
10
-4.2725196850393701
20
6.3505846456692909
11
-4.2722634251968499
21
6.3482009055118107
0
LINE
8
BLACK
6
CONTINUOUS
10
-4.2722634251968499
20
6.3482009055118107
11
-4.2722633464566933
21
6.3482005905511807
0
LINE
8
BLACK
6
CONTINUOUS
10
-4.2722633464566933
20
6.3482005905511807
11
-4.2702515748031491
21
6.342806968503937
0
LINE
8
BLACK
6
CONTINUOUS
10
-4.2702515748031491
20
6.342806968503937
11
-4.2702514960629916
21
6.3428067716535432
0
LINE
8
BLACK
6
CONTINUOUS
10
-4.2702514960629916
20
6.3428067716535432
11
-4.2666327559055119
21
6.33797279527559
0
LINE
8
BLACK
6
CONTINUOUS
10
-4.2666327559055119
20
6.33797279527559
11
-4.2656559448818898
21
6.3353538976377948
0
LINE
8
BLACK
6
CONTINUOUS
10
-4.2656559448818898
20
6.3353538976377948
11
-4.2662500787401578
21
6.332622637795275
0
LINE
8
BLACK
6
CONTINUOUS
10
-4.2662500787401578
20
6.332622637795275
11
-4.2666327559055119
21
6.3320272047244091
0
LINE
8
BLACK
6
CONTINUOUS
10
-4.2666327559055119
20
6.3320272047244091
11
-4.2702514960629916
21
6.3271931889763779
0
LINE
8
BLACK
6
CONTINUOUS
10
-4.2702514960629916
20
6.3271931889763779
11
-4.2702515748031491
21
6.3271929921259842
0
LINE
8
BLACK
6
CONTINUOUS
10
-4.2702515748031491
20
6.3271929921259842
11
-4.2722633464566933
21
6.3217993700787396
0
LINE
8
BLACK
6
CONTINUOUS
10
-4.2722633464566933
20
6.3217993700787396
11
-4.2722634251968499
21
6.3217990551181105
0
LINE
8
BLACK
6
CONTINUOUS
10
-4.2722634251968499
20
6.3217990551181105
11
-4.2725196850393701
21
6.3194153149606294
0
LINE
8
BLACK
6
CONTINUOUS
10
-4.2725196850393701
20
6.3194153149606294
11
-4.2725196850393701
21
6.2505846456692913
0
LINE
8
BLACK
6
CONTINUOUS
10
-4.2725196850393701
20
6.2505846456692913
11
-4.2722634251968499
21
6.2482009055118111
0
LINE
8
BLACK
6
CONTINUOUS
10
-4.2722634251968499
20
6.2482009055118111
11
-4.2722633464566933
21
6.248200590551181
0
LINE
8
BLACK
6
CONTINUOUS
10
-4.2722633464566933
20
6.248200590551181
11
-4.2702515748031491
21
6.2428069685039365
0
LINE
8
BLACK
6
CONTINUOUS
10
-4.2702515748031491
20
6.2428069685039365
11
-4.2702514960629916
21
6.2428067716535436
0
LINE
8
BLACK
6
CONTINUOUS
10
-4.2702514960629916
20
6.2428067716535436
11
-4.2666327559055119
21
6.2379727952755903
0
LINE
8
BLACK
6
CONTINUOUS
10
-4.2666327559055119
20
6.2379727952755903
11
-4.2656559448818898
21
6.2353538976377951
0
LINE
8
BLACK
6
CONTINUOUS
10
-4.2656559448818898
20
6.2353538976377951
11
-4.2662500787401578
21
6.2326226377952754
0
LINE
8
BLACK
6
CONTINUOUS
10
-4.2662500787401578
20
6.2326226377952754
11
-4.2666327559055119
21
6.2320272047244094
0
LINE
8
BLACK
6
CONTINUOUS
10
-4.2666327559055119
20
6.2320272047244094
11
-4.2702514960629916
21
6.2271931889763774
0
LINE
8
BLACK
6
CONTINUOUS
10
-4.2702514960629916
20
6.2271931889763774
11
-4.2702515748031491
21
6.2271929921259845
0
LINE
8
BLACK
6
CONTINUOUS
10
-4.2702515748031491
20
6.2271929921259845
11
-4.2722633464566933
21
6.22179937007874
0
LINE
8
BLACK
6
CONTINUOUS
10
-4.2722633464566933
20
6.22179937007874
11
-4.2722634251968499
21
6.2217990551181099
0
LINE
8
BLACK
6
CONTINUOUS
10
-4.2722634251968499
20
6.2217990551181099
11
-4.2725196850393701
21
6.2194153149606297
0
LINE
8
BLACK
6
CONTINUOUS
10
-4.2725196850393701
20
6.2194153149606297
11
-4.2725196850393701
21
6.1505846456692916
0
LINE
8
BLACK
6
CONTINUOUS
10
-4.2725196850393701
20
6.1505846456692916
11
-4.2722634251968499
21
6.1482009055118105
0
LINE
8
BLACK
6
CONTINUOUS
10
-4.2722634251968499
20
6.1482009055118105
11
-4.2722633464566933
21
6.1482005905511814
0
LINE
8
BLACK
6
CONTINUOUS
10
-4.2722633464566933
20
6.1482005905511814
11
-4.2702515748031491
21
6.1428069685039368
0
LINE
8
BLACK
6
CONTINUOUS
10
-4.2702515748031491
20
6.1428069685039368
11
-4.2702514960629916
21
6.1428067716535431
0
LINE
8
BLACK
6
CONTINUOUS
10
-4.2702514960629916
20
6.1428067716535431
11
-4.2666327559055119
21
6.1379727952755907
0
LINE
8
BLACK
6
CONTINUOUS
10
-4.2666327559055119
20
6.1379727952755907
11
-4.2656559448818898
21
6.1353538976377955
0
LINE
8
BLACK
6
CONTINUOUS
10
-4.2656559448818898
20
6.1353538976377955
11
-4.2662500787401578
21
6.1326226377952757
0
LINE
8
BLACK
6
CONTINUOUS
10
-4.2662500787401578
20
6.1326226377952757
11
-4.2666327559055119
21
6.1320272047244089
0
LINE
8
BLACK
6
CONTINUOUS
10
-4.2666327559055119
20
6.1320272047244089
11
-4.2702514960629916
21
6.1271931889763778
0
LINE
8
BLACK
6
CONTINUOUS
10
-4.2702514960629916
20
6.1271931889763778
11
-4.2702515748031491
21
6.127192992125984
0
LINE
8
BLACK
6
CONTINUOUS
10
-4.2702515748031491
20
6.127192992125984
11
-4.2722633464566933
21
6.1217993700787403
0
LINE
8
BLACK
6
CONTINUOUS
10
-4.2722633464566933
20
6.1217993700787403
11
-4.2722634251968499
21
6.1217990551181103
0
LINE
8
BLACK
6
CONTINUOUS
10
-4.2722634251968499
20
6.1217990551181103
11
-4.2725196850393701
21
6.1194153149606301
0
LINE
8
BLACK
6
CONTINUOUS
10
-4.2725196850393701
20
6.1194153149606301
11
-4.2725196850393701
21
6.0505846456692911
0
LINE
8
BLACK
6
CONTINUOUS
10
-4.2725196850393701
20
6.0505846456692911
11
-4.2722634251968499
21
6.0482009055118109
0
LINE
8
BLACK
6
CONTINUOUS
10
-4.2722634251968499
20
6.0482009055118109
11
-4.2722633464566933
21
6.0482005905511809
0
LINE
8
BLACK
6
CONTINUOUS
10
-4.2722633464566933
20
6.0482005905511809
11
-4.2702515748031491
21
6.0428069685039372
0
LINE
8
BLACK
6
CONTINUOUS
10
-4.2702515748031491
20
6.0428069685039372
11
-4.2702514960629916
21
6.0428067716535434
0
LINE
8
BLACK
6
CONTINUOUS
10
-4.2702514960629916
20
6.0428067716535434
11
-4.2666327559055119
21
6.0379727952755902
0
LINE
8
BLACK
6
CONTINUOUS
10
-4.2666327559055119
20
6.0379727952755902
11
-4.2656559448818898
21
6.035353897637795
0
LINE
8
BLACK
6
CONTINUOUS
10
-4.2656559448818898
20
6.035353897637795
11
-4.2662500787401578
21
6.0326226377952752
0
LINE
8
BLACK
6
CONTINUOUS
10
-4.2662500787401578
20
6.0326226377952752
11
-4.2666327559055119
21
6.0320272047244092
0
LINE
8
BLACK
6
CONTINUOUS
10
-4.2666327559055119
20
6.0320272047244092
11
-4.2702514960629916
21
6.0271931889763781
0
LINE
8
BLACK
6
CONTINUOUS
10
-4.2702514960629916
20
6.0271931889763781
11
-4.2702515748031491
21
6.0271929921259844
0
LINE
8
BLACK
6
CONTINUOUS
10
-4.2702515748031491
20
6.0271929921259844
11
-4.2722633464566933
21
6.0217993700787398
0
LINE
8
BLACK
6
CONTINUOUS
10
-4.2722633464566933
20
6.0217993700787398
11
-4.2722634251968499
21
6.0217990551181098
0
LINE
8
BLACK
6
CONTINUOUS
10
-4.2722634251968499
20
6.0217990551181098
11
-4.2725196850393701
21
6.0194153149606295
0
LINE
8
BLACK
6
CONTINUOUS
10
-4.2725196850393701
20
6.0194153149606295
11
-4.2725196850393701
21
5.9505846456692915
0
LINE
8
BLACK
6
CONTINUOUS
10
-4.2725196850393701
20
5.9505846456692915
11
-4.2722634251968499
21
5.9482009055118112
0
LINE
8
BLACK
6
CONTINUOUS
10
-4.2722634251968499
20
5.9482009055118112
11
-4.2722633464566933
21
5.9482005905511812
0
LINE
8
BLACK
6
CONTINUOUS
10
-4.2722633464566933
20
5.9482005905511812
11
-4.2702515748031491
21
5.9428069685039366
0
LINE
8
BLACK
6
CONTINUOUS
10
-4.2702515748031491
20
5.9428069685039366
11
-4.2702514960629916
21
5.9428067716535429
0
LINE
8
BLACK
6
CONTINUOUS
10
-4.2702514960629916
20
5.9428067716535429
11
-4.2666327559055119
21
5.9379727952755905
0
LINE
8
BLACK
6
CONTINUOUS
10
-4.2666327559055119
20
5.9379727952755905
11
-4.2656559448818898
21
5.9353538976377953
0
LINE
8
BLACK
6
CONTINUOUS
10
-4.2656559448818898
20
5.9353538976377953
11
-4.2662500787401578
21
5.9326226377952755
0
LINE
8
BLACK
6
CONTINUOUS
10
-4.2662500787401578
20
5.9326226377952755
11
-4.2666327559055119
21
5.9320272047244096
0
LINE
8
BLACK
6
CONTINUOUS
10
-4.2666327559055119
20
5.9320272047244096
11
-4.2702514960629916
21
5.9271931889763776
0
LINE
8
BLACK
6
CONTINUOUS
10
-4.2702514960629916
20
5.9271931889763776
11
-4.2702515748031491
21
5.9271929921259838
0
LINE
8
BLACK
6
CONTINUOUS
10
-4.2702515748031491
20
5.9271929921259838
11
-4.2722633464566933
21
5.9217993700787401
0
LINE
8
BLACK
6
CONTINUOUS
10
-4.2722633464566933
20
5.9217993700787401
11
-4.2722634251968499
21
5.9217990551181101
0
LINE
8
BLACK
6
CONTINUOUS
10
-4.2722634251968499
20
5.9217990551181101
11
-4.2725196850393701
21
5.9194153149606299
0
LINE
8
BLACK
6
CONTINUOUS
10
-4.2725196850393701
20
5.9194153149606299
11
-4.2725196850393701
21
5.8505846456692909
0
LINE
8
BLACK
6
CONTINUOUS
10
-4.2725196850393701
20
5.8505846456692909
11
-4.2722634251968499
21
5.8482009055118107
0
LINE
8
BLACK
6
CONTINUOUS
10
-4.2722634251968499
20
5.8482009055118107
11
-4.2722633464566933
21
5.8482005905511807
0
LINE
8
BLACK
6
CONTINUOUS
10
-4.2722633464566933
20
5.8482005905511807
11
-4.2702515748031491
21
5.842806968503937
0
LINE
8
BLACK
6
CONTINUOUS
10
-4.2702515748031491
20
5.842806968503937
11
-4.2702514960629916
21
5.8428067716535432
0
LINE
8
BLACK
6
CONTINUOUS
10
-4.2702514960629916
20
5.8428067716535432
11
-4.2668016535433066
21
5.8381983464566929
0
LINE
8
BLACK
6
CONTINUOUS
10
-4.2668016535433066
20
5.8381983464566929
11
-4.2621932283464563
21
5.8347485039370079
0
LINE
8
BLACK
6
CONTINUOUS
10
-4.2621932283464563
20
5.8347485039370079
11
-4.2621930314960625
21
5.8347484251968504
0
LINE
8
BLACK
6
CONTINUOUS
10
-4.2621930314960625
20
5.8347484251968504
11
-4.2567994094488188
21
5.8327366535433072
0
LINE
8
BLACK
6
CONTINUOUS
10
-4.2567994094488188
20
5.8327366535433072
11
-4.2567990944881888
21
5.8327365748031497
0
LINE
8
BLACK
6
CONTINUOUS
10
-4.2567990944881888
20
5.8327365748031497
11
-4.2544153543307086
21
5.8324803149606295
0
LINE
8
BLACK
6
CONTINUOUS
10
-4.2544153543307086
20
5.8324803149606295
11
-4.2544148818897636
21
5.8324803149606295
0
LINE
8
BLACK
6
CONTINUOUS
10
-4.2544148818897636
20
5.8324803149606295
11
-4.1855846850393696
21
5.8324803149606295
0
LINE
8
BLACK
6
CONTINUOUS
10
-4.1855846850393696
20
5.8324803149606295
11
-4.1832009448818894
21
5.8327365748031497
0
LINE
8
BLACK
6
CONTINUOUS
10
-4.1832009448818894
20
5.8327365748031497
11
-4.1832006299212594
21
5.8327366535433072
0
LINE
8
BLACK
6
CONTINUOUS
10
-4.1832006299212594
20
5.8327366535433072
11
-4.1778070078740157
21
5.8347484251968504
0
LINE
8
BLACK
6
CONTINUOUS
10
-4.1778070078740157
20
5.8347484251968504
11
-4.1778068110236219
21
5.8347485039370079
0
LINE
8
BLACK
6
CONTINUOUS
10
-4.1778068110236219
20
5.8347485039370079
11
-4.1729727952755908
21
5.8383672440944885
0
LINE
8
BLACK
6
CONTINUOUS
10
-4.1729727952755908
20
5.8383672440944885
11
-4.1703538976377947
21
5.8393440551181097
0
LINE
8
BLACK
6
CONTINUOUS
10
-4.1703538976377947
20
5.8393440551181097
11
-4.1676226377952759
21
5.8387499212598426
0
LINE
8
BLACK
6
CONTINUOUS
10
-4.1676226377952759
20
5.8387499212598426
11
-4.167027204724409
21
5.8383672440944885
0
LINE
8
BLACK
6
CONTINUOUS
10
-4.167027204724409
20
5.8383672440944885
11
-4.1621932283464567
21
5.8347485039370079
0
LINE
8
BLACK
6
CONTINUOUS
10
-4.1621932283464567
20
5.8347485039370079
11
-4.1621930314960629
21
5.8347484251968504
0
LINE
8
BLACK
6
CONTINUOUS
10
-4.1621930314960629
20
5.8347484251968504
11
-4.1567994094488192
21
5.8327366535433072
0
LINE
8
BLACK
6
CONTINUOUS
10
-4.1567994094488192
20
5.8327366535433072
11
-4.1567990944881892
21
5.8327365748031497
0
LINE
8
BLACK
6
CONTINUOUS
10
-4.1567990944881892
20
5.8327365748031497
11
-4.154415354330709
21
5.8324803149606295
0
LINE
8
BLACK
6
CONTINUOUS
10
-4.154415354330709
20
5.8324803149606295
11
-4.1544148818897639
21
5.8324803149606295
0
LINE
8
BLACK
6
CONTINUOUS
10
-4.1544148818897639
20
5.8324803149606295
11
-4.08558468503937
21
5.8324803149606295
0
LINE
8
BLACK
6
CONTINUOUS
10
-4.08558468503937
20
5.8324803149606295
11
-4.0832009448818898
21
5.8327365748031497
0
LINE
8
BLACK
6
CONTINUOUS
10
-4.0832009448818898
20
5.8327365748031497
11
-4.0832006299212598
21
5.8327366535433072
0
LINE
8
BLACK
6
CONTINUOUS
10
-4.0832006299212598
20
5.8327366535433072
11
-4.0778070078740161
21
5.8347484251968504
0
LINE
8
BLACK
6
CONTINUOUS
10
-4.0778070078740161
20
5.8347484251968504
11
-4.0778068110236223
21
5.8347485039370079
0
LINE
8
BLACK
6
CONTINUOUS
10
-4.0778068110236223
20
5.8347485039370079
11
-4.073198385826772
21
5.8381983464566929
0
LINE
8
BLACK
6
CONTINUOUS
10
-4.073198385826772
20
5.8381983464566929
11
-4.0697485433070861
21
5.8428067716535432
0
LINE
8
BLACK
6
CONTINUOUS
10
-4.0697485433070861
20
5.8428067716535432
11
-4.0697484645669286
21
5.842806968503937
0
LINE
8
BLACK
6
CONTINUOUS
10
-4.0697484645669286
20
5.842806968503937
11
-4.0677366929133854
21
5.8482005905511807
0
LINE
8
BLACK
6
CONTINUOUS
10
-4.0677366929133854
20
5.8482005905511807
11
-4.0677366141732278
21
5.8482009055118107
0
LINE
8
BLACK
6
CONTINUOUS
10
-4.0677366141732278
20
5.8482009055118107
11
-4.0674803543307085
21
5.8505846456692909
0
LINE
8
BLACK
6
CONTINUOUS
10
-4.0674803543307085
20
5.8505846456692909
11
-4.0674803149606298
21
5.8505853149606297
0
LINE
8
BLACK
6
CONTINUOUS
10
-4.0674803149606298
20
5.8505853149606297
11
-4.0674803149606298
21
5.9194146456692911
0
LINE
8
BLACK
6
CONTINUOUS
10
-4.0674803149606298
20
5.9194146456692911
11
-4.0674803543307085
21
5.9194153149606299
0
LINE
8
BLACK
6
CONTINUOUS
10
-4.0674803543307085
20
5.9194153149606299
11
-4.0677366141732278
21
5.9217990551181101
0
LINE
8
BLACK
6
CONTINUOUS
10
-4.0677366141732278
20
5.9217990551181101
11
-4.0677366929133854
21
5.9217993700787401
0
LINE
8
BLACK
6
CONTINUOUS
10
-4.0677366929133854
20
5.9217993700787401
11
-4.068013385826772
21
5.9225411417322835
0
LINE
8
BLACK
6
CONTINUOUS
10
-4.068013385826772
20
5.9225411417322835
11
-4.0697484645669286
21
5.9271930708661413
0
LINE
8
BLACK
6
CONTINUOUS
10
-4.0697484645669286
20
5.9271930708661413
11
-4.073198385826772
21
5.9318016141732279
0
LINE
8
BLACK
6
CONTINUOUS
10
-4.073198385826772
20
5.9318016141732279
11
-4.0731984645669295
21
5.9318016535433067
0
LINE
8
BLACK
6
CONTINUOUS
10
-4.0731984645669295
20
5.9318016535433067
11
-4.0733672440944879
21
5.9320271653543308
0
LINE
8
BLACK
6
CONTINUOUS
10
-4.0733672440944879
20
5.9320271653543308
11
-4.0743440944881888
21
5.934646062992126
0
LINE
8
BLACK
6
CONTINUOUS
10
-4.0743440944881888
20
5.934646062992126
11
-4.0737499606299208
21
5.9373773228346458
0
LINE
8
BLACK
6
CONTINUOUS
10
-4.0737499606299208
20
5.9373773228346458
11
-4.0733672834645667
21
5.9379728346456693
0
LINE
8
BLACK
6
CONTINUOUS
10
-4.0733672834645667
20
5.9379728346456693
11
-4.0731985039370082
21
5.938198267716535
0
LINE
8
BLACK
6
CONTINUOUS
10
-4.0731985039370082
20
5.938198267716535
11
-4.073198385826772
21
5.9381983858267713
0
LINE
8
BLACK
6
CONTINUOUS
10
-4.073198385826772
20
5.9381983858267713
11
-4.0697484645669286
21
5.9428069291338579
0
LINE
8
BLACK
6
CONTINUOUS
10
-4.0697484645669286
20
5.9428069291338579
11
-4.0677366535433066
21
5.9482007480314962
0
LINE
8
BLACK
6
CONTINUOUS
10
-4.0677366535433066
20
5.9482007480314962
11
-4.0677366141732278
21
5.9482009055118112
0
LINE
8
BLACK
6
CONTINUOUS
10
-4.0677366141732278
20
5.9482009055118112
11
-4.0674803543307085
21
5.9505846456692915
0
LINE
8
BLACK
6
CONTINUOUS
10
-4.0674803543307085
20
5.9505846456692915
11
-4.0674803149606298
21
5.9505853149606294
0
LINE
8
BLACK
6
CONTINUOUS
10
-4.0674803149606298
20
5.9505853149606294
11
-4.0674803149606298
21
6.0194146456692916
0
LINE
8
BLACK
6
CONTINUOUS
10
-4.0674803149606298
20
6.0194146456692916
11
-4.0674803543307085
21
6.0194153149606295
0
LINE
8
BLACK
6
CONTINUOUS
10
-4.0674803543307085
20
6.0194153149606295
11
-4.0677366141732278
21
6.0217990551181098
0
LINE
8
BLACK
6
CONTINUOUS
10
-4.0677366141732278
20
6.0217990551181098
11
-4.0677366929133854
21
6.0217993700787398
0
LINE
8
BLACK
6
CONTINUOUS
10
-4.0677366929133854
20
6.0217993700787398
11
-4.068013385826772
21
6.0225411417322832
0
LINE
8
BLACK
6
CONTINUOUS
10
-4.068013385826772
20
6.0225411417322832
11
-4.0697484645669286
21
6.0271930708661419
0
LINE
8
BLACK
6
CONTINUOUS
10
-4.0697484645669286
20
6.0271930708661419
11
-4.073198385826772
21
6.0318016141732285
0
LINE
8
BLACK
6
CONTINUOUS
10
-4.073198385826772
20
6.0318016141732285
11
-4.0731985039370082
21
6.031801692913386
0
LINE
8
BLACK
6
CONTINUOUS
10
-4.0731985039370082
20
6.031801692913386
11
-4.0733672834645667
21
6.0320271653543305
0
LINE
8
BLACK
6
CONTINUOUS
10
-4.0733672834645667
20
6.0320271653543305
11
-4.0743440944881888
21
6.0346460629921257
0
LINE
8
BLACK
6
CONTINUOUS
10
-4.0743440944881888
20
6.0346460629921257
11
-4.0737499606299208
21
6.0373773622047242
0
LINE
8
BLACK
6
CONTINUOUS
10
-4.0737499606299208
20
6.0373773622047242
11
-4.0733672834645667
21
6.0379728346456689
0
LINE
8
BLACK
6
CONTINUOUS
10
-4.0733672834645667
20
6.0379728346456689
11
-4.0731985039370082
21
6.0381982677165356
0
LINE
8
BLACK
6
CONTINUOUS
10
-4.0731985039370082
20
6.0381982677165356
11
-4.073198385826772
21
6.0381983858267718
0
LINE
8
BLACK
6
CONTINUOUS
10
-4.073198385826772
20
6.0381983858267718
11
-4.0697484645669286
21
6.0428069291338584
0
LINE
8
BLACK
6
CONTINUOUS
10
-4.0697484645669286
20
6.0428069291338584
11
-4.0677366535433066
21
6.0482007480314959
0
LINE
8
BLACK
6
CONTINUOUS
10
-4.0677366535433066
20
6.0482007480314959
11
-4.0677366141732278
21
6.0482009055118109
0
LINE
8
BLACK
6
CONTINUOUS
10
-4.0677366141732278
20
6.0482009055118109
11
-4.0674803543307085
21
6.0505846456692911
0
LINE
8
BLACK
6
CONTINUOUS
10
-4.0674803543307085
20
6.0505846456692911
11
-4.0674803149606298
21
6.0505853149606299
0
LINE
8
BLACK
6
CONTINUOUS
10
-4.0674803149606298
20
6.0505853149606299
11
-4.0674803149606298
21
6.1194146456692913
0
LINE
8
BLACK
6
CONTINUOUS
10
-4.0674803149606298
20
6.1194146456692913
11
-4.0674803543307085
21
6.1194153149606301
0
LINE
8
BLACK
6
CONTINUOUS
10
-4.0674803543307085
20
6.1194153149606301
11
-4.0677366141732278
21
6.1217990551181103
0
LINE
8
BLACK
6
CONTINUOUS
10
-4.0677366141732278
20
6.1217990551181103
11
-4.0677366929133854
21
6.1217993700787403
0
LINE
8
BLACK
6
CONTINUOUS
10
-4.0677366929133854
20
6.1217993700787403
11
-4.0686858267716532
21
6.1243440551181099
0
LINE
8
BLACK
6
CONTINUOUS
10
-4.0686858267716532
20
6.1243440551181099
11
-4.0697484645669286
21
6.1271930708661415
0
LINE
8
BLACK
6
CONTINUOUS
10
-4.0697484645669286
20
6.1271930708661415
11
-4.073198385826772
21
6.1318016141732281
0
LINE
8
BLACK
6
CONTINUOUS
10
-4.073198385826772
20
6.1318016141732281
11
-4.0731985039370082
21
6.1318016929133856
0
LINE
8
BLACK
6
CONTINUOUS
10
-4.0731985039370082
20
6.1318016929133856
11
-4.0733672834645667
21
6.132027165354331
0
LINE
8
BLACK
6
CONTINUOUS
10
-4.0733672834645667
20
6.132027165354331
11
-4.0743440944881888
21
6.1346460629921262
0
LINE
8
BLACK
6
CONTINUOUS
10
-4.0743440944881888
20
6.1346460629921262
11
-4.0737499606299208
21
6.1373773622047239
0
LINE
8
BLACK
6
CONTINUOUS
10
-4.0737499606299208
20
6.1373773622047239
11
-4.0733672834645667
21
6.1379728346456695
0
LINE
8
BLACK
6
CONTINUOUS
10
-4.0733672834645667
20
6.1379728346456695
11
-4.0731985039370082
21
6.1381982677165352
0
LINE
8
BLACK
6
CONTINUOUS
10
-4.0731985039370082
20
6.1381982677165352
11
-4.073198385826772
21
6.1381983858267715
0
LINE
8
BLACK
6
CONTINUOUS
10
-4.073198385826772
20
6.1381983858267715
11
-4.0697484645669286
21
6.1428069291338581
0
LINE
8
BLACK
6
CONTINUOUS
10
-4.0697484645669286
20
6.1428069291338581
11
-4.0677366535433066
21
6.1482007480314955
0
LINE
8
BLACK
6
CONTINUOUS
10
-4.0677366535433066
20
6.1482007480314955
11
-4.0677366141732278
21
6.1482009055118105
0
LINE
8
BLACK
6
CONTINUOUS
10
-4.0677366141732278
20
6.1482009055118105
11
-4.0674803543307085
21
6.1505846456692916
0
LINE
8
BLACK
6
CONTINUOUS
10
-4.0674803543307085
20
6.1505846456692916
11
-4.0674803149606298
21
6.1505853149606295
0
LINE
8
BLACK
6
CONTINUOUS
10
-4.0674803149606298
20
6.1505853149606295
11
-4.0674803149606298
21
6.2194146456692909
0
LINE
8
BLACK
6
CONTINUOUS
10
-4.0674803149606298
20
6.2194146456692909
11
-4.0674803543307085
21
6.2194153149606297
0
LINE
8
BLACK
6
CONTINUOUS
10
-4.0674803543307085
20
6.2194153149606297
11
-4.0677366141732278
21
6.2217990551181099
0
LINE
8
BLACK
6
CONTINUOUS
10
-4.0677366141732278
20
6.2217990551181099
11
-4.0677366929133854
21
6.22179937007874
0
LINE
8
BLACK
6
CONTINUOUS
10
-4.0677366929133854
20
6.22179937007874
11
-4.0682585039370078
21
6.2231983858267714
0
LINE
8
BLACK
6
CONTINUOUS
10
-4.0682585039370078
20
6.2231983858267714
11
-4.0697484645669286
21
6.2271930708661412
0
LINE
8
BLACK
6
CONTINUOUS
10
-4.0697484645669286
20
6.2271930708661412
11
-4.073198385826772
21
6.2318016141732286
0
LINE
8
BLACK
6
CONTINUOUS
10
-4.073198385826772
20
6.2318016141732286
11
-4.0731985039370082
21
6.2318016929133853
0
LINE
8
BLACK
6
CONTINUOUS
10
-4.0731985039370082
20
6.2318016929133853
11
-4.0733672834645667
21
6.2320271653543307
0
LINE
8
BLACK
6
CONTINUOUS
10
-4.0733672834645667
20
6.2320271653543307
11
-4.0743440944881888
21
6.2346460629921259
0
LINE
8
BLACK
6
CONTINUOUS
10
-4.0743440944881888
20
6.2346460629921259
11
-4.0737499606299208
21
6.2373773622047244
0
LINE
8
BLACK
6
CONTINUOUS
10
-4.0737499606299208
20
6.2373773622047244
11
-4.0733672834645667
21
6.2379728346456691
0
LINE
8
BLACK
6
CONTINUOUS
10
-4.0733672834645667
20
6.2379728346456691
11
-4.0731985039370082
21
6.2381982677165349
0
LINE
8
BLACK
6
CONTINUOUS
10
-4.0731985039370082
20
6.2381982677165349
11
-4.073198385826772
21
6.2381983858267711
0
LINE
8
BLACK
6
CONTINUOUS
10
-4.073198385826772
20
6.2381983858267711
11
-4.0697484645669286
21
6.2428069291338577
0
LINE
8
BLACK
6
CONTINUOUS
10
-4.0697484645669286
20
6.2428069291338577
11
-4.0677366535433066
21
6.2482007480314961
0
LINE
8
BLACK
6
CONTINUOUS
10
-4.0677366535433066
20
6.2482007480314961
11
-4.0677366141732278
21
6.2482009055118111
0
LINE
8
BLACK
6
CONTINUOUS
10
-4.0677366141732278
20
6.2482009055118111
11
-4.0674803543307085
21
6.2505846456692913
0
LINE
8
BLACK
6
CONTINUOUS
10
-4.0674803543307085
20
6.2505846456692913
11
-4.0674803149606298
21
6.2505853149606301
0
LINE
8
BLACK
6
CONTINUOUS
10
-4.0674803149606298
20
6.2505853149606301
11
-4.0674803149606298
21
6.3194146456692915
0
LINE
8
BLACK
6
CONTINUOUS
10
-4.0674803149606298
20
6.3194146456692915
11
-4.0674803543307085
21
6.3194153149606294
0
LINE
8
BLACK
6
CONTINUOUS
10
-4.0674803543307085
20
6.3194153149606294
11
-4.0677366141732278
21
6.3217990551181105
0
LINE
8
BLACK
6
CONTINUOUS
10
-4.0677366141732278
20
6.3217990551181105
11
-4.0677366929133854
21
6.3217993700787396
0
LINE
8
BLACK
6
CONTINUOUS
10
-4.0677366929133854
20
6.3217993700787396
11
-4.0682585039370078
21
6.3231983858267711
0
LINE
8
BLACK
6
CONTINUOUS
10
-4.0682585039370078
20
6.3231983858267711
11
-4.0697484645669286
21
6.3271930708661417
0
LINE
8
BLACK
6
CONTINUOUS
10
-4.0697484645669286
20
6.3271930708661417
11
-4.073198385826772
21
6.3318016141732283
0
LINE
8
BLACK
6
CONTINUOUS
10
-4.073198385826772
20
6.3318016141732283
11
-4.0731985039370082
21
6.3318016929133858
0
LINE
8
BLACK
6
CONTINUOUS
10
-4.0731985039370082
20
6.3318016929133858
11
-4.0733672834645667
21
6.3320271653543303
0
LINE
8
BLACK
6
CONTINUOUS
10
-4.0733672834645667
20
6.3320271653543303
11
-4.0743440944881888
21
6.3346460629921255
0
LINE
8
BLACK
6
CONTINUOUS
10
-4.0743440944881888
20
6.3346460629921255
11
-4.0737499606299208
21
6.337377362204724
0
LINE
8
BLACK
6
CONTINUOUS
10
-4.0737499606299208
20
6.337377362204724
11
-4.0733672834645667
21
6.3379728346456687
0
LINE
8
BLACK
6
CONTINUOUS
10
-4.0733672834645667
20
6.3379728346456687
11
-4.0731985039370082
21
6.3381982677165354
0
LINE
8
BLACK
6
CONTINUOUS
10
-4.0731985039370082
20
6.3381982677165354
11
-4.073198385826772
21
6.3381983858267716
0
LINE
8
BLACK
6
CONTINUOUS
10
-4.073198385826772
20
6.3381983858267716
11
-4.0697484645669286
21
6.3428069291338582
0
LINE
8
BLACK
6
CONTINUOUS
10
-4.0697484645669286
20
6.3428069291338582
11
-4.0677366535433066
21
6.3482007480314957
0
LINE
8
BLACK
6
CONTINUOUS
10
-4.0677366535433066
20
6.3482007480314957
11
-4.0677366141732278
21
6.3482009055118107
0
LINE
8
BLACK
6
CONTINUOUS
10
-4.0677366141732278
20
6.3482009055118107
11
-4.0674803543307085
21
6.3505846456692909
0
LINE
8
BLACK
6
CONTINUOUS
10
-4.0674803543307085
20
6.3505846456692909
11
-4.0674803149606298
21
6.3505853149606297
0
LINE
8
BLACK
6
CONTINUOUS
10
-4.0674803149606298
20
6.3505853149606297
11
-4.0674803149606298
21
6.4194146456692911
0
LINE
8
BLACK
6
CONTINUOUS
10
-4.0674803149606298
20
6.4194146456692911
11
-4.0674803543307085
21
6.4194153149606299
0
LINE
8
BLACK
6
CONTINUOUS
10
-4.0674803543307085
20
6.4194153149606299
11
-4.0677366141732278
21
6.4217990551181101
0
LINE
8
BLACK
6
CONTINUOUS
10
-4.0677366141732278
20
6.4217990551181101
11
-4.0677366929133854
21
6.4217993700787401
0
LINE
8
BLACK
6
CONTINUOUS
10
-4.0677366929133854
20
6.4217993700787401
11
-4.0688366535433067
21
6.4247484251968503
0
LINE
8
BLACK
6
CONTINUOUS
10
-4.0688366535433067
20
6.4247484251968503
11
-4.0697484645669286
21
6.4271930708661413
0
LINE
8
BLACK
6
CONTINUOUS
10
-4.0697484645669286
20
6.4271930708661413
11
-4.073198385826772
21
6.4318016141732279
0
LINE
8
BLACK
6
CONTINUOUS
10
-4.073198385826772
20
6.4318016141732279
11
-4.0731984645669295
21
6.4318016535433067
0
LINE
8
BLACK
6
CONTINUOUS
10
-4.0731984645669295
20
6.4318016535433067
11
-4.0733795275590552
21
6.4320435433070866
0
LINE
8
BLACK
6
CONTINUOUS
10
-4.0733795275590552
20
6.4320435433070866
11
-4.0743563779527561
21
6.4346624409448818
0
LINE
8
BLACK
6
CONTINUOUS
10
-4.0743563779527561
20
6.4346624409448818
11
-4.0737622440944881
21
6.4373937007874016
0
LINE
8
BLACK
6
CONTINUOUS
10
-4.0737622440944881
20
6.4373937007874016
11
-4.0733795669291339
21
6.4379891732283463
0
LINE
8
BLACK
6
CONTINUOUS
10
-4.0733795669291339
20
6.4379891732283463
11
-4.0697659842519682
21
6.4428162992125984
0
LINE
8
BLACK
6
CONTINUOUS
10
-4.0697659842519682
20
6.4428162992125984
11
-4.0697659842519682
21
6.4428163385826771
0
LINE
8
BLACK
6
CONTINUOUS
10
-4.0697659842519682
20
6.4428163385826771
11
-4.0677561417322829
21
6.448204960629921
0
LINE
8
BLACK
6
CONTINUOUS
10
-4.0677561417322829
20
6.448204960629921
11
-4.0675000393700786
21
6.4505866929133857
0
LINE
8
BLACK
6
CONTINUOUS
10
-4.0675000393700786
20
6.4505866929133857
11
-4.0674999999999999
21
6.4505871653543307
0
LINE
8
BLACK
6
CONTINUOUS
10
-4.0674999999999999
20
6.4505871653543307
11
-4.0674999999999999
21
6.4749999999999996
0
LINE
8
BLACK
6
CONTINUOUS
10
-4.0674999999999999
20
6.4749999999999996
11
-4.0874999999999995
21
6.4749999999999996
0
LINE
8
BLACK
6
CONTINUOUS
10
-4.0874999999999995
20
6.4749999999999996
11
-4.0874999999999995
21
6.4524999999999997
0
LINE
8
BLACK
6
CONTINUOUS
10
-4.0874999999999995
20
6.4524999999999997
11
-4.1524999999999999
21
6.4524999999999997
0
LINE
8
BLACK
6
CONTINUOUS
10
-4.1524999999999999
20
6.4524999999999997
11
-4.1524999999999999
21
6.4749999999999996
0
LINE
8
BLACK
6
CONTINUOUS
10
-4.1524999999999999
20
6.4749999999999996
11
-4.1875
21
6.4749999999999996
0
LINE
8
BLACK
6
CONTINUOUS
10
-4.1875
20
6.4749999999999996
11
-4.1875
21
6.4524999999999997
0
LINE
8
BLACK
6
CONTINUOUS
10
-4.1875
20
6.4524999999999997
11
-4.2524999999999995
21
6.4524999999999997
0
LINE
8
BLACK
6
CONTINUOUS
10
-4.2524999999999995
20
6.4524999999999997
11
-4.2524999999999995
21
6.4749999999999996
0
LINE
8
BLACK
6
CONTINUOUS
10
-4.2524999999999995
20
6.4749999999999996
11
-4.2725
21
6.4749999999999996
0
LINE
8
BLACK
6
CONTINUOUS
10
-4.2725
20
6.4749999999999996
11
-4.2725
21
6.4505866929133857
0
LINE
8
BLACK
6
CONTINUOUS
10
-4.2725
20
6.4505866929133857
11
-4.2722438976377948
21
6.448204960629921
0
LINE
8
BLACK
6
CONTINUOUS
10
-4.2722438976377948
20
6.448204960629921
11
-4.2702340551181104
21
6.4428163385826771
0
LINE
8
BLACK
6
CONTINUOUS
10
-4.2702340551181104
20
6.4428163385826771
11
-4.2702340551181104
21
6.4428162992125984
0
LINE
8
BLACK
6
CONTINUOUS
10
-4.2702340551181104
20
6.4428162992125984
11
-4.2666204724409447
21
6.4379891732283463
0
LINE
8
BLACK
6
CONTINUOUS
10
-4.2666204724409447
20
6.4379891732283463
11
-4.2656436614173225
21
6.4353702755905511
0
LINE
8
BLACK
6
CONTINUOUS
10
-4.2656436614173225
20
6.4353702755905511
11
-4.2662378346456693
21
6.4326389763779526
0
LINE
8
BLACK
6
CONTINUOUS
10
-4.2662378346456693
20
6.4326389763779526
11
-4.2666204724409447
21
6.4320435433070866
0
LINE
8
BLACK
6
CONTINUOUS
10
-4.2666204724409447
20
6.4320435433070866
11
-4.2668015748031491
21
6.4318016535433067
0
LINE
8
BLACK
6
CONTINUOUS
10
-4.2668015748031491
20
6.4318016535433067
11
-4.2668016141732279
21
6.4318016141732279
0
LINE
8
BLACK
6
CONTINUOUS
10
-4.2668016141732279
20
6.4318016141732279
11
-4.2690861023622046
21
6.4287499212598425
0
LINE
8
BLACK
6
CONTINUOUS
10
-4.2690861023622046
20
6.4287499212598425
11
-4.2702515748031491
21
6.4271930314960626
0
LINE
8
BLACK
6
CONTINUOUS
10
-4.2702515748031491
20
6.4271930314960626
11
-4.2702515748031491
21
6.4271929921259838
0
LINE
8
BLACK
6
CONTINUOUS
10
-4.2702515748031491
20
6.4271929921259838
11
-4.2722633464566933
21
6.4217993700787401
0
LINE
8
BLACK
6
CONTINUOUS
10
-4.2722633464566933
20
6.4217993700787401
11
-4.2722634251968499
21
6.4217990551181101
0
LINE
8
BLACK
6
CONTINUOUS
10
-4.2722634251968499
20
6.4217990551181101
11
-4.2725196850393701
21
6.4194153149606299
0
LINE
8
BLACK
6
CONTINUOUS
10
-4.2725196850393701
20
6.4194153149606299
11
-4.2725196850393701
21
6.3505846456692909
0
LINE
8
BLACK
6
CONTINUOUS
10
-4.1100000000000003
20
6.5175000000000001
11
-4.0874999999999995
21
6.5175000000000001
0
LINE
8
BLACK
6
CONTINUOUS
10
-4.0874999999999995
20
6.5175000000000001
11
-4.0874999999999995
21
6.4950000000000001
0
LINE
8
BLACK
6
CONTINUOUS
10
-4.0874999999999995
20
6.4950000000000001
11
-4.0674999999999999
21
6.4950000000000001
0
LINE
8
BLACK
6
CONTINUOUS
10
-4.0674999999999999
20
6.4950000000000001
11
-4.0674999999999999
21
6.5094153149606298
0
LINE
8
BLACK
6
CONTINUOUS
10
-4.0674999999999999
20
6.5094153149606298
11
-4.0674999999999999
21
6.5194127952755903
0
LINE
8
BLACK
6
CONTINUOUS
10
-4.0674999999999999
20
6.5194127952755903
11
-4.0675000393700786
21
6.5194132677165353
0
LINE
8
BLACK
6
CONTINUOUS
10
-4.0675000393700786
20
6.5194132677165353
11
-4.0677561417322829
21
6.521795
0
LINE
8
BLACK
6
CONTINUOUS
10
-4.0677561417322829
20
6.521795
11
-4.0697659842519682
21
6.5271836220472439
0
LINE
8
BLACK
6
CONTINUOUS
10
-4.0697659842519682
20
6.5271836220472439
11
-4.0697659842519682
21
6.5271836614173226
0
LINE
8
BLACK
6
CONTINUOUS
10
-4.0697659842519682
20
6.5271836614173226
11
-4.0732124409448822
21
6.5317875590551182
0
LINE
8
BLACK
6
CONTINUOUS
10
-4.0732124409448822
20
6.5317875590551182
11
-4.0778163385826769
21
6.5352340157480313
0
LINE
8
BLACK
6
CONTINUOUS
10
-4.0778163385826769
20
6.5352340157480313
11
-4.0832049999999995
21
6.5372438582677166
0
LINE
8
BLACK
6
CONTINUOUS
10
-4.0832049999999995
20
6.5372438582677166
11
-4.0855867322834643
21
6.5374999606299209
0
LINE
8
BLACK
6
CONTINUOUS
10
-4.0855867322834643
20
6.5374999606299209
11
-4.0855872047244093
21
6.5374999999999996
0
LINE
8
BLACK
6
CONTINUOUS
10
-4.0855872047244093
20
6.5374999999999996
11
-4.1100000000000003
21
6.5374999999999996
0
LINE
8
BLACK
6
CONTINUOUS
10
-4.1100000000000003
20
6.5374999999999996
11
-4.1100000000000003
21
6.5175000000000001
0
LINE
8
BLACK
6
CONTINUOUS
10
-3.3149999999999999
20
6.0324999999999998
11
-3.2925
21
6.0324999999999998
0
LINE
8
BLACK
6
CONTINUOUS
10
-3.2925
20
6.0324999999999998
11
-3.2925
21
6.0099999999999998
0
LINE
8
BLACK
6
CONTINUOUS
10
-3.2925
20
6.0099999999999998
11
-3.2725
21
6.0099999999999998
0
LINE
8
BLACK
6
CONTINUOUS
10
-3.2725
20
6.0099999999999998
11
-3.2725
21
6.0344127952755908
0
LINE
8
BLACK
6
CONTINUOUS
10
-3.2725
20
6.0344127952755908
11
-3.2725000393700787
21
6.034413267716535
0
LINE
8
BLACK
6
CONTINUOUS
10
-3.2725000393700787
20
6.034413267716535
11
-3.2727561417322835
21
6.0367949999999997
0
LINE
8
BLACK
6
CONTINUOUS
10
-3.2727561417322835
20
6.0367949999999997
11
-3.2747659842519683
21
6.0421836220472436
0
LINE
8
BLACK
6
CONTINUOUS
10
-3.2747659842519683
20
6.0421836220472436
11
-3.2747659842519683
21
6.0421836614173223
0
LINE
8
BLACK
6
CONTINUOUS
10
-3.2747659842519683
20
6.0421836614173223
11
-3.2782124409448818
21
6.0467875590551179
0
LINE
8
BLACK
6
CONTINUOUS
10
-3.2782124409448818
20
6.0467875590551179
11
-3.282816338582677
21
6.050234015748031
0
LINE
8
BLACK
6
CONTINUOUS
10
-3.282816338582677
20
6.050234015748031
11
-3.288205
21
6.0522438582677163
0
LINE
8
BLACK
6
CONTINUOUS
10
-3.288205
20
6.0522438582677163
11
-3.2905867322834643
21
6.0524999606299215
0
LINE
8
BLACK
6
CONTINUOUS
10
-3.2905867322834643
20
6.0524999606299215
11
-3.2905872047244094
21
6.0525000000000002
0
LINE
8
BLACK
6
CONTINUOUS
10
-3.2905872047244094
20
6.0525000000000002
11
-3.3149999999999999
21
6.0525000000000002
0
LINE
8
BLACK
6
CONTINUOUS
10
-3.3149999999999999
20
6.0525000000000002
11
-3.3149999999999999
21
6.0324999999999998
0
LINE
8
BLACK
6
CONTINUOUS
10
-3.415
20
6.0324999999999998
11
-3.3925000000000001
21
6.0324999999999998
0
LINE
8
BLACK
6
CONTINUOUS
10
-3.3925000000000001
20
6.0324999999999998
11
-3.3925000000000001
21
6.0099999999999998
0
LINE
8
BLACK
6
CONTINUOUS
10
-3.3925000000000001
20
6.0099999999999998
11
-3.3574999999999999
21
6.0099999999999998
0
LINE
8
BLACK
6
CONTINUOUS
10
-3.3574999999999999
20
6.0099999999999998
11
-3.3574999999999999
21
6.0324999999999998
0
LINE
8
BLACK
6
CONTINUOUS
10
-3.3574999999999999
20
6.0324999999999998
11
-3.335
21
6.0324999999999998
0
LINE
8
BLACK
6
CONTINUOUS
10
-3.335
20
6.0324999999999998
11
-3.335
21
6.0525000000000002
0
LINE
8
BLACK
6
CONTINUOUS
10
-3.335
20
6.0525000000000002
11
-3.3594127952755906
21
6.0525000000000002
0
LINE
8
BLACK
6
CONTINUOUS
10
-3.3594127952755906
20
6.0525000000000002
11
-3.3594133070866139
21
6.0524999606299215
0
LINE
8
BLACK
6
CONTINUOUS
10
-3.3594133070866139
20
6.0524999606299215
11
-3.3617950393700786
21
6.0522438582677163
0
LINE
8
BLACK
6
CONTINUOUS
10
-3.3617950393700786
20
6.0522438582677163
11
-3.3671836220472442
21
6.0502340551181097
0
LINE
8
BLACK
6
CONTINUOUS
10
-3.3671836220472442
20
6.0502340551181097
11
-3.3720271653543308
21
6.0466081496062989
0
LINE
8
BLACK
6
CONTINUOUS
10
-3.3720271653543308
20
6.0466081496062989
11
-3.374646062992126
21
6.0456313385826768
0
LINE
8
BLACK
6
CONTINUOUS
10
-3.374646062992126
20
6.0456313385826768
11
-3.3773773622047245
21
6.0462254724409448
0
LINE
8
BLACK
6
CONTINUOUS
10
-3.3773773622047245
20
6.0462254724409448
11
-3.3779728346456692
21
6.0466081496062989
0
LINE
8
BLACK
6
CONTINUOUS
10
-3.3779728346456692
20
6.0466081496062989
11
-3.3828164173228346
21
6.0502340551181097
0
LINE
8
BLACK
6
CONTINUOUS
10
-3.3828164173228346
20
6.0502340551181097
11
-3.3882050000000001
21
6.0522438582677163
0
LINE
8
BLACK
6
CONTINUOUS
10
-3.3882050000000001
20
6.0522438582677163
11
-3.3905867322834644
21
6.0524999606299215
0
LINE
8
BLACK
6
CONTINUOUS
10
-3.3905867322834644
20
6.0524999606299215
11
-3.3905872047244094
21
6.0525000000000002
0
LINE
8
BLACK
6
CONTINUOUS
10
-3.3905872047244094
20
6.0525000000000002
11
-3.415
21
6.0525000000000002
0
LINE
8
BLACK
6
CONTINUOUS
10
-3.415
20
6.0525000000000002
11
-3.415
21
6.0324999999999998
0
LINE
8
BLACK
6
CONTINUOUS
10
-3.7675196850393702
20
6.4405846456692908
11
-3.7672634251968504
21
6.4382009055118106
0
LINE
8
BLACK
6
CONTINUOUS
10
-3.7672634251968504
20
6.4382009055118106
11
-3.7672633464566929
21
6.4382005905511805
0
LINE
8
BLACK
6
CONTINUOUS
10
-3.7672633464566929
20
6.4382005905511805
11
-3.7652515748031496
21
6.4328069685039369
0
LINE
8
BLACK
6
CONTINUOUS
10
-3.7652515748031496
20
6.4328069685039369
11
-3.7652514960629921
21
6.4328067716535431
0
LINE
8
BLACK
6
CONTINUOUS
10
-3.7652514960629921
20
6.4328067716535431
11
-3.7618016535433072
21
6.4281983464566927
0
LINE
8
BLACK
6
CONTINUOUS
10
-3.7618016535433072
20
6.4281983464566927
11
-3.7571932283464564
21
6.4247485039370078
0
LINE
8
BLACK
6
CONTINUOUS
10
-3.7571932283464564
20
6.4247485039370078
11
-3.7571930314960631
21
6.4247484251968503
0
LINE
8
BLACK
6
CONTINUOUS
10
-3.7571930314960631
20
6.4247484251968503
11
-3.751799409448819
21
6.422736653543307
0
LINE
8
BLACK
6
CONTINUOUS
10
-3.751799409448819
20
6.422736653543307
11
-3.7517990944881889
21
6.4227365748031495
0
LINE
8
BLACK
6
CONTINUOUS
10
-3.7517990944881889
20
6.4227365748031495
11
-3.7494153543307087
21
6.4224803149606302
0
LINE
8
BLACK
6
CONTINUOUS
10
-3.7494153543307087
20
6.4224803149606302
11
-3.7494148818897637
21
6.4224803149606302
0
LINE
8
BLACK
6
CONTINUOUS
10
-3.7494148818897637
20
6.4224803149606302
11
-3.6805846850393702
21
6.4224803149606302
0
LINE
8
BLACK
6
CONTINUOUS
10
-3.6805846850393702
20
6.4224803149606302
11
-3.6782009448818895
21
6.4227365748031495
0
LINE
8
BLACK
6
CONTINUOUS
10
-3.6782009448818895
20
6.4227365748031495
11
-3.67820062992126
21
6.422736653543307
0
LINE
8
BLACK
6
CONTINUOUS
10
-3.67820062992126
20
6.422736653543307
11
-3.6728070078740158
21
6.4247484251968503
0
LINE
8
BLACK
6
CONTINUOUS
10
-3.6728070078740158
20
6.4247484251968503
11
-3.6728068110236221
21
6.4247485039370078
0
LINE
8
BLACK
6
CONTINUOUS
10
-3.6728068110236221
20
6.4247485039370078
11
-3.6679727952755905
21
6.4283672440944883
0
LINE
8
BLACK
6
CONTINUOUS
10
-3.6679727952755905
20
6.4283672440944883
11
-3.6653538976377953
21
6.4293440551181105
0
LINE
8
BLACK
6
CONTINUOUS
10
-3.6653538976377953
20
6.4293440551181105
11
-3.6626226377952755
21
6.4287499212598425
0
LINE
8
BLACK
6
CONTINUOUS
10
-3.6626226377952755
20
6.4287499212598425
11
-3.6620272047244096
21
6.4283672440944883
0
LINE
8
BLACK
6
CONTINUOUS
10
-3.6620272047244096
20
6.4283672440944883
11
-3.6571932283464568
21
6.4247485039370078
0
LINE
8
BLACK
6
CONTINUOUS
10
-3.6571932283464568
20
6.4247485039370078
11
-3.657193031496063
21
6.4247484251968503
0
LINE
8
BLACK
6
CONTINUOUS
10
-3.657193031496063
20
6.4247484251968503
11
-3.6517994094488189
21
6.422736653543307
0
LINE
8
BLACK
6
CONTINUOUS
10
-3.6517994094488189
20
6.422736653543307
11
-3.6517990944881888
21
6.4227365748031495
0
LINE
8
BLACK
6
CONTINUOUS
10
-3.6517990944881888
20
6.4227365748031495
11
-3.6494500393700786
21
6.4224840551181099
0
LINE
8
BLACK
6
CONTINUOUS
10
-3.6494500393700786
20
6.4224840551181099
11
-3.6468676771653543
21
6.4214144094488184
0
LINE
8
BLACK
6
CONTINUOUS
10
-3.6468676771653543
20
6.4214144094488184
11
-3.6452735433070864
21
6.4191183858267715
0
LINE
8
BLACK
6
CONTINUOUS
10
-3.6452735433070864
20
6.4191183858267715
11
-3.6450196850393701
21
6.4175518503937008
0
LINE
8
BLACK
6
CONTINUOUS
10
-3.6450196850393701
20
6.4175518503937008
11
-3.6450196850393701
21
6.1620432677165349
0
LINE
8
BLACK
6
CONTINUOUS
10
-3.6450196850393701
20
6.1620432677165349
11
-3.6444128740157478
21
6.158992755905512
0
LINE
8
BLACK
6
CONTINUOUS
10
-3.6444128740157478
20
6.158992755905512
11
-3.643866023622047
21
6.1562435039370076
0
LINE
8
BLACK
6
CONTINUOUS
10
-3.643866023622047
20
6.1562435039370076
11
-3.6438659842519683
21
6.1562434645669288
0
LINE
8
BLACK
6
CONTINUOUS
10
-3.6438659842519683
20
6.1562434645669288
11
-3.6416030708661418
21
6.1507803149606302
0
LINE
8
BLACK
6
CONTINUOUS
10
-3.6416030708661418
20
6.1507803149606302
11
-3.6383178346456693
21
6.1458635433070867
0
LINE
8
BLACK
6
CONTINUOUS
10
-3.6383178346456693
20
6.1458635433070867
11
-3.638317716535433
21
6.1458633858267717
0
LINE
8
BLACK
6
CONTINUOUS
10
-3.638317716535433
20
6.1458633858267717
11
-3.5332761023622048
21
6.0408217716535431
0
LINE
8
BLACK
6
CONTINUOUS
10
-3.5332761023622048
20
6.0408217716535431
11
-3.531936496062992
21
6.0383685433070866
0
LINE
8
BLACK
6
CONTINUOUS
10
-3.531936496062992
20
6.0383685433070866
11
-3.531918464566929
21
6.0382819291338583
0
LINE
8
BLACK
6
CONTINUOUS
10
-3.531918464566929
20
6.0382819291338583
11
-3.5316226771653541
21
6.0367949999999997
0
LINE
8
BLACK
6
CONTINUOUS
10
-3.5316226771653541
20
6.0367949999999997
11
-3.5311489370078739
21
6.034413267716535
0
LINE
8
BLACK
6
CONTINUOUS
10
-3.5311489370078739
20
6.034413267716535
11
-3.5310777952755905
21
6.0340557874015746
0
LINE
8
BLACK
6
CONTINUOUS
10
-3.5310777952755905
20
6.0340557874015746
11
-3.5310777952755905
21
6.0340557480314958
0
LINE
8
BLACK
6
CONTINUOUS
10
-3.5310777952755905
20
6.0340557480314958
11
-3.5282495275590549
21
6.0272277559055114
0
LINE
8
BLACK
6
CONTINUOUS
10
-3.5282495275590549
20
6.0272277559055114
11
-3.524143464566929
21
6.0210825984251963
0
LINE
8
BLACK
6
CONTINUOUS
10
-3.524143464566929
20
6.0210825984251963
11
-3.5241432677165352
21
6.0210823622047247
0
LINE
8
BLACK
6
CONTINUOUS
10
-3.5241432677165352
20
6.0210823622047247
11
-3.5189176377952753
21
6.0158567322834644
0
LINE
8
BLACK
6
CONTINUOUS
10
-3.5189176377952753
20
6.0158567322834644
11
-3.5189174015748033
21
6.0158565354330706
0
LINE
8
BLACK
6
CONTINUOUS
10
-3.5189174015748033
20
6.0158565354330706
11
-3.5127722440944882
21
6.0117504724409452
0
LINE
8
BLACK
6
CONTINUOUS
10
-3.5127722440944882
20
6.0117504724409452
11
-3.5059443307086613
21
6.0089222440944878
0
LINE
8
BLACK
6
CONTINUOUS
10
-3.5059443307086613
20
6.0089222440944878
11
-3.5059441338582675
21
6.0089221653543303
0
LINE
8
BLACK
6
CONTINUOUS
10
-3.5059441338582675
20
6.0089221653543303
11
-3.4986954724409447
21
6.0074803149606302
0
LINE
8
BLACK
6
CONTINUOUS
10
-3.4986954724409447
20
6.0074803149606302
11
-3.4986953543307084
21
6.0074803149606302
0
LINE
8
BLACK
6
CONTINUOUS
10
-3.4986953543307084
20
6.0074803149606302
11
-3.4913045669291338
21
6.0074803149606302
0
LINE
8
BLACK
6
CONTINUOUS
10
-3.4913045669291338
20
6.0074803149606302
11
-3.484055905511811
21
6.0089221653543303
0
LINE
8
BLACK
6
CONTINUOUS
10
-3.484055905511811
20
6.0089221653543303
11
-3.4840555118110235
21
6.0089222834645666
0
LINE
8
BLACK
6
CONTINUOUS
10
-3.4840555118110235
20
6.0089222834645666
11
-3.481720275590551
21
6.0098895669291341
0
LINE
8
BLACK
6
CONTINUOUS
10
-3.481720275590551
20
6.0098895669291341
11
-3.4789411417322835
21
6.010188346456693
0
LINE
8
BLACK
6
CONTINUOUS
10
-3.4789411417322835
20
6.010188346456693
11
-3.4785648818897639
21
6.0099999999999998
0
LINE
8
BLACK
6
CONTINUOUS
10
-3.4785648818897639
20
6.0099999999999998
11
-3.4575
21
6.0099999999999998
0
LINE
8
BLACK
6
CONTINUOUS
10
-3.4575
20
6.0099999999999998
11
-3.4575
21
6.0324999999999998
0
LINE
8
BLACK
6
CONTINUOUS
10
-3.4575
20
6.0324999999999998
11
-3.4350000000000001
21
6.0324999999999998
0
LINE
8
BLACK
6
CONTINUOUS
10
-3.4350000000000001
20
6.0324999999999998
11
-3.4350000000000001
21
6.0525000000000002
0
LINE
8
BLACK
6
CONTINUOUS
10
-3.4350000000000001
20
6.0525000000000002
11
-3.454198346456693
21
6.0525000000000002
0
LINE
8
BLACK
6
CONTINUOUS
10
-3.454198346456693
20
6.0525000000000002
11
-3.4568802755905512
21
6.0532874803149603
0
LINE
8
BLACK
6
CONTINUOUS
10
-3.4568802755905512
20
6.0532874803149603
11
-3.4587107086614171
21
6.0553999212598422
0
LINE
8
BLACK
6
CONTINUOUS
10
-3.4587107086614171
20
6.0553999212598422
11
-3.458856653543307
21
6.0557859055118106
0
LINE
8
BLACK
6
CONTINUOUS
10
-3.458856653543307
20
6.0557859055118106
11
-3.4589221653543305
21
6.055944094488189
0
LINE
8
BLACK
6
CONTINUOUS
10
-3.4589221653543305
20
6.055944094488189
11
-3.4617504724409449
21
6.0627722440944884
0
LINE
8
BLACK
6
CONTINUOUS
10
-3.4617504724409449
20
6.0627722440944884
11
-3.4658565748031496
21
6.0689174015748026
0
LINE
8
BLACK
6
CONTINUOUS
10
-3.4658565748031496
20
6.0689174015748026
11
-3.471082598425197
21
6.0741434251968505
0
LINE
8
BLACK
6
CONTINUOUS
10
-3.471082598425197
20
6.0741434251968505
11
-3.4772277559055116
21
6.0782495275590547
0
LINE
8
BLACK
6
CONTINUOUS
10
-3.4772277559055116
20
6.0782495275590547
11
-3.484055905511811
21
6.0810778346456695
0
LINE
8
BLACK
6
CONTINUOUS
10
-3.484055905511811
20
6.0810778346456695
11
-3.4882819685039368
21
6.0819183858267714
0
LINE
8
BLACK
6
CONTINUOUS
10
-3.4882819685039368
20
6.0819183858267714
11
-3.4907586614173227
21
6.0832139370078737
0
LINE
8
BLACK
6
CONTINUOUS
10
-3.4907586614173227
20
6.0832139370078737
11
-3.4908196062992127
21
6.0832737795275591
0
LINE
8
BLACK
6
CONTINUOUS
10
-3.4908196062992127
20
6.0832737795275591
11
-3.5835274409448816
21
6.1759816535433067
0
LINE
8
BLACK
6
CONTINUOUS
10
-3.5835274409448816
20
6.1759816535433067
11
-3.5848669685039369
21
6.1784348031496066
0
LINE
8
BLACK
6
CONTINUOUS
10
-3.5848669685039369
20
6.1784348031496066
11
-3.5849803149606299
21
6.1794892519685041
0
LINE
8
BLACK
6
CONTINUOUS
10
-3.5849803149606299
20
6.1794892519685041
11
-3.5849803149606299
21
6.4044153149606302
0
LINE
8
BLACK
6
CONTINUOUS
10
-3.5849803149606299
20
6.4044153149606302
11
-3.5849803149606299
21
6.4175518503937008
0
LINE
8
BLACK
6
CONTINUOUS
10
-3.5849803149606299
20
6.4175518503937008
11
-3.5841928346456693
21
6.4202337795275586
0
LINE
8
BLACK
6
CONTINUOUS
10
-3.5841928346456693
20
6.4202337795275586
11
-3.5820803937007875
21
6.4220642125984249
0
LINE
8
BLACK
6
CONTINUOUS
10
-3.5820803937007875
20
6.4220642125984249
11
-3.5805499606299214
21
6.4224840551181099
0
LINE
8
BLACK
6
CONTINUOUS
10
-3.5805499606299214
20
6.4224840551181099
11
-3.5782009448818899
21
6.4227365748031495
0
LINE
8
BLACK
6
CONTINUOUS
10
-3.5782009448818899
20
6.4227365748031495
11
-3.5782006299212599
21
6.422736653543307
0
LINE
8
BLACK
6
CONTINUOUS
10
-3.5782006299212599
20
6.422736653543307
11
-3.5728070078740157
21
6.4247484251968503
0
LINE
8
BLACK
6
CONTINUOUS
10
-3.5728070078740157
20
6.4247484251968503
11
-3.572806811023622
21
6.4247485039370078
0
LINE
8
BLACK
6
CONTINUOUS
10
-3.572806811023622
20
6.4247485039370078
11
-3.5681983858267716
21
6.4281983464566927
0
LINE
8
BLACK
6
CONTINUOUS
10
-3.5681983858267716
20
6.4281983464566927
11
-3.5647485433070867
21
6.4328067716535431
0
LINE
8
BLACK
6
CONTINUOUS
10
-3.5647485433070867
20
6.4328067716535431
11
-3.5647484645669292
21
6.4328069685039369
0
LINE
8
BLACK
6
CONTINUOUS
10
-3.5647484645669292
20
6.4328069685039369
11
-3.5627366929133859
21
6.4382005905511805
0
LINE
8
BLACK
6
CONTINUOUS
10
-3.5627366929133859
20
6.4382005905511805
11
-3.5627366141732284
21
6.4382009055118106
0
LINE
8
BLACK
6
CONTINUOUS
10
-3.5627366141732284
20
6.4382009055118106
11
-3.5624803543307086
21
6.4405846456692908
0
LINE
8
BLACK
6
CONTINUOUS
10
-3.5624803543307086
20
6.4405846456692908
11
-3.5624803149606299
21
6.4405853149606296
0
LINE
8
BLACK
6
CONTINUOUS
10
-3.5624803149606299
20
6.4405853149606296
11
-3.5624803149606299
21
6.509414645669291
0
LINE
8
BLACK
6
CONTINUOUS
10
-3.5624803149606299
20
6.509414645669291
11
-3.5624803543307086
21
6.5094153149606298
0
LINE
8
BLACK
6
CONTINUOUS
10
-3.5624803543307086
20
6.5094153149606298
11
-3.5627366141732284
21
6.51179905511811
0
LINE
8
BLACK
6
CONTINUOUS
10
-3.5627366141732284
20
6.51179905511811
11
-3.5627366929133859
21
6.51179937007874
0
LINE
8
BLACK
6
CONTINUOUS
10
-3.5627366929133859
20
6.51179937007874
11
-3.5630133858267716
21
6.5125411417322834
0
LINE
8
BLACK
6
CONTINUOUS
10
-3.5630133858267716
20
6.5125411417322834
11
-3.5647484645669292
21
6.5171930708661412
0
LINE
8
BLACK
6
CONTINUOUS
10
-3.5647484645669292
20
6.5171930708661412
11
-3.5681983858267716
21
6.5218016141732278
0
LINE
8
BLACK
6
CONTINUOUS
10
-3.5681983858267716
20
6.5218016141732278
11
-3.5728069291338582
21
6.5252515354330711
0
LINE
8
BLACK
6
CONTINUOUS
10
-3.5728069291338582
20
6.5252515354330711
11
-3.5779870078740155
21
6.5271836220472439
0
LINE
8
BLACK
6
CONTINUOUS
10
-3.5779870078740155
20
6.5271836220472439
11
-3.5782006299212599
21
6.5272633070866144
0
LINE
8
BLACK
6
CONTINUOUS
10
-3.5782006299212599
20
6.5272633070866144
11
-3.5782006692913386
21
6.5272633070866144
0
LINE
8
BLACK
6
CONTINUOUS
10
-3.5782006692913386
20
6.5272633070866144
11
-3.5782007480314961
21
6.5272633464566931
0
LINE
8
BLACK
6
CONTINUOUS
10
-3.5782007480314961
20
6.5272633464566931
11
-3.5782008267716536
21
6.5272633464566931
0
LINE
8
BLACK
6
CONTINUOUS
10
-3.5782008267716536
20
6.5272633464566931
11
-3.5782009448818899
21
6.5272633858267719
0
LINE
8
BLACK
6
CONTINUOUS
10
-3.5782009448818899
20
6.5272633858267719
11
-3.5805846850393701
21
6.5275196456692912
0
LINE
8
BLACK
6
CONTINUOUS
10
-3.5805846850393701
20
6.5275196456692912
11
-3.5805848425196851
21
6.5275196456692912
0
LINE
8
BLACK
6
CONTINUOUS
10
-3.5805848425196851
20
6.5275196456692912
11
-3.5805851181102359
21
6.52751968503937
0
LINE
8
BLACK
6
CONTINUOUS
10
-3.5805851181102359
20
6.52751968503937
11
-3.6494148818897636
21
6.52751968503937
0
LINE
8
BLACK
6
CONTINUOUS
10
-3.6494148818897636
20
6.52751968503937
11
-3.6494151574803149
21
6.5275196456692912
0
LINE
8
BLACK
6
CONTINUOUS
10
-3.6494151574803149
20
6.5275196456692912
11
-3.6494153543307086
21
6.5275196456692912
0
LINE
8
BLACK
6
CONTINUOUS
10
-3.6494153543307086
20
6.5275196456692912
11
-3.6517990944881888
21
6.5272633858267719
0
LINE
8
BLACK
6
CONTINUOUS
10
-3.6517990944881888
20
6.5272633858267719
11
-3.6517994094488189
21
6.5272633070866144
0
LINE
8
BLACK
6
CONTINUOUS
10
-3.6517994094488189
20
6.5272633070866144
11
-3.6548671259842518
21
6.5261190551181105
0
LINE
8
BLACK
6
CONTINUOUS
10
-3.6548671259842518
20
6.5261190551181105
11
-3.6571930708661418
21
6.5252515354330711
0
LINE
8
BLACK
6
CONTINUOUS
10
-3.6571930708661418
20
6.5252515354330711
11
-3.6618016141732284
21
6.5218016141732278
0
LINE
8
BLACK
6
CONTINUOUS
10
-3.6618016141732284
20
6.5218016141732278
11
-3.6618017322834646
21
6.5218014960629924
0
LINE
8
BLACK
6
CONTINUOUS
10
-3.6618017322834646
20
6.5218014960629924
11
-3.6620271653543308
21
6.5216327165354331
0
LINE
8
BLACK
6
CONTINUOUS
10
-3.6620271653543308
20
6.5216327165354331
11
-3.664646062992126
21
6.520655905511811
0
LINE
8
BLACK
6
CONTINUOUS
10
-3.664646062992126
20
6.520655905511811
11
-3.6673773622047245
21
6.521250039370079
0
LINE
8
BLACK
6
CONTINUOUS
10
-3.6673773622047245
20
6.521250039370079
11
-3.6679728346456693
21
6.5216327165354331
0
LINE
8
BLACK
6
CONTINUOUS
10
-3.6679728346456693
20
6.5216327165354331
11
-3.6681983070866142
21
6.5218014960629924
0
LINE
8
BLACK
6
CONTINUOUS
10
-3.6681983070866142
20
6.5218014960629924
11
-3.6681983858267717
21
6.5218016141732278
0
LINE
8
BLACK
6
CONTINUOUS
10
-3.6681983858267717
20
6.5218016141732278
11
-3.6728069291338583
21
6.5252515354330711
0
LINE
8
BLACK
6
CONTINUOUS
10
-3.6728069291338583
20
6.5252515354330711
11
-3.6779870078740156
21
6.5271836220472439
0
LINE
8
BLACK
6
CONTINUOUS
10
-3.6779870078740156
20
6.5271836220472439
11
-3.67820062992126
21
6.5272633070866144
0
LINE
8
BLACK
6
CONTINUOUS
10
-3.67820062992126
20
6.5272633070866144
11
-3.6782006692913387
21
6.5272633070866144
0
LINE
8
BLACK
6
CONTINUOUS
10
-3.6782006692913387
20
6.5272633070866144
11
-3.6782007480314958
21
6.5272633464566931
0
LINE
8
BLACK
6
CONTINUOUS
10
-3.6782007480314958
20
6.5272633464566931
11
-3.6782008267716533
21
6.5272633464566931
0
LINE
8
BLACK
6
CONTINUOUS
10
-3.6782008267716533
20
6.5272633464566931
11
-3.6782009448818895
21
6.5272633858267719
0
LINE
8
BLACK
6
CONTINUOUS
10
-3.6782009448818895
20
6.5272633858267719
11
-3.6805846850393702
21
6.5275196456692912
0
LINE
8
BLACK
6
CONTINUOUS
10
-3.6805846850393702
20
6.5275196456692912
11
-3.6805848425196848
21
6.5275196456692912
0
LINE
8
BLACK
6
CONTINUOUS
10
-3.6805848425196848
20
6.5275196456692912
11
-3.680585118110236
21
6.52751968503937
0
LINE
8
BLACK
6
CONTINUOUS
10
-3.680585118110236
20
6.52751968503937
11
-3.7494148818897637
21
6.52751968503937
0
LINE
8
BLACK
6
CONTINUOUS
10
-3.7494148818897637
20
6.52751968503937
11
-3.749415157480315
21
6.5275196456692912
0
LINE
8
BLACK
6
CONTINUOUS
10
-3.749415157480315
20
6.5275196456692912
11
-3.7494153543307087
21
6.5275196456692912
0
LINE
8
BLACK
6
CONTINUOUS
10
-3.7494153543307087
20
6.5275196456692912
11
-3.7517990944881889
21
6.5272633858267719
0
LINE
8
BLACK
6
CONTINUOUS
10
-3.7517990944881889
20
6.5272633858267719
11
-3.751799409448819
21
6.5272633070866144
0
LINE
8
BLACK
6
CONTINUOUS
10
-3.751799409448819
20
6.5272633070866144
11
-3.7548671259842519
21
6.5261190551181105
0
LINE
8
BLACK
6
CONTINUOUS
10
-3.7548671259842519
20
6.5261190551181105
11
-3.7571930708661418
21
6.5252515354330711
0
LINE
8
BLACK
6
CONTINUOUS
10
-3.7571930708661418
20
6.5252515354330711
11
-3.7571931496062989
21
6.5252514960629924
0
LINE
8
BLACK
6
CONTINUOUS
10
-3.7571931496062989
20
6.5252514960629924
11
-3.7571932283464564
21
6.5252514566929136
0
LINE
8
BLACK
6
CONTINUOUS
10
-3.7571932283464564
20
6.5252514566929136
11
-3.7618016535433072
21
6.5218016141732278
0
LINE
8
BLACK
6
CONTINUOUS
10
-3.7618016535433072
20
6.5218016141732278
11
-3.7652514960629921
21
6.5171931889763774
0
LINE
8
BLACK
6
CONTINUOUS
10
-3.7652514960629921
20
6.5171931889763774
11
-3.7652515748031496
21
6.5171929921259837
0
LINE
8
BLACK
6
CONTINUOUS
10
-3.7652515748031496
20
6.5171929921259837
11
-3.7672633464566929
21
6.51179937007874
0
LINE
8
BLACK
6
CONTINUOUS
10
-3.7672633464566929
20
6.51179937007874
11
-3.7672634251968504
21
6.51179905511811
0
LINE
8
BLACK
6
CONTINUOUS
10
-3.7672634251968504
20
6.51179905511811
11
-3.7675196850393702
21
6.5094153149606298
0
LINE
8
BLACK
6
CONTINUOUS
10
-3.7675196850393702
20
6.5094153149606298
11
-3.7675196850393702
21
6.4405846456692908
0
LINE
8
BLACK
6
CONTINUOUS
10
-3.4775196850393701
20
6.3355846456692912
11
-3.4772634251968504
21
6.333200905511811
0
LINE
8
BLACK
6
CONTINUOUS
10
-3.4772634251968504
20
6.333200905511811
11
-3.4772633464566929
21
6.333200590551181
0
LINE
8
BLACK
6
CONTINUOUS
10
-3.4772633464566929
20
6.333200590551181
11
-3.4752515748031496
21
6.3278069685039364
0
LINE
8
BLACK
6
CONTINUOUS
10
-3.4752515748031496
20
6.3278069685039364
11
-3.4752514960629921
21
6.3278067716535435
0
LINE
8
BLACK
6
CONTINUOUS
10
-3.4752514960629921
20
6.3278067716535435
11
-3.4716327559055116
21
6.3229727952755903
0
LINE
8
BLACK
6
CONTINUOUS
10
-3.4716327559055116
20
6.3229727952755903
11
-3.4706559448818899
21
6.3203538976377951
0
LINE
8
BLACK
6
CONTINUOUS
10
-3.4706559448818899
20
6.3203538976377951
11
-3.4712500787401575
21
6.3176226377952753
0
LINE
8
BLACK
6
CONTINUOUS
10
-3.4712500787401575
20
6.3176226377952753
11
-3.4716327559055116
21
6.3170272047244094
0
LINE
8
BLACK
6
CONTINUOUS
10
-3.4716327559055116
20
6.3170272047244094
11
-3.4752514960629921
21
6.3121931889763774
0
LINE
8
BLACK
6
CONTINUOUS
10
-3.4752514960629921
20
6.3121931889763774
11
-3.4752515748031496
21
6.3121929921259845
0
LINE
8
BLACK
6
CONTINUOUS
10
-3.4752515748031496
20
6.3121929921259845
11
-3.4772633464566929
21
6.3067993700787399
0
LINE
8
BLACK
6
CONTINUOUS
10
-3.4772633464566929
20
6.3067993700787399
11
-3.4772634251968504
21
6.3067990551181099
0
LINE
8
BLACK
6
CONTINUOUS
10
-3.4772634251968504
20
6.3067990551181099
11
-3.4775196850393701
21
6.3044153149606297
0
LINE
8
BLACK
6
CONTINUOUS
10
-3.4775196850393701
20
6.3044153149606297
11
-3.4775196850393701
21
6.2355846456692916
0
LINE
8
BLACK
6
CONTINUOUS
10
-3.4775196850393701
20
6.2355846456692916
11
-3.4772634251968504
21
6.2332009055118105
0
LINE
8
BLACK
6
CONTINUOUS
10
-3.4772634251968504
20
6.2332009055118105
11
-3.4772633464566929
21
6.2332005905511814
0
LINE
8
BLACK
6
CONTINUOUS
10
-3.4772633464566929
20
6.2332005905511814
11
-3.4752515748031496
21
6.2278069685039368
0
LINE
8
BLACK
6
CONTINUOUS
10
-3.4752515748031496
20
6.2278069685039368
11
-3.4752514960629921
21
6.227806771653543
0
LINE
8
BLACK
6
CONTINUOUS
10
-3.4752514960629921
20
6.227806771653543
11
-3.4716327559055116
21
6.2229727952755907
0
LINE
8
BLACK
6
CONTINUOUS
10
-3.4716327559055116
20
6.2229727952755907
11
-3.4706559448818899
21
6.2203538976377954
0
LINE
8
BLACK
6
CONTINUOUS
10
-3.4706559448818899
20
6.2203538976377954
11
-3.4712500787401575
21
6.2176226377952757
0
LINE
8
BLACK
6
CONTINUOUS
10
-3.4712500787401575
20
6.2176226377952757
11
-3.4716327559055116
21
6.2170272047244097
0
LINE
8
BLACK
6
CONTINUOUS
10
-3.4716327559055116
20
6.2170272047244097
11
-3.4752514960629921
21
6.2121931889763777
0
LINE
8
BLACK
6
CONTINUOUS
10
-3.4752514960629921
20
6.2121931889763777
11
-3.4752515748031496
21
6.212192992125984
0
LINE
8
BLACK
6
CONTINUOUS
10
-3.4752515748031496
20
6.212192992125984
11
-3.4772633464566929
21
6.2067993700787403
0
LINE
8
BLACK
6
CONTINUOUS
10
-3.4772633464566929
20
6.2067993700787403
11
-3.4772634251968504
21
6.2067990551181103
0
LINE
8
BLACK
6
CONTINUOUS
10
-3.4772634251968504
20
6.2067990551181103
11
-3.4775196850393701
21
6.20441531496063
0
LINE
8
BLACK
6
CONTINUOUS
10
-3.4775196850393701
20
6.20441531496063
11
-3.4775196850393701
21
6.1355846456692911
0
LINE
8
BLACK
6
CONTINUOUS
10
-3.4775196850393701
20
6.1355846456692911
11
-3.4772634251968504
21
6.1332009055118109
0
LINE
8
BLACK
6
CONTINUOUS
10
-3.4772634251968504
20
6.1332009055118109
11
-3.4772633464566929
21
6.1332005905511808
0
LINE
8
BLACK
6
CONTINUOUS
10
-3.4772633464566929
20
6.1332005905511808
11
-3.4752515748031496
21
6.1278069685039371
0
LINE
8
BLACK
6
CONTINUOUS
10
-3.4752515748031496
20
6.1278069685039371
11
-3.4752514960629921
21
6.1278067716535434
0
LINE
8
BLACK
6
CONTINUOUS
10
-3.4752514960629921
20
6.1278067716535434
11
-3.4718016535433072
21
6.123198346456693
0
LINE
8
BLACK
6
CONTINUOUS
10
-3.4718016535433072
20
6.123198346456693
11
-3.4671932283464568
21
6.1197485039370081
0
LINE
8
BLACK
6
CONTINUOUS
10
-3.4671932283464568
20
6.1197485039370081
11
-3.4671930314960631
21
6.1197484251968506
0
LINE
8
BLACK
6
CONTINUOUS
10
-3.4671930314960631
20
6.1197484251968506
11
-3.4617994094488189
21
6.1177366535433073
0
LINE
8
BLACK
6
CONTINUOUS
10
-3.4617994094488189
20
6.1177366535433073
11
-3.4617990944881889
21
6.1177365748031498
0
LINE
8
BLACK
6
CONTINUOUS
10
-3.4617990944881889
20
6.1177365748031498
11
-3.4594153543307087
21
6.1174803149606296
0
LINE
8
BLACK
6
CONTINUOUS
10
-3.4594153543307087
20
6.1174803149606296
11
-3.4594148818897636
21
6.1174803149606296
0
LINE
8
BLACK
6
CONTINUOUS
10
-3.4594148818897636
20
6.1174803149606296
11
-3.3905846850393702
21
6.1174803149606296
0
LINE
8
BLACK
6
CONTINUOUS
10
-3.3905846850393702
20
6.1174803149606296
11
-3.3882009448818895
21
6.1177365748031498
0
LINE
8
BLACK
6
CONTINUOUS
10
-3.3882009448818895
20
6.1177365748031498
11
-3.3882006299212599
21
6.1177366535433073
0
LINE
8
BLACK
6
CONTINUOUS
10
-3.3882006299212599
20
6.1177366535433073
11
-3.3828070078740158
21
6.1197484251968506
0
LINE
8
BLACK
6
CONTINUOUS
10
-3.3828070078740158
20
6.1197484251968506
11
-3.382806811023622
21
6.1197485039370081
0
LINE
8
BLACK
6
CONTINUOUS
10
-3.382806811023622
20
6.1197485039370081
11
-3.3779727952755905
21
6.1233672440944877
0
LINE
8
BLACK
6
CONTINUOUS
10
-3.3779727952755905
20
6.1233672440944877
11
-3.3753538976377953
21
6.1243440551181099
0
LINE
8
BLACK
6
CONTINUOUS
10
-3.3753538976377953
20
6.1243440551181099
11
-3.3726226377952755
21
6.1237499212598427
0
LINE
8
BLACK
6
CONTINUOUS
10
-3.3726226377952755
20
6.1237499212598427
11
-3.3720272047244095
21
6.1233672440944877
0
LINE
8
BLACK
6
CONTINUOUS
10
-3.3720272047244095
20
6.1233672440944877
11
-3.3671932283464567
21
6.1197485039370081
0
LINE
8
BLACK
6
CONTINUOUS
10
-3.3671932283464567
20
6.1197485039370081
11
-3.367193031496063
21
6.1197484251968506
0
LINE
8
BLACK
6
CONTINUOUS
10
-3.367193031496063
20
6.1197484251968506
11
-3.3617994094488188
21
6.1177366535433073
0
LINE
8
BLACK
6
CONTINUOUS
10
-3.3617994094488188
20
6.1177366535433073
11
-3.3617990944881888
21
6.1177365748031498
0
LINE
8
BLACK
6
CONTINUOUS
10
-3.3617990944881888
20
6.1177365748031498
11
-3.3594153543307086
21
6.1174803149606296
0
LINE
8
BLACK
6
CONTINUOUS
10
-3.3594153543307086
20
6.1174803149606296
11
-3.3594148818897636
21
6.1174803149606296
0
LINE
8
BLACK
6
CONTINUOUS
10
-3.3594148818897636
20
6.1174803149606296
11
-3.2905846850393701
21
6.1174803149606296
0
LINE
8
BLACK
6
CONTINUOUS
10
-3.2905846850393701
20
6.1174803149606296
11
-3.2882009448818899
21
6.1177365748031498
0
LINE
8
BLACK
6
CONTINUOUS
10
-3.2882009448818899
20
6.1177365748031498
11
-3.2882006299212598
21
6.1177366535433073
0
LINE
8
BLACK
6
CONTINUOUS
10
-3.2882006299212598
20
6.1177366535433073
11
-3.2828070078740157
21
6.1197484251968506
0
LINE
8
BLACK
6
CONTINUOUS
10
-3.2828070078740157
20
6.1197484251968506
11
-3.2828068110236219
21
6.1197485039370081
0
LINE
8
BLACK
6
CONTINUOUS
10
-3.2828068110236219
20
6.1197485039370081
11
-3.2781983858267716
21
6.123198346456693
0
LINE
8
BLACK
6
CONTINUOUS
10
-3.2781983858267716
20
6.123198346456693
11
-3.2747485433070866
21
6.1278067716535434
0
LINE
8
BLACK
6
CONTINUOUS
10
-3.2747485433070866
20
6.1278067716535434
11
-3.2747484645669291
21
6.1278069685039371
0
LINE
8
BLACK
6
CONTINUOUS
10
-3.2747484645669291
20
6.1278069685039371
11
-3.2727366929133859
21
6.1332005905511808
0
LINE
8
BLACK
6
CONTINUOUS
10
-3.2727366929133859
20
6.1332005905511808
11
-3.2727366141732284
21
6.1332009055118109
0
LINE
8
BLACK
6
CONTINUOUS
10
-3.2727366141732284
20
6.1332009055118109
11
-3.2724803543307086
21
6.1355846456692911
0
LINE
8
BLACK
6
CONTINUOUS
10
-3.2724803543307086
20
6.1355846456692911
11
-3.2724803149606299
21
6.1355853149606299
0
LINE
8
BLACK
6
CONTINUOUS
10
-3.2724803149606299
20
6.1355853149606299
11
-3.2724803149606299
21
6.2044146456692912
0
LINE
8
BLACK
6
CONTINUOUS
10
-3.2724803149606299
20
6.2044146456692912
11
-3.2724803543307086
21
6.20441531496063
0
LINE
8
BLACK
6
CONTINUOUS
10
-3.2724803543307086
20
6.20441531496063
11
-3.2727366141732284
21
6.2067990551181103
0
LINE
8
BLACK
6
CONTINUOUS
10
-3.2727366141732284
20
6.2067990551181103
11
-3.2727366929133859
21
6.2067993700787403
0
LINE
8
BLACK
6
CONTINUOUS
10
-3.2727366929133859
20
6.2067993700787403
11
-3.2730133858267716
21
6.2075411417322837
0
LINE
8
BLACK
6
CONTINUOUS
10
-3.2730133858267716
20
6.2075411417322837
11
-3.2747484645669291
21
6.2121930708661415
0
LINE
8
BLACK
6
CONTINUOUS
10
-3.2747484645669291
20
6.2121930708661415
11
-3.2781983858267716
21
6.2168016141732281
0
LINE
8
BLACK
6
CONTINUOUS
10
-3.2781983858267716
20
6.2168016141732281
11
-3.2781985039370078
21
6.2168016929133856
0
LINE
8
BLACK
6
CONTINUOUS
10
-3.2781985039370078
20
6.2168016929133856
11
-3.2783672834645667
21
6.217027165354331
0
LINE
8
BLACK
6
CONTINUOUS
10
-3.2783672834645667
20
6.217027165354331
11
-3.2793440944881889
21
6.2196460629921262
0
LINE
8
BLACK
6
CONTINUOUS
10
-3.2793440944881889
20
6.2196460629921262
11
-3.2787499606299213
21
6.2223773622047247
0
LINE
8
BLACK
6
CONTINUOUS
10
-3.2787499606299213
20
6.2223773622047247
11
-3.2783672834645667
21
6.2229728346456694
0
LINE
8
BLACK
6
CONTINUOUS
10
-3.2783672834645667
20
6.2229728346456694
11
-3.2781985039370078
21
6.2231982677165352
0
LINE
8
BLACK
6
CONTINUOUS
10
-3.2781985039370078
20
6.2231982677165352
11
-3.2781983858267716
21
6.2231983858267714
0
LINE
8
BLACK
6
CONTINUOUS
10
-3.2781983858267716
20
6.2231983858267714
11
-3.2747484645669291
21
6.227806929133858
0
LINE
8
BLACK
6
CONTINUOUS
10
-3.2747484645669291
20
6.227806929133858
11
-3.2727366535433071
21
6.2332007480314955
0
LINE
8
BLACK
6
CONTINUOUS
10
-3.2727366535433071
20
6.2332007480314955
11
-3.2727366141732284
21
6.2332009055118105
0
LINE
8
BLACK
6
CONTINUOUS
10
-3.2727366141732284
20
6.2332009055118105
11
-3.2724803543307086
21
6.2355846456692916
0
LINE
8
BLACK
6
CONTINUOUS
10
-3.2724803543307086
20
6.2355846456692916
11
-3.2724803149606299
21
6.2355853149606295
0
LINE
8
BLACK
6
CONTINUOUS
10
-3.2724803149606299
20
6.2355853149606295
11
-3.2724803149606299
21
6.3044146456692909
0
LINE
8
BLACK
6
CONTINUOUS
10
-3.2724803149606299
20
6.3044146456692909
11
-3.2724803543307086
21
6.3044153149606297
0
LINE
8
BLACK
6
CONTINUOUS
10
-3.2724803543307086
20
6.3044153149606297
11
-3.2727366141732284
21
6.3067990551181099
0
LINE
8
BLACK
6
CONTINUOUS
10
-3.2727366141732284
20
6.3067990551181099
11
-3.2727366929133859
21
6.3067993700787399
0
LINE
8
BLACK
6
CONTINUOUS
10
-3.2727366929133859
20
6.3067993700787399
11
-3.2730133858267716
21
6.3075411417322833
0
LINE
8
BLACK
6
CONTINUOUS
10
-3.2730133858267716
20
6.3075411417322833
11
-3.2747484645669291
21
6.312193070866142
0
LINE
8
BLACK
6
CONTINUOUS
10
-3.2747484645669291
20
6.312193070866142
11
-3.2781983858267716
21
6.3168016141732286
0
LINE
8
BLACK
6
CONTINUOUS
10
-3.2781983858267716
20
6.3168016141732286
11
-3.2781985039370078
21
6.3168016929133861
0
LINE
8
BLACK
6
CONTINUOUS
10
-3.2781985039370078
20
6.3168016929133861
11
-3.2783672834645667
21
6.3170271653543306
0
LINE
8
BLACK
6
CONTINUOUS
10
-3.2783672834645667
20
6.3170271653543306
11
-3.2793440944881889
21
6.3196460629921258
0
LINE
8
BLACK
6
CONTINUOUS
10
-3.2793440944881889
20
6.3196460629921258
11
-3.2787499606299213
21
6.3223773622047243
0
LINE
8
BLACK
6
CONTINUOUS
10
-3.2787499606299213
20
6.3223773622047243
11
-3.2783672834645667
21
6.3229728346456691
0
LINE
8
BLACK
6
CONTINUOUS
10
-3.2783672834645667
20
6.3229728346456691
11
-3.2781985039370078
21
6.3231982677165357
0
LINE
8
BLACK
6
CONTINUOUS
10
-3.2781985039370078
20
6.3231982677165357
11
-3.2781983858267716
21
6.3231983858267711
0
LINE
8
BLACK
6
CONTINUOUS
10
-3.2781983858267716
20
6.3231983858267711
11
-3.2747484645669291
21
6.3278069291338586
0
LINE
8
BLACK
6
CONTINUOUS
10
-3.2747484645669291
20
6.3278069291338586
11
-3.2727366535433071
21
6.333200748031496
0
LINE
8
BLACK
6
CONTINUOUS
10
-3.2727366535433071
20
6.333200748031496
11
-3.2727366141732284
21
6.333200905511811
0
LINE
8
BLACK
6
CONTINUOUS
10
-3.2727366141732284
20
6.333200905511811
11
-3.2724803543307086
21
6.3355846456692912
0
LINE
8
BLACK
6
CONTINUOUS
10
-3.2724803543307086
20
6.3355846456692912
11
-3.2724803149606299
21
6.33558531496063
0
LINE
8
BLACK
6
CONTINUOUS
10
-3.2724803149606299
20
6.33558531496063
11
-3.2724803149606299
21
6.4044146456692914
0
LINE
8
BLACK
6
CONTINUOUS
10
-3.2724803149606299
20
6.4044146456692914
11
-3.2724803543307086
21
6.4044153149606302
0
LINE
8
BLACK
6
CONTINUOUS
10
-3.2724803543307086
20
6.4044153149606302
11
-3.2727366141732284
21
6.4067990551181104
0
LINE
8
BLACK
6
CONTINUOUS
10
-3.2727366141732284
20
6.4067990551181104
11
-3.2727366929133859
21
6.4067993700787405
0
LINE
8
BLACK
6
CONTINUOUS
10
-3.2727366929133859
20
6.4067993700787405
11
-3.2730133858267716
21
6.407541141732283
0
LINE
8
BLACK
6
CONTINUOUS
10
-3.2730133858267716
20
6.407541141732283
11
-3.2747484645669291
21
6.4121930708661417
0
LINE
8
BLACK
6
CONTINUOUS
10
-3.2747484645669291
20
6.4121930708661417
11
-3.2781983858267716
21
6.4168016141732283
0
LINE
8
BLACK
6
CONTINUOUS
10
-3.2781983858267716
20
6.4168016141732283
11
-3.2816898818897635
21
6.4194153149606299
0
LINE
8
BLACK
6
CONTINUOUS
10
-3.2816898818897635
20
6.4194153149606299
11
-3.2828068110236219
21
6.4202514566929132
0
LINE
8
BLACK
6
CONTINUOUS
10
-3.2828068110236219
20
6.4202514566929132
11
-3.2828068503937007
21
6.4202514566929132
0
LINE
8
BLACK
6
CONTINUOUS
10
-3.2828068503937007
20
6.4202514566929132
11
-3.2828069291338582
21
6.4202515354330707
0
LINE
8
BLACK
6
CONTINUOUS
10
-3.2828069291338582
20
6.4202515354330707
11
-3.2882007480314961
21
6.4222633464566927
0
LINE
8
BLACK
6
CONTINUOUS
10
-3.2882007480314961
20
6.4222633464566927
11
-3.2882008267716536
21
6.4222633464566927
0
LINE
8
BLACK
6
CONTINUOUS
10
-3.2882008267716536
20
6.4222633464566927
11
-3.2882009448818899
21
6.4222633858267715
0
LINE
8
BLACK
6
CONTINUOUS
10
-3.2882009448818899
20
6.4222633858267715
11
-3.2905846850393701
21
6.4225196456692908
0
LINE
8
BLACK
6
CONTINUOUS
10
-3.2905846850393701
20
6.4225196456692908
11
-3.2905848425196851
21
6.4225196456692908
0
LINE
8
BLACK
6
CONTINUOUS
10
-3.2905848425196851
20
6.4225196456692908
11
-3.2905851181102364
21
6.4225196850393695
0
LINE
8
BLACK
6
CONTINUOUS
10
-3.2905851181102364
20
6.4225196850393695
11
-3.3594148818897636
21
6.4225196850393695
0
LINE
8
BLACK
6
CONTINUOUS
10
-3.3594148818897636
20
6.4225196850393695
11
-3.3594151574803148
21
6.4225196456692908
0
LINE
8
BLACK
6
CONTINUOUS
10
-3.3594151574803148
20
6.4225196456692908
11
-3.3594153543307086
21
6.4225196456692908
0
LINE
8
BLACK
6
CONTINUOUS
10
-3.3594153543307086
20
6.4225196456692908
11
-3.3617990944881888
21
6.4222633858267715
0
LINE
8
BLACK
6
CONTINUOUS
10
-3.3617990944881888
20
6.4222633858267715
11
-3.3617994094488188
21
6.422263307086614
0
LINE
8
BLACK
6
CONTINUOUS
10
-3.3617994094488188
20
6.422263307086614
11
-3.3640753149606297
21
6.4214144094488184
0
LINE
8
BLACK
6
CONTINUOUS
10
-3.3640753149606297
20
6.4214144094488184
11
-3.3671930708661417
21
6.4202515354330707
0
LINE
8
BLACK
6
CONTINUOUS
10
-3.3671930708661417
20
6.4202515354330707
11
-3.3718016141732283
21
6.4168016141732283
0
LINE
8
BLACK
6
CONTINUOUS
10
-3.3718016141732283
20
6.4168016141732283
11
-3.3718017322834646
21
6.416801496062992
0
LINE
8
BLACK
6
CONTINUOUS
10
-3.3718017322834646
20
6.416801496062992
11
-3.3720271653543308
21
6.4166327165354327
0
LINE
8
BLACK
6
CONTINUOUS
10
-3.3720271653543308
20
6.4166327165354327
11
-3.374646062992126
21
6.4156559055118105
0
LINE
8
BLACK
6
CONTINUOUS
10
-3.374646062992126
20
6.4156559055118105
11
-3.3773773622047245
21
6.4162500393700785
0
LINE
8
BLACK
6
CONTINUOUS
10
-3.3773773622047245
20
6.4162500393700785
11
-3.3779728346456692
21
6.4166327165354327
0
LINE
8
BLACK
6
CONTINUOUS
10
-3.3779728346456692
20
6.4166327165354327
11
-3.3781983070866142
21
6.416801496062992
0
LINE
8
BLACK
6
CONTINUOUS
10
-3.3781983070866142
20
6.416801496062992
11
-3.3781983858267717
21
6.4168016141732283
0
LINE
8
BLACK
6
CONTINUOUS
10
-3.3781983858267717
20
6.4168016141732283
11
-3.3828069291338583
21
6.4202515354330707
0
LINE
8
BLACK
6
CONTINUOUS
10
-3.3828069291338583
20
6.4202515354330707
11
-3.3882007480314962
21
6.4222633464566927
0
LINE
8
BLACK
6
CONTINUOUS
10
-3.3882007480314962
20
6.4222633464566927
11
-3.3882008267716537
21
6.4222633464566927
0
LINE
8
BLACK
6
CONTINUOUS
10
-3.3882008267716537
20
6.4222633464566927
11
-3.3882009448818895
21
6.4222633858267715
0
LINE
8
BLACK
6
CONTINUOUS
10
-3.3882009448818895
20
6.4222633858267715
11
-3.3905846850393702
21
6.4225196456692908
0
LINE
8
BLACK
6
CONTINUOUS
10
-3.3905846850393702
20
6.4225196456692908
11
-3.3905848425196852
21
6.4225196456692908
0
LINE
8
BLACK
6
CONTINUOUS
10
-3.3905848425196852
20
6.4225196456692908
11
-3.390585118110236
21
6.4225196850393695
0
LINE
8
BLACK
6
CONTINUOUS
10
-3.390585118110236
20
6.4225196850393695
11
-3.4594148818897636
21
6.4225196850393695
0
LINE
8
BLACK
6
CONTINUOUS
10
-3.4594148818897636
20
6.4225196850393695
11
-3.4594151574803149
21
6.4225196456692908
0
LINE
8
BLACK
6
CONTINUOUS
10
-3.4594151574803149
20
6.4225196456692908
11
-3.4594153543307087
21
6.4225196456692908
0
LINE
8
BLACK
6
CONTINUOUS
10
-3.4594153543307087
20
6.4225196456692908
11
-3.4617990944881889
21
6.4222633858267715
0
LINE
8
BLACK
6
CONTINUOUS
10
-3.4617990944881889
20
6.4222633858267715
11
-3.4617994094488189
21
6.422263307086614
0
LINE
8
BLACK
6
CONTINUOUS
10
-3.4617994094488189
20
6.422263307086614
11
-3.4640753149606298
21
6.4214144094488184
0
LINE
8
BLACK
6
CONTINUOUS
10
-3.4640753149606298
20
6.4214144094488184
11
-3.4671930708661418
21
6.4202515354330707
0
LINE
8
BLACK
6
CONTINUOUS
10
-3.4671930708661418
20
6.4202515354330707
11
-3.4671931496062993
21
6.4202514960629919
0
LINE
8
BLACK
6
CONTINUOUS
10
-3.4671931496062993
20
6.4202514960629919
11
-3.4671932283464568
21
6.4202514566929132
0
LINE
8
BLACK
6
CONTINUOUS
10
-3.4671932283464568
20
6.4202514566929132
11
-3.4718016535433072
21
6.4168016141732283
0
LINE
8
BLACK
6
CONTINUOUS
10
-3.4718016535433072
20
6.4168016141732283
11
-3.4752514960629921
21
6.4121931889763779
0
LINE
8
BLACK
6
CONTINUOUS
10
-3.4752514960629921
20
6.4121931889763779
11
-3.4752515748031496
21
6.4121929921259841
0
LINE
8
BLACK
6
CONTINUOUS
10
-3.4752515748031496
20
6.4121929921259841
11
-3.4772633464566929
21
6.4067993700787405
0
LINE
8
BLACK
6
CONTINUOUS
10
-3.4772633464566929
20
6.4067993700787405
11
-3.4772634251968504
21
6.4067990551181104
0
LINE
8
BLACK
6
CONTINUOUS
10
-3.4772634251968504
20
6.4067990551181104
11
-3.4775196850393701
21
6.4044153149606302
0
LINE
8
BLACK
6
CONTINUOUS
10
-3.4775196850393701
20
6.4044153149606302
11
-3.4775196850393701
21
6.3355846456692912
0
LINE
8
BLACK
6
CONTINUOUS
10
-4.21
20
6.5175000000000001
11
-4.1875
21
6.5175000000000001
0
LINE
8
BLACK
6
CONTINUOUS
10
-4.1875
20
6.5175000000000001
11
-4.1875
21
6.4950000000000001
0
LINE
8
BLACK
6
CONTINUOUS
10
-4.1875
20
6.4950000000000001
11
-4.1524999999999999
21
6.4950000000000001
0
LINE
8
BLACK
6
CONTINUOUS
10
-4.1524999999999999
20
6.4950000000000001
11
-4.1524999999999999
21
6.5175000000000001
0
LINE
8
BLACK
6
CONTINUOUS
10
-4.1524999999999999
20
6.5175000000000001
11
-4.1299999999999999
21
6.5175000000000001
0
LINE
8
BLACK
6
CONTINUOUS
10
-4.1299999999999999
20
6.5175000000000001
11
-4.1299999999999999
21
6.5374999999999996
0
LINE
8
BLACK
6
CONTINUOUS
10
-4.1299999999999999
20
6.5374999999999996
11
-4.15441279527559
21
6.5374999999999996
0
LINE
8
BLACK
6
CONTINUOUS
10
-4.15441279527559
20
6.5374999999999996
11
-4.1544133070866138
21
6.5374999606299209
0
LINE
8
BLACK
6
CONTINUOUS
10
-4.1544133070866138
20
6.5374999606299209
11
-4.1567950393700785
21
6.5372438582677166
0
LINE
8
BLACK
6
CONTINUOUS
10
-4.1567950393700785
20
6.5372438582677166
11
-4.1621836220472437
21
6.5352340551181101
0
LINE
8
BLACK
6
CONTINUOUS
10
-4.1621836220472437
20
6.5352340551181101
11
-4.1670271653543303
21
6.5316081496062992
0
LINE
8
BLACK
6
CONTINUOUS
10
-4.1670271653543303
20
6.5316081496062992
11
-4.1696460629921255
21
6.5306313385826771
0
LINE
8
BLACK
6
CONTINUOUS
10
-4.1696460629921255
20
6.5306313385826771
11
-4.172377362204724
21
6.5312254724409451
0
LINE
8
BLACK
6
CONTINUOUS
10
-4.172377362204724
20
6.5312254724409451
11
-4.1729728346456696
21
6.5316081496062992
0
LINE
8
BLACK
6
CONTINUOUS
10
-4.1729728346456696
20
6.5316081496062992
11
-4.1778164173228349
21
6.5352340551181101
0
LINE
8
BLACK
6
CONTINUOUS
10
-4.1778164173228349
20
6.5352340551181101
11
-4.1832050000000001
21
6.5372438582677166
0
LINE
8
BLACK
6
CONTINUOUS
10
-4.1832050000000001
20
6.5372438582677166
11
-4.1855867322834648
21
6.5374999606299209
0
LINE
8
BLACK
6
CONTINUOUS
10
-4.1855867322834648
20
6.5374999606299209
11
-4.1855872047244089
21
6.5374999999999996
0
LINE
8
BLACK
6
CONTINUOUS
10
-4.1855872047244089
20
6.5374999999999996
11
-4.21
21
6.5374999999999996
0
LINE
8
BLACK
6
CONTINUOUS
10
-4.21
20
6.5374999999999996
11
-4.21
21
6.5175000000000001
0
LINE
8
BLACK
6
CONTINUOUS
10
-4.2544133070866144
20
6.5374999606299209
11
-4.2567950393700791
21
6.5372438582677166
0
LINE
8
BLACK
6
CONTINUOUS
10
-4.2567950393700791
20
6.5372438582677166
11
-4.262183661417323
21
6.5352340157480313
0
LINE
8
BLACK
6
CONTINUOUS
10
-4.262183661417323
20
6.5352340157480313
11
-4.2621837007874017
21
6.5352340157480313
0
LINE
8
BLACK
6
CONTINUOUS
10
-4.2621837007874017
20
6.5352340157480313
11
-4.2667875984251964
21
6.5317875590551182
0
LINE
8
BLACK
6
CONTINUOUS
10
-4.2667875984251964
20
6.5317875590551182
11
-4.2702340551181104
21
6.5271836614173226
0
LINE
8
BLACK
6
CONTINUOUS
10
-4.2702340551181104
20
6.5271836614173226
11
-4.2702340551181104
21
6.5271836220472439
0
LINE
8
BLACK
6
CONTINUOUS
10
-4.2702340551181104
20
6.5271836220472439
11
-4.2722438976377948
21
6.521795
0
LINE
8
BLACK
6
CONTINUOUS
10
-4.2722438976377948
20
6.521795
11
-4.2725
21
6.5194132677165353
0
LINE
8
BLACK
6
CONTINUOUS
10
-4.2725
20
6.5194132677165353
11
-4.2725
21
6.4950000000000001
0
LINE
8
BLACK
6
CONTINUOUS
10
-4.2725
20
6.4950000000000001
11
-4.2524999999999995
21
6.4950000000000001
0
LINE
8
BLACK
6
CONTINUOUS
10
-4.2524999999999995
20
6.4950000000000001
11
-4.2524999999999995
21
6.5175000000000001
0
LINE
8
BLACK
6
CONTINUOUS
10
-4.2524999999999995
20
6.5175000000000001
11
-4.2299999999999995
21
6.5175000000000001
0
LINE
8
BLACK
6
CONTINUOUS
10
-4.2299999999999995
20
6.5175000000000001
11
-4.2299999999999995
21
6.5374999999999996
0
LINE
8
BLACK
6
CONTINUOUS
10
-4.2299999999999995
20
6.5374999999999996
11
-4.2544127952755906
21
6.5374999999999996
0
LINE
8
BLACK
6
CONTINUOUS
10
-4.2544127952755906
20
6.5374999999999996
11
-4.2544133070866144
21
6.5374999606299209
0
LINE
8
BLACK
6
CONTINUOUS
10
-3.9094151574803147
20
6.8825196456692908
11
-3.9094153543307084
21
6.8825196456692908
0
LINE
8
BLACK
6
CONTINUOUS
10
-3.9094153543307084
20
6.8825196456692908
11
-3.9117990944881891
21
6.8822633858267714
0
LINE
8
BLACK
6
CONTINUOUS
10
-3.9117990944881891
20
6.8822633858267714
11
-3.9117994094488187
21
6.8822633070866139
0
LINE
8
BLACK
6
CONTINUOUS
10
-3.9117994094488187
20
6.8822633070866139
11
-3.914867125984252
21
6.8811190551181101
0
LINE
8
BLACK
6
CONTINUOUS
10
-3.914867125984252
20
6.8811190551181101
11
-3.9171930708661415
21
6.8802515354330707
0
LINE
8
BLACK
6
CONTINUOUS
10
-3.9171930708661415
20
6.8802515354330707
11
-3.9171931496062991
21
6.8802514960629919
0
LINE
8
BLACK
6
CONTINUOUS
10
-3.9171931496062991
20
6.8802514960629919
11
-3.9171932283464566
21
6.8802514566929132
0
LINE
8
BLACK
6
CONTINUOUS
10
-3.9171932283464566
20
6.8802514566929132
11
-3.9220436614173226
21
6.8766204330708662
0
LINE
8
BLACK
6
CONTINUOUS
10
-3.9220436614173226
20
6.8766204330708662
11
-3.9246625590551178
21
6.8756436220472441
0
LINE
8
BLACK
6
CONTINUOUS
10
-3.9246625590551178
20
6.8756436220472441
11
-3.9273938188976376
21
6.8762377559055112
0
LINE
8
BLACK
6
CONTINUOUS
10
-3.9273938188976376
20
6.8762377559055112
11
-3.9279892913385828
21
6.876620472440945
0
LINE
8
BLACK
6
CONTINUOUS
10
-3.9279892913385828
20
6.876620472440945
11
-3.9328162992125981
21
6.8802339763779523
0
LINE
8
BLACK
6
CONTINUOUS
10
-3.9328162992125981
20
6.8802339763779523
11
-3.9328163779527556
21
6.8802340157480311
0
LINE
8
BLACK
6
CONTINUOUS
10
-3.9328163779527556
20
6.8802340157480311
11
-3.938205
21
6.8822438582677163
0
LINE
8
BLACK
6
CONTINUOUS
10
-3.938205
20
6.8822438582677163
11
-3.9405867322834647
21
6.8824999606299215
0
LINE
8
BLACK
6
CONTINUOUS
10
-3.9405867322834647
20
6.8824999606299215
11
-3.9405872047244093
21
6.8825000000000003
0
LINE
8
BLACK
6
CONTINUOUS
10
-3.9405872047244093
20
6.8825000000000003
11
-3.9649999999999999
21
6.8825000000000003
0
LINE
8
BLACK
6
CONTINUOUS
10
-3.9649999999999999
20
6.8825000000000003
11
-3.9649999999999999
21
6.8624999999999998
0
LINE
8
BLACK
6
CONTINUOUS
10
-3.9649999999999999
20
6.8624999999999998
11
-3.9424999999999999
21
6.8624999999999998
0
LINE
8
BLACK
6
CONTINUOUS
10
-3.9424999999999999
20
6.8624999999999998
11
-3.9424999999999999
21
6.7974999999999994
0
LINE
8
BLACK
6
CONTINUOUS
10
-3.9424999999999999
20
6.7974999999999994
11
-3.9649999999999999
21
6.7974999999999994
0
LINE
8
BLACK
6
CONTINUOUS
10
-3.9649999999999999
20
6.7974999999999994
11
-3.9649999999999999
21
6.7625000000000002
0
LINE
8
BLACK
6
CONTINUOUS
10
-3.9649999999999999
20
6.7625000000000002
11
-3.9424999999999999
21
6.7625000000000002
0
LINE
8
BLACK
6
CONTINUOUS
10
-3.9424999999999999
20
6.7625000000000002
11
-3.9424999999999999
21
6.6974999999999998
0
LINE
8
BLACK
6
CONTINUOUS
10
-3.9424999999999999
20
6.6974999999999998
11
-3.9649999999999999
21
6.6974999999999998
0
LINE
8
BLACK
6
CONTINUOUS
10
-3.9649999999999999
20
6.6974999999999998
11
-3.9649999999999999
21
6.6775000000000002
0
LINE
8
BLACK
6
CONTINUOUS
10
-3.9649999999999999
20
6.6775000000000002
11
-3.9405867322834647
21
6.6775000000000002
0
LINE
8
BLACK
6
CONTINUOUS
10
-3.9405867322834647
20
6.6775000000000002
11
-3.938205
21
6.6777561023622045
0
LINE
8
BLACK
6
CONTINUOUS
10
-3.938205
20
6.6777561023622045
11
-3.9328163779527556
21
6.6797659448818898
0
LINE
8
BLACK
6
CONTINUOUS
10
-3.9328163779527556
20
6.6797659448818898
11
-3.9328163385826769
21
6.6797659448818898
0
LINE
8
BLACK
6
CONTINUOUS
10
-3.9328163385826769
20
6.6797659448818898
11
-3.9279892125984253
21
6.6833795275590546
0
LINE
8
BLACK
6
CONTINUOUS
10
-3.9279892125984253
20
6.6833795275590546
11
-3.92537031496063
21
6.6843563385826767
0
LINE
8
BLACK
6
CONTINUOUS
10
-3.92537031496063
20
6.6843563385826767
11
-3.9226390551181103
21
6.6837622047244096
0
LINE
8
BLACK
6
CONTINUOUS
10
-3.9226390551181103
20
6.6837622047244096
11
-3.9220436220472439
21
6.6833795275590546
0
LINE
8
BLACK
6
CONTINUOUS
10
-3.9220436220472439
20
6.6833795275590546
11
-3.9171932283464566
21
6.6797485039370077
0
LINE
8
BLACK
6
CONTINUOUS
10
-3.9171932283464566
20
6.6797485039370077
11
-3.9171930314960628
21
6.6797484251968502
0
LINE
8
BLACK
6
CONTINUOUS
10
-3.9171930314960628
20
6.6797484251968502
11
-3.9117994094488187
21
6.6777366535433069
0
LINE
8
BLACK
6
CONTINUOUS
10
-3.9117994094488187
20
6.6777366535433069
11
-3.9117990944881891
21
6.6777365748031494
0
LINE
8
BLACK
6
CONTINUOUS
10
-3.9117990944881891
20
6.6777365748031494
11
-3.9094153543307084
21
6.6774803149606301
0
LINE
8
BLACK
6
CONTINUOUS
10
-3.9094153543307084
20
6.6774803149606301
11
-3.9094148818897638
21
6.6774803149606301
0
LINE
8
BLACK
6
CONTINUOUS
10
-3.9094148818897638
20
6.6774803149606301
11
-3.8405846850393699
21
6.6774803149606301
0
LINE
8
BLACK
6
CONTINUOUS
10
-3.8405846850393699
20
6.6774803149606301
11
-3.8382009448818897
21
6.6777365748031494
0
LINE
8
BLACK
6
CONTINUOUS
10
-3.8382009448818897
20
6.6777365748031494
11
-3.8382006299212597
21
6.6777366535433069
0
LINE
8
BLACK
6
CONTINUOUS
10
-3.8382006299212597
20
6.6777366535433069
11
-3.8328070078740155
21
6.6797484251968502
0
LINE
8
BLACK
6
CONTINUOUS
10
-3.8328070078740155
20
6.6797484251968502
11
-3.8328068110236218
21
6.6797485039370077
0
LINE
8
BLACK
6
CONTINUOUS
10
-3.8328068110236218
20
6.6797485039370077
11
-3.8279727952755906
21
6.6833672440944882
0
LINE
8
BLACK
6
CONTINUOUS
10
-3.8279727952755906
20
6.6833672440944882
11
-3.825353897637795
21
6.6843440551181104
0
LINE
8
BLACK
6
CONTINUOUS
10
-3.825353897637795
20
6.6843440551181104
11
-3.8226226377952757
21
6.6837499212598424
0
LINE
8
BLACK
6
CONTINUOUS
10
-3.8226226377952757
20
6.6837499212598424
11
-3.8220272047244093
21
6.6833672440944882
0
LINE
8
BLACK
6
CONTINUOUS
10
-3.8220272047244093
20
6.6833672440944882
11
-3.8171932283464565
21
6.6797485039370077
0
LINE
8
BLACK
6
CONTINUOUS
10
-3.8171932283464565
20
6.6797485039370077
11
-3.8171930314960627
21
6.6797484251968502
0
LINE
8
BLACK
6
CONTINUOUS
10
-3.8171930314960627
20
6.6797484251968502
11
-3.811799409448819
21
6.6777366535433069
0
LINE
8
BLACK
6
CONTINUOUS
10
-3.811799409448819
20
6.6777366535433069
11
-3.811799094488189
21
6.6777365748031494
0
LINE
8
BLACK
6
CONTINUOUS
10
-3.811799094488189
20
6.6777365748031494
11
-3.8094153543307088
21
6.6774803149606301
0
LINE
8
BLACK
6
CONTINUOUS
10
-3.8094153543307088
20
6.6774803149606301
11
-3.8094148818897637
21
6.6774803149606301
0
LINE
8
BLACK
6
CONTINUOUS
10
-3.8094148818897637
20
6.6774803149606301
11
-3.7405846850393698
21
6.6774803149606301
0
LINE
8
BLACK
6
CONTINUOUS
10
-3.7405846850393698
20
6.6774803149606301
11
-3.7382009448818896
21
6.6777365748031494
0
LINE
8
BLACK
6
CONTINUOUS
10
-3.7382009448818896
20
6.6777365748031494
11
-3.7382006299212596
21
6.6777366535433069
0
LINE
8
BLACK
6
CONTINUOUS
10
-3.7382006299212596
20
6.6777366535433069
11
-3.7328070078740159
21
6.6797484251968502
0
LINE
8
BLACK
6
CONTINUOUS
10
-3.7328070078740159
20
6.6797484251968502
11
-3.7328068110236221
21
6.6797485039370077
0
LINE
8
BLACK
6
CONTINUOUS
10
-3.7328068110236221
20
6.6797485039370077
11
-3.7279727952755906
21
6.6833672440944882
0
LINE
8
BLACK
6
CONTINUOUS
10
-3.7279727952755906
20
6.6833672440944882
11
-3.7253538976377953
21
6.6843440551181104
0
LINE
8
BLACK
6
CONTINUOUS
10
-3.7253538976377953
20
6.6843440551181104
11
-3.7226226377952756
21
6.6837499212598424
0
LINE
8
BLACK
6
CONTINUOUS
10
-3.7226226377952756
20
6.6837499212598424
11
-3.7220272047244092
21
6.6833672440944882
0
LINE
8
BLACK
6
CONTINUOUS
10
-3.7220272047244092
20
6.6833672440944882
11
-3.7171932283464568
21
6.6797485039370077
0
LINE
8
BLACK
6
CONTINUOUS
10
-3.7171932283464568
20
6.6797485039370077
11
-3.7171930314960631
21
6.6797484251968502
0
LINE
8
BLACK
6
CONTINUOUS
10
-3.7171930314960631
20
6.6797484251968502
11
-3.7117994094488189
21
6.6777366535433069
0
LINE
8
BLACK
6
CONTINUOUS
10
-3.7117994094488189
20
6.6777366535433069
11
-3.7117990944881889
21
6.6777365748031494
0
LINE
8
BLACK
6
CONTINUOUS
10
-3.7117990944881889
20
6.6777365748031494
11
-3.7094153543307087
21
6.6774803149606301
0
LINE
8
BLACK
6
CONTINUOUS
10
-3.7094153543307087
20
6.6774803149606301
11
-3.7094148818897636
21
6.6774803149606301
0
LINE
8
BLACK
6
CONTINUOUS
10
-3.7094148818897636
20
6.6774803149606301
11
-3.6405846850393702
21
6.6774803149606301
0
LINE
8
BLACK
6
CONTINUOUS
10
-3.6405846850393702
20
6.6774803149606301
11
-3.6382009448818895
21
6.6777365748031494
0
LINE
8
BLACK
6
CONTINUOUS
10
-3.6382009448818895
20
6.6777365748031494
11
-3.6382006299212599
21
6.6777366535433069
0
LINE
8
BLACK
6
CONTINUOUS
10
-3.6382006299212599
20
6.6777366535433069
11
-3.6328070078740158
21
6.6797484251968502
0
LINE
8
BLACK
6
CONTINUOUS
10
-3.6328070078740158
20
6.6797484251968502
11
-3.632806968503937
21
6.6797484251968502
0
LINE
8
BLACK
6
CONTINUOUS
10
-3.632806968503937
20
6.6797484251968502
11
-3.6317466929133859
21
6.6805421653543302
0
LINE
8
BLACK
6
CONTINUOUS
10
-3.6317466929133859
20
6.6805421653543302
11
-3.6281983858267717
21
6.6831983858267714
0
LINE
8
BLACK
6
CONTINUOUS
10
-3.6281983858267717
20
6.6831983858267714
11
-3.6281983464566929
21
6.6831984251968501
0
LINE
8
BLACK
6
CONTINUOUS
10
-3.6281983464566929
20
6.6831984251968501
11
-3.6279564566929134
21
6.6833795275590546
0
LINE
8
BLACK
6
CONTINUOUS
10
-3.6279564566929134
20
6.6833795275590546
11
-3.6253375196850395
21
6.6843563385826767
0
LINE
8
BLACK
6
CONTINUOUS
10
-3.6253375196850395
20
6.6843563385826767
11
-3.6226062598425197
21
6.6837622047244096
0
LINE
8
BLACK
6
CONTINUOUS
10
-3.6226062598425197
20
6.6837622047244096
11
-3.6220108267716533
21
6.6833795275590546
0
LINE
8
BLACK
6
CONTINUOUS
10
-3.6220108267716533
20
6.6833795275590546
11
-3.6171837007874017
21
6.6797659448818898
0
LINE
8
BLACK
6
CONTINUOUS
10
-3.6171837007874017
20
6.6797659448818898
11
-3.6117950393700786
21
6.6777561023622045
0
LINE
8
BLACK
6
CONTINUOUS
10
-3.6117950393700786
20
6.6777561023622045
11
-3.6094133070866139
21
6.6775000000000002
0
LINE
8
BLACK
6
CONTINUOUS
10
-3.6094133070866139
20
6.6775000000000002
11
-3.585
21
6.6775000000000002
0
LINE
8
BLACK
6
CONTINUOUS
10
-3.585
20
6.6775000000000002
11
-3.585
21
6.6974999999999998
0
LINE
8
BLACK
6
CONTINUOUS
10
-3.585
20
6.6974999999999998
11
-3.6074999999999999
21
6.6974999999999998
0
LINE
8
BLACK
6
CONTINUOUS
10
-3.6074999999999999
20
6.6974999999999998
11
-3.6074999999999999
21
6.7625000000000002
0
LINE
8
BLACK
6
CONTINUOUS
10
-3.6074999999999999
20
6.7625000000000002
11
-3.585
21
6.7625000000000002
0
LINE
8
BLACK
6
CONTINUOUS
10
-3.585
20
6.7625000000000002
11
-3.585
21
6.7974999999999994
0
LINE
8
BLACK
6
CONTINUOUS
10
-3.585
20
6.7974999999999994
11
-3.6074999999999999
21
6.7974999999999994
0
LINE
8
BLACK
6
CONTINUOUS
10
-3.6074999999999999
20
6.7974999999999994
11
-3.6074999999999999
21
6.8624999999999998
0
LINE
8
BLACK
6
CONTINUOUS
10
-3.6074999999999999
20
6.8624999999999998
11
-3.585
21
6.8624999999999998
0
LINE
8
BLACK
6
CONTINUOUS
10
-3.585
20
6.8624999999999998
11
-3.585
21
6.8825000000000003
0
LINE
8
BLACK
6
CONTINUOUS
10
-3.585
20
6.8825000000000003
11
-3.6094127952755906
21
6.8825000000000003
0
LINE
8
BLACK
6
CONTINUOUS
10
-3.6094127952755906
20
6.8825000000000003
11
-3.6094133070866139
21
6.8824999606299215
0
LINE
8
BLACK
6
CONTINUOUS
10
-3.6094133070866139
20
6.8824999606299215
11
-3.6117950393700786
21
6.8822438582677163
0
LINE
8
BLACK
6
CONTINUOUS
10
-3.6117950393700786
20
6.8822438582677163
11
-3.6171836614173229
21
6.8802340157480311
0
LINE
8
BLACK
6
CONTINUOUS
10
-3.6171836614173229
20
6.8802340157480311
11
-3.6171837007874017
21
6.8802340157480311
0
LINE
8
BLACK
6
CONTINUOUS
10
-3.6171837007874017
20
6.8802340157480311
11
-3.6220108267716533
21
6.8766204330708662
0
LINE
8
BLACK
6
CONTINUOUS
10
-3.6220108267716533
20
6.8766204330708662
11
-3.6246297244094485
21
6.8756436220472441
0
LINE
8
BLACK
6
CONTINUOUS
10
-3.6246297244094485
20
6.8756436220472441
11
-3.6273609842519683
21
6.8762377559055112
0
LINE
8
BLACK
6
CONTINUOUS
10
-3.6273609842519683
20
6.8762377559055112
11
-3.6279564566929134
21
6.876620472440945
0
LINE
8
BLACK
6
CONTINUOUS
10
-3.6279564566929134
20
6.876620472440945
11
-3.6281983464566929
21
6.8768015354330707
0
LINE
8
BLACK
6
CONTINUOUS
10
-3.6281983464566929
20
6.8768015354330707
11
-3.6281983858267717
21
6.8768016141732282
0
LINE
8
BLACK
6
CONTINUOUS
10
-3.6281983858267717
20
6.8768016141732282
11
-3.6328069291338583
21
6.8802515354330707
0
LINE
8
BLACK
6
CONTINUOUS
10
-3.6328069291338583
20
6.8802515354330707
11
-3.6382007480314962
21
6.8822633464566927
0
LINE
8
BLACK
6
CONTINUOUS
10
-3.6382007480314962
20
6.8822633464566927
11
-3.6382008267716532
21
6.8822633464566927
0
LINE
8
BLACK
6
CONTINUOUS
10
-3.6382008267716532
20
6.8822633464566927
11
-3.6382009448818895
21
6.8822633858267714
0
LINE
8
BLACK
6
CONTINUOUS
10
-3.6382009448818895
20
6.8822633858267714
11
-3.6405846850393702
21
6.8825196456692908
0
LINE
8
BLACK
6
CONTINUOUS
10
-3.6405846850393702
20
6.8825196456692908
11
-3.6405848425196852
21
6.8825196456692908
0
LINE
8
BLACK
6
CONTINUOUS
10
-3.6405848425196852
20
6.8825196456692908
11
-3.640585118110236
21
6.8825196850393695
0
LINE
8
BLACK
6
CONTINUOUS
10
-3.640585118110236
20
6.8825196850393695
11
-3.7094148818897636
21
6.8825196850393695
0
LINE
8
BLACK
6
CONTINUOUS
10
-3.7094148818897636
20
6.8825196850393695
11
-3.7094151574803149
21
6.8825196456692908
0
LINE
8
BLACK
6
CONTINUOUS
10
-3.7094151574803149
20
6.8825196456692908
11
-3.7094153543307087
21
6.8825196456692908
0
LINE
8
BLACK
6
CONTINUOUS
10
-3.7094153543307087
20
6.8825196456692908
11
-3.7117990944881889
21
6.8822633858267714
0
LINE
8
BLACK
6
CONTINUOUS
10
-3.7117990944881889
20
6.8822633858267714
11
-3.7117994094488189
21
6.8822633070866139
0
LINE
8
BLACK
6
CONTINUOUS
10
-3.7117994094488189
20
6.8822633070866139
11
-3.7148671259842518
21
6.8811190551181101
0
LINE
8
BLACK
6
CONTINUOUS
10
-3.7148671259842518
20
6.8811190551181101
11
-3.7171930708661418
21
6.8802515354330707
0
LINE
8
BLACK
6
CONTINUOUS
10
-3.7171930708661418
20
6.8802515354330707
11
-3.7218016141732284
21
6.8768016141732282
0
LINE
8
BLACK
6
CONTINUOUS
10
-3.7218016141732284
20
6.8768016141732282
11
-3.7218017322834647
21
6.876801496062992
0
LINE
8
BLACK
6
CONTINUOUS
10
-3.7218017322834647
20
6.876801496062992
11
-3.7220271653543304
21
6.8766327165354326
0
LINE
8
BLACK
6
CONTINUOUS
10
-3.7220271653543304
20
6.8766327165354326
11
-3.7246460629921261
21
6.8756559055118105
0
LINE
8
BLACK
6
CONTINUOUS
10
-3.7246460629921261
20
6.8756559055118105
11
-3.7273773622047242
21
6.8762500393700785
0
LINE
8
BLACK
6
CONTINUOUS
10
-3.7273773622047242
20
6.8762500393700785
11
-3.7279728346456693
21
6.8766327165354326
0
LINE
8
BLACK
6
CONTINUOUS
10
-3.7279728346456693
20
6.8766327165354326
11
-3.7281983070866143
21
6.876801496062992
0
LINE
8
BLACK
6
CONTINUOUS
10
-3.7281983070866143
20
6.876801496062992
11
-3.7281983858267718
21
6.8768016141732282
0
LINE
8
BLACK
6
CONTINUOUS
10
-3.7281983858267718
20
6.8768016141732282
11
-3.7328069291338584
21
6.8802515354330707
0
LINE
8
BLACK
6
CONTINUOUS
10
-3.7328069291338584
20
6.8802515354330707
11
-3.7382007480314958
21
6.8822633464566927
0
LINE
8
BLACK
6
CONTINUOUS
10
-3.7382007480314958
20
6.8822633464566927
11
-3.7382008267716533
21
6.8822633464566927
0
LINE
8
BLACK
6
CONTINUOUS
10
-3.7382008267716533
20
6.8822633464566927
11
-3.7382009448818896
21
6.8822633858267714
0
LINE
8
BLACK
6
CONTINUOUS
10
-3.7382009448818896
20
6.8822633858267714
11
-3.7405846850393698
21
6.8825196456692908
0
LINE
8
BLACK
6
CONTINUOUS
10
-3.7405846850393698
20
6.8825196456692908
11
-3.7405848425196848
21
6.8825196456692908
0
LINE
8
BLACK
6
CONTINUOUS
10
-3.7405848425196848
20
6.8825196456692908
11
-3.7405851181102361
21
6.8825196850393695
0
LINE
8
BLACK
6
CONTINUOUS
10
-3.7405851181102361
20
6.8825196850393695
11
-3.8094148818897637
21
6.8825196850393695
0
LINE
8
BLACK
6
CONTINUOUS
10
-3.8094148818897637
20
6.8825196850393695
11
-3.809415157480315
21
6.8825196456692908
0
LINE
8
BLACK
6
CONTINUOUS
10
-3.809415157480315
20
6.8825196456692908
11
-3.8094153543307088
21
6.8825196456692908
0
LINE
8
BLACK
6
CONTINUOUS
10
-3.8094153543307088
20
6.8825196456692908
11
-3.811799094488189
21
6.8822633858267714
0
LINE
8
BLACK
6
CONTINUOUS
10
-3.811799094488189
20
6.8822633858267714
11
-3.811799409448819
21
6.8822633070866139
0
LINE
8
BLACK
6
CONTINUOUS
10
-3.811799409448819
20
6.8822633070866139
11
-3.8148671259842519
21
6.8811190551181101
0
LINE
8
BLACK
6
CONTINUOUS
10
-3.8148671259842519
20
6.8811190551181101
11
-3.8171930708661415
21
6.8802515354330707
0
LINE
8
BLACK
6
CONTINUOUS
10
-3.8171930708661415
20
6.8802515354330707
11
-3.8218016141732281
21
6.8768016141732282
0
LINE
8
BLACK
6
CONTINUOUS
10
-3.8218016141732281
20
6.8768016141732282
11
-3.8218017322834643
21
6.876801496062992
0
LINE
8
BLACK
6
CONTINUOUS
10
-3.8218017322834643
20
6.876801496062992
11
-3.8220271653543305
21
6.8766327165354326
0
LINE
8
BLACK
6
CONTINUOUS
10
-3.8220271653543305
20
6.8766327165354326
11
-3.8246460629921257
21
6.8756559055118105
0
LINE
8
BLACK
6
CONTINUOUS
10
-3.8246460629921257
20
6.8756559055118105
11
-3.8273773622047242
21
6.8762500393700785
0
LINE
8
BLACK
6
CONTINUOUS
10
-3.8273773622047242
20
6.8762500393700785
11
-3.8279728346456694
21
6.8766327165354326
0
LINE
8
BLACK
6
CONTINUOUS
10
-3.8279728346456694
20
6.8766327165354326
11
-3.8281983070866139
21
6.876801496062992
0
LINE
8
BLACK
6
CONTINUOUS
10
-3.8281983070866139
20
6.876801496062992
11
-3.8281983858267714
21
6.8768016141732282
0
LINE
8
BLACK
6
CONTINUOUS
10
-3.8281983858267714
20
6.8768016141732282
11
-3.832806929133858
21
6.8802515354330707
0
LINE
8
BLACK
6
CONTINUOUS
10
-3.832806929133858
20
6.8802515354330707
11
-3.8382007480314959
21
6.8822633464566927
0
LINE
8
BLACK
6
CONTINUOUS
10
-3.8382007480314959
20
6.8822633464566927
11
-3.8382008267716534
21
6.8822633464566927
0
LINE
8
BLACK
6
CONTINUOUS
10
-3.8382008267716534
20
6.8822633464566927
11
-3.8382009448818897
21
6.8822633858267714
0
LINE
8
BLACK
6
CONTINUOUS
10
-3.8382009448818897
20
6.8822633858267714
11
-3.8405846850393699
21
6.8825196456692908
0
LINE
8
BLACK
6
CONTINUOUS
10
-3.8405846850393699
20
6.8825196456692908
11
-3.8405848425196849
21
6.8825196456692908
0
LINE
8
BLACK
6
CONTINUOUS
10
-3.8405848425196849
20
6.8825196456692908
11
-3.8405851181102362
21
6.8825196850393695
0
LINE
8
BLACK
6
CONTINUOUS
10
-3.8405851181102362
20
6.8825196850393695
11
-3.9094148818897638
21
6.8825196850393695
0
LINE
8
BLACK
6
CONTINUOUS
10
-3.9094148818897638
20
6.8825196850393695
11
-3.9094151574803147
21
6.8825196456692908
0
LINE
8
BLACK
6
CONTINUOUS
10
-4.0274999999999999
20
6.7199999999999998
11
-4.0274999999999999
21
6.6955866929133858
0
LINE
8
BLACK
6
CONTINUOUS
10
-4.0274999999999999
20
6.6955866929133858
11
-4.0272438976377956
21
6.6932049606299211
0
LINE
8
BLACK
6
CONTINUOUS
10
-4.0272438976377956
20
6.6932049606299211
11
-4.0252340551181103
21
6.6878163385826772
0
LINE
8
BLACK
6
CONTINUOUS
10
-4.0252340551181103
20
6.6878163385826772
11
-4.0252340551181103
21
6.6878162992125985
0
LINE
8
BLACK
6
CONTINUOUS
10
-4.0252340551181103
20
6.6878162992125985
11
-4.0217875984251972
21
6.6832124015748029
0
LINE
8
BLACK
6
CONTINUOUS
10
-4.0217875984251972
20
6.6832124015748029
11
-4.0171837007874016
21
6.6797659448818898
0
LINE
8
BLACK
6
CONTINUOUS
10
-4.0171837007874016
20
6.6797659448818898
11
-4.011795039370079
21
6.6777561023622045
0
LINE
8
BLACK
6
CONTINUOUS
10
-4.011795039370079
20
6.6777561023622045
11
-4.0094133070866143
21
6.6775000000000002
0
LINE
8
BLACK
6
CONTINUOUS
10
-4.0094133070866143
20
6.6775000000000002
11
-3.9849999999999999
21
6.6775000000000002
0
LINE
8
BLACK
6
CONTINUOUS
10
-3.9849999999999999
20
6.6775000000000002
11
-3.9849999999999999
21
6.6974999999999998
0
LINE
8
BLACK
6
CONTINUOUS
10
-3.9849999999999999
20
6.6974999999999998
11
-4.0075000000000003
21
6.6974999999999998
0
LINE
8
BLACK
6
CONTINUOUS
10
-4.0075000000000003
20
6.6974999999999998
11
-4.0075000000000003
21
6.7199999999999998
0
LINE
8
BLACK
6
CONTINUOUS
10
-4.0075000000000003
20
6.7199999999999998
11
-4.0274999999999999
21
6.7199999999999998
0
LINE
8
BLACK
6
CONTINUOUS
10
-3.5425
20
6.6974999999999998
11
-3.5649999999999999
21
6.6974999999999998
0
LINE
8
BLACK
6
CONTINUOUS
10
-3.5649999999999999
20
6.6974999999999998
11
-3.5649999999999999
21
6.6775000000000002
0
LINE
8
BLACK
6
CONTINUOUS
10
-3.5649999999999999
20
6.6775000000000002
11
-3.5405867322834643
21
6.6775000000000002
0
LINE
8
BLACK
6
CONTINUOUS
10
-3.5405867322834643
20
6.6775000000000002
11
-3.538205
21
6.6777561023622045
0
LINE
8
BLACK
6
CONTINUOUS
10
-3.538205
20
6.6777561023622045
11
-3.5328163779527557
21
6.6797659448818898
0
LINE
8
BLACK
6
CONTINUOUS
10
-3.5328163779527557
20
6.6797659448818898
11
-3.532816338582677
21
6.6797659448818898
0
LINE
8
BLACK
6
CONTINUOUS
10
-3.532816338582677
20
6.6797659448818898
11
-3.5282124409448818
21
6.6832124015748029
0
LINE
8
BLACK
6
CONTINUOUS
10
-3.5282124409448818
20
6.6832124015748029
11
-3.5247659842519683
21
6.6878162992125985
0
LINE
8
BLACK
6
CONTINUOUS
10
-3.5247659842519683
20
6.6878162992125985
11
-3.5247659842519683
21
6.6878163385826772
0
LINE
8
BLACK
6
CONTINUOUS
10
-3.5247659842519683
20
6.6878163385826772
11
-3.5227561417322835
21
6.6932049606299211
0
LINE
8
BLACK
6
CONTINUOUS
10
-3.5227561417322835
20
6.6932049606299211
11
-3.5225000393700787
21
6.6955866929133858
0
LINE
8
BLACK
6
CONTINUOUS
10
-3.5225000393700787
20
6.6955866929133858
11
-3.5225
21
6.6955871653543308
0
LINE
8
BLACK
6
CONTINUOUS
10
-3.5225
20
6.6955871653543308
11
-3.5225
21
6.7199999999999998
0
LINE
8
BLACK
6
CONTINUOUS
10
-3.5225
20
6.7199999999999998
11
-3.5425
21
6.7199999999999998
0
LINE
8
BLACK
6
CONTINUOUS
10
-3.5425
20
6.7199999999999998
11
-3.5425
21
6.6974999999999998
0
LINE
8
BLACK
6
CONTINUOUS
10
-3.5425
20
6.7974999999999994
11
-3.5649999999999999
21
6.7974999999999994
0
LINE
8
BLACK
6
CONTINUOUS
10
-3.5649999999999999
20
6.7974999999999994
11
-3.5649999999999999
21
6.7625000000000002
0
LINE
8
BLACK
6
CONTINUOUS
10
-3.5649999999999999
20
6.7625000000000002
11
-3.5425
21
6.7625000000000002
0
LINE
8
BLACK
6
CONTINUOUS
10
-3.5425
20
6.7625000000000002
11
-3.5425
21
6.7400000000000002
0
LINE
8
BLACK
6
CONTINUOUS
10
-3.5425
20
6.7400000000000002
11
-3.5225
21
6.7400000000000002
0
LINE
8
BLACK
6
CONTINUOUS
10
-3.5225
20
6.7400000000000002
11
-3.5225
21
6.7644127952755904
0
LINE
8
BLACK
6
CONTINUOUS
10
-3.5225
20
6.7644127952755904
11
-3.5225000393700787
21
6.7644132677165354
0
LINE
8
BLACK
6
CONTINUOUS
10
-3.5225000393700787
20
6.7644132677165354
11
-3.5227561417322835
21
6.7667950000000001
0
LINE
8
BLACK
6
CONTINUOUS
10
-3.5227561417322835
20
6.7667950000000001
11
-3.5247659448818895
21
6.7721835826771652
0
LINE
8
BLACK
6
CONTINUOUS
10
-3.5247659448818895
20
6.7721835826771652
11
-3.5283918503937008
21
6.7770271653543306
0
LINE
8
BLACK
6
CONTINUOUS
10
-3.5283918503937008
20
6.7770271653543306
11
-3.529368661417323
21
6.7796460629921258
0
LINE
8
BLACK
6
CONTINUOUS
10
-3.529368661417323
20
6.7796460629921258
11
-3.528774527559055
21
6.7823773622047243
0
LINE
8
BLACK
6
CONTINUOUS
10
-3.528774527559055
20
6.7823773622047243
11
-3.5283918503937008
21
6.782972834645669
0
LINE
8
BLACK
6
CONTINUOUS
10
-3.5283918503937008
20
6.782972834645669
11
-3.5247659448818895
21
6.7878163779527556
0
LINE
8
BLACK
6
CONTINUOUS
10
-3.5247659448818895
20
6.7878163779527556
11
-3.5227561417322835
21
6.7932049606299207
0
LINE
8
BLACK
6
CONTINUOUS
10
-3.5227561417322835
20
6.7932049606299207
11
-3.5225000393700787
21
6.7955866929133855
0
LINE
8
BLACK
6
CONTINUOUS
10
-3.5225000393700787
20
6.7955866929133855
11
-3.5225
21
6.7955871653543305
0
LINE
8
BLACK
6
CONTINUOUS
10
-3.5225
20
6.7955871653543305
11
-3.5225
21
6.8200000000000003
0
LINE
8
BLACK
6
CONTINUOUS
10
-3.5225
20
6.8200000000000003
11
-3.5425
21
6.8200000000000003
0
LINE
8
BLACK
6
CONTINUOUS
10
-3.5425
20
6.8200000000000003
11
-3.5425
21
6.7974999999999994
0
LINE
8
BLACK
6
CONTINUOUS
10
-4.0274999999999999
20
6.8200000000000003
11
-4.0274999999999999
21
6.7955866929133855
0
LINE
8
BLACK
6
CONTINUOUS
10
-4.0274999999999999
20
6.7955866929133855
11
-4.0272438976377956
21
6.7932049606299207
0
LINE
8
BLACK
6
CONTINUOUS
10
-4.0272438976377956
20
6.7932049606299207
11
-4.0252340551181103
21
6.7878163385826769
0
LINE
8
BLACK
6
CONTINUOUS
10
-4.0252340551181103
20
6.7878163385826769
11
-4.0252340551181103
21
6.7878162992125981
0
LINE
8
BLACK
6
CONTINUOUS
10
-4.0252340551181103
20
6.7878162992125981
11
-4.0216081889763782
21
6.7829727952755903
0
LINE
8
BLACK
6
CONTINUOUS
10
-4.0216081889763782
20
6.7829727952755903
11
-4.020631377952756
21
6.7803538976377951
0
LINE
8
BLACK
6
CONTINUOUS
10
-4.020631377952756
20
6.7803538976377951
11
-4.0212255118110232
21
6.7776226377952753
0
LINE
8
BLACK
6
CONTINUOUS
10
-4.0212255118110232
20
6.7776226377952753
11
-4.0216081889763782
21
6.7770272047244093
0
LINE
8
BLACK
6
CONTINUOUS
10
-4.0216081889763782
20
6.7770272047244093
11
-4.0252340551181103
21
6.7721836614173228
0
LINE
8
BLACK
6
CONTINUOUS
10
-4.0252340551181103
20
6.7721836614173228
11
-4.0252340551181103
21
6.772183622047244
0
LINE
8
BLACK
6
CONTINUOUS
10
-4.0252340551181103
20
6.772183622047244
11
-4.0272438976377956
21
6.7667950000000001
0
LINE
8
BLACK
6
CONTINUOUS
10
-4.0272438976377956
20
6.7667950000000001
11
-4.0274999999999999
21
6.7644132677165354
0
LINE
8
BLACK
6
CONTINUOUS
10
-4.0274999999999999
20
6.7644132677165354
11
-4.0274999999999999
21
6.7400000000000002
0
LINE
8
BLACK
6
CONTINUOUS
10
-4.0274999999999999
20
6.7400000000000002
11
-4.0075000000000003
21
6.7400000000000002
0
LINE
8
BLACK
6
CONTINUOUS
10
-4.0075000000000003
20
6.7400000000000002
11
-4.0075000000000003
21
6.7625000000000002
0
LINE
8
BLACK
6
CONTINUOUS
10
-4.0075000000000003
20
6.7625000000000002
11
-3.9849999999999999
21
6.7625000000000002
0
LINE
8
BLACK
6
CONTINUOUS
10
-3.9849999999999999
20
6.7625000000000002
11
-3.9849999999999999
21
6.7974999999999994
0
LINE
8
BLACK
6
CONTINUOUS
10
-3.9849999999999999
20
6.7974999999999994
11
-4.0075000000000003
21
6.7974999999999994
0
LINE
8
BLACK
6
CONTINUOUS
10
-4.0075000000000003
20
6.7974999999999994
11
-4.0075000000000003
21
6.8200000000000003
0
LINE
8
BLACK
6
CONTINUOUS
10
-4.0075000000000003
20
6.8200000000000003
11
-4.0274999999999999
21
6.8200000000000003
0
LINE
8
BLACK
6
CONTINUOUS
10
-3.5649999999999999
20
6.8624999999999998
11
-3.5425
21
6.8624999999999998
0
LINE
8
BLACK
6
CONTINUOUS
10
-3.5425
20
6.8624999999999998
11
-3.5425
21
6.8399999999999999
0
LINE
8
BLACK
6
CONTINUOUS
10
-3.5425
20
6.8399999999999999
11
-3.5225
21
6.8399999999999999
0
LINE
8
BLACK
6
CONTINUOUS
10
-3.5225
20
6.8399999999999999
11
-3.5225
21
6.86441279527559
0
LINE
8
BLACK
6
CONTINUOUS
10
-3.5225
20
6.86441279527559
11
-3.5225000393700787
21
6.864413267716535
0
LINE
8
BLACK
6
CONTINUOUS
10
-3.5225000393700787
20
6.864413267716535
11
-3.5227561417322835
21
6.8667949999999998
0
LINE
8
BLACK
6
CONTINUOUS
10
-3.5227561417322835
20
6.8667949999999998
11
-3.5247659842519683
21
6.8721836220472436
0
LINE
8
BLACK
6
CONTINUOUS
10
-3.5247659842519683
20
6.8721836220472436
11
-3.5247659842519683
21
6.8721836614173224
0
LINE
8
BLACK
6
CONTINUOUS
10
-3.5247659842519683
20
6.8721836614173224
11
-3.5282124409448818
21
6.876787559055118
0
LINE
8
BLACK
6
CONTINUOUS
10
-3.5282124409448818
20
6.876787559055118
11
-3.532816338582677
21
6.8802340157480311
0
LINE
8
BLACK
6
CONTINUOUS
10
-3.532816338582677
20
6.8802340157480311
11
-3.538205
21
6.8822438582677163
0
LINE
8
BLACK
6
CONTINUOUS
10
-3.538205
20
6.8822438582677163
11
-3.5405867322834643
21
6.8824999606299215
0
LINE
8
BLACK
6
CONTINUOUS
10
-3.5405867322834643
20
6.8824999606299215
11
-3.5405872047244094
21
6.8825000000000003
0
LINE
8
BLACK
6
CONTINUOUS
10
-3.5405872047244094
20
6.8825000000000003
11
-3.5649999999999999
21
6.8825000000000003
0
LINE
8
BLACK
6
CONTINUOUS
10
-3.5649999999999999
20
6.8825000000000003
11
-3.5649999999999999
21
6.8624999999999998
0
LINE
8
BLACK
6
CONTINUOUS
10
-4.0094133070866143
20
6.8824999606299215
11
-4.011795039370079
21
6.8822438582677163
0
LINE
8
BLACK
6
CONTINUOUS
10
-4.011795039370079
20
6.8822438582677163
11
-4.0171836614173229
21
6.8802340157480311
0
LINE
8
BLACK
6
CONTINUOUS
10
-4.0171836614173229
20
6.8802340157480311
11
-4.0171837007874016
21
6.8802340157480311
0
LINE
8
BLACK
6
CONTINUOUS
10
-4.0171837007874016
20
6.8802340157480311
11
-4.0217875984251972
21
6.876787559055118
0
LINE
8
BLACK
6
CONTINUOUS
10
-4.0217875984251972
20
6.876787559055118
11
-4.0252340551181103
21
6.8721836614173224
0
LINE
8
BLACK
6
CONTINUOUS
10
-4.0252340551181103
20
6.8721836614173224
11
-4.0252340551181103
21
6.8721836220472436
0
LINE
8
BLACK
6
CONTINUOUS
10
-4.0252340551181103
20
6.8721836220472436
11
-4.0272438976377956
21
6.8667949999999998
0
LINE
8
BLACK
6
CONTINUOUS
10
-4.0272438976377956
20
6.8667949999999998
11
-4.0274999999999999
21
6.864413267716535
0
LINE
8
BLACK
6
CONTINUOUS
10
-4.0274999999999999
20
6.864413267716535
11
-4.0274999999999999
21
6.8399999999999999
0
LINE
8
BLACK
6
CONTINUOUS
10
-4.0274999999999999
20
6.8399999999999999
11
-4.0075000000000003
21
6.8399999999999999
0
LINE
8
BLACK
6
CONTINUOUS
10
-4.0075000000000003
20
6.8399999999999999
11
-4.0075000000000003
21
6.8624999999999998
0
LINE
8
BLACK
6
CONTINUOUS
10
-4.0075000000000003
20
6.8624999999999998
11
-3.9849999999999999
21
6.8624999999999998
0
LINE
8
BLACK
6
CONTINUOUS
10
-3.9849999999999999
20
6.8624999999999998
11
-3.9849999999999999
21
6.8825000000000003
0
LINE
8
BLACK
6
CONTINUOUS
10
-3.9849999999999999
20
6.8825000000000003
11
-4.0094127952755905
21
6.8825000000000003
0
LINE
8
BLACK
6
CONTINUOUS
10
-4.0094127952755905
20
6.8825000000000003
11
-4.0094133070866143
21
6.8824999606299215
0
CIRCLE
8
BLACK
10
-3.3249999999999997
20
6.1699999999999999
40
0.0068897637795276
0
CIRCLE
8
BLACK
10
-3.3249999999999997
20
6.2699999999999996
40
0.0068897637795276
0
CIRCLE
8
BLACK
10
-3.3249999999999997
20
6.3700000000000001
40
0.0068897637795276
0
CIRCLE
8
BLACK
10
-3.4249999999999998
20
6.3700000000000001
40
0.0068897637795276
0
CIRCLE
8
BLACK
10
-3.4249999999999998
20
6.2699999999999996
40
0.0068897637795276
0
CIRCLE
8
BLACK
10
-3.4249999999999998
20
6.1699999999999999
40
0.0068897637795276
0
CIRCLE
8
BLACK
10
-3.3249999999999997
20
5.7999999999999998
40
0.0068897637795276
0
CIRCLE
8
BLACK
10
-3.3249999999999997
20
5.8999999999999995
40
0.0068897637795276
0
CIRCLE
8
BLACK
10
-3.3249999999999997
20
6.
40
0.0068897637795276
0
CIRCLE
8
BLACK
10
-3.4249999999999998
20
6.
40
0.0068897637795276
0
CIRCLE
8
BLACK
10
-3.4249999999999998
20
5.8999999999999995
40
0.0068897637795276
0
CIRCLE
8
BLACK
10
-3.4249999999999998
20
5.7999999999999998
40
0.0068897637795276
0
CIRCLE
8
BLACK
10
-4.1200000000000001
20
5.8849999999999998
40
0.0068897637795276
0
CIRCLE
8
BLACK
10
-4.1200000000000001
20
5.9849999999999994
40
0.0068897637795276
0
CIRCLE
8
BLACK
10
-4.1200000000000001
20
6.085
40
0.0068897637795276
0
CIRCLE
8
BLACK
10
-4.1200000000000001
20
6.1849999999999996
40
0.0068897637795276
0
CIRCLE
8
BLACK
10
-4.1200000000000001
20
6.2850000000000001
40
0.0068897637795276
0
CIRCLE
8
BLACK
10
-4.1200000000000001
20
6.3849999999999998
40
0.0068897637795276
0
CIRCLE
8
BLACK
10
-4.1200000000000001
20
6.4849999999999994
40
0.0068897637795276
0
CIRCLE
8
BLACK
10
-4.2199999999999998
20
6.4849999999999994
40
0.0068897637795276
0
CIRCLE
8
BLACK
10
-4.2199999999999998
20
6.3849999999999998
40
0.0068897637795276
0
CIRCLE
8
BLACK
10
-4.2199999999999998
20
6.2850000000000001
40
0.0068897637795276
0
CIRCLE
8
BLACK
10
-4.2199999999999998
20
6.1849999999999996
40
0.0068897637795276
0
CIRCLE
8
BLACK
10
-4.2199999999999998
20
6.085
40
0.0068897637795276
0
CIRCLE
8
BLACK
10
-4.2199999999999998
20
5.9849999999999994
40
0.0068897637795276
0
CIRCLE
8
BLACK
10
-4.2199999999999998
20
5.8849999999999998
40
0.0068897637795276
0
CIRCLE
8
BLACK
10
-3.5749999999999997
20
6.8300000000000001
40
0.0068897637795276
0
CIRCLE
8
BLACK
10
-3.6749999999999998
20
6.8300000000000001
40
0.0068897637795276
0
CIRCLE
8
BLACK
10
-3.7749999999999999
20
6.8300000000000001
40
0.0068897637795276
0
CIRCLE
8
BLACK
10
-3.875
20
6.8300000000000001
40
0.0068897637795276
0
CIRCLE
8
BLACK
10
-3.9750000000000001
20
6.8300000000000001
40
0.0068897637795276
0
CIRCLE
8
BLACK
10
-3.9750000000000001
20
6.7299999999999995
40
0.0068897637795276
0
CIRCLE
8
BLACK
10
-3.875
20
6.7299999999999995
40
0.0068897637795276
0
CIRCLE
8
BLACK
10
-3.7749999999999999
20
6.7299999999999995
40
0.0068897637795276
0
CIRCLE
8
BLACK
10
-3.6749999999999998
20
6.7299999999999995
40
0.0068897637795276
0
CIRCLE
8
BLACK
10
-3.5749999999999997
20
6.7299999999999995
40
0.0068897637795276
0
CIRCLE
8
BLACK
10
-3.375
20
5.5750000000000002
40
0.0068897637795276
0
CIRCLE
8
BLACK
10
-4.1749999999999998
20
6.7749999999999995
40
0.0068897637795276
0
CIRCLE
8
BLACK
10
-4.1749999999999998
20
5.5750000000000002
40
0.0068897637795276
0
CIRCLE
8
BLACK
10
-3.375
20
6.7749999999999995
40
0.0068897637795276
0
CIRCLE
8
BLACK
10
-3.7149999999999999
20
6.4749999999999996
40
0.0068897637795276
0
CIRCLE
8
BLACK
10
-3.6149999999999998
20
6.4749999999999996
40
0.0068897637795276
0
CIRCLE
8
BLACK
10
-3.8799999999999999
20
5.6299999999999999
40
0.0068897637795276
0
CIRCLE
8
BLACK
10
-3.8799999999999999
20
5.5300000000000002
40
0.0068897637795276
0
CIRCLE
8
BLACK
10
-3.7799999999999998
20
5.5300000000000002
40
0.0068897637795276
0
CIRCLE
8
BLACK
10
-3.7799999999999998
20
5.6299999999999999
40
0.0068897637795276
0
CIRCLE
8
BLACK
10
-3.4950000000000001
20
6.0449999999999999
40
0.0125
  0
ENDSEC
  0
EOF
