  0
SECTION
  2
HEADER
  9
$ANGBASE
  50
0.0
  9
$ANGDIR
  70
1
  9
$MEASUREMENT
  70
0
  0
ENDSEC
  0
SECTION
  2
TABLES
  0
TABLE
  2
LTYPE
  70
4
  0
LTYPE
  5
40F
  2
CONTINUOUS
  70
0
  3
Solid line
  72
65
  73
0
  40
0.0
  0
LTYPE
  5
410
  2
DASHDOT
 70
0
  3
Dash Dot ____ _ ____ _
 72
65
 73
4
 40
2.0
 49
1.25
 49
-0.25
 49
0.25
 49
-0.25
  0
LTYPE
  5
411
  2
DASHED
 70
0
  3
Dashed __ __ __ __ __
 72
65
 73
2
 40
0.75
 49
0.5
 49
-0.25
  0
LTYPE
  5
43B
  2
DOTTED
 70
0
  3
Dotted .  .  .  .
 72
65
 73
2
 40
0.2
 49
0.0
 49
-0.2
  0
ENDTAB
  0
TABLE
  2
STYLE
  70
4
  0
STYLE
  2
KICAD
  70
0
  40
0
  41
1
  42
1
  50
0
  71
0
  3
isocp.shx
  0
STYLE
  2
KICADB
  70
0
  40
0
  41
1
  42
1
  50
0
  71
0
  3
isocp.shx
  0
STYLE
  2
KICADI
  70
0
  40
0
  41
1
  42
1
  50
15
  71
0
  3
isocp.shx
  0
STYLE
  2
KICADBI
  70
0
  40
0
  41
1
  42
1
  50
15
  71
0
  3
isocp.shx
  0
ENDTAB
  0
TABLE
  2
LAYER
  70
1
  0
LAYER
  2
BLACK
  70
0
  62
7
  6
CONTINUOUS
  0
ENDTAB
  0
ENDSEC
  0
SECTION
  2
ENTITIES
0
LINE
8
BLACK
6
CONTINUOUS
10
-4.153961220472441
20
5.6988253937007869
11
-4.1402294488188973
21
5.6956912204724413
0
LINE
8
BLACK
6
CONTINUOUS
10
-4.1402294488188973
20
5.6956912204724413
11
-4.1269349606299208
21
5.6910392519685038
0
LINE
8
BLACK
6
CONTINUOUS
10
-4.1269349606299208
20
5.6910392519685038
11
-4.1142449212598429
21
5.6849280708661416
0
LINE
8
BLACK
6
CONTINUOUS
10
-4.1142449212598429
20
5.6849280708661416
11
-4.1023188976377956
21
5.6774344488188975
0
LINE
8
BLACK
6
CONTINUOUS
10
-4.1023188976377956
20
5.6774344488188975
11
-4.0913068503937007
21
5.6686526377952751
0
LINE
8
BLACK
6
CONTINUOUS
10
-4.0913068503937007
20
5.6686526377952751
11
-4.081347362204724
21
5.6586931496062993
0
LINE
8
BLACK
6
CONTINUOUS
10
-4.081347362204724
20
5.6586931496062993
11
-4.0725655511811025
21
5.6476811023622044
0
LINE
8
BLACK
6
CONTINUOUS
10
-4.0725655511811025
20
5.6476811023622044
11
-4.0650719291338584
21
5.6357550787401571
0
LINE
8
BLACK
6
CONTINUOUS
10
-4.0650719291338584
20
5.6357550787401571
11
-4.0589607480314962
21
5.6230650393700783
0
LINE
8
BLACK
6
CONTINUOUS
10
-4.0589607480314962
20
5.6230650393700783
11
-4.0543087795275587
21
5.6097705511811018
0
LINE
8
BLACK
6
CONTINUOUS
10
-4.0543087795275587
20
5.6097705511811018
11
-4.0511746062992122
21
5.596038779527559
0
LINE
8
BLACK
6
CONTINUOUS
10
-4.0511746062992122
20
5.596038779527559
11
-4.0495975984251968
21
5.5820424409448819
0
LINE
8
BLACK
6
CONTINUOUS
10
-4.0495975984251968
20
5.5820424409448819
11
-4.0495975984251968
21
5.5679575590551176
0
LINE
8
BLACK
6
CONTINUOUS
10
-4.0495975984251968
20
5.5679575590551176
11
-4.0511746062992122
21
5.5539612204724405
0
LINE
8
BLACK
6
CONTINUOUS
10
-4.0511746062992122
20
5.5539612204724405
11
-4.0543087795275587
21
5.5402294488188977
0
LINE
8
BLACK
6
CONTINUOUS
10
-4.0543087795275587
20
5.5402294488188977
11
-4.0589607480314962
21
5.5269349606299212
0
LINE
8
BLACK
6
CONTINUOUS
10
-4.0589607480314962
20
5.5269349606299212
11
-4.0650719291338584
21
5.5142449212598423
0
LINE
8
BLACK
6
CONTINUOUS
10
-4.0650719291338584
20
5.5142449212598423
11
-4.0725655511811025
21
5.502318897637795
0
LINE
8
BLACK
6
CONTINUOUS
10
-4.0725655511811025
20
5.502318897637795
11
-4.081347362204724
21
5.491306850393701
0
LINE
8
BLACK
6
CONTINUOUS
10
-4.081347362204724
20
5.491306850393701
11
-4.0913068503937007
21
5.4813473622047244
0
LINE
8
BLACK
6
CONTINUOUS
10
-4.0913068503937007
20
5.4813473622047244
11
-4.1023188976377956
21
5.472565551181102
0
LINE
8
BLACK
6
CONTINUOUS
10
-4.1023188976377956
20
5.472565551181102
11
-4.1142449212598429
21
5.4650719291338579
0
LINE
8
BLACK
6
CONTINUOUS
10
-4.1142449212598429
20
5.4650719291338579
11
-4.1269349606299208
21
5.4589607480314957
0
LINE
8
BLACK
6
CONTINUOUS
10
-4.1269349606299208
20
5.4589607480314957
11
-4.1402294488188973
21
5.4543087795275591
0
LINE
8
BLACK
6
CONTINUOUS
10
-4.1402294488188973
20
5.4543087795275591
11
-4.153961220472441
21
5.4511746062992126
0
LINE
8
BLACK
6
CONTINUOUS
10
-4.153961220472441
20
5.4511746062992126
11
-4.1679575590551181
21
5.4495975984251963
0
LINE
8
BLACK
6
CONTINUOUS
10
-4.1679575590551181
20
5.4495975984251963
11
-4.1820424409448815
21
5.4495975984251963
0
LINE
8
BLACK
6
CONTINUOUS
10
-4.1820424409448815
20
5.4495975984251963
11
-4.1960387795275587
21
5.4511746062992126
0
LINE
8
BLACK
6
CONTINUOUS
10
-4.1960387795275587
20
5.4511746062992126
11
-4.2097705511811023
21
5.4543087795275591
0
LINE
8
BLACK
6
CONTINUOUS
10
-4.2097705511811023
20
5.4543087795275591
11
-4.2230650393700788
21
5.4589607480314957
0
LINE
8
BLACK
6
CONTINUOUS
10
-4.2230650393700788
20
5.4589607480314957
11
-4.2357550787401577
21
5.4650719291338579
0
LINE
8
BLACK
6
CONTINUOUS
10
-4.2357550787401577
20
5.4650719291338579
11
-4.247681102362205
21
5.472565551181102
0
LINE
8
BLACK
6
CONTINUOUS
10
-4.247681102362205
20
5.472565551181102
11
-4.258693149606299
21
5.4813473622047244
0
LINE
8
BLACK
6
CONTINUOUS
10
-4.258693149606299
20
5.4813473622047244
11
-4.2686526377952756
21
5.491306850393701
0
LINE
8
BLACK
6
CONTINUOUS
10
-4.2686526377952756
20
5.491306850393701
11
-4.2774344488188971
21
5.502318897637795
0
LINE
8
BLACK
6
CONTINUOUS
10
-4.2774344488188971
20
5.502318897637795
11
-4.2849280708661412
21
5.5142449212598423
0
LINE
8
BLACK
6
CONTINUOUS
10
-4.2849280708661412
20
5.5142449212598423
11
-4.2910392519685034
21
5.5269349606299212
0
LINE
8
BLACK
6
CONTINUOUS
10
-4.2910392519685034
20
5.5269349606299212
11
-4.2956912204724409
21
5.5402294488188977
0
LINE
8
BLACK
6
CONTINUOUS
10
-4.2956912204724409
20
5.5402294488188977
11
-4.2988253937007874
21
5.5539612204724405
0
LINE
8
BLACK
6
CONTINUOUS
10
-4.2988253937007874
20
5.5539612204724405
11
-4.3004024015748028
21
5.5679575590551176
0
LINE
8
BLACK
6
CONTINUOUS
10
-4.3004024015748028
20
5.5679575590551176
11
-4.3004024015748028
21
5.5812111811023621
0
LINE
8
BLACK
6
CONTINUOUS
10
-4.3004024015748028
20
5.5812111811023621
11
-4.3004024015748028
21
5.5820424409448819
0
LINE
8
BLACK
6
CONTINUOUS
10
-4.3004024015748028
20
5.5820424409448819
11
-4.2988253937007874
21
5.596038779527559
0
LINE
8
BLACK
6
CONTINUOUS
10
-4.2988253937007874
20
5.596038779527559
11
-4.2956912204724409
21
5.6097705511811018
0
LINE
8
BLACK
6
CONTINUOUS
10
-4.2956912204724409
20
5.6097705511811018
11
-4.2910392519685034
21
5.6230650393700783
0
LINE
8
BLACK
6
CONTINUOUS
10
-4.2910392519685034
20
5.6230650393700783
11
-4.2849280708661412
21
5.6357550787401571
0
LINE
8
BLACK
6
CONTINUOUS
10
-4.2849280708661412
20
5.6357550787401571
11
-4.2774344488188971
21
5.6476811023622044
0
LINE
8
BLACK
6
CONTINUOUS
10
-4.2774344488188971
20
5.6476811023622044
11
-4.2686526377952756
21
5.6586931496062993
0
LINE
8
BLACK
6
CONTINUOUS
10
-4.2686526377952756
20
5.6586931496062993
11
-4.258693149606299
21
5.6686526377952751
0
LINE
8
BLACK
6
CONTINUOUS
10
-4.258693149606299
20
5.6686526377952751
11
-4.247681102362205
21
5.6774344488188975
0
LINE
8
BLACK
6
CONTINUOUS
10
-4.247681102362205
20
5.6774344488188975
11
-4.2357550787401577
21
5.6849280708661416
0
LINE
8
BLACK
6
CONTINUOUS
10
-4.2357550787401577
20
5.6849280708661416
11
-4.2230650393700788
21
5.6910392519685038
0
LINE
8
BLACK
6
CONTINUOUS
10
-4.2230650393700788
20
5.6910392519685038
11
-4.2097705511811023
21
5.6956912204724413
0
LINE
8
BLACK
6
CONTINUOUS
10
-4.2097705511811023
20
5.6956912204724413
11
-4.1960387795275587
21
5.6988253937007869
0
LINE
8
BLACK
6
CONTINUOUS
10
-4.1960387795275587
20
5.6988253937007869
11
-4.1820424409448815
21
5.7004024015748032
0
LINE
8
BLACK
6
CONTINUOUS
10
-4.1820424409448815
20
5.7004024015748032
11
-4.1679575590551181
21
5.7004024015748032
0
LINE
8
BLACK
6
CONTINUOUS
10
-4.1679575590551181
20
5.7004024015748032
11
-4.153961220472441
21
5.6988253937007869
0
LINE
8
BLACK
6
CONTINUOUS
10
-4.2855999999999996
20
5.5687888188976373
11
-4.2842091338582673
21
5.5564446062992126
0
LINE
8
BLACK
6
CONTINUOUS
10
-4.2842091338582673
20
5.5564446062992126
11
-4.2814448818897635
21
5.5443337401574802
0
LINE
8
BLACK
6
CONTINUOUS
10
-4.2814448818897635
20
5.5443337401574802
11
-4.2773420472440939
21
5.5326085433070862
0
LINE
8
BLACK
6
CONTINUOUS
10
-4.2773420472440939
20
5.5326085433070862
11
-4.2719522047244096
21
5.5214164173228344
0
LINE
8
BLACK
6
CONTINUOUS
10
-4.2719522047244096
20
5.5214164173228344
11
-4.2653431496062995
21
5.5108981102362202
0
LINE
8
BLACK
6
CONTINUOUS
10
-4.2653431496062995
20
5.5108981102362202
11
-4.2575979527559058
21
5.5011859448818896
0
LINE
8
BLACK
6
CONTINUOUS
10
-4.2575979527559058
20
5.5011859448818896
11
-4.2488140551181104
21
5.4924020472440942
0
LINE
8
BLACK
6
CONTINUOUS
10
-4.2488140551181104
20
5.4924020472440942
11
-4.2391018897637798
21
5.4846568503937005
0
LINE
8
BLACK
6
CONTINUOUS
10
-4.2391018897637798
20
5.4846568503937005
11
-4.2285835826771656
21
5.4780477952755904
0
LINE
8
BLACK
6
CONTINUOUS
10
-4.2285835826771656
20
5.4780477952755904
11
-4.2173914566929129
21
5.4726579527559052
0
LINE
8
BLACK
6
CONTINUOUS
10
-4.2173914566929129
20
5.4726579527559052
11
-4.2056662598425198
21
5.4685551181102365
0
LINE
8
BLACK
6
CONTINUOUS
10
-4.2056662598425198
20
5.4685551181102365
11
-4.1935553937007874
21
5.4657908661417318
0
LINE
8
BLACK
6
CONTINUOUS
10
-4.1935553937007874
20
5.4657908661417318
11
-4.1812111811023618
21
5.4643999999999995
0
LINE
8
BLACK
6
CONTINUOUS
10
-4.1812111811023618
20
5.4643999999999995
11
-4.1687888188976379
21
5.4643999999999995
0
LINE
8
BLACK
6
CONTINUOUS
10
-4.1687888188976379
20
5.4643999999999995
11
-4.1564446062992122
21
5.4657908661417318
0
LINE
8
BLACK
6
CONTINUOUS
10
-4.1564446062992122
20
5.4657908661417318
11
-4.1443337401574798
21
5.4685551181102365
0
LINE
8
BLACK
6
CONTINUOUS
10
-4.1443337401574798
20
5.4685551181102365
11
-4.1326085433070867
21
5.4726579527559052
0
LINE
8
BLACK
6
CONTINUOUS
10
-4.1326085433070867
20
5.4726579527559052
11
-4.1214164173228349
21
5.4780477952755904
0
LINE
8
BLACK
6
CONTINUOUS
10
-4.1214164173228349
20
5.4780477952755904
11
-4.1108981102362208
21
5.4846568503937005
0
LINE
8
BLACK
6
CONTINUOUS
10
-4.1108981102362208
20
5.4846568503937005
11
-4.1011859448818893
21
5.4924020472440942
0
LINE
8
BLACK
6
CONTINUOUS
10
-4.1011859448818893
20
5.4924020472440942
11
-4.0924020472440947
21
5.5011859448818896
0
LINE
8
BLACK
6
CONTINUOUS
10
-4.0924020472440947
20
5.5011859448818896
11
-4.0846568503937011
21
5.5108981102362202
0
LINE
8
BLACK
6
CONTINUOUS
10
-4.0846568503937011
20
5.5108981102362202
11
-4.07804779527559
21
5.5214164173228344
0
LINE
8
BLACK
6
CONTINUOUS
10
-4.07804779527559
20
5.5214164173228344
11
-4.0726579527559057
21
5.5326085433070862
0
LINE
8
BLACK
6
CONTINUOUS
10
-4.0726579527559057
20
5.5326085433070862
11
-4.0685551181102362
21
5.5443337401574802
0
LINE
8
BLACK
6
CONTINUOUS
10
-4.0685551181102362
20
5.5443337401574802
11
-4.0657908661417324
21
5.5564446062992126
0
LINE
8
BLACK
6
CONTINUOUS
10
-4.0657908661417324
20
5.5564446062992126
11
-4.0644
21
5.5687888188976373
0
LINE
8
BLACK
6
CONTINUOUS
10
-4.0644
20
5.5687888188976373
11
-4.0644
21
5.5812111811023621
0
LINE
8
BLACK
6
CONTINUOUS
10
-4.0644
20
5.5812111811023621
11
-4.0657908661417324
21
5.5935553937007869
0
LINE
8
BLACK
6
CONTINUOUS
10
-4.0657908661417324
20
5.5935553937007869
11
-4.0685551181102362
21
5.6056662598425193
0
LINE
8
BLACK
6
CONTINUOUS
10
-4.0685551181102362
20
5.6056662598425193
11
-4.0726579527559057
21
5.6173914566929133
0
LINE
8
BLACK
6
CONTINUOUS
10
-4.0726579527559057
20
5.6173914566929133
11
-4.07804779527559
21
5.6285835826771651
0
LINE
8
BLACK
6
CONTINUOUS
10
-4.07804779527559
20
5.6285835826771651
11
-4.0846568503937011
21
5.6391018897637792
0
LINE
8
BLACK
6
CONTINUOUS
10
-4.0846568503937011
20
5.6391018897637792
11
-4.0924020472440947
21
5.6488140551181099
0
LINE
8
BLACK
6
CONTINUOUS
10
-4.0924020472440947
20
5.6488140551181099
11
-4.1011859448818893
21
5.6575979527559053
0
LINE
8
BLACK
6
CONTINUOUS
10
-4.1011859448818893
20
5.6575979527559053
11
-4.1108981102362208
21
5.6653431496062989
0
LINE
8
BLACK
6
CONTINUOUS
10
-4.1108981102362208
20
5.6653431496062989
11
-4.1214164173228349
21
5.6719522047244091
0
LINE
8
BLACK
6
CONTINUOUS
10
-4.1214164173228349
20
5.6719522047244091
11
-4.1326085433070867
21
5.6773420472440943
0
LINE
8
BLACK
6
CONTINUOUS
10
-4.1326085433070867
20
5.6773420472440943
11
-4.1443337401574798
21
5.6814448818897638
0
LINE
8
BLACK
6
CONTINUOUS
10
-4.1443337401574798
20
5.6814448818897638
11
-4.1564446062992122
21
5.6842091338582676
0
LINE
8
BLACK
6
CONTINUOUS
10
-4.1564446062992122
20
5.6842091338582676
11
-4.1687888188976379
21
5.6856
0
LINE
8
BLACK
6
CONTINUOUS
10
-4.1687888188976379
20
5.6856
11
-4.1812111811023618
21
5.6856
0
LINE
8
BLACK
6
CONTINUOUS
10
-4.1812111811023618
20
5.6856
11
-4.1935553937007874
21
5.6842091338582676
0
LINE
8
BLACK
6
CONTINUOUS
10
-4.1935553937007874
20
5.6842091338582676
11
-4.2056662598425198
21
5.6814448818897638
0
LINE
8
BLACK
6
CONTINUOUS
10
-4.2056662598425198
20
5.6814448818897638
11
-4.2173914566929129
21
5.6773420472440943
0
LINE
8
BLACK
6
CONTINUOUS
10
-4.2173914566929129
20
5.6773420472440943
11
-4.2285835826771656
21
5.6719522047244091
0
LINE
8
BLACK
6
CONTINUOUS
10
-4.2285835826771656
20
5.6719522047244091
11
-4.2391018897637798
21
5.6653431496062989
0
LINE
8
BLACK
6
CONTINUOUS
10
-4.2391018897637798
20
5.6653431496062989
11
-4.2488140551181104
21
5.6575979527559053
0
LINE
8
BLACK
6
CONTINUOUS
10
-4.2488140551181104
20
5.6575979527559053
11
-4.2575979527559058
21
5.6488140551181099
0
LINE
8
BLACK
6
CONTINUOUS
10
-4.2575979527559058
20
5.6488140551181099
11
-4.2653431496062995
21
5.6391018897637792
0
LINE
8
BLACK
6
CONTINUOUS
10
-4.2653431496062995
20
5.6391018897637792
11
-4.2719522047244096
21
5.6285835826771651
0
LINE
8
BLACK
6
CONTINUOUS
10
-4.2719522047244096
20
5.6285835826771651
11
-4.2773420472440939
21
5.6173914566929133
0
LINE
8
BLACK
6
CONTINUOUS
10
-4.2773420472440939
20
5.6173914566929133
11
-4.2814448818897635
21
5.6056662598425193
0
LINE
8
BLACK
6
CONTINUOUS
10
-4.2814448818897635
20
5.6056662598425193
11
-4.2842091338582673
21
5.5935553937007869
0
LINE
8
BLACK
6
CONTINUOUS
10
-4.2842091338582673
20
5.5935553937007869
11
-4.2855999999999996
21
5.5812111811023621
0
LINE
8
BLACK
6
CONTINUOUS
10
-4.2855999999999996
20
5.5812111811023621
11
-4.2855999999999996
21
5.5687888188976373
0
LINE
8
BLACK
6
CONTINUOUS
10
-3.3539612204724407
20
5.6988253937007869
11
-3.3402294488188975
21
5.6956912204724413
0
LINE
8
BLACK
6
CONTINUOUS
10
-3.3402294488188975
20
5.6956912204724413
11
-3.326934960629921
21
5.6910392519685038
0
LINE
8
BLACK
6
CONTINUOUS
10
-3.326934960629921
20
5.6910392519685038
11
-3.3142449212598426
21
5.6849280708661416
0
LINE
8
BLACK
6
CONTINUOUS
10
-3.3142449212598426
20
5.6849280708661416
11
-3.3023188976377953
21
5.6774344488188975
0
LINE
8
BLACK
6
CONTINUOUS
10
-3.3023188976377953
20
5.6774344488188975
11
-3.2913068503937009
21
5.6686526377952751
0
LINE
8
BLACK
6
CONTINUOUS
10
-3.2913068503937009
20
5.6686526377952751
11
-3.2813473622047242
21
5.6586931496062993
0
LINE
8
BLACK
6
CONTINUOUS
10
-3.2813473622047242
20
5.6586931496062993
11
-3.2725655511811023
21
5.6476811023622044
0
LINE
8
BLACK
6
CONTINUOUS
10
-3.2725655511811023
20
5.6476811023622044
11
-3.2650719291338581
21
5.6357550787401571
0
LINE
8
BLACK
6
CONTINUOUS
10
-3.2650719291338581
20
5.6357550787401571
11
-3.2589607480314959
21
5.6230650393700783
0
LINE
8
BLACK
6
CONTINUOUS
10
-3.2589607480314959
20
5.6230650393700783
11
-3.2543087795275589
21
5.6097705511811018
0
LINE
8
BLACK
6
CONTINUOUS
10
-3.2543087795275589
20
5.6097705511811018
11
-3.2511746062992124
21
5.596038779527559
0
LINE
8
BLACK
6
CONTINUOUS
10
-3.2511746062992124
20
5.596038779527559
11
-3.2495975984251966
21
5.5820424409448819
0
LINE
8
BLACK
6
CONTINUOUS
10
-3.2495975984251966
20
5.5820424409448819
11
-3.2495975984251966
21
5.5679575590551176
0
LINE
8
BLACK
6
CONTINUOUS
10
-3.2495975984251966
20
5.5679575590551176
11
-3.2511746062992124
21
5.5539612204724405
0
LINE
8
BLACK
6
CONTINUOUS
10
-3.2511746062992124
20
5.5539612204724405
11
-3.2543087795275589
21
5.5402294488188977
0
LINE
8
BLACK
6
CONTINUOUS
10
-3.2543087795275589
20
5.5402294488188977
11
-3.2589607480314959
21
5.5269349606299212
0
LINE
8
BLACK
6
CONTINUOUS
10
-3.2589607480314959
20
5.5269349606299212
11
-3.2650719291338581
21
5.5142449212598423
0
LINE
8
BLACK
6
CONTINUOUS
10
-3.2650719291338581
20
5.5142449212598423
11
-3.2725655511811023
21
5.502318897637795
0
LINE
8
BLACK
6
CONTINUOUS
10
-3.2725655511811023
20
5.502318897637795
11
-3.2813473622047242
21
5.491306850393701
0
LINE
8
BLACK
6
CONTINUOUS
10
-3.2813473622047242
20
5.491306850393701
11
-3.2913068503937009
21
5.4813473622047244
0
LINE
8
BLACK
6
CONTINUOUS
10
-3.2913068503937009
20
5.4813473622047244
11
-3.3023188976377953
21
5.472565551181102
0
LINE
8
BLACK
6
CONTINUOUS
10
-3.3023188976377953
20
5.472565551181102
11
-3.3142449212598426
21
5.4650719291338579
0
LINE
8
BLACK
6
CONTINUOUS
10
-3.3142449212598426
20
5.4650719291338579
11
-3.326934960629921
21
5.4589607480314957
0
LINE
8
BLACK
6
CONTINUOUS
10
-3.326934960629921
20
5.4589607480314957
11
-3.3402294488188975
21
5.4543087795275591
0
LINE
8
BLACK
6
CONTINUOUS
10
-3.3402294488188975
20
5.4543087795275591
11
-3.3539612204724407
21
5.4511746062992126
0
LINE
8
BLACK
6
CONTINUOUS
10
-3.3539612204724407
20
5.4511746062992126
11
-3.3679575590551178
21
5.4495975984251963
0
LINE
8
BLACK
6
CONTINUOUS
10
-3.3679575590551178
20
5.4495975984251963
11
-3.3820424409448817
21
5.4495975984251963
0
LINE
8
BLACK
6
CONTINUOUS
10
-3.3820424409448817
20
5.4495975984251963
11
-3.3960387795275588
21
5.4511746062992126
0
LINE
8
BLACK
6
CONTINUOUS
10
-3.3960387795275588
20
5.4511746062992126
11
-3.4097705511811025
21
5.4543087795275591
0
LINE
8
BLACK
6
CONTINUOUS
10
-3.4097705511811025
20
5.4543087795275591
11
-3.4230650393700786
21
5.4589607480314957
0
LINE
8
BLACK
6
CONTINUOUS
10
-3.4230650393700786
20
5.4589607480314957
11
-3.4357550787401574
21
5.4650719291338579
0
LINE
8
BLACK
6
CONTINUOUS
10
-3.4357550787401574
20
5.4650719291338579
11
-3.4476811023622047
21
5.472565551181102
0
LINE
8
BLACK
6
CONTINUOUS
10
-3.4476811023622047
20
5.472565551181102
11
-3.4586931496062991
21
5.4813473622047244
0
LINE
8
BLACK
6
CONTINUOUS
10
-3.4586931496062991
20
5.4813473622047244
11
-3.4686526377952753
21
5.491306850393701
0
LINE
8
BLACK
6
CONTINUOUS
10
-3.4686526377952753
20
5.491306850393701
11
-3.4774344488188977
21
5.502318897637795
0
LINE
8
BLACK
6
CONTINUOUS
10
-3.4774344488188977
20
5.502318897637795
11
-3.4849280708661419
21
5.5142449212598423
0
LINE
8
BLACK
6
CONTINUOUS
10
-3.4849280708661419
20
5.5142449212598423
11
-3.4910392519685041
21
5.5269349606299212
0
LINE
8
BLACK
6
CONTINUOUS
10
-3.4910392519685041
20
5.5269349606299212
11
-3.4956912204724411
21
5.5402294488188977
0
LINE
8
BLACK
6
CONTINUOUS
10
-3.4956912204724411
20
5.5402294488188977
11
-3.4988253937007872
21
5.5539612204724405
0
LINE
8
BLACK
6
CONTINUOUS
10
-3.4988253937007872
20
5.5539612204724405
11
-3.500402401574803
21
5.5679575590551176
0
LINE
8
BLACK
6
CONTINUOUS
10
-3.500402401574803
20
5.5679575590551176
11
-3.500402401574803
21
5.5812111811023621
0
LINE
8
BLACK
6
CONTINUOUS
10
-3.500402401574803
20
5.5812111811023621
11
-3.500402401574803
21
5.5820424409448819
0
LINE
8
BLACK
6
CONTINUOUS
10
-3.500402401574803
20
5.5820424409448819
11
-3.4988253937007872
21
5.596038779527559
0
LINE
8
BLACK
6
CONTINUOUS
10
-3.4988253937007872
20
5.596038779527559
11
-3.4956912204724411
21
5.6097705511811018
0
LINE
8
BLACK
6
CONTINUOUS
10
-3.4956912204724411
20
5.6097705511811018
11
-3.4910392519685041
21
5.6230650393700783
0
LINE
8
BLACK
6
CONTINUOUS
10
-3.4910392519685041
20
5.6230650393700783
11
-3.4849280708661419
21
5.6357550787401571
0
LINE
8
BLACK
6
CONTINUOUS
10
-3.4849280708661419
20
5.6357550787401571
11
-3.4774344488188977
21
5.6476811023622044
0
LINE
8
BLACK
6
CONTINUOUS
10
-3.4774344488188977
20
5.6476811023622044
11
-3.4686526377952753
21
5.6586931496062993
0
LINE
8
BLACK
6
CONTINUOUS
10
-3.4686526377952753
20
5.6586931496062993
11
-3.4586931496062991
21
5.6686526377952751
0
LINE
8
BLACK
6
CONTINUOUS
10
-3.4586931496062991
20
5.6686526377952751
11
-3.4476811023622047
21
5.6774344488188975
0
LINE
8
BLACK
6
CONTINUOUS
10
-3.4476811023622047
20
5.6774344488188975
11
-3.4357550787401574
21
5.6849280708661416
0
LINE
8
BLACK
6
CONTINUOUS
10
-3.4357550787401574
20
5.6849280708661416
11
-3.4230650393700786
21
5.6910392519685038
0
LINE
8
BLACK
6
CONTINUOUS
10
-3.4230650393700786
20
5.6910392519685038
11
-3.4097705511811025
21
5.6956912204724413
0
LINE
8
BLACK
6
CONTINUOUS
10
-3.4097705511811025
20
5.6956912204724413
11
-3.3960387795275588
21
5.6988253937007869
0
LINE
8
BLACK
6
CONTINUOUS
10
-3.3960387795275588
20
5.6988253937007869
11
-3.3820424409448817
21
5.7004024015748032
0
LINE
8
BLACK
6
CONTINUOUS
10
-3.3820424409448817
20
5.7004024015748032
11
-3.3679575590551178
21
5.7004024015748032
0
LINE
8
BLACK
6
CONTINUOUS
10
-3.3679575590551178
20
5.7004024015748032
11
-3.3539612204724407
21
5.6988253937007869
0
LINE
8
BLACK
6
CONTINUOUS
10
-3.4855999999999998
20
5.5687888188976373
11
-3.4842091338582675
21
5.5564446062992126
0
LINE
8
BLACK
6
CONTINUOUS
10
-3.4842091338582675
20
5.5564446062992126
11
-3.4814448818897636
21
5.5443337401574802
0
LINE
8
BLACK
6
CONTINUOUS
10
-3.4814448818897636
20
5.5443337401574802
11
-3.4773420472440946
21
5.5326085433070862
0
LINE
8
BLACK
6
CONTINUOUS
10
-3.4773420472440946
20
5.5326085433070862
11
-3.4719522047244094
21
5.5214164173228344
0
LINE
8
BLACK
6
CONTINUOUS
10
-3.4719522047244094
20
5.5214164173228344
11
-3.4653431496062992
21
5.5108981102362202
0
LINE
8
BLACK
6
CONTINUOUS
10
-3.4653431496062992
20
5.5108981102362202
11
-3.4575979527559055
21
5.5011859448818896
0
LINE
8
BLACK
6
CONTINUOUS
10
-3.4575979527559055
20
5.5011859448818896
11
-3.4488140551181101
21
5.4924020472440942
0
LINE
8
BLACK
6
CONTINUOUS
10
-3.4488140551181101
20
5.4924020472440942
11
-3.4391018897637795
21
5.4846568503937005
0
LINE
8
BLACK
6
CONTINUOUS
10
-3.4391018897637795
20
5.4846568503937005
11
-3.4285835826771653
21
5.4780477952755904
0
LINE
8
BLACK
6
CONTINUOUS
10
-3.4285835826771653
20
5.4780477952755904
11
-3.4173914566929131
21
5.4726579527559052
0
LINE
8
BLACK
6
CONTINUOUS
10
-3.4173914566929131
20
5.4726579527559052
11
-3.4056662598425196
21
5.4685551181102365
0
LINE
8
BLACK
6
CONTINUOUS
10
-3.4056662598425196
20
5.4685551181102365
11
-3.3935553937007872
21
5.4657908661417318
0
LINE
8
BLACK
6
CONTINUOUS
10
-3.3935553937007872
20
5.4657908661417318
11
-3.381211181102362
21
5.4643999999999995
0
LINE
8
BLACK
6
CONTINUOUS
10
-3.381211181102362
20
5.4643999999999995
11
-3.3687888188976376
21
5.4643999999999995
0
LINE
8
BLACK
6
CONTINUOUS
10
-3.3687888188976376
20
5.4643999999999995
11
-3.3564446062992124
21
5.4657908661417318
0
LINE
8
BLACK
6
CONTINUOUS
10
-3.3564446062992124
20
5.4657908661417318
11
-3.3443337401574804
21
5.4685551181102365
0
LINE
8
BLACK
6
CONTINUOUS
10
-3.3443337401574804
20
5.4685551181102365
11
-3.3326085433070864
21
5.4726579527559052
0
LINE
8
BLACK
6
CONTINUOUS
10
-3.3326085433070864
20
5.4726579527559052
11
-3.3214164173228347
21
5.4780477952755904
0
LINE
8
BLACK
6
CONTINUOUS
10
-3.3214164173228347
20
5.4780477952755904
11
-3.3108981102362205
21
5.4846568503937005
0
LINE
8
BLACK
6
CONTINUOUS
10
-3.3108981102362205
20
5.4846568503937005
11
-3.3011859448818899
21
5.4924020472440942
0
LINE
8
BLACK
6
CONTINUOUS
10
-3.3011859448818899
20
5.4924020472440942
11
-3.2924020472440945
21
5.5011859448818896
0
LINE
8
BLACK
6
CONTINUOUS
10
-3.2924020472440945
20
5.5011859448818896
11
-3.2846568503937008
21
5.5108981102362202
0
LINE
8
BLACK
6
CONTINUOUS
10
-3.2846568503937008
20
5.5108981102362202
11
-3.2780477952755906
21
5.5214164173228344
0
LINE
8
BLACK
6
CONTINUOUS
10
-3.2780477952755906
20
5.5214164173228344
11
-3.2726579527559054
21
5.5326085433070862
0
LINE
8
BLACK
6
CONTINUOUS
10
-3.2726579527559054
20
5.5326085433070862
11
-3.2685551181102364
21
5.5443337401574802
0
LINE
8
BLACK
6
CONTINUOUS
10
-3.2685551181102364
20
5.5443337401574802
11
-3.2657908661417321
21
5.5564446062992126
0
LINE
8
BLACK
6
CONTINUOUS
10
-3.2657908661417321
20
5.5564446062992126
11
-3.2643999999999997
21
5.5687888188976373
0
LINE
8
BLACK
6
CONTINUOUS
10
-3.2643999999999997
20
5.5687888188976373
11
-3.2643999999999997
21
5.5812111811023621
0
LINE
8
BLACK
6
CONTINUOUS
10
-3.2643999999999997
20
5.5812111811023621
11
-3.2657908661417321
21
5.5935553937007869
0
LINE
8
BLACK
6
CONTINUOUS
10
-3.2657908661417321
20
5.5935553937007869
11
-3.2685551181102364
21
5.6056662598425193
0
LINE
8
BLACK
6
CONTINUOUS
10
-3.2685551181102364
20
5.6056662598425193
11
-3.2726579527559054
21
5.6173914566929133
0
LINE
8
BLACK
6
CONTINUOUS
10
-3.2726579527559054
20
5.6173914566929133
11
-3.2780477952755906
21
5.6285835826771651
0
LINE
8
BLACK
6
CONTINUOUS
10
-3.2780477952755906
20
5.6285835826771651
11
-3.2846568503937008
21
5.6391018897637792
0
LINE
8
BLACK
6
CONTINUOUS
10
-3.2846568503937008
20
5.6391018897637792
11
-3.2924020472440945
21
5.6488140551181099
0
LINE
8
BLACK
6
CONTINUOUS
10
-3.2924020472440945
20
5.6488140551181099
11
-3.3011859448818899
21
5.6575979527559053
0
LINE
8
BLACK
6
CONTINUOUS
10
-3.3011859448818899
20
5.6575979527559053
11
-3.3108981102362205
21
5.6653431496062989
0
LINE
8
BLACK
6
CONTINUOUS
10
-3.3108981102362205
20
5.6653431496062989
11
-3.3214164173228347
21
5.6719522047244091
0
LINE
8
BLACK
6
CONTINUOUS
10
-3.3214164173228347
20
5.6719522047244091
11
-3.3326085433070864
21
5.6773420472440943
0
LINE
8
BLACK
6
CONTINUOUS
10
-3.3326085433070864
20
5.6773420472440943
11
-3.3443337401574804
21
5.6814448818897638
0
LINE
8
BLACK
6
CONTINUOUS
10
-3.3443337401574804
20
5.6814448818897638
11
-3.3564446062992124
21
5.6842091338582676
0
LINE
8
BLACK
6
CONTINUOUS
10
-3.3564446062992124
20
5.6842091338582676
11
-3.3687888188976376
21
5.6856
0
LINE
8
BLACK
6
CONTINUOUS
10
-3.3687888188976376
20
5.6856
11
-3.381211181102362
21
5.6856
0
LINE
8
BLACK
6
CONTINUOUS
10
-3.381211181102362
20
5.6856
11
-3.3935553937007872
21
5.6842091338582676
0
LINE
8
BLACK
6
CONTINUOUS
10
-3.3935553937007872
20
5.6842091338582676
11
-3.4056662598425196
21
5.6814448818897638
0
LINE
8
BLACK
6
CONTINUOUS
10
-3.4056662598425196
20
5.6814448818897638
11
-3.4173914566929131
21
5.6773420472440943
0
LINE
8
BLACK
6
CONTINUOUS
10
-3.4173914566929131
20
5.6773420472440943
11
-3.4285835826771653
21
5.6719522047244091
0
LINE
8
BLACK
6
CONTINUOUS
10
-3.4285835826771653
20
5.6719522047244091
11
-3.4391018897637795
21
5.6653431496062989
0
LINE
8
BLACK
6
CONTINUOUS
10
-3.4391018897637795
20
5.6653431496062989
11
-3.4488140551181101
21
5.6575979527559053
0
LINE
8
BLACK
6
CONTINUOUS
10
-3.4488140551181101
20
5.6575979527559053
11
-3.4575979527559055
21
5.6488140551181099
0
LINE
8
BLACK
6
CONTINUOUS
10
-3.4575979527559055
20
5.6488140551181099
11
-3.4653431496062992
21
5.6391018897637792
0
LINE
8
BLACK
6
CONTINUOUS
10
-3.4653431496062992
20
5.6391018897637792
11
-3.4719522047244094
21
5.6285835826771651
0
LINE
8
BLACK
6
CONTINUOUS
10
-3.4719522047244094
20
5.6285835826771651
11
-3.4773420472440946
21
5.6173914566929133
0
LINE
8
BLACK
6
CONTINUOUS
10
-3.4773420472440946
20
5.6173914566929133
11
-3.4814448818897636
21
5.6056662598425193
0
LINE
8
BLACK
6
CONTINUOUS
10
-3.4814448818897636
20
5.6056662598425193
11
-3.4842091338582675
21
5.5935553937007869
0
LINE
8
BLACK
6
CONTINUOUS
10
-3.4842091338582675
20
5.5935553937007869
11
-3.4855999999999998
21
5.5812111811023621
0
LINE
8
BLACK
6
CONTINUOUS
10
-3.4855999999999998
20
5.5812111811023621
11
-3.4855999999999998
21
5.5687888188976373
0
LINE
8
BLACK
6
CONTINUOUS
10
-4.153961220472441
20
6.8988253937007871
11
-4.1402294488188973
21
6.8956912204724405
0
LINE
8
BLACK
6
CONTINUOUS
10
-4.1402294488188973
20
6.8956912204724405
11
-4.1269349606299208
21
6.891039251968504
0
LINE
8
BLACK
6
CONTINUOUS
10
-4.1269349606299208
20
6.891039251968504
11
-4.1142449212598429
21
6.8849280708661418
0
LINE
8
BLACK
6
CONTINUOUS
10
-4.1142449212598429
20
6.8849280708661418
11
-4.1023188976377956
21
6.8774344488188976
0
LINE
8
BLACK
6
CONTINUOUS
10
-4.1023188976377956
20
6.8774344488188976
11
-4.0913068503937007
21
6.8686526377952752
0
LINE
8
BLACK
6
CONTINUOUS
10
-4.0913068503937007
20
6.8686526377952752
11
-4.081347362204724
21
6.8586931496062995
0
LINE
8
BLACK
6
CONTINUOUS
10
-4.081347362204724
20
6.8586931496062995
11
-4.0725655511811025
21
6.8476811023622046
0
LINE
8
BLACK
6
CONTINUOUS
10
-4.0725655511811025
20
6.8476811023622046
11
-4.0650719291338584
21
6.8357550787401573
0
LINE
8
BLACK
6
CONTINUOUS
10
-4.0650719291338584
20
6.8357550787401573
11
-4.0589607480314962
21
6.8230650393700785
0
LINE
8
BLACK
6
CONTINUOUS
10
-4.0589607480314962
20
6.8230650393700785
11
-4.0543087795275587
21
6.809770551181102
0
LINE
8
BLACK
6
CONTINUOUS
10
-4.0543087795275587
20
6.809770551181102
11
-4.0511746062992122
21
6.7960387795275592
0
LINE
8
BLACK
6
CONTINUOUS
10
-4.0511746062992122
20
6.7960387795275592
11
-4.0495975984251968
21
6.7820424409448821
0
LINE
8
BLACK
6
CONTINUOUS
10
-4.0495975984251968
20
6.7820424409448821
11
-4.0495975984251968
21
6.7679575590551178
0
LINE
8
BLACK
6
CONTINUOUS
10
-4.0495975984251968
20
6.7679575590551178
11
-4.0511746062992122
21
6.7539612204724406
0
LINE
8
BLACK
6
CONTINUOUS
10
-4.0511746062992122
20
6.7539612204724406
11
-4.0543087795275587
21
6.7402294488188979
0
LINE
8
BLACK
6
CONTINUOUS
10
-4.0543087795275587
20
6.7402294488188979
11
-4.0589607480314962
21
6.7269349606299214
0
LINE
8
BLACK
6
CONTINUOUS
10
-4.0589607480314962
20
6.7269349606299214
11
-4.0650719291338584
21
6.7142449212598425
0
LINE
8
BLACK
6
CONTINUOUS
10
-4.0650719291338584
20
6.7142449212598425
11
-4.0725655511811025
21
6.7023188976377952
0
LINE
8
BLACK
6
CONTINUOUS
10
-4.0725655511811025
20
6.7023188976377952
11
-4.081347362204724
21
6.6913068503937003
0
LINE
8
BLACK
6
CONTINUOUS
10
-4.081347362204724
20
6.6913068503937003
11
-4.0913068503937007
21
6.6813473622047246
0
LINE
8
BLACK
6
CONTINUOUS
10
-4.0913068503937007
20
6.6813473622047246
11
-4.1023188976377956
21
6.6725655511811022
0
LINE
8
BLACK
6
CONTINUOUS
10
-4.1023188976377956
20
6.6725655511811022
11
-4.1142449212598429
21
6.665071929133858
0
LINE
8
BLACK
6
CONTINUOUS
10
-4.1142449212598429
20
6.665071929133858
11
-4.1269349606299208
21
6.6589607480314958
0
LINE
8
BLACK
6
CONTINUOUS
10
-4.1269349606299208
20
6.6589607480314958
11
-4.1402294488188973
21
6.6543087795275593
0
LINE
8
BLACK
6
CONTINUOUS
10
-4.1402294488188973
20
6.6543087795275593
11
-4.153961220472441
21
6.6511746062992128
0
LINE
8
BLACK
6
CONTINUOUS
10
-4.153961220472441
20
6.6511746062992128
11
-4.1679575590551181
21
6.6495975984251965
0
LINE
8
BLACK
6
CONTINUOUS
10
-4.1679575590551181
20
6.6495975984251965
11
-4.1820424409448815
21
6.6495975984251965
0
LINE
8
BLACK
6
CONTINUOUS
10
-4.1820424409448815
20
6.6495975984251965
11
-4.1960387795275587
21
6.6511746062992128
0
LINE
8
BLACK
6
CONTINUOUS
10
-4.1960387795275587
20
6.6511746062992128
11
-4.2097705511811023
21
6.6543087795275593
0
LINE
8
BLACK
6
CONTINUOUS
10
-4.2097705511811023
20
6.6543087795275593
11
-4.2230650393700788
21
6.6589607480314958
0
LINE
8
BLACK
6
CONTINUOUS
10
-4.2230650393700788
20
6.6589607480314958
11
-4.2357550787401577
21
6.665071929133858
0
LINE
8
BLACK
6
CONTINUOUS
10
-4.2357550787401577
20
6.665071929133858
11
-4.247681102362205
21
6.6725655511811022
0
LINE
8
BLACK
6
CONTINUOUS
10
-4.247681102362205
20
6.6725655511811022
11
-4.258693149606299
21
6.6813473622047246
0
LINE
8
BLACK
6
CONTINUOUS
10
-4.258693149606299
20
6.6813473622047246
11
-4.2686526377952756
21
6.6913068503937003
0
LINE
8
BLACK
6
CONTINUOUS
10
-4.2686526377952756
20
6.6913068503937003
11
-4.2774344488188971
21
6.7023188976377952
0
LINE
8
BLACK
6
CONTINUOUS
10
-4.2774344488188971
20
6.7023188976377952
11
-4.2849280708661412
21
6.7142449212598425
0
LINE
8
BLACK
6
CONTINUOUS
10
-4.2849280708661412
20
6.7142449212598425
11
-4.2910392519685034
21
6.7269349606299214
0
LINE
8
BLACK
6
CONTINUOUS
10
-4.2910392519685034
20
6.7269349606299214
11
-4.2956912204724409
21
6.7402294488188979
0
LINE
8
BLACK
6
CONTINUOUS
10
-4.2956912204724409
20
6.7402294488188979
11
-4.2988253937007874
21
6.7539612204724406
0
LINE
8
BLACK
6
CONTINUOUS
10
-4.2988253937007874
20
6.7539612204724406
11
-4.3004024015748028
21
6.7679575590551178
0
LINE
8
BLACK
6
CONTINUOUS
10
-4.3004024015748028
20
6.7679575590551178
11
-4.3004024015748028
21
6.7812111811023623
0
LINE
8
BLACK
6
CONTINUOUS
10
-4.3004024015748028
20
6.7812111811023623
11
-4.3004024015748028
21
6.7820424409448821
0
LINE
8
BLACK
6
CONTINUOUS
10
-4.3004024015748028
20
6.7820424409448821
11
-4.2988253937007874
21
6.7960387795275592
0
LINE
8
BLACK
6
CONTINUOUS
10
-4.2988253937007874
20
6.7960387795275592
11
-4.2956912204724409
21
6.809770551181102
0
LINE
8
BLACK
6
CONTINUOUS
10
-4.2956912204724409
20
6.809770551181102
11
-4.2910392519685034
21
6.8230650393700785
0
LINE
8
BLACK
6
CONTINUOUS
10
-4.2910392519685034
20
6.8230650393700785
11
-4.2849280708661412
21
6.8357550787401573
0
LINE
8
BLACK
6
CONTINUOUS
10
-4.2849280708661412
20
6.8357550787401573
11
-4.2774344488188971
21
6.8476811023622046
0
LINE
8
BLACK
6
CONTINUOUS
10
-4.2774344488188971
20
6.8476811023622046
11
-4.2686526377952756
21
6.8586931496062995
0
LINE
8
BLACK
6
CONTINUOUS
10
-4.2686526377952756
20
6.8586931496062995
11
-4.258693149606299
21
6.8686526377952752
0
LINE
8
BLACK
6
CONTINUOUS
10
-4.258693149606299
20
6.8686526377952752
11
-4.247681102362205
21
6.8774344488188976
0
LINE
8
BLACK
6
CONTINUOUS
10
-4.247681102362205
20
6.8774344488188976
11
-4.2357550787401577
21
6.8849280708661418
0
LINE
8
BLACK
6
CONTINUOUS
10
-4.2357550787401577
20
6.8849280708661418
11
-4.2230650393700788
21
6.891039251968504
0
LINE
8
BLACK
6
CONTINUOUS
10
-4.2230650393700788
20
6.891039251968504
11
-4.2097705511811023
21
6.8956912204724405
0
LINE
8
BLACK
6
CONTINUOUS
10
-4.2097705511811023
20
6.8956912204724405
11
-4.1960387795275587
21
6.8988253937007871
0
LINE
8
BLACK
6
CONTINUOUS
10
-4.1960387795275587
20
6.8988253937007871
11
-4.1820424409448815
21
6.9004024015748033
0
LINE
8
BLACK
6
CONTINUOUS
10
-4.1820424409448815
20
6.9004024015748033
11
-4.1679575590551181
21
6.9004024015748033
0
LINE
8
BLACK
6
CONTINUOUS
10
-4.1679575590551181
20
6.9004024015748033
11
-4.153961220472441
21
6.8988253937007871
0
LINE
8
BLACK
6
CONTINUOUS
10
-4.2855999999999996
20
6.7687888188976375
11
-4.2842091338582673
21
6.7564446062992127
0
LINE
8
BLACK
6
CONTINUOUS
10
-4.2842091338582673
20
6.7564446062992127
11
-4.2814448818897635
21
6.7443337401574803
0
LINE
8
BLACK
6
CONTINUOUS
10
-4.2814448818897635
20
6.7443337401574803
11
-4.2773420472440939
21
6.7326085433070864
0
LINE
8
BLACK
6
CONTINUOUS
10
-4.2773420472440939
20
6.7326085433070864
11
-4.2719522047244096
21
6.7214164173228346
0
LINE
8
BLACK
6
CONTINUOUS
10
-4.2719522047244096
20
6.7214164173228346
11
-4.2653431496062995
21
6.7108981102362204
0
LINE
8
BLACK
6
CONTINUOUS
10
-4.2653431496062995
20
6.7108981102362204
11
-4.2575979527559058
21
6.7011859448818898
0
LINE
8
BLACK
6
CONTINUOUS
10
-4.2575979527559058
20
6.7011859448818898
11
-4.2488140551181104
21
6.6924020472440944
0
LINE
8
BLACK
6
CONTINUOUS
10
-4.2488140551181104
20
6.6924020472440944
11
-4.2391018897637798
21
6.6846568503937007
0
LINE
8
BLACK
6
CONTINUOUS
10
-4.2391018897637798
20
6.6846568503937007
11
-4.2285835826771656
21
6.6780477952755906
0
LINE
8
BLACK
6
CONTINUOUS
10
-4.2285835826771656
20
6.6780477952755906
11
-4.2173914566929129
21
6.6726579527559053
0
LINE
8
BLACK
6
CONTINUOUS
10
-4.2173914566929129
20
6.6726579527559053
11
-4.2056662598425198
21
6.6685551181102358
0
LINE
8
BLACK
6
CONTINUOUS
10
-4.2056662598425198
20
6.6685551181102358
11
-4.1935553937007874
21
6.665790866141732
0
LINE
8
BLACK
6
CONTINUOUS
10
-4.1935553937007874
20
6.665790866141732
11
-4.1812111811023618
21
6.6643999999999997
0
LINE
8
BLACK
6
CONTINUOUS
10
-4.1812111811023618
20
6.6643999999999997
11
-4.1687888188976379
21
6.6643999999999997
0
LINE
8
BLACK
6
CONTINUOUS
10
-4.1687888188976379
20
6.6643999999999997
11
-4.1564446062992122
21
6.665790866141732
0
LINE
8
BLACK
6
CONTINUOUS
10
-4.1564446062992122
20
6.665790866141732
11
-4.1443337401574798
21
6.6685551181102358
0
LINE
8
BLACK
6
CONTINUOUS
10
-4.1443337401574798
20
6.6685551181102358
11
-4.1326085433070867
21
6.6726579527559053
0
LINE
8
BLACK
6
CONTINUOUS
10
-4.1326085433070867
20
6.6726579527559053
11
-4.1214164173228349
21
6.6780477952755906
0
LINE
8
BLACK
6
CONTINUOUS
10
-4.1214164173228349
20
6.6780477952755906
11
-4.1108981102362208
21
6.6846568503937007
0
LINE
8
BLACK
6
CONTINUOUS
10
-4.1108981102362208
20
6.6846568503937007
11
-4.1011859448818893
21
6.6924020472440944
0
LINE
8
BLACK
6
CONTINUOUS
10
-4.1011859448818893
20
6.6924020472440944
11
-4.0924020472440947
21
6.7011859448818898
0
LINE
8
BLACK
6
CONTINUOUS
10
-4.0924020472440947
20
6.7011859448818898
11
-4.0846568503937011
21
6.7108981102362204
0
LINE
8
BLACK
6
CONTINUOUS
10
-4.0846568503937011
20
6.7108981102362204
11
-4.07804779527559
21
6.7214164173228346
0
LINE
8
BLACK
6
CONTINUOUS
10
-4.07804779527559
20
6.7214164173228346
11
-4.0726579527559057
21
6.7326085433070864
0
LINE
8
BLACK
6
CONTINUOUS
10
-4.0726579527559057
20
6.7326085433070864
11
-4.0685551181102362
21
6.7443337401574803
0
LINE
8
BLACK
6
CONTINUOUS
10
-4.0685551181102362
20
6.7443337401574803
11
-4.0657908661417324
21
6.7564446062992127
0
LINE
8
BLACK
6
CONTINUOUS
10
-4.0657908661417324
20
6.7564446062992127
11
-4.0644
21
6.7687888188976375
0
LINE
8
BLACK
6
CONTINUOUS
10
-4.0644
20
6.7687888188976375
11
-4.0644
21
6.7812111811023623
0
LINE
8
BLACK
6
CONTINUOUS
10
-4.0644
20
6.7812111811023623
11
-4.0657908661417324
21
6.7935553937007871
0
LINE
8
BLACK
6
CONTINUOUS
10
-4.0657908661417324
20
6.7935553937007871
11
-4.0685551181102362
21
6.8056662598425195
0
LINE
8
BLACK
6
CONTINUOUS
10
-4.0685551181102362
20
6.8056662598425195
11
-4.0726579527559057
21
6.8173914566929135
0
LINE
8
BLACK
6
CONTINUOUS
10
-4.0726579527559057
20
6.8173914566929135
11
-4.07804779527559
21
6.8285835826771653
0
LINE
8
BLACK
6
CONTINUOUS
10
-4.07804779527559
20
6.8285835826771653
11
-4.0846568503937011
21
6.8391018897637794
0
LINE
8
BLACK
6
CONTINUOUS
10
-4.0846568503937011
20
6.8391018897637794
11
-4.0924020472440947
21
6.84881405511811
0
LINE
8
BLACK
6
CONTINUOUS
10
-4.0924020472440947
20
6.84881405511811
11
-4.1011859448818893
21
6.8575979527559054
0
LINE
8
BLACK
6
CONTINUOUS
10
-4.1011859448818893
20
6.8575979527559054
11
-4.1108981102362208
21
6.8653431496062991
0
LINE
8
BLACK
6
CONTINUOUS
10
-4.1108981102362208
20
6.8653431496062991
11
-4.1214164173228349
21
6.8719522047244093
0
LINE
8
BLACK
6
CONTINUOUS
10
-4.1214164173228349
20
6.8719522047244093
11
-4.1326085433070867
21
6.8773420472440945
0
LINE
8
BLACK
6
CONTINUOUS
10
-4.1326085433070867
20
6.8773420472440945
11
-4.1443337401574798
21
6.881444881889764
0
LINE
8
BLACK
6
CONTINUOUS
10
-4.1443337401574798
20
6.881444881889764
11
-4.1564446062992122
21
6.8842091338582678
0
LINE
8
BLACK
6
CONTINUOUS
10
-4.1564446062992122
20
6.8842091338582678
11
-4.1687888188976379
21
6.8856000000000002
0
LINE
8
BLACK
6
CONTINUOUS
10
-4.1687888188976379
20
6.8856000000000002
11
-4.1812111811023618
21
6.8856000000000002
0
LINE
8
BLACK
6
CONTINUOUS
10
-4.1812111811023618
20
6.8856000000000002
11
-4.1935553937007874
21
6.8842091338582678
0
LINE
8
BLACK
6
CONTINUOUS
10
-4.1935553937007874
20
6.8842091338582678
11
-4.2056662598425198
21
6.881444881889764
0
LINE
8
BLACK
6
CONTINUOUS
10
-4.2056662598425198
20
6.881444881889764
11
-4.2173914566929129
21
6.8773420472440945
0
LINE
8
BLACK
6
CONTINUOUS
10
-4.2173914566929129
20
6.8773420472440945
11
-4.2285835826771656
21
6.8719522047244093
0
LINE
8
BLACK
6
CONTINUOUS
10
-4.2285835826771656
20
6.8719522047244093
11
-4.2391018897637798
21
6.8653431496062991
0
LINE
8
BLACK
6
CONTINUOUS
10
-4.2391018897637798
20
6.8653431496062991
11
-4.2488140551181104
21
6.8575979527559054
0
LINE
8
BLACK
6
CONTINUOUS
10
-4.2488140551181104
20
6.8575979527559054
11
-4.2575979527559058
21
6.84881405511811
0
LINE
8
BLACK
6
CONTINUOUS
10
-4.2575979527559058
20
6.84881405511811
11
-4.2653431496062995
21
6.8391018897637794
0
LINE
8
BLACK
6
CONTINUOUS
10
-4.2653431496062995
20
6.8391018897637794
11
-4.2719522047244096
21
6.8285835826771653
0
LINE
8
BLACK
6
CONTINUOUS
10
-4.2719522047244096
20
6.8285835826771653
11
-4.2773420472440939
21
6.8173914566929135
0
LINE
8
BLACK
6
CONTINUOUS
10
-4.2773420472440939
20
6.8173914566929135
11
-4.2814448818897635
21
6.8056662598425195
0
LINE
8
BLACK
6
CONTINUOUS
10
-4.2814448818897635
20
6.8056662598425195
11
-4.2842091338582673
21
6.7935553937007871
0
LINE
8
BLACK
6
CONTINUOUS
10
-4.2842091338582673
20
6.7935553937007871
11
-4.2855999999999996
21
6.7812111811023623
0
LINE
8
BLACK
6
CONTINUOUS
10
-4.2855999999999996
20
6.7812111811023623
11
-4.2855999999999996
21
6.7687888188976375
0
LINE
8
BLACK
6
CONTINUOUS
10
-3.3539612204724407
20
6.8988253937007871
11
-3.3402294488188975
21
6.8956912204724405
0
LINE
8
BLACK
6
CONTINUOUS
10
-3.3402294488188975
20
6.8956912204724405
11
-3.326934960629921
21
6.891039251968504
0
LINE
8
BLACK
6
CONTINUOUS
10
-3.326934960629921
20
6.891039251968504
11
-3.3142449212598426
21
6.8849280708661418
0
LINE
8
BLACK
6
CONTINUOUS
10
-3.3142449212598426
20
6.8849280708661418
11
-3.3023188976377953
21
6.8774344488188976
0
LINE
8
BLACK
6
CONTINUOUS
10
-3.3023188976377953
20
6.8774344488188976
11
-3.2913068503937009
21
6.8686526377952752
0
LINE
8
BLACK
6
CONTINUOUS
10
-3.2913068503937009
20
6.8686526377952752
11
-3.2813473622047242
21
6.8586931496062995
0
LINE
8
BLACK
6
CONTINUOUS
10
-3.2813473622047242
20
6.8586931496062995
11
-3.2725655511811023
21
6.8476811023622046
0
LINE
8
BLACK
6
CONTINUOUS
10
-3.2725655511811023
20
6.8476811023622046
11
-3.2650719291338581
21
6.8357550787401573
0
LINE
8
BLACK
6
CONTINUOUS
10
-3.2650719291338581
20
6.8357550787401573
11
-3.2589607480314959
21
6.8230650393700785
0
LINE
8
BLACK
6
CONTINUOUS
10
-3.2589607480314959
20
6.8230650393700785
11
-3.2543087795275589
21
6.809770551181102
0
LINE
8
BLACK
6
CONTINUOUS
10
-3.2543087795275589
20
6.809770551181102
11
-3.2511746062992124
21
6.7960387795275592
0
LINE
8
BLACK
6
CONTINUOUS
10
-3.2511746062992124
20
6.7960387795275592
11
-3.2495975984251966
21
6.7820424409448821
0
LINE
8
BLACK
6
CONTINUOUS
10
-3.2495975984251966
20
6.7820424409448821
11
-3.2495975984251966
21
6.7679575590551178
0
LINE
8
BLACK
6
CONTINUOUS
10
-3.2495975984251966
20
6.7679575590551178
11
-3.2511746062992124
21
6.7539612204724406
0
LINE
8
BLACK
6
CONTINUOUS
10
-3.2511746062992124
20
6.7539612204724406
11
-3.2543087795275589
21
6.7402294488188979
0
LINE
8
BLACK
6
CONTINUOUS
10
-3.2543087795275589
20
6.7402294488188979
11
-3.2589607480314959
21
6.7269349606299214
0
LINE
8
BLACK
6
CONTINUOUS
10
-3.2589607480314959
20
6.7269349606299214
11
-3.2650719291338581
21
6.7142449212598425
0
LINE
8
BLACK
6
CONTINUOUS
10
-3.2650719291338581
20
6.7142449212598425
11
-3.2725655511811023
21
6.7023188976377952
0
LINE
8
BLACK
6
CONTINUOUS
10
-3.2725655511811023
20
6.7023188976377952
11
-3.2813473622047242
21
6.6913068503937003
0
LINE
8
BLACK
6
CONTINUOUS
10
-3.2813473622047242
20
6.6913068503937003
11
-3.2913068503937009
21
6.6813473622047246
0
LINE
8
BLACK
6
CONTINUOUS
10
-3.2913068503937009
20
6.6813473622047246
11
-3.3023188976377953
21
6.6725655511811022
0
LINE
8
BLACK
6
CONTINUOUS
10
-3.3023188976377953
20
6.6725655511811022
11
-3.3142449212598426
21
6.665071929133858
0
LINE
8
BLACK
6
CONTINUOUS
10
-3.3142449212598426
20
6.665071929133858
11
-3.326934960629921
21
6.6589607480314958
0
LINE
8
BLACK
6
CONTINUOUS
10
-3.326934960629921
20
6.6589607480314958
11
-3.3402294488188975
21
6.6543087795275593
0
LINE
8
BLACK
6
CONTINUOUS
10
-3.3402294488188975
20
6.6543087795275593
11
-3.3539612204724407
21
6.6511746062992128
0
LINE
8
BLACK
6
CONTINUOUS
10
-3.3539612204724407
20
6.6511746062992128
11
-3.3679575590551178
21
6.6495975984251965
0
LINE
8
BLACK
6
CONTINUOUS
10
-3.3679575590551178
20
6.6495975984251965
11
-3.3820424409448817
21
6.6495975984251965
0
LINE
8
BLACK
6
CONTINUOUS
10
-3.3820424409448817
20
6.6495975984251965
11
-3.3960387795275588
21
6.6511746062992128
0
LINE
8
BLACK
6
CONTINUOUS
10
-3.3960387795275588
20
6.6511746062992128
11
-3.4097705511811025
21
6.6543087795275593
0
LINE
8
BLACK
6
CONTINUOUS
10
-3.4097705511811025
20
6.6543087795275593
11
-3.4230650393700786
21
6.6589607480314958
0
LINE
8
BLACK
6
CONTINUOUS
10
-3.4230650393700786
20
6.6589607480314958
11
-3.4357550787401574
21
6.665071929133858
0
LINE
8
BLACK
6
CONTINUOUS
10
-3.4357550787401574
20
6.665071929133858
11
-3.4476811023622047
21
6.6725655511811022
0
LINE
8
BLACK
6
CONTINUOUS
10
-3.4476811023622047
20
6.6725655511811022
11
-3.4586931496062991
21
6.6813473622047246
0
LINE
8
BLACK
6
CONTINUOUS
10
-3.4586931496062991
20
6.6813473622047246
11
-3.4686526377952753
21
6.6913068503937003
0
LINE
8
BLACK
6
CONTINUOUS
10
-3.4686526377952753
20
6.6913068503937003
11
-3.4774344488188977
21
6.7023188976377952
0
LINE
8
BLACK
6
CONTINUOUS
10
-3.4774344488188977
20
6.7023188976377952
11
-3.4849280708661419
21
6.7142449212598425
0
LINE
8
BLACK
6
CONTINUOUS
10
-3.4849280708661419
20
6.7142449212598425
11
-3.4910392519685041
21
6.7269349606299214
0
LINE
8
BLACK
6
CONTINUOUS
10
-3.4910392519685041
20
6.7269349606299214
11
-3.4956912204724411
21
6.7402294488188979
0
LINE
8
BLACK
6
CONTINUOUS
10
-3.4956912204724411
20
6.7402294488188979
11
-3.4988253937007872
21
6.7539612204724406
0
LINE
8
BLACK
6
CONTINUOUS
10
-3.4988253937007872
20
6.7539612204724406
11
-3.500402401574803
21
6.7679575590551178
0
LINE
8
BLACK
6
CONTINUOUS
10
-3.500402401574803
20
6.7679575590551178
11
-3.500402401574803
21
6.7812111811023623
0
LINE
8
BLACK
6
CONTINUOUS
10
-3.500402401574803
20
6.7812111811023623
11
-3.500402401574803
21
6.7820424409448821
0
LINE
8
BLACK
6
CONTINUOUS
10
-3.500402401574803
20
6.7820424409448821
11
-3.4988253937007872
21
6.7960387795275592
0
LINE
8
BLACK
6
CONTINUOUS
10
-3.4988253937007872
20
6.7960387795275592
11
-3.4956912204724411
21
6.809770551181102
0
LINE
8
BLACK
6
CONTINUOUS
10
-3.4956912204724411
20
6.809770551181102
11
-3.4910392519685041
21
6.8230650393700785
0
LINE
8
BLACK
6
CONTINUOUS
10
-3.4910392519685041
20
6.8230650393700785
11
-3.4849280708661419
21
6.8357550787401573
0
LINE
8
BLACK
6
CONTINUOUS
10
-3.4849280708661419
20
6.8357550787401573
11
-3.4774344488188977
21
6.8476811023622046
0
LINE
8
BLACK
6
CONTINUOUS
10
-3.4774344488188977
20
6.8476811023622046
11
-3.4686526377952753
21
6.8586931496062995
0
LINE
8
BLACK
6
CONTINUOUS
10
-3.4686526377952753
20
6.8586931496062995
11
-3.4586931496062991
21
6.8686526377952752
0
LINE
8
BLACK
6
CONTINUOUS
10
-3.4586931496062991
20
6.8686526377952752
11
-3.4476811023622047
21
6.8774344488188976
0
LINE
8
BLACK
6
CONTINUOUS
10
-3.4476811023622047
20
6.8774344488188976
11
-3.4357550787401574
21
6.8849280708661418
0
LINE
8
BLACK
6
CONTINUOUS
10
-3.4357550787401574
20
6.8849280708661418
11
-3.4230650393700786
21
6.891039251968504
0
LINE
8
BLACK
6
CONTINUOUS
10
-3.4230650393700786
20
6.891039251968504
11
-3.4097705511811025
21
6.8956912204724405
0
LINE
8
BLACK
6
CONTINUOUS
10
-3.4097705511811025
20
6.8956912204724405
11
-3.3960387795275588
21
6.8988253937007871
0
LINE
8
BLACK
6
CONTINUOUS
10
-3.3960387795275588
20
6.8988253937007871
11
-3.3820424409448817
21
6.9004024015748033
0
LINE
8
BLACK
6
CONTINUOUS
10
-3.3820424409448817
20
6.9004024015748033
11
-3.3679575590551178
21
6.9004024015748033
0
LINE
8
BLACK
6
CONTINUOUS
10
-3.3679575590551178
20
6.9004024015748033
11
-3.3539612204724407
21
6.8988253937007871
0
LINE
8
BLACK
6
CONTINUOUS
10
-3.4855999999999998
20
6.7687888188976375
11
-3.4842091338582675
21
6.7564446062992127
0
LINE
8
BLACK
6
CONTINUOUS
10
-3.4842091338582675
20
6.7564446062992127
11
-3.4814448818897636
21
6.7443337401574803
0
LINE
8
BLACK
6
CONTINUOUS
10
-3.4814448818897636
20
6.7443337401574803
11
-3.4773420472440946
21
6.7326085433070864
0
LINE
8
BLACK
6
CONTINUOUS
10
-3.4773420472440946
20
6.7326085433070864
11
-3.4719522047244094
21
6.7214164173228346
0
LINE
8
BLACK
6
CONTINUOUS
10
-3.4719522047244094
20
6.7214164173228346
11
-3.4653431496062992
21
6.7108981102362204
0
LINE
8
BLACK
6
CONTINUOUS
10
-3.4653431496062992
20
6.7108981102362204
11
-3.4575979527559055
21
6.7011859448818898
0
LINE
8
BLACK
6
CONTINUOUS
10
-3.4575979527559055
20
6.7011859448818898
11
-3.4488140551181101
21
6.6924020472440944
0
LINE
8
BLACK
6
CONTINUOUS
10
-3.4488140551181101
20
6.6924020472440944
11
-3.4391018897637795
21
6.6846568503937007
0
LINE
8
BLACK
6
CONTINUOUS
10
-3.4391018897637795
20
6.6846568503937007
11
-3.4285835826771653
21
6.6780477952755906
0
LINE
8
BLACK
6
CONTINUOUS
10
-3.4285835826771653
20
6.6780477952755906
11
-3.4173914566929131
21
6.6726579527559053
0
LINE
8
BLACK
6
CONTINUOUS
10
-3.4173914566929131
20
6.6726579527559053
11
-3.4056662598425196
21
6.6685551181102358
0
LINE
8
BLACK
6
CONTINUOUS
10
-3.4056662598425196
20
6.6685551181102358
11
-3.3935553937007872
21
6.665790866141732
0
LINE
8
BLACK
6
CONTINUOUS
10
-3.3935553937007872
20
6.665790866141732
11
-3.381211181102362
21
6.6643999999999997
0
LINE
8
BLACK
6
CONTINUOUS
10
-3.381211181102362
20
6.6643999999999997
11
-3.3687888188976376
21
6.6643999999999997
0
LINE
8
BLACK
6
CONTINUOUS
10
-3.3687888188976376
20
6.6643999999999997
11
-3.3564446062992124
21
6.665790866141732
0
LINE
8
BLACK
6
CONTINUOUS
10
-3.3564446062992124
20
6.665790866141732
11
-3.3443337401574804
21
6.6685551181102358
0
LINE
8
BLACK
6
CONTINUOUS
10
-3.3443337401574804
20
6.6685551181102358
11
-3.3326085433070864
21
6.6726579527559053
0
LINE
8
BLACK
6
CONTINUOUS
10
-3.3326085433070864
20
6.6726579527559053
11
-3.3214164173228347
21
6.6780477952755906
0
LINE
8
BLACK
6
CONTINUOUS
10
-3.3214164173228347
20
6.6780477952755906
11
-3.3108981102362205
21
6.6846568503937007
0
LINE
8
BLACK
6
CONTINUOUS
10
-3.3108981102362205
20
6.6846568503937007
11
-3.3011859448818899
21
6.6924020472440944
0
LINE
8
BLACK
6
CONTINUOUS
10
-3.3011859448818899
20
6.6924020472440944
11
-3.2924020472440945
21
6.7011859448818898
0
LINE
8
BLACK
6
CONTINUOUS
10
-3.2924020472440945
20
6.7011859448818898
11
-3.2846568503937008
21
6.7108981102362204
0
LINE
8
BLACK
6
CONTINUOUS
10
-3.2846568503937008
20
6.7108981102362204
11
-3.2780477952755906
21
6.7214164173228346
0
LINE
8
BLACK
6
CONTINUOUS
10
-3.2780477952755906
20
6.7214164173228346
11
-3.2726579527559054
21
6.7326085433070864
0
LINE
8
BLACK
6
CONTINUOUS
10
-3.2726579527559054
20
6.7326085433070864
11
-3.2685551181102364
21
6.7443337401574803
0
LINE
8
BLACK
6
CONTINUOUS
10
-3.2685551181102364
20
6.7443337401574803
11
-3.2657908661417321
21
6.7564446062992127
0
LINE
8
BLACK
6
CONTINUOUS
10
-3.2657908661417321
20
6.7564446062992127
11
-3.2643999999999997
21
6.7687888188976375
0
LINE
8
BLACK
6
CONTINUOUS
10
-3.2643999999999997
20
6.7687888188976375
11
-3.2643999999999997
21
6.7812111811023623
0
LINE
8
BLACK
6
CONTINUOUS
10
-3.2643999999999997
20
6.7812111811023623
11
-3.2657908661417321
21
6.7935553937007871
0
LINE
8
BLACK
6
CONTINUOUS
10
-3.2657908661417321
20
6.7935553937007871
11
-3.2685551181102364
21
6.8056662598425195
0
LINE
8
BLACK
6
CONTINUOUS
10
-3.2685551181102364
20
6.8056662598425195
11
-3.2726579527559054
21
6.8173914566929135
0
LINE
8
BLACK
6
CONTINUOUS
10
-3.2726579527559054
20
6.8173914566929135
11
-3.2780477952755906
21
6.8285835826771653
0
LINE
8
BLACK
6
CONTINUOUS
10
-3.2780477952755906
20
6.8285835826771653
11
-3.2846568503937008
21
6.8391018897637794
0
LINE
8
BLACK
6
CONTINUOUS
10
-3.2846568503937008
20
6.8391018897637794
11
-3.2924020472440945
21
6.84881405511811
0
LINE
8
BLACK
6
CONTINUOUS
10
-3.2924020472440945
20
6.84881405511811
11
-3.3011859448818899
21
6.8575979527559054
0
LINE
8
BLACK
6
CONTINUOUS
10
-3.3011859448818899
20
6.8575979527559054
11
-3.3108981102362205
21
6.8653431496062991
0
LINE
8
BLACK
6
CONTINUOUS
10
-3.3108981102362205
20
6.8653431496062991
11
-3.3214164173228347
21
6.8719522047244093
0
LINE
8
BLACK
6
CONTINUOUS
10
-3.3214164173228347
20
6.8719522047244093
11
-3.3326085433070864
21
6.8773420472440945
0
LINE
8
BLACK
6
CONTINUOUS
10
-3.3326085433070864
20
6.8773420472440945
11
-3.3443337401574804
21
6.881444881889764
0
LINE
8
BLACK
6
CONTINUOUS
10
-3.3443337401574804
20
6.881444881889764
11
-3.3564446062992124
21
6.8842091338582678
0
LINE
8
BLACK
6
CONTINUOUS
10
-3.3564446062992124
20
6.8842091338582678
11
-3.3687888188976376
21
6.8856000000000002
0
LINE
8
BLACK
6
CONTINUOUS
10
-3.3687888188976376
20
6.8856000000000002
11
-3.381211181102362
21
6.8856000000000002
0
LINE
8
BLACK
6
CONTINUOUS
10
-3.381211181102362
20
6.8856000000000002
11
-3.3935553937007872
21
6.8842091338582678
0
LINE
8
BLACK
6
CONTINUOUS
10
-3.3935553937007872
20
6.8842091338582678
11
-3.4056662598425196
21
6.881444881889764
0
LINE
8
BLACK
6
CONTINUOUS
10
-3.4056662598425196
20
6.881444881889764
11
-3.4173914566929131
21
6.8773420472440945
0
LINE
8
BLACK
6
CONTINUOUS
10
-3.4173914566929131
20
6.8773420472440945
11
-3.4285835826771653
21
6.8719522047244093
0
LINE
8
BLACK
6
CONTINUOUS
10
-3.4285835826771653
20
6.8719522047244093
11
-3.4391018897637795
21
6.8653431496062991
0
LINE
8
BLACK
6
CONTINUOUS
10
-3.4391018897637795
20
6.8653431496062991
11
-3.4488140551181101
21
6.8575979527559054
0
LINE
8
BLACK
6
CONTINUOUS
10
-3.4488140551181101
20
6.8575979527559054
11
-3.4575979527559055
21
6.84881405511811
0
LINE
8
BLACK
6
CONTINUOUS
10
-3.4575979527559055
20
6.84881405511811
11
-3.4653431496062992
21
6.8391018897637794
0
LINE
8
BLACK
6
CONTINUOUS
10
-3.4653431496062992
20
6.8391018897637794
11
-3.4719522047244094
21
6.8285835826771653
0
LINE
8
BLACK
6
CONTINUOUS
10
-3.4719522047244094
20
6.8285835826771653
11
-3.4773420472440946
21
6.8173914566929135
0
LINE
8
BLACK
6
CONTINUOUS
10
-3.4773420472440946
20
6.8173914566929135
11
-3.4814448818897636
21
6.8056662598425195
0
LINE
8
BLACK
6
CONTINUOUS
10
-3.4814448818897636
20
6.8056662598425195
11
-3.4842091338582675
21
6.7935553937007871
0
LINE
8
BLACK
6
CONTINUOUS
10
-3.4842091338582675
20
6.7935553937007871
11
-3.4855999999999998
21
6.7812111811023623
0
LINE
8
BLACK
6
CONTINUOUS
10
-3.4855999999999998
20
6.7812111811023623
11
-3.4855999999999998
21
6.7687888188976375
0
CIRCLE
8
BLACK
10
-3.3249999999999997
20
6.1699999999999999
40
0.0068897637795276
0
CIRCLE
8
BLACK
10
-3.3249999999999997
20
6.2699999999999996
40
0.0068897637795276
0
CIRCLE
8
BLACK
10
-3.3249999999999997
20
6.3700000000000001
40
0.0068897637795276
0
CIRCLE
8
BLACK
10
-3.4249999999999998
20
6.3700000000000001
40
0.0068897637795276
0
CIRCLE
8
BLACK
10
-3.4249999999999998
20
6.2699999999999996
40
0.0068897637795276
0
CIRCLE
8
BLACK
10
-3.4249999999999998
20
6.1699999999999999
40
0.0068897637795276
0
CIRCLE
8
BLACK
10
-3.3249999999999997
20
5.7999999999999998
40
0.0068897637795276
0
CIRCLE
8
BLACK
10
-3.3249999999999997
20
5.8999999999999995
40
0.0068897637795276
0
CIRCLE
8
BLACK
10
-3.3249999999999997
20
6.
40
0.0068897637795276
0
CIRCLE
8
BLACK
10
-3.4249999999999998
20
6.
40
0.0068897637795276
0
CIRCLE
8
BLACK
10
-3.4249999999999998
20
5.8999999999999995
40
0.0068897637795276
0
CIRCLE
8
BLACK
10
-3.4249999999999998
20
5.7999999999999998
40
0.0068897637795276
0
CIRCLE
8
BLACK
10
-4.1200000000000001
20
5.8849999999999998
40
0.0068897637795276
0
CIRCLE
8
BLACK
10
-4.1200000000000001
20
5.9849999999999994
40
0.0068897637795276
0
CIRCLE
8
BLACK
10
-4.1200000000000001
20
6.085
40
0.0068897637795276
0
CIRCLE
8
BLACK
10
-4.1200000000000001
20
6.1849999999999996
40
0.0068897637795276
0
CIRCLE
8
BLACK
10
-4.1200000000000001
20
6.2850000000000001
40
0.0068897637795276
0
CIRCLE
8
BLACK
10
-4.1200000000000001
20
6.3849999999999998
40
0.0068897637795276
0
CIRCLE
8
BLACK
10
-4.1200000000000001
20
6.4849999999999994
40
0.0068897637795276
0
CIRCLE
8
BLACK
10
-4.2199999999999998
20
6.4849999999999994
40
0.0068897637795276
0
CIRCLE
8
BLACK
10
-4.2199999999999998
20
6.3849999999999998
40
0.0068897637795276
0
CIRCLE
8
BLACK
10
-4.2199999999999998
20
6.2850000000000001
40
0.0068897637795276
0
CIRCLE
8
BLACK
10
-4.2199999999999998
20
6.1849999999999996
40
0.0068897637795276
0
CIRCLE
8
BLACK
10
-4.2199999999999998
20
6.085
40
0.0068897637795276
0
CIRCLE
8
BLACK
10
-4.2199999999999998
20
5.9849999999999994
40
0.0068897637795276
0
CIRCLE
8
BLACK
10
-4.2199999999999998
20
5.8849999999999998
40
0.0068897637795276
0
CIRCLE
8
BLACK
10
-3.5749999999999997
20
6.8300000000000001
40
0.0068897637795276
0
CIRCLE
8
BLACK
10
-3.6749999999999998
20
6.8300000000000001
40
0.0068897637795276
0
CIRCLE
8
BLACK
10
-3.7749999999999999
20
6.8300000000000001
40
0.0068897637795276
0
CIRCLE
8
BLACK
10
-3.875
20
6.8300000000000001
40
0.0068897637795276
0
CIRCLE
8
BLACK
10
-3.9750000000000001
20
6.8300000000000001
40
0.0068897637795276
0
CIRCLE
8
BLACK
10
-3.9750000000000001
20
6.7299999999999995
40
0.0068897637795276
0
CIRCLE
8
BLACK
10
-3.875
20
6.7299999999999995
40
0.0068897637795276
0
CIRCLE
8
BLACK
10
-3.7749999999999999
20
6.7299999999999995
40
0.0068897637795276
0
CIRCLE
8
BLACK
10
-3.6749999999999998
20
6.7299999999999995
40
0.0068897637795276
0
CIRCLE
8
BLACK
10
-3.5749999999999997
20
6.7299999999999995
40
0.0068897637795276
0
CIRCLE
8
BLACK
10
-3.375
20
5.5750000000000002
40
0.0068897637795276
0
CIRCLE
8
BLACK
10
-4.1749999999999998
20
6.7749999999999995
40
0.0068897637795276
0
CIRCLE
8
BLACK
10
-4.1749999999999998
20
5.5750000000000002
40
0.0068897637795276
0
CIRCLE
8
BLACK
10
-3.375
20
6.7749999999999995
40
0.0068897637795276
0
CIRCLE
8
BLACK
10
-3.7149999999999999
20
6.4749999999999996
40
0.0068897637795276
0
CIRCLE
8
BLACK
10
-3.6149999999999998
20
6.4749999999999996
40
0.0068897637795276
0
CIRCLE
8
BLACK
10
-3.8799999999999999
20
5.6299999999999999
40
0.0068897637795276
0
CIRCLE
8
BLACK
10
-3.8799999999999999
20
5.5300000000000002
40
0.0068897637795276
0
CIRCLE
8
BLACK
10
-3.7799999999999998
20
5.5300000000000002
40
0.0068897637795276
0
CIRCLE
8
BLACK
10
-3.7799999999999998
20
5.6299999999999999
40
0.0068897637795276
  0
ENDSEC
  0
EOF
