%TF.GenerationSoftware,KiCad,Pcbnew,9.0.6+1*%
%TF.CreationDate,2025-11-30T20:59:48+00:00*%
%TF.ProjectId,I2CSPI01,49324353-5049-4303-912e-6b696361645f,rev?*%
%TF.SameCoordinates,Original*%
%TF.FileFunction,Copper,L2,Bot*%
%TF.FilePolarity,Positive*%
%FSLAX46Y46*%
G04 Gerber Fmt 4.6, Leading zero omitted, Abs format (unit mm)*
G04 Created by KiCad (PCBNEW 9.0.6+1) date 2025-11-30 20:59:48*
%MOMM*%
%LPD*%
G01*
G04 APERTURE LIST*
%ADD10C,0.200000*%
%TA.AperFunction,NonConductor*%
%ADD11C,0.200000*%
%TD*%
%TA.AperFunction,ComponentPad*%
%ADD12R,1.651000X1.651000*%
%TD*%
%TA.AperFunction,ComponentPad*%
%ADD13C,6.000000*%
%TD*%
%TA.AperFunction,SMDPad,CuDef*%
%ADD14R,0.889000X1.397000*%
%TD*%
%TA.AperFunction,SMDPad,CuDef*%
%ADD15R,0.381000X1.270000*%
%TD*%
%TA.AperFunction,SMDPad,CuDef*%
%ADD16R,1.397000X0.889000*%
%TD*%
%TA.AperFunction,SMDPad,CuDef*%
%ADD17R,1.699260X1.300480*%
%TD*%
%TA.AperFunction,ViaPad*%
%ADD18C,0.889000*%
%TD*%
%TA.AperFunction,Conductor*%
%ADD19C,0.508000*%
%TD*%
%TA.AperFunction,Conductor*%
%ADD20C,0.381000*%
%TD*%
%TA.AperFunction,Conductor*%
%ADD21C,0.254000*%
%TD*%
G04 APERTURE END LIST*
D10*
D11*
X-89650674Y137850780D02*
X-89650674Y138850780D01*
X-89650674Y138850780D02*
X-89984007Y138136495D01*
X-89984007Y138136495D02*
X-90317340Y138850780D01*
X-90317340Y138850780D02*
X-90317340Y137850780D01*
X-91269721Y137850780D02*
X-90793531Y137850780D01*
X-90793531Y137850780D02*
X-90793531Y138850780D01*
X-91555436Y138136495D02*
X-92031626Y138136495D01*
X-91460198Y137850780D02*
X-91793531Y138850780D01*
X-91793531Y138850780D02*
X-92126864Y137850780D01*
X-92793531Y138374590D02*
X-92936388Y138326971D01*
X-92936388Y138326971D02*
X-92984007Y138279352D01*
X-92984007Y138279352D02*
X-93031626Y138184114D01*
X-93031626Y138184114D02*
X-93031626Y138041257D01*
X-93031626Y138041257D02*
X-92984007Y137946019D01*
X-92984007Y137946019D02*
X-92936388Y137898400D01*
X-92936388Y137898400D02*
X-92841150Y137850780D01*
X-92841150Y137850780D02*
X-92460198Y137850780D01*
X-92460198Y137850780D02*
X-92460198Y138850780D01*
X-92460198Y138850780D02*
X-92793531Y138850780D01*
X-92793531Y138850780D02*
X-92888769Y138803161D01*
X-92888769Y138803161D02*
X-92936388Y138755542D01*
X-92936388Y138755542D02*
X-92984007Y138660304D01*
X-92984007Y138660304D02*
X-92984007Y138565066D01*
X-92984007Y138565066D02*
X-92936388Y138469828D01*
X-92936388Y138469828D02*
X-92888769Y138422209D01*
X-92888769Y138422209D02*
X-92793531Y138374590D01*
X-92793531Y138374590D02*
X-92460198Y138374590D01*
X-93460198Y137946019D02*
X-93507817Y137898400D01*
X-93507817Y137898400D02*
X-93460198Y137850780D01*
X-93460198Y137850780D02*
X-93412579Y137898400D01*
X-93412579Y137898400D02*
X-93460198Y137946019D01*
X-93460198Y137946019D02*
X-93460198Y137850780D01*
X-94507816Y137946019D02*
X-94460197Y137898400D01*
X-94460197Y137898400D02*
X-94317340Y137850780D01*
X-94317340Y137850780D02*
X-94222102Y137850780D01*
X-94222102Y137850780D02*
X-94079245Y137898400D01*
X-94079245Y137898400D02*
X-93984007Y137993638D01*
X-93984007Y137993638D02*
X-93936388Y138088876D01*
X-93936388Y138088876D02*
X-93888769Y138279352D01*
X-93888769Y138279352D02*
X-93888769Y138422209D01*
X-93888769Y138422209D02*
X-93936388Y138612685D01*
X-93936388Y138612685D02*
X-93984007Y138707923D01*
X-93984007Y138707923D02*
X-94079245Y138803161D01*
X-94079245Y138803161D02*
X-94222102Y138850780D01*
X-94222102Y138850780D02*
X-94317340Y138850780D01*
X-94317340Y138850780D02*
X-94460197Y138803161D01*
X-94460197Y138803161D02*
X-94507816Y138755542D01*
X-94841150Y138850780D02*
X-95507816Y138850780D01*
X-95507816Y138850780D02*
X-94841150Y137850780D01*
X-94841150Y137850780D02*
X-95507816Y137850780D01*
D10*
D11*
X-102096674Y166679780D02*
X-102096674Y167679780D01*
X-102525245Y167584542D02*
X-102572864Y167632161D01*
X-102572864Y167632161D02*
X-102668102Y167679780D01*
X-102668102Y167679780D02*
X-102906197Y167679780D01*
X-102906197Y167679780D02*
X-103001435Y167632161D01*
X-103001435Y167632161D02*
X-103049054Y167584542D01*
X-103049054Y167584542D02*
X-103096673Y167489304D01*
X-103096673Y167489304D02*
X-103096673Y167394066D01*
X-103096673Y167394066D02*
X-103049054Y167251209D01*
X-103049054Y167251209D02*
X-102477626Y166679780D01*
X-102477626Y166679780D02*
X-103096673Y166679780D01*
X-104096673Y166775019D02*
X-104049054Y166727400D01*
X-104049054Y166727400D02*
X-103906197Y166679780D01*
X-103906197Y166679780D02*
X-103810959Y166679780D01*
X-103810959Y166679780D02*
X-103668102Y166727400D01*
X-103668102Y166727400D02*
X-103572864Y166822638D01*
X-103572864Y166822638D02*
X-103525245Y166917876D01*
X-103525245Y166917876D02*
X-103477626Y167108352D01*
X-103477626Y167108352D02*
X-103477626Y167251209D01*
X-103477626Y167251209D02*
X-103525245Y167441685D01*
X-103525245Y167441685D02*
X-103572864Y167536923D01*
X-103572864Y167536923D02*
X-103668102Y167632161D01*
X-103668102Y167632161D02*
X-103810959Y167679780D01*
X-103810959Y167679780D02*
X-103906197Y167679780D01*
X-103906197Y167679780D02*
X-104049054Y167632161D01*
X-104049054Y167632161D02*
X-104096673Y167584542D01*
X-104477626Y166727400D02*
X-104620483Y166679780D01*
X-104620483Y166679780D02*
X-104858578Y166679780D01*
X-104858578Y166679780D02*
X-104953816Y166727400D01*
X-104953816Y166727400D02*
X-105001435Y166775019D01*
X-105001435Y166775019D02*
X-105049054Y166870257D01*
X-105049054Y166870257D02*
X-105049054Y166965495D01*
X-105049054Y166965495D02*
X-105001435Y167060733D01*
X-105001435Y167060733D02*
X-104953816Y167108352D01*
X-104953816Y167108352D02*
X-104858578Y167155971D01*
X-104858578Y167155971D02*
X-104668102Y167203590D01*
X-104668102Y167203590D02*
X-104572864Y167251209D01*
X-104572864Y167251209D02*
X-104525245Y167298828D01*
X-104525245Y167298828D02*
X-104477626Y167394066D01*
X-104477626Y167394066D02*
X-104477626Y167489304D01*
X-104477626Y167489304D02*
X-104525245Y167584542D01*
X-104525245Y167584542D02*
X-104572864Y167632161D01*
X-104572864Y167632161D02*
X-104668102Y167679780D01*
X-104668102Y167679780D02*
X-104906197Y167679780D01*
X-104906197Y167679780D02*
X-105049054Y167632161D01*
X-105477626Y166679780D02*
X-105477626Y167679780D01*
X-105477626Y167679780D02*
X-105858578Y167679780D01*
X-105858578Y167679780D02*
X-105953816Y167632161D01*
X-105953816Y167632161D02*
X-106001435Y167584542D01*
X-106001435Y167584542D02*
X-106049054Y167489304D01*
X-106049054Y167489304D02*
X-106049054Y167346447D01*
X-106049054Y167346447D02*
X-106001435Y167251209D01*
X-106001435Y167251209D02*
X-105953816Y167203590D01*
X-105953816Y167203590D02*
X-105858578Y167155971D01*
X-105858578Y167155971D02*
X-105477626Y167155971D01*
X-106477626Y166679780D02*
X-106477626Y167679780D01*
X-107144292Y167679780D02*
X-107239530Y167679780D01*
X-107239530Y167679780D02*
X-107334768Y167632161D01*
X-107334768Y167632161D02*
X-107382387Y167584542D01*
X-107382387Y167584542D02*
X-107430006Y167489304D01*
X-107430006Y167489304D02*
X-107477625Y167298828D01*
X-107477625Y167298828D02*
X-107477625Y167060733D01*
X-107477625Y167060733D02*
X-107430006Y166870257D01*
X-107430006Y166870257D02*
X-107382387Y166775019D01*
X-107382387Y166775019D02*
X-107334768Y166727400D01*
X-107334768Y166727400D02*
X-107239530Y166679780D01*
X-107239530Y166679780D02*
X-107144292Y166679780D01*
X-107144292Y166679780D02*
X-107049054Y166727400D01*
X-107049054Y166727400D02*
X-107001435Y166775019D01*
X-107001435Y166775019D02*
X-106953816Y166870257D01*
X-106953816Y166870257D02*
X-106906197Y167060733D01*
X-106906197Y167060733D02*
X-106906197Y167298828D01*
X-106906197Y167298828D02*
X-106953816Y167489304D01*
X-106953816Y167489304D02*
X-107001435Y167584542D01*
X-107001435Y167584542D02*
X-107049054Y167632161D01*
X-107049054Y167632161D02*
X-107144292Y167679780D01*
X-108430006Y166679780D02*
X-107858578Y166679780D01*
X-108144292Y166679780D02*
X-108144292Y167679780D01*
X-108144292Y167679780D02*
X-108049054Y167536923D01*
X-108049054Y167536923D02*
X-107953816Y167441685D01*
X-107953816Y167441685D02*
X-107858578Y167394066D01*
X-108810959Y166965495D02*
X-109287149Y166965495D01*
X-108715721Y166679780D02*
X-109049054Y167679780D01*
X-109049054Y167679780D02*
X-109382387Y166679780D01*
D12*
%TO.P,J1,1*%
%TO.N,/SPICLK*%
X-84455000Y156718000D03*
%TO.P,J1,2*%
%TO.N,/MISO*%
X-84455000Y159258000D03*
%TO.P,J1,3*%
%TO.N,/MOSI*%
X-84455000Y161798000D03*
%TO.P,J1,4*%
X-86995000Y161798000D03*
%TO.P,J1,5*%
%TO.N,/MISO*%
X-86995000Y159258000D03*
%TO.P,J1,6*%
%TO.N,/SPICLK*%
X-86995000Y156718000D03*
%TD*%
%TO.P,J4,1*%
%TO.N,GND*%
X-84455000Y147320000D03*
%TO.P,J4,2*%
%TO.N,VDD*%
X-84455000Y149860000D03*
%TO.P,J4,3*%
%TO.N,GND*%
X-84455000Y152400000D03*
%TO.P,J4,4*%
X-86995000Y152400000D03*
%TO.P,J4,5*%
%TO.N,VDD*%
X-86995000Y149860000D03*
%TO.P,J4,6*%
%TO.N,GND*%
X-86995000Y147320000D03*
%TD*%
%TO.P,J3,1*%
%TO.N,/#SS3*%
X-104648000Y149479000D03*
%TO.P,J3,2*%
%TO.N,/#SS2*%
X-104648000Y152019000D03*
%TO.P,J3,3*%
%TO.N,/#INT*%
X-104648000Y154559000D03*
%TO.P,J3,4*%
%TO.N,/#SS0*%
X-104648000Y157099000D03*
%TO.P,J3,5*%
%TO.N,/#SS1*%
X-104648000Y159639000D03*
%TO.P,J3,6*%
%TO.N,/#RES*%
X-104648000Y162179000D03*
%TO.P,J3,7*%
%TO.N,GND*%
X-104648000Y164719000D03*
%TO.P,J3,8*%
X-107188000Y164719000D03*
%TO.P,J3,9*%
%TO.N,/#RES*%
X-107188000Y162179000D03*
%TO.P,J3,10*%
%TO.N,/#SS1*%
X-107188000Y159639000D03*
%TO.P,J3,11*%
%TO.N,/#SS0*%
X-107188000Y157099000D03*
%TO.P,J3,12*%
%TO.N,/#INT*%
X-107188000Y154559000D03*
%TO.P,J3,13*%
%TO.N,/#SS2*%
X-107188000Y152019000D03*
%TO.P,J3,14*%
%TO.N,/#SS3*%
X-107188000Y149479000D03*
%TD*%
%TO.P,J2,1*%
%TO.N,GND*%
X-90805000Y173482000D03*
%TO.P,J2,2*%
%TO.N,/SCL*%
X-93345000Y173482000D03*
%TO.P,J2,3*%
%TO.N,Net-(J2-Pad3)*%
X-95885000Y173482000D03*
%TO.P,J2,4*%
%TO.N,/SDA*%
X-98425000Y173482000D03*
%TO.P,J2,5*%
%TO.N,GND*%
X-100965000Y173482000D03*
%TO.P,J2,6*%
X-100965000Y170942000D03*
%TO.P,J2,7*%
%TO.N,/SDA*%
X-98425000Y170942000D03*
%TO.P,J2,8*%
%TO.N,Net-(J2-Pad3)*%
X-95885000Y170942000D03*
%TO.P,J2,9*%
%TO.N,/SCL*%
X-93345000Y170942000D03*
%TO.P,J2,10*%
%TO.N,GND*%
X-90805000Y170942000D03*
%TD*%
D13*
%TO.P,P1,1*%
%TO.N,GND*%
X-85725000Y141605000D03*
%TD*%
%TO.P,P2,1*%
%TO.N,GND*%
X-106045000Y172085000D03*
%TD*%
%TO.P,P3,1*%
%TO.N,GND*%
X-106045000Y141605000D03*
%TD*%
%TO.P,P4,1*%
%TO.N,GND*%
X-85725000Y172085000D03*
%TD*%
D12*
%TO.P,J5,1*%
%TO.N,Net-(J2-Pad3)*%
X-94361000Y164465000D03*
%TO.P,J5,2*%
%TO.N,VDD*%
X-91821000Y164465000D03*
%TD*%
%TO.P,J6,1*%
%TO.N,/A2*%
X-98552000Y143002000D03*
%TO.P,J6,2*%
%TO.N,GND*%
X-98552000Y140462000D03*
%TD*%
%TO.P,J7,1*%
%TO.N,GND*%
X-96012000Y140462000D03*
%TO.P,J7,2*%
%TO.N,/A1*%
X-96012000Y143002000D03*
%TD*%
D14*
%TO.P,R3,1*%
%TO.N,/A0*%
X-98488500Y147828000D03*
%TO.P,R3,2*%
%TO.N,GND*%
X-96583500Y147828000D03*
%TD*%
D15*
%TO.P,U1,1*%
%TO.N,/#SS0*%
X-98249740Y159237680D03*
%TO.P,U1,2*%
%TO.N,/#SS1*%
X-97599500Y159237680D03*
%TO.P,U1,3*%
%TO.N,/#RES*%
X-96949260Y159237680D03*
%TO.P,U1,4*%
%TO.N,GND*%
X-96299020Y159237680D03*
%TO.P,U1,5*%
%TO.N,/MISO*%
X-95648780Y159237680D03*
%TO.P,U1,6*%
%TO.N,/MOSI*%
X-94998540Y159237680D03*
%TO.P,U1,7*%
%TO.N,/SDA*%
X-94348300Y159237680D03*
%TO.P,U1,8*%
%TO.N,/SCL*%
X-93698060Y159237680D03*
%TO.P,U1,9*%
%TO.N,/#INT*%
X-93698060Y153639520D03*
%TO.P,U1,10*%
%TO.N,/#SS2*%
X-94348300Y153639520D03*
%TO.P,U1,11*%
%TO.N,/SPICLK*%
X-94998540Y153639520D03*
%TO.P,U1,12*%
%TO.N,VDD*%
X-95648780Y153639520D03*
%TO.P,U1,13*%
%TO.N,/#SS3*%
X-96299020Y153639520D03*
%TO.P,U1,14*%
%TO.N,/A0*%
X-96949260Y153639520D03*
%TO.P,U1,15*%
%TO.N,/A1*%
X-97599500Y153639520D03*
%TO.P,U1,16*%
%TO.N,/A2*%
X-98249740Y153639520D03*
%TD*%
D14*
%TO.P,R1,1*%
%TO.N,/SCL*%
X-93154500Y167767000D03*
%TO.P,R1,2*%
%TO.N,Net-(J2-Pad3)*%
X-95059500Y167767000D03*
%TD*%
%TO.P,R2,1*%
%TO.N,/SDA*%
X-98742500Y167767000D03*
%TO.P,R2,2*%
%TO.N,Net-(J2-Pad3)*%
X-96837500Y167767000D03*
%TD*%
D16*
%TO.P,R4,1*%
%TO.N,VDD*%
X-90424000Y153352500D03*
%TO.P,R4,2*%
%TO.N,/#RES*%
X-90424000Y155257500D03*
%TD*%
%TO.P,C2,1*%
%TO.N,VDD*%
X-91821000Y151066500D03*
%TO.P,C2,2*%
%TO.N,GND*%
X-91821000Y149161500D03*
%TD*%
%TO.P,C1,1*%
%TO.N,VDD*%
X-94615000Y151066500D03*
%TO.P,C1,2*%
%TO.N,GND*%
X-94615000Y149161500D03*
%TD*%
D14*
%TO.P,R5,1*%
%TO.N,VDD*%
X-96583500Y150241000D03*
%TO.P,R5,2*%
%TO.N,/A0*%
X-98488500Y150241000D03*
%TD*%
%TO.P,R6,1*%
%TO.N,VDD*%
X-99123500Y145669000D03*
%TO.P,R6,2*%
%TO.N,/A2*%
X-101028500Y145669000D03*
%TD*%
%TO.P,R7,1*%
%TO.N,VDD*%
X-95948500Y145669000D03*
%TO.P,R7,2*%
%TO.N,/A1*%
X-94043500Y145669000D03*
%TD*%
D17*
%TO.P,D1,1*%
%TO.N,GND*%
X-91059000Y143918940D03*
%TO.P,D1,2*%
%TO.N,VDD*%
X-91059000Y147419060D03*
%TD*%
D18*
%TO.N,VDD*%
X-88773000Y153543000D03*
%TD*%
D19*
%TO.N,VDD*%
X-88963500Y153352500D02*
X-88773000Y153543000D01*
D20*
X-95648780Y152100280D02*
X-94615000Y151066500D01*
D19*
X-86995000Y149860000D02*
X-88074500Y149860000D01*
D20*
X-96583500Y149987000D02*
X-96583500Y150241000D01*
D19*
X-90471581Y151066500D02*
X-92456000Y151066500D01*
D20*
X-99123500Y145669000D02*
X-98063002Y145669000D01*
X-97418501Y149151999D02*
X-96583500Y149987000D01*
X-98063002Y145669000D02*
X-97418501Y146313501D01*
D19*
X-90424000Y153352500D02*
X-88963500Y153352500D01*
X-90471581Y151066500D02*
X-90424000Y151114081D01*
D20*
X-95948500Y145669000D02*
X-96774000Y145669000D01*
D19*
X-88418670Y149860000D02*
X-89625170Y151066500D01*
X-92456000Y151066500D02*
X-94615000Y151066500D01*
X-88074500Y149860000D02*
X-88418670Y149860000D01*
X-96583500Y149860000D02*
X-95821500Y149860000D01*
X-86995000Y149860000D02*
X-84455000Y149860000D01*
D20*
X-97418501Y146313501D02*
X-97418501Y149151999D01*
D19*
X-88418670Y149860000D02*
X-90859610Y147419060D01*
D20*
X-96774000Y145669000D02*
X-97418501Y146313501D01*
D19*
X-95821500Y149860000D02*
X-94615000Y151066500D01*
D20*
X-95648780Y153639520D02*
X-95648780Y152100280D01*
D19*
X-90424000Y151114081D02*
X-90424000Y153352500D01*
X-90859610Y147419060D02*
X-91059000Y147419060D01*
X-89625170Y151066500D02*
X-90471581Y151066500D01*
D20*
%TO.N,GND*%
X-96299020Y160458706D02*
X-97204682Y161364368D01*
X-97204682Y161621318D02*
X-97028000Y161798000D01*
X-97204682Y161364368D02*
X-100559314Y164719000D01*
X-100559314Y164719000D02*
X-103441500Y164719000D01*
X-103441500Y164719000D02*
X-104648000Y164719000D01*
X-97204682Y161364368D02*
X-97204682Y161621318D01*
X-96299020Y159237680D02*
X-96299020Y160458706D01*
%TO.N,/MISO*%
X-86995000Y159258000D02*
X-84455000Y159258000D01*
X-95648780Y159237680D02*
X-95648780Y158050248D01*
X-95648780Y158050248D02*
X-95229701Y157631169D01*
X-89574331Y157631169D02*
X-87947500Y159258000D01*
X-95229701Y157631169D02*
X-89574331Y157631169D01*
X-87947500Y159258000D02*
X-86741000Y159258000D01*
%TO.N,/MOSI*%
X-94989039Y158212179D02*
X-91533321Y158212179D01*
X-86995000Y161798000D02*
X-84455000Y161798000D01*
X-91533321Y158212179D02*
X-87947500Y161798000D01*
X-94998540Y158221680D02*
X-94989039Y158212179D01*
X-94998540Y159237680D02*
X-94998540Y158221680D01*
X-87947500Y161798000D02*
X-86741000Y161798000D01*
%TO.N,/SPICLK*%
X-93105583Y152614019D02*
X-91297103Y154422499D01*
X-91297103Y154422499D02*
X-89290501Y154422499D01*
X-89290501Y154422499D02*
X-86995000Y156718000D01*
X-86741000Y156718000D02*
X-84201000Y156718000D01*
X-94998540Y153639520D02*
X-94998540Y152761358D01*
X-94851201Y152614019D02*
X-93105583Y152614019D01*
X-94998540Y152761358D02*
X-94851201Y152614019D01*
D19*
%TO.N,Net-(J2-Pad3)*%
X-95059500Y167767000D02*
X-95059500Y170116500D01*
X-94361000Y167068500D02*
X-95059500Y167767000D01*
X-94361000Y164084000D02*
X-94361000Y167068500D01*
X-95059500Y170116500D02*
X-95885000Y170942000D01*
X-95059500Y167767000D02*
X-96837500Y167767000D01*
D20*
X-95885000Y170815000D02*
X-95885000Y173355000D01*
%TO.N,/#SS3*%
X-96299020Y154655520D02*
X-96308521Y154665021D01*
X-96308521Y154665021D02*
X-99461979Y154665021D01*
X-99461979Y154665021D02*
X-104648000Y149479000D01*
X-104648000Y149479000D02*
X-107188000Y149479000D01*
X-96299020Y153639520D02*
X-96299020Y154655520D01*
%TO.N,/#SS0*%
X-98249740Y159237680D02*
X-102509320Y159237680D01*
X-104648000Y157099000D02*
X-107188000Y157099000D01*
X-102509320Y159237680D02*
X-104648000Y157099000D01*
%TO.N,/#INT*%
X-102173459Y155827041D02*
X-103441500Y154559000D01*
X-93698060Y154689114D02*
X-94835987Y155827041D01*
X-103441500Y154559000D02*
X-104648000Y154559000D01*
X-93698060Y153639520D02*
X-93698060Y153443940D01*
X-94835987Y155827041D02*
X-102173459Y155827041D01*
X-93698060Y153639520D02*
X-93698060Y154689114D01*
D21*
X-93698060Y153639520D02*
X-93698060Y154023060D01*
D20*
X-107188000Y154559000D02*
X-104648000Y154559000D01*
%TO.N,/#SS1*%
X-97746839Y160263181D02*
X-102817319Y160263181D01*
X-107188000Y159639000D02*
X-104648000Y159639000D01*
X-102817319Y160263181D02*
X-103441500Y159639000D01*
X-97599500Y159237680D02*
X-97599500Y160115842D01*
X-103441500Y159639000D02*
X-104648000Y159639000D01*
X-97599500Y160115842D02*
X-97746839Y160263181D01*
%TO.N,/#SS2*%
X-100214469Y155246031D02*
X-103441500Y152019000D01*
X-94348300Y154517682D02*
X-95076649Y155246031D01*
X-103441500Y152019000D02*
X-104648000Y152019000D01*
X-107188000Y152019000D02*
X-104648000Y152019000D01*
X-95076649Y155246031D02*
X-100214469Y155246031D01*
X-94348300Y153639520D02*
X-94348300Y154517682D01*
%TO.N,/#RES*%
X-92654051Y156408051D02*
X-91503500Y155257500D01*
X-104648000Y162179000D02*
X-107188000Y162179000D01*
X-96949260Y159237680D02*
X-96949260Y160287274D01*
X-91503500Y155257500D02*
X-90424000Y155257500D01*
X-103441500Y162179000D02*
X-104648000Y162179000D01*
X-96949260Y159237680D02*
X-96949260Y158221680D01*
X-98840986Y162179000D02*
X-103441500Y162179000D01*
X-95135631Y156408051D02*
X-92654051Y156408051D01*
X-96949260Y160287274D02*
X-98840986Y162179000D01*
X-96949260Y158221680D02*
X-95135631Y156408051D01*
%TO.N,/A1*%
X-97228001Y144218001D02*
X-96012000Y143002000D01*
X-94043500Y144970500D02*
X-96012000Y143002000D01*
X-100012501Y144614899D02*
X-99615603Y144218001D01*
X-97599500Y152844500D02*
X-97599500Y153639520D01*
X-100012501Y144614899D02*
X-100012501Y150431499D01*
X-94043500Y145669000D02*
X-94043500Y144970500D01*
X-99615603Y144218001D02*
X-97228001Y144218001D01*
X-100012501Y150431499D02*
X-97599500Y152844500D01*
%TO.N,/A2*%
X-101028500Y144272000D02*
X-99758500Y143002000D01*
X-101028500Y146748500D02*
X-101028500Y145669000D01*
X-101028500Y150416260D02*
X-101028500Y146748500D01*
X-99758500Y143002000D02*
X-98552000Y143002000D01*
D21*
X-98249740Y153639520D02*
X-98249740Y154084020D01*
D20*
X-101028500Y145669000D02*
X-101028500Y144272000D01*
X-98249740Y153639520D02*
X-98249740Y153195020D01*
X-98249740Y153195020D02*
X-101028500Y150416260D01*
%TO.N,/A0*%
X-98488500Y147828000D02*
X-98488500Y149860000D01*
X-98488500Y149860000D02*
X-98488500Y150114000D01*
X-96949260Y151653240D02*
X-96949260Y152623520D01*
X-96949260Y152623520D02*
X-96949260Y153639520D01*
X-98488500Y150114000D02*
X-96949260Y151653240D01*
%TO.N,/SCL*%
X-93154500Y170751500D02*
X-93345000Y170942000D01*
X-93126560Y166659560D02*
X-93126560Y160253680D01*
X-93345000Y170815000D02*
X-93345000Y173355000D01*
X-93126560Y160253680D02*
X-93698060Y159682180D01*
X-93154500Y167767000D02*
X-93154500Y170751500D01*
X-93698060Y159682180D02*
X-93698060Y159237680D01*
X-93154500Y166687500D02*
X-93126560Y166659560D01*
X-93698060Y170461940D02*
X-93345000Y170815000D01*
X-93154500Y167767000D02*
X-93154500Y166687500D01*
%TO.N,/SDA*%
X-98742500Y165544500D02*
X-98742500Y167767000D01*
X-98742500Y167767000D02*
X-98742500Y170624500D01*
X-98869500Y170497500D02*
X-98425000Y170942000D01*
X-94348300Y161150300D02*
X-98742500Y165544500D01*
X-98742500Y170624500D02*
X-98425000Y170942000D01*
X-98425000Y170815000D02*
X-98425000Y173355000D01*
X-94348300Y159237680D02*
X-94348300Y161150300D01*
%TD*%
%TA.AperFunction,Conductor*%
%TO.N,GND*%
G36*
X-81009379Y176838498D02*
G01*
X-80962886Y176784842D01*
X-80951500Y176732500D01*
X-80951500Y136957500D01*
X-80971502Y136889379D01*
X-81025158Y136842886D01*
X-81077500Y136831500D01*
X-110692500Y136831500D01*
X-110760621Y136851502D01*
X-110807114Y136905158D01*
X-110818500Y136957500D01*
X-110818500Y137235416D01*
X-96123180Y137235416D01*
X-89036402Y137235416D01*
X-89036402Y139466144D01*
X-96123180Y139466144D01*
X-96123180Y137235416D01*
X-110818500Y137235416D01*
X-110818500Y163053149D01*
X-108522000Y163053149D01*
X-108522000Y161304850D01*
X-108515491Y161244303D01*
X-108515489Y161244295D01*
X-108464390Y161107297D01*
X-108464388Y161107292D01*
X-108372472Y160984509D01*
X-108347661Y160917989D01*
X-108362752Y160848615D01*
X-108372472Y160833491D01*
X-108464388Y160710707D01*
X-108464390Y160710702D01*
X-108515489Y160573704D01*
X-108515491Y160573696D01*
X-108522000Y160513149D01*
X-108522000Y158764850D01*
X-108515491Y158704303D01*
X-108515489Y158704295D01*
X-108464390Y158567297D01*
X-108464388Y158567292D01*
X-108372472Y158444509D01*
X-108347661Y158377989D01*
X-108362752Y158308615D01*
X-108372472Y158293491D01*
X-108464388Y158170707D01*
X-108464390Y158170702D01*
X-108515489Y158033704D01*
X-108515491Y158033696D01*
X-108522000Y157973149D01*
X-108522000Y156224850D01*
X-108515491Y156164303D01*
X-108515489Y156164295D01*
X-108464390Y156027297D01*
X-108464388Y156027292D01*
X-108372472Y155904509D01*
X-108347661Y155837989D01*
X-108362752Y155768615D01*
X-108372472Y155753491D01*
X-108464388Y155630707D01*
X-108464390Y155630702D01*
X-108515489Y155493704D01*
X-108515491Y155493696D01*
X-108522000Y155433149D01*
X-108522000Y153684850D01*
X-108515491Y153624303D01*
X-108515489Y153624295D01*
X-108464390Y153487297D01*
X-108464388Y153487292D01*
X-108372472Y153364509D01*
X-108347661Y153297989D01*
X-108362752Y153228615D01*
X-108372472Y153213491D01*
X-108464388Y153090707D01*
X-108464390Y153090702D01*
X-108515489Y152953704D01*
X-108515491Y152953696D01*
X-108522000Y152893149D01*
X-108522000Y151144850D01*
X-108515491Y151084303D01*
X-108515489Y151084295D01*
X-108464390Y150947297D01*
X-108464388Y150947292D01*
X-108372472Y150824509D01*
X-108347661Y150757989D01*
X-108362752Y150688615D01*
X-108372472Y150673491D01*
X-108464388Y150550707D01*
X-108464390Y150550702D01*
X-108515489Y150413704D01*
X-108515491Y150413696D01*
X-108522000Y150353149D01*
X-108522000Y148604850D01*
X-108515491Y148544303D01*
X-108515489Y148544295D01*
X-108464390Y148407297D01*
X-108464388Y148407292D01*
X-108376762Y148290238D01*
X-108259708Y148202612D01*
X-108259703Y148202610D01*
X-108122705Y148151511D01*
X-108122697Y148151509D01*
X-108062150Y148145000D01*
X-108062138Y148145000D01*
X-106313851Y148145000D01*
X-106253304Y148151509D01*
X-106253296Y148151511D01*
X-106116298Y148202610D01*
X-106116293Y148202612D01*
X-105993509Y148294528D01*
X-105926989Y148319339D01*
X-105857615Y148304248D01*
X-105842491Y148294528D01*
X-105719708Y148202612D01*
X-105719703Y148202610D01*
X-105582705Y148151511D01*
X-105582697Y148151509D01*
X-105522150Y148145000D01*
X-105522138Y148145000D01*
X-103773851Y148145000D01*
X-103713304Y148151509D01*
X-103713296Y148151511D01*
X-103576298Y148202610D01*
X-103576293Y148202612D01*
X-103459239Y148290238D01*
X-103371613Y148407292D01*
X-103371611Y148407297D01*
X-103320512Y148544295D01*
X-103320510Y148544303D01*
X-103314001Y148604850D01*
X-103314000Y148604867D01*
X-103314000Y149772275D01*
X-103293998Y149840396D01*
X-103277095Y149861370D01*
X-99209349Y153929116D01*
X-99181981Y153944060D01*
X-99155752Y153960917D01*
X-99149454Y153961822D01*
X-99147037Y153963142D01*
X-99120254Y153966021D01*
X-99074740Y153966021D01*
X-99006619Y153946019D01*
X-98960126Y153892363D01*
X-98948740Y153840021D01*
X-98948740Y153536745D01*
X-98968742Y153468624D01*
X-98985645Y153447650D01*
X-101474086Y150959209D01*
X-101571449Y150861846D01*
X-101571450Y150861845D01*
X-101616314Y150794701D01*
X-101616315Y150794700D01*
X-101647945Y150747364D01*
X-101700636Y150620156D01*
X-101700638Y150620151D01*
X-101721991Y150512800D01*
X-101727500Y150485108D01*
X-101727500Y146875249D01*
X-101747502Y146807128D01*
X-101777991Y146774381D01*
X-101799501Y146758279D01*
X-101836262Y146730760D01*
X-101923888Y146613707D01*
X-101923890Y146613702D01*
X-101974989Y146476704D01*
X-101974991Y146476696D01*
X-101981500Y146416149D01*
X-101981500Y144921850D01*
X-101974991Y144861303D01*
X-101974989Y144861295D01*
X-101923890Y144724297D01*
X-101923888Y144724292D01*
X-101836262Y144607238D01*
X-101777991Y144563618D01*
X-101735444Y144506782D01*
X-101727500Y144462750D01*
X-101727500Y144203151D01*
X-101700638Y144068108D01*
X-101700636Y144068103D01*
X-101647946Y143940899D01*
X-101571449Y143826413D01*
X-101571444Y143826407D01*
X-100204093Y142459056D01*
X-100204087Y142459051D01*
X-100089601Y142382553D01*
X-100089597Y142382551D01*
X-99963781Y142330436D01*
X-99908500Y142285888D01*
X-99886080Y142218524D01*
X-99886000Y142214028D01*
X-99886000Y142127850D01*
X-99879491Y142067303D01*
X-99879489Y142067295D01*
X-99828390Y141930297D01*
X-99828388Y141930292D01*
X-99740762Y141813238D01*
X-99623708Y141725612D01*
X-99623703Y141725610D01*
X-99486705Y141674511D01*
X-99486697Y141674509D01*
X-99426150Y141668000D01*
X-99426138Y141668000D01*
X-97677851Y141668000D01*
X-97617304Y141674509D01*
X-97617296Y141674511D01*
X-97480298Y141725610D01*
X-97480293Y141725612D01*
X-97357509Y141817528D01*
X-97290989Y141842339D01*
X-97221615Y141827248D01*
X-97206491Y141817528D01*
X-97083708Y141725612D01*
X-97083703Y141725610D01*
X-96946705Y141674511D01*
X-96946697Y141674509D01*
X-96886150Y141668000D01*
X-96886138Y141668000D01*
X-95137851Y141668000D01*
X-95077304Y141674509D01*
X-95077296Y141674511D01*
X-94940298Y141725610D01*
X-94940293Y141725612D01*
X-94823239Y141813238D01*
X-94735613Y141930292D01*
X-94735611Y141930297D01*
X-94684512Y142067295D01*
X-94684510Y142067303D01*
X-94678001Y142127850D01*
X-94678000Y142127867D01*
X-94678000Y143295275D01*
X-94657998Y143363396D01*
X-94641095Y143384370D01*
X-93596476Y144428989D01*
X-93534164Y144463015D01*
X-93520850Y144465172D01*
X-93489804Y144468509D01*
X-93489796Y144468511D01*
X-93352798Y144519610D01*
X-93352793Y144519612D01*
X-93235739Y144607238D01*
X-93148113Y144724292D01*
X-93148111Y144724297D01*
X-93097012Y144861295D01*
X-93097010Y144861303D01*
X-93090501Y144921850D01*
X-93090500Y144921867D01*
X-93090500Y146416132D01*
X-93090501Y146416149D01*
X-93097010Y146476696D01*
X-93097012Y146476704D01*
X-93115165Y146525372D01*
X-93148111Y146613704D01*
X-93182480Y146659615D01*
X-93235739Y146730761D01*
X-93352793Y146818387D01*
X-93352794Y146818387D01*
X-93352796Y146818389D01*
X-93489799Y146869489D01*
X-93489801Y146869489D01*
X-93489804Y146869490D01*
X-93550351Y146875999D01*
X-93550355Y146875999D01*
X-93550362Y146876000D01*
X-94536638Y146876000D01*
X-94536645Y146875999D01*
X-94536650Y146875999D01*
X-94597197Y146869490D01*
X-94597205Y146869488D01*
X-94658051Y146846793D01*
X-94734204Y146818389D01*
X-94734206Y146818388D01*
X-94734208Y146818387D01*
X-94851262Y146730761D01*
X-94895132Y146672157D01*
X-94951968Y146629610D01*
X-95022784Y146624546D01*
X-95085096Y146658571D01*
X-95096868Y146672157D01*
X-95140739Y146730761D01*
X-95257793Y146818387D01*
X-95257794Y146818387D01*
X-95257796Y146818389D01*
X-95394799Y146869489D01*
X-95394801Y146869489D01*
X-95394804Y146869490D01*
X-95455351Y146875999D01*
X-95455355Y146875999D01*
X-95455362Y146876000D01*
X-96441638Y146876000D01*
X-96441645Y146875999D01*
X-96441650Y146875999D01*
X-96502197Y146869490D01*
X-96502201Y146869489D01*
X-96549469Y146851858D01*
X-96620283Y146846793D01*
X-96682595Y146880817D01*
X-96716621Y146943129D01*
X-96719501Y146969914D01*
X-96719501Y148810272D01*
X-96710718Y148840187D01*
X-96704089Y148870657D01*
X-96700275Y148875753D01*
X-96699499Y148878393D01*
X-96682597Y148899367D01*
X-96584870Y148997095D01*
X-96522558Y149031120D01*
X-96495774Y149034000D01*
X-96090351Y149034000D01*
X-96029804Y149040509D01*
X-96029796Y149040511D01*
X-95898308Y149089555D01*
X-95854275Y149097500D01*
X-95746397Y149097500D01*
X-95599086Y149126803D01*
X-95599085Y149126804D01*
X-95460323Y149184281D01*
X-95460321Y149184282D01*
X-95437671Y149199416D01*
X-95335435Y149267727D01*
X-94526566Y150076596D01*
X-94464255Y150110620D01*
X-94437472Y150113500D01*
X-93867851Y150113500D01*
X-93807304Y150120009D01*
X-93807296Y150120011D01*
X-93670298Y150171110D01*
X-93670293Y150171112D01*
X-93553237Y150258740D01*
X-93546866Y150265111D01*
X-93544635Y150262879D01*
X-93500326Y150296053D01*
X-93456286Y150304000D01*
X-92979714Y150304000D01*
X-92911593Y150283998D01*
X-92890183Y150264062D01*
X-92889134Y150265111D01*
X-92882764Y150258740D01*
X-92765708Y150171112D01*
X-92765703Y150171110D01*
X-92628705Y150120011D01*
X-92628697Y150120009D01*
X-92568150Y150113500D01*
X-92568138Y150113500D01*
X-91073851Y150113500D01*
X-91013304Y150120009D01*
X-91013296Y150120011D01*
X-90876298Y150171110D01*
X-90876293Y150171112D01*
X-90759237Y150258740D01*
X-90752866Y150265111D01*
X-90750635Y150262879D01*
X-90706326Y150296053D01*
X-90662286Y150304000D01*
X-90546681Y150304000D01*
X-89993198Y150304000D01*
X-89925077Y150283998D01*
X-89904103Y150267095D01*
X-89586103Y149949095D01*
X-89552077Y149886783D01*
X-89557142Y149815968D01*
X-89586103Y149770905D01*
X-90742303Y148614705D01*
X-90804615Y148580679D01*
X-90831398Y148577800D01*
X-91957268Y148577800D01*
X-91957275Y148577799D01*
X-91957280Y148577799D01*
X-92017827Y148571290D01*
X-92017835Y148571288D01*
X-92090183Y148544303D01*
X-92154834Y148520189D01*
X-92154836Y148520188D01*
X-92154838Y148520187D01*
X-92271892Y148432561D01*
X-92359518Y148315507D01*
X-92359520Y148315502D01*
X-92410619Y148178504D01*
X-92410621Y148178496D01*
X-92417130Y148117949D01*
X-92417130Y146720170D01*
X-92410621Y146659623D01*
X-92410619Y146659615D01*
X-92359520Y146522617D01*
X-92359518Y146522612D01*
X-92271892Y146405558D01*
X-92154838Y146317932D01*
X-92154833Y146317930D01*
X-92017835Y146266831D01*
X-92017827Y146266829D01*
X-91957280Y146260320D01*
X-91957268Y146260320D01*
X-90160721Y146260320D01*
X-90100174Y146266829D01*
X-90100166Y146266831D01*
X-89963168Y146317930D01*
X-89963163Y146317932D01*
X-89846109Y146405558D01*
X-89758483Y146522612D01*
X-89758481Y146522617D01*
X-89707382Y146659615D01*
X-89707380Y146659623D01*
X-89700871Y146720170D01*
X-89700870Y146720187D01*
X-89700870Y147447272D01*
X-89680868Y147515393D01*
X-89663965Y147536367D01*
X-88434423Y148765909D01*
X-88372111Y148799935D01*
X-88301296Y148794870D01*
X-88244460Y148752323D01*
X-88183762Y148671238D01*
X-88066708Y148583612D01*
X-88066703Y148583610D01*
X-87929705Y148532511D01*
X-87929697Y148532509D01*
X-87869150Y148526000D01*
X-87869138Y148526000D01*
X-86120851Y148526000D01*
X-86060304Y148532509D01*
X-86060296Y148532511D01*
X-85923298Y148583610D01*
X-85923293Y148583612D01*
X-85800509Y148675528D01*
X-85733989Y148700339D01*
X-85664615Y148685248D01*
X-85649491Y148675528D01*
X-85526708Y148583612D01*
X-85526703Y148583610D01*
X-85389705Y148532511D01*
X-85389697Y148532509D01*
X-85329150Y148526000D01*
X-85329138Y148526000D01*
X-83580851Y148526000D01*
X-83520304Y148532509D01*
X-83520296Y148532511D01*
X-83383298Y148583610D01*
X-83383293Y148583612D01*
X-83266239Y148671238D01*
X-83178613Y148788292D01*
X-83178611Y148788297D01*
X-83170414Y148810272D01*
X-83149356Y148866731D01*
X-83127512Y148925295D01*
X-83127510Y148925303D01*
X-83121001Y148985850D01*
X-83121000Y148985867D01*
X-83121000Y150734132D01*
X-83121001Y150734149D01*
X-83127510Y150794696D01*
X-83127512Y150794704D01*
X-83152555Y150861846D01*
X-83178611Y150931704D01*
X-83266239Y151048761D01*
X-83383296Y151136389D01*
X-83520299Y151187489D01*
X-83520301Y151187489D01*
X-83520304Y151187490D01*
X-83580851Y151193999D01*
X-83580855Y151193999D01*
X-83580862Y151194000D01*
X-85329138Y151194000D01*
X-85329145Y151193999D01*
X-85329150Y151193999D01*
X-85389697Y151187490D01*
X-85389705Y151187488D01*
X-85467625Y151158424D01*
X-85526704Y151136389D01*
X-85643761Y151048761D01*
X-85643764Y151048758D01*
X-85649490Y151044471D01*
X-85716010Y151019660D01*
X-85785385Y151034751D01*
X-85800510Y151044471D01*
X-85806237Y151048758D01*
X-85806239Y151048761D01*
X-85923296Y151136389D01*
X-86060299Y151187489D01*
X-86060301Y151187489D01*
X-86060304Y151187490D01*
X-86120851Y151193999D01*
X-86120855Y151193999D01*
X-86120862Y151194000D01*
X-87869138Y151194000D01*
X-87869145Y151193999D01*
X-87869150Y151193999D01*
X-87929697Y151187490D01*
X-87929705Y151187488D01*
X-88007625Y151158424D01*
X-88066704Y151136389D01*
X-88066706Y151136388D01*
X-88066708Y151136387D01*
X-88183761Y151048761D01*
X-88244462Y150967675D01*
X-88301295Y150925130D01*
X-88372111Y150920064D01*
X-88434421Y150954087D01*
X-89139105Y151658773D01*
X-89263991Y151742218D01*
X-89402757Y151799697D01*
X-89507024Y151820437D01*
X-89556141Y151830208D01*
X-89555786Y151831993D01*
X-89613654Y151855341D01*
X-89654680Y151913283D01*
X-89661500Y151954174D01*
X-89661500Y152301668D01*
X-89641498Y152369789D01*
X-89587842Y152416282D01*
X-89579534Y152419723D01*
X-89479296Y152457111D01*
X-89479293Y152457112D01*
X-89362237Y152544740D01*
X-89355866Y152551111D01*
X-89353635Y152548879D01*
X-89309326Y152582053D01*
X-89265286Y152590000D01*
X-88882210Y152590000D01*
X-88882210Y152589844D01*
X-88873051Y152589844D01*
X-88873051Y152590000D01*
X-88679136Y152590000D01*
X-88495020Y152626623D01*
X-88495015Y152626625D01*
X-88469619Y152637144D01*
X-88321585Y152698462D01*
X-88171427Y152798795D01*
X-88165499Y152802756D01*
X-88165493Y152802761D01*
X-88032762Y152935492D01*
X-88032757Y152935498D01*
X-88020592Y152953704D01*
X-87928462Y153091585D01*
X-87856623Y153265020D01*
X-87820000Y153449138D01*
X-87820000Y153636862D01*
X-87856623Y153820980D01*
X-87928462Y153994415D01*
X-88032757Y154150502D01*
X-88165498Y154283243D01*
X-88203127Y154308385D01*
X-88248654Y154362860D01*
X-88257503Y154433303D01*
X-88226863Y154497347D01*
X-88222241Y154502224D01*
X-87377367Y155347097D01*
X-87315057Y155381121D01*
X-87288274Y155384000D01*
X-86120851Y155384000D01*
X-86060304Y155390509D01*
X-86060296Y155390511D01*
X-85923298Y155441610D01*
X-85923293Y155441612D01*
X-85800509Y155533528D01*
X-85733989Y155558339D01*
X-85664615Y155543248D01*
X-85649491Y155533528D01*
X-85526708Y155441612D01*
X-85526703Y155441610D01*
X-85389705Y155390511D01*
X-85389697Y155390509D01*
X-85329150Y155384000D01*
X-85329138Y155384000D01*
X-83580851Y155384000D01*
X-83520304Y155390509D01*
X-83520296Y155390511D01*
X-83383298Y155441610D01*
X-83383293Y155441612D01*
X-83266239Y155529238D01*
X-83178613Y155646292D01*
X-83178611Y155646297D01*
X-83168969Y155672146D01*
X-83143841Y155739517D01*
X-83127512Y155783295D01*
X-83127510Y155783303D01*
X-83121001Y155843850D01*
X-83121000Y155843867D01*
X-83121000Y157592132D01*
X-83121001Y157592149D01*
X-83127510Y157652696D01*
X-83127512Y157652704D01*
X-83147725Y157706896D01*
X-83178611Y157789704D01*
X-83266239Y157906761D01*
X-83266242Y157906763D01*
X-83270529Y157912490D01*
X-83295340Y157979010D01*
X-83280249Y158048385D01*
X-83270529Y158063510D01*
X-83266242Y158069236D01*
X-83266239Y158069239D01*
X-83178611Y158186296D01*
X-83127511Y158323299D01*
X-83127510Y158323303D01*
X-83121001Y158383850D01*
X-83121000Y158383867D01*
X-83121000Y160132132D01*
X-83121001Y160132149D01*
X-83127510Y160192696D01*
X-83127512Y160192704D01*
X-83143639Y160235941D01*
X-83178611Y160329704D01*
X-83266239Y160446761D01*
X-83266242Y160446763D01*
X-83270529Y160452490D01*
X-83295340Y160519010D01*
X-83280249Y160588385D01*
X-83270529Y160603510D01*
X-83266242Y160609236D01*
X-83266239Y160609239D01*
X-83178611Y160726296D01*
X-83153089Y160794723D01*
X-83127512Y160863295D01*
X-83127510Y160863303D01*
X-83121001Y160923850D01*
X-83121000Y160923867D01*
X-83121000Y162672132D01*
X-83121001Y162672149D01*
X-83127510Y162732697D01*
X-83127512Y162732704D01*
X-83152033Y162798446D01*
X-83178611Y162869704D01*
X-83184821Y162877999D01*
X-83266239Y162986761D01*
X-83383293Y163074387D01*
X-83383294Y163074387D01*
X-83383296Y163074389D01*
X-83520299Y163125489D01*
X-83520301Y163125489D01*
X-83520304Y163125490D01*
X-83580851Y163131999D01*
X-83580855Y163131999D01*
X-83580862Y163132000D01*
X-85329138Y163132000D01*
X-85329145Y163131999D01*
X-85329150Y163131999D01*
X-85389697Y163125490D01*
X-85389705Y163125488D01*
X-85467625Y163096424D01*
X-85526704Y163074389D01*
X-85643761Y162986761D01*
X-85643764Y162986758D01*
X-85649490Y162982471D01*
X-85716010Y162957660D01*
X-85785385Y162972751D01*
X-85800510Y162982471D01*
X-85806237Y162986758D01*
X-85806239Y162986761D01*
X-85923296Y163074389D01*
X-86060299Y163125489D01*
X-86060301Y163125489D01*
X-86060304Y163125490D01*
X-86120851Y163131999D01*
X-86120855Y163131999D01*
X-86120862Y163132000D01*
X-87869138Y163132000D01*
X-87869145Y163131999D01*
X-87869150Y163131999D01*
X-87929697Y163125490D01*
X-87929705Y163125488D01*
X-88007625Y163096424D01*
X-88066704Y163074389D01*
X-88066706Y163074388D01*
X-88066708Y163074387D01*
X-88183762Y162986761D01*
X-88271388Y162869707D01*
X-88271390Y162869702D01*
X-88322489Y162732704D01*
X-88322490Y162732697D01*
X-88329000Y162672149D01*
X-88329000Y162451118D01*
X-88349002Y162382997D01*
X-88384999Y162346353D01*
X-88393087Y162340949D01*
X-88393092Y162340944D01*
X-91785951Y158948084D01*
X-91848263Y158914058D01*
X-91875046Y158911179D01*
X-92873060Y158911179D01*
X-92941181Y158931181D01*
X-92987674Y158984837D01*
X-92999060Y159037179D01*
X-92999060Y159340454D01*
X-92979058Y159408575D01*
X-92962155Y159429549D01*
X-92583618Y159808086D01*
X-92583613Y159808092D01*
X-92583612Y159808093D01*
X-92577263Y159817594D01*
X-92507114Y159922579D01*
X-92454422Y160049789D01*
X-92454422Y160049790D01*
X-92454420Y160049795D01*
X-92447740Y160083380D01*
X-92447740Y160083383D01*
X-92427561Y160184831D01*
X-92427560Y160184835D01*
X-92427560Y163005000D01*
X-92407558Y163073121D01*
X-92353902Y163119614D01*
X-92301560Y163131000D01*
X-90946851Y163131000D01*
X-90886304Y163137509D01*
X-90886296Y163137511D01*
X-90749298Y163188610D01*
X-90749293Y163188612D01*
X-90632239Y163276238D01*
X-90544613Y163393292D01*
X-90544611Y163393297D01*
X-90493512Y163530295D01*
X-90493510Y163530303D01*
X-90487001Y163590850D01*
X-90487000Y163590867D01*
X-90487000Y165339132D01*
X-90487001Y165339149D01*
X-90493510Y165399696D01*
X-90493512Y165399704D01*
X-90500540Y165418545D01*
X-90544611Y165536704D01*
X-90632239Y165653761D01*
X-90749296Y165741389D01*
X-90886299Y165792489D01*
X-90886301Y165792489D01*
X-90886304Y165792490D01*
X-90946851Y165798999D01*
X-90946855Y165798999D01*
X-90946862Y165799000D01*
X-90946868Y165799000D01*
X-92301560Y165799000D01*
X-92369681Y165819002D01*
X-92416174Y165872658D01*
X-92427560Y165925000D01*
X-92427560Y166581665D01*
X-92407558Y166649786D01*
X-92377071Y166682532D01*
X-92346739Y166705239D01*
X-92259113Y166822292D01*
X-92259111Y166822297D01*
X-92208012Y166959295D01*
X-92208010Y166959303D01*
X-92201501Y167019850D01*
X-92201500Y167019867D01*
X-92201500Y168514132D01*
X-92201501Y168514149D01*
X-92208010Y168574696D01*
X-92208012Y168574704D01*
X-92215040Y168593545D01*
X-92259111Y168711704D01*
X-92268662Y168724462D01*
X-92292720Y168756600D01*
X-92346739Y168828761D01*
X-92405009Y168872380D01*
X-92447555Y168929216D01*
X-92455500Y168973249D01*
X-92455500Y169510168D01*
X-92435498Y169578289D01*
X-92381842Y169624782D01*
X-92373534Y169628223D01*
X-92273296Y169665611D01*
X-92273293Y169665612D01*
X-92156239Y169753238D01*
X-92068613Y169870292D01*
X-92068611Y169870297D01*
X-92017512Y170007295D01*
X-92017510Y170007303D01*
X-92011001Y170067850D01*
X-92011000Y170067867D01*
X-92011000Y171816132D01*
X-92011001Y171816149D01*
X-92017510Y171876696D01*
X-92017512Y171876704D01*
X-92024540Y171895545D01*
X-92068611Y172013704D01*
X-92156239Y172130761D01*
X-92156242Y172130763D01*
X-92160529Y172136490D01*
X-92185340Y172203010D01*
X-92170249Y172272385D01*
X-92160529Y172287510D01*
X-92156242Y172293236D01*
X-92156239Y172293239D01*
X-92068611Y172410296D01*
X-92017511Y172547299D01*
X-92017510Y172547303D01*
X-92011001Y172607850D01*
X-92011000Y172607867D01*
X-92011000Y174356132D01*
X-92011001Y174356149D01*
X-92017510Y174416696D01*
X-92017512Y174416704D01*
X-92024540Y174435545D01*
X-92068611Y174553704D01*
X-92156239Y174670761D01*
X-92273296Y174758389D01*
X-92410299Y174809489D01*
X-92410301Y174809489D01*
X-92410304Y174809490D01*
X-92470851Y174815999D01*
X-92470855Y174815999D01*
X-92470862Y174816000D01*
X-94219138Y174816000D01*
X-94219145Y174815999D01*
X-94219150Y174815999D01*
X-94279697Y174809490D01*
X-94279705Y174809488D01*
X-94357625Y174780424D01*
X-94416704Y174758389D01*
X-94533761Y174670761D01*
X-94533764Y174670758D01*
X-94539490Y174666471D01*
X-94606010Y174641660D01*
X-94675385Y174656751D01*
X-94690510Y174666471D01*
X-94696237Y174670758D01*
X-94696239Y174670761D01*
X-94813296Y174758389D01*
X-94950299Y174809489D01*
X-94950301Y174809489D01*
X-94950304Y174809490D01*
X-95010851Y174815999D01*
X-95010855Y174815999D01*
X-95010862Y174816000D01*
X-96759138Y174816000D01*
X-96759145Y174815999D01*
X-96759150Y174815999D01*
X-96819697Y174809490D01*
X-96819705Y174809488D01*
X-96897625Y174780424D01*
X-96956704Y174758389D01*
X-97073761Y174670761D01*
X-97073764Y174670758D01*
X-97079490Y174666471D01*
X-97146010Y174641660D01*
X-97215385Y174656751D01*
X-97230510Y174666471D01*
X-97236237Y174670758D01*
X-97236239Y174670761D01*
X-97353296Y174758389D01*
X-97490299Y174809489D01*
X-97490301Y174809489D01*
X-97490304Y174809490D01*
X-97550851Y174815999D01*
X-97550855Y174815999D01*
X-97550862Y174816000D01*
X-99299138Y174816000D01*
X-99299145Y174815999D01*
X-99299150Y174815999D01*
X-99359697Y174809490D01*
X-99359705Y174809488D01*
X-99437625Y174780424D01*
X-99496704Y174758389D01*
X-99496706Y174758388D01*
X-99496708Y174758387D01*
X-99613762Y174670761D01*
X-99701388Y174553707D01*
X-99701390Y174553702D01*
X-99752489Y174416704D01*
X-99752491Y174416696D01*
X-99759000Y174356149D01*
X-99759000Y172607850D01*
X-99752491Y172547303D01*
X-99752489Y172547295D01*
X-99701390Y172410297D01*
X-99701388Y172410292D01*
X-99609472Y172287509D01*
X-99584661Y172220989D01*
X-99599752Y172151615D01*
X-99609472Y172136491D01*
X-99701388Y172013707D01*
X-99701390Y172013702D01*
X-99752489Y171876704D01*
X-99752491Y171876696D01*
X-99759000Y171816149D01*
X-99759000Y170067850D01*
X-99752491Y170007303D01*
X-99752489Y170007295D01*
X-99701390Y169870297D01*
X-99701388Y169870292D01*
X-99613762Y169753238D01*
X-99491991Y169662083D01*
X-99449444Y169605248D01*
X-99441500Y169561215D01*
X-99441500Y168973249D01*
X-99461502Y168905128D01*
X-99491991Y168872381D01*
X-99550258Y168828763D01*
X-99550262Y168828760D01*
X-99637888Y168711707D01*
X-99637890Y168711702D01*
X-99688989Y168574704D01*
X-99688991Y168574696D01*
X-99695500Y168514149D01*
X-99695500Y167019850D01*
X-99688991Y166959303D01*
X-99688989Y166959295D01*
X-99637890Y166822297D01*
X-99637888Y166822292D01*
X-99550262Y166705238D01*
X-99491991Y166661618D01*
X-99449444Y166604782D01*
X-99441500Y166560750D01*
X-99441500Y165475651D01*
X-99414638Y165340608D01*
X-99414636Y165340603D01*
X-99361946Y165213399D01*
X-99285449Y165098913D01*
X-99285444Y165098907D01*
X-95084205Y160897669D01*
X-95050179Y160835357D01*
X-95047300Y160808574D01*
X-95047300Y160507180D01*
X-95048813Y160502028D01*
X-95047731Y160496772D01*
X-95058710Y160468321D01*
X-95067302Y160439059D01*
X-95071359Y160435544D01*
X-95073291Y160430536D01*
X-95097913Y160412535D01*
X-95120958Y160392566D01*
X-95127433Y160390952D01*
X-95130604Y160388634D01*
X-95151082Y160385058D01*
X-95165732Y160381408D01*
X-95169521Y160381180D01*
X-95237678Y160381180D01*
X-95298241Y160374669D01*
X-95302189Y160373196D01*
X-95316092Y160372360D01*
X-95329850Y160375516D01*
X-95341059Y160375516D01*
X-95341241Y160373827D01*
X-95409631Y160381179D01*
X-95409635Y160381179D01*
X-95409642Y160381180D01*
X-95887918Y160381180D01*
X-95887925Y160381179D01*
X-95887930Y160381179D01*
X-95948477Y160374670D01*
X-95948485Y160374668D01*
X-96093927Y160320420D01*
X-96095259Y160323988D01*
X-96099130Y160323144D01*
X-96118990Y160313836D01*
X-96133125Y160315725D01*
X-96147060Y160312685D01*
X-96167619Y160320338D01*
X-96189360Y160323245D01*
X-96200230Y160332477D01*
X-96213596Y160337453D01*
X-96226753Y160355005D01*
X-96243472Y160369206D01*
X-96250789Y160387070D01*
X-96256179Y160394262D01*
X-96258692Y160401680D01*
X-96260511Y160407653D01*
X-96277121Y160491164D01*
X-96307988Y160565682D01*
X-96329814Y160618375D01*
X-96368063Y160675617D01*
X-96406311Y160732861D01*
X-98395399Y162721948D01*
X-98411490Y162732699D01*
X-98411491Y162732701D01*
X-98460856Y162765685D01*
X-98509885Y162798446D01*
X-98637095Y162851138D01*
X-98772140Y162878000D01*
X-98772141Y162878000D01*
X-103188000Y162878000D01*
X-103256121Y162898002D01*
X-103302614Y162951658D01*
X-103314000Y163004000D01*
X-103314000Y163053132D01*
X-103314001Y163053149D01*
X-103320510Y163113696D01*
X-103320512Y163113704D01*
X-103348451Y163188610D01*
X-103371611Y163250704D01*
X-103390726Y163276238D01*
X-103459239Y163367761D01*
X-103576293Y163455387D01*
X-103576294Y163455387D01*
X-103576296Y163455389D01*
X-103713299Y163506489D01*
X-103713301Y163506489D01*
X-103713304Y163506490D01*
X-103773851Y163512999D01*
X-103773855Y163512999D01*
X-103773862Y163513000D01*
X-105522138Y163513000D01*
X-105522145Y163512999D01*
X-105522150Y163512999D01*
X-105582697Y163506490D01*
X-105582705Y163506488D01*
X-105660625Y163477424D01*
X-105719704Y163455389D01*
X-105836761Y163367761D01*
X-105836764Y163367758D01*
X-105842490Y163363471D01*
X-105909010Y163338660D01*
X-105978385Y163353751D01*
X-105993510Y163363471D01*
X-105999237Y163367758D01*
X-105999239Y163367761D01*
X-106116296Y163455389D01*
X-106253299Y163506489D01*
X-106253301Y163506489D01*
X-106253304Y163506490D01*
X-106313851Y163512999D01*
X-106313855Y163512999D01*
X-106313862Y163513000D01*
X-108062138Y163513000D01*
X-108062145Y163512999D01*
X-108062150Y163512999D01*
X-108122697Y163506490D01*
X-108122705Y163506488D01*
X-108200625Y163477424D01*
X-108259704Y163455389D01*
X-108259706Y163455388D01*
X-108259708Y163455387D01*
X-108376762Y163367761D01*
X-108464388Y163250707D01*
X-108464390Y163250702D01*
X-108515489Y163113704D01*
X-108515491Y163113696D01*
X-108522000Y163053149D01*
X-110818500Y163053149D01*
X-110818500Y166065134D01*
X-109997032Y166065134D01*
X-101483174Y166065134D01*
X-101483174Y168295144D01*
X-109997032Y168295144D01*
X-109997032Y166065134D01*
X-110818500Y166065134D01*
X-110818500Y176732500D01*
X-110798498Y176800621D01*
X-110744842Y176847114D01*
X-110692500Y176858500D01*
X-81077500Y176858500D01*
X-81009379Y176838498D01*
G37*
%TD.AperFunction*%
%TD*%
M02*
