%TF.GenerationSoftware,KiCad,Pcbnew,9.0.6+1*%
%TF.CreationDate,2025-11-30T20:59:48+00:00*%
%TF.ProjectId,I2CSPI01,49324353-5049-4303-912e-6b696361645f,rev?*%
%TF.SameCoordinates,Original*%
%TF.FileFunction,Legend,Bot*%
%TF.FilePolarity,Positive*%
%FSLAX46Y46*%
G04 Gerber Fmt 4.6, Leading zero omitted, Abs format (unit mm)*
G04 Created by KiCad (PCBNEW 9.0.6+1) date 2025-11-30 20:59:48*
%MOMM*%
%LPD*%
G01*
G04 APERTURE LIST*
%ADD10C,0.109220*%
%ADD11C,0.190500*%
%ADD12C,0.304800*%
%ADD13C,0.099060*%
%ADD14C,0.254000*%
%ADD15C,0.150000*%
%ADD16R,1.651000X1.651000*%
G04 APERTURE END LIST*
D10*
X-97452604Y147284694D02*
X-97285811Y147522970D01*
X-97166673Y147284694D02*
X-97166673Y147785074D01*
X-97166673Y147785074D02*
X-97357294Y147785074D01*
X-97357294Y147785074D02*
X-97404949Y147761246D01*
X-97404949Y147761246D02*
X-97428776Y147737419D01*
X-97428776Y147737419D02*
X-97452604Y147689763D01*
X-97452604Y147689763D02*
X-97452604Y147618281D01*
X-97452604Y147618281D02*
X-97428776Y147570625D01*
X-97428776Y147570625D02*
X-97404949Y147546798D01*
X-97404949Y147546798D02*
X-97357294Y147522970D01*
X-97357294Y147522970D02*
X-97166673Y147522970D01*
X-97619397Y147785074D02*
X-97929156Y147785074D01*
X-97929156Y147785074D02*
X-97762363Y147594453D01*
X-97762363Y147594453D02*
X-97833846Y147594453D01*
X-97833846Y147594453D02*
X-97881501Y147570625D01*
X-97881501Y147570625D02*
X-97905329Y147546798D01*
X-97905329Y147546798D02*
X-97929156Y147499142D01*
X-97929156Y147499142D02*
X-97929156Y147380004D01*
X-97929156Y147380004D02*
X-97905329Y147332349D01*
X-97905329Y147332349D02*
X-97881501Y147308522D01*
X-97881501Y147308522D02*
X-97833846Y147284694D01*
X-97833846Y147284694D02*
X-97690880Y147284694D01*
X-97690880Y147284694D02*
X-97643225Y147308522D01*
X-97643225Y147308522D02*
X-97619397Y147332349D01*
X-97261983Y148483574D02*
X-97309638Y148483574D01*
X-97309638Y148483574D02*
X-97357294Y148459746D01*
X-97357294Y148459746D02*
X-97381121Y148435919D01*
X-97381121Y148435919D02*
X-97404949Y148388263D01*
X-97404949Y148388263D02*
X-97428776Y148292953D01*
X-97428776Y148292953D02*
X-97428776Y148173815D01*
X-97428776Y148173815D02*
X-97404949Y148078504D01*
X-97404949Y148078504D02*
X-97381121Y148030849D01*
X-97381121Y148030849D02*
X-97357294Y148007022D01*
X-97357294Y148007022D02*
X-97309638Y147983194D01*
X-97309638Y147983194D02*
X-97261983Y147983194D01*
X-97261983Y147983194D02*
X-97214328Y148007022D01*
X-97214328Y148007022D02*
X-97190500Y148030849D01*
X-97190500Y148030849D02*
X-97166673Y148078504D01*
X-97166673Y148078504D02*
X-97142845Y148173815D01*
X-97142845Y148173815D02*
X-97142845Y148292953D01*
X-97142845Y148292953D02*
X-97166673Y148388263D01*
X-97166673Y148388263D02*
X-97190500Y148435919D01*
X-97190500Y148435919D02*
X-97214328Y148459746D01*
X-97214328Y148459746D02*
X-97261983Y148483574D01*
X-97929156Y147983194D02*
X-97762363Y148221470D01*
X-97643225Y147983194D02*
X-97643225Y148483574D01*
X-97643225Y148483574D02*
X-97833846Y148483574D01*
X-97833846Y148483574D02*
X-97881501Y148459746D01*
X-97881501Y148459746D02*
X-97905328Y148435919D01*
X-97905328Y148435919D02*
X-97929156Y148388263D01*
X-97929156Y148388263D02*
X-97929156Y148316781D01*
X-97929156Y148316781D02*
X-97905328Y148269125D01*
X-97905328Y148269125D02*
X-97881501Y148245298D01*
X-97881501Y148245298D02*
X-97833846Y148221470D01*
X-97833846Y148221470D02*
X-97643225Y148221470D01*
D11*
X-95393329Y156245185D02*
X-95393329Y155422708D01*
X-95393329Y155422708D02*
X-95429615Y155325946D01*
X-95429615Y155325946D02*
X-95465900Y155277566D01*
X-95465900Y155277566D02*
X-95538472Y155229185D01*
X-95538472Y155229185D02*
X-95683615Y155229185D01*
X-95683615Y155229185D02*
X-95756186Y155277566D01*
X-95756186Y155277566D02*
X-95792472Y155325946D01*
X-95792472Y155325946D02*
X-95828758Y155422708D01*
X-95828758Y155422708D02*
X-95828758Y156245185D01*
X-96590758Y155229185D02*
X-96155329Y155229185D01*
X-96373044Y155229185D02*
X-96373044Y156245185D01*
X-96373044Y156245185D02*
X-96300472Y156100042D01*
X-96300472Y156100042D02*
X-96227901Y156003280D01*
X-96227901Y156003280D02*
X-96155329Y155954899D01*
D10*
X-94023604Y167858694D02*
X-93856811Y168096970D01*
X-93737673Y167858694D02*
X-93737673Y168359074D01*
X-93737673Y168359074D02*
X-93928294Y168359074D01*
X-93928294Y168359074D02*
X-93975949Y168335246D01*
X-93975949Y168335246D02*
X-93999776Y168311419D01*
X-93999776Y168311419D02*
X-94023604Y168263763D01*
X-94023604Y168263763D02*
X-94023604Y168192281D01*
X-94023604Y168192281D02*
X-93999776Y168144625D01*
X-93999776Y168144625D02*
X-93975949Y168120798D01*
X-93975949Y168120798D02*
X-93928294Y168096970D01*
X-93928294Y168096970D02*
X-93737673Y168096970D01*
X-94500156Y167858694D02*
X-94214225Y167858694D01*
X-94357191Y167858694D02*
X-94357191Y168359074D01*
X-94357191Y168359074D02*
X-94309535Y168287591D01*
X-94309535Y168287591D02*
X-94261880Y168239936D01*
X-94261880Y168239936D02*
X-94214225Y168216108D01*
X-93809155Y167160194D02*
X-93523224Y167160194D01*
X-93666190Y167160194D02*
X-93666190Y167660574D01*
X-93666190Y167660574D02*
X-93618534Y167589091D01*
X-93618534Y167589091D02*
X-93570879Y167541436D01*
X-93570879Y167541436D02*
X-93523224Y167517608D01*
X-94118914Y167660574D02*
X-94166569Y167660574D01*
X-94166569Y167660574D02*
X-94214225Y167636746D01*
X-94214225Y167636746D02*
X-94238052Y167612919D01*
X-94238052Y167612919D02*
X-94261880Y167565263D01*
X-94261880Y167565263D02*
X-94285707Y167469953D01*
X-94285707Y167469953D02*
X-94285707Y167350815D01*
X-94285707Y167350815D02*
X-94261880Y167255504D01*
X-94261880Y167255504D02*
X-94238052Y167207849D01*
X-94238052Y167207849D02*
X-94214225Y167184022D01*
X-94214225Y167184022D02*
X-94166569Y167160194D01*
X-94166569Y167160194D02*
X-94118914Y167160194D01*
X-94118914Y167160194D02*
X-94071259Y167184022D01*
X-94071259Y167184022D02*
X-94047431Y167207849D01*
X-94047431Y167207849D02*
X-94023604Y167255504D01*
X-94023604Y167255504D02*
X-93999776Y167350815D01*
X-93999776Y167350815D02*
X-93999776Y167469953D01*
X-93999776Y167469953D02*
X-94023604Y167565263D01*
X-94023604Y167565263D02*
X-94047431Y167612919D01*
X-94047431Y167612919D02*
X-94071259Y167636746D01*
X-94071259Y167636746D02*
X-94118914Y167660574D01*
X-94500156Y167160194D02*
X-94500156Y167660574D01*
X-94547811Y167350815D02*
X-94690777Y167160194D01*
X-94690777Y167493781D02*
X-94500156Y167303160D01*
X-97706604Y167223694D02*
X-97539811Y167461970D01*
X-97420673Y167223694D02*
X-97420673Y167724074D01*
X-97420673Y167724074D02*
X-97611294Y167724074D01*
X-97611294Y167724074D02*
X-97658949Y167700246D01*
X-97658949Y167700246D02*
X-97682776Y167676419D01*
X-97682776Y167676419D02*
X-97706604Y167628763D01*
X-97706604Y167628763D02*
X-97706604Y167557281D01*
X-97706604Y167557281D02*
X-97682776Y167509625D01*
X-97682776Y167509625D02*
X-97658949Y167485798D01*
X-97658949Y167485798D02*
X-97611294Y167461970D01*
X-97611294Y167461970D02*
X-97420673Y167461970D01*
X-97897225Y167676419D02*
X-97921053Y167700246D01*
X-97921053Y167700246D02*
X-97968708Y167724074D01*
X-97968708Y167724074D02*
X-98087846Y167724074D01*
X-98087846Y167724074D02*
X-98135501Y167700246D01*
X-98135501Y167700246D02*
X-98159329Y167676419D01*
X-98159329Y167676419D02*
X-98183156Y167628763D01*
X-98183156Y167628763D02*
X-98183156Y167581108D01*
X-98183156Y167581108D02*
X-98159329Y167509625D01*
X-98159329Y167509625D02*
X-97873397Y167223694D01*
X-97873397Y167223694D02*
X-98183156Y167223694D01*
X-97492155Y167922194D02*
X-97206224Y167922194D01*
X-97349190Y167922194D02*
X-97349190Y168422574D01*
X-97349190Y168422574D02*
X-97301534Y168351091D01*
X-97301534Y168351091D02*
X-97253879Y168303436D01*
X-97253879Y168303436D02*
X-97206224Y168279608D01*
X-97801914Y168422574D02*
X-97849569Y168422574D01*
X-97849569Y168422574D02*
X-97897225Y168398746D01*
X-97897225Y168398746D02*
X-97921052Y168374919D01*
X-97921052Y168374919D02*
X-97944880Y168327263D01*
X-97944880Y168327263D02*
X-97968707Y168231953D01*
X-97968707Y168231953D02*
X-97968707Y168112815D01*
X-97968707Y168112815D02*
X-97944880Y168017504D01*
X-97944880Y168017504D02*
X-97921052Y167969849D01*
X-97921052Y167969849D02*
X-97897225Y167946022D01*
X-97897225Y167946022D02*
X-97849569Y167922194D01*
X-97849569Y167922194D02*
X-97801914Y167922194D01*
X-97801914Y167922194D02*
X-97754259Y167946022D01*
X-97754259Y167946022D02*
X-97730431Y167969849D01*
X-97730431Y167969849D02*
X-97706604Y168017504D01*
X-97706604Y168017504D02*
X-97682776Y168112815D01*
X-97682776Y168112815D02*
X-97682776Y168231953D01*
X-97682776Y168231953D02*
X-97706604Y168327263D01*
X-97706604Y168327263D02*
X-97730431Y168374919D01*
X-97730431Y168374919D02*
X-97754259Y168398746D01*
X-97754259Y168398746D02*
X-97801914Y168422574D01*
X-98183156Y167922194D02*
X-98183156Y168422574D01*
X-98230811Y168112815D02*
X-98373777Y167922194D01*
X-98373777Y168255781D02*
X-98183156Y168065160D01*
X-89880695Y154388396D02*
X-90118971Y154555189D01*
X-89880695Y154674327D02*
X-90381075Y154674327D01*
X-90381075Y154674327D02*
X-90381075Y154483706D01*
X-90381075Y154483706D02*
X-90357247Y154436051D01*
X-90357247Y154436051D02*
X-90333420Y154412224D01*
X-90333420Y154412224D02*
X-90285764Y154388396D01*
X-90285764Y154388396D02*
X-90214282Y154388396D01*
X-90214282Y154388396D02*
X-90166626Y154412224D01*
X-90166626Y154412224D02*
X-90142799Y154436051D01*
X-90142799Y154436051D02*
X-90118971Y154483706D01*
X-90118971Y154483706D02*
X-90118971Y154674327D01*
X-90214282Y153959499D02*
X-89880695Y153959499D01*
X-90404902Y154078637D02*
X-90047488Y154197775D01*
X-90047488Y154197775D02*
X-90047488Y153888016D01*
X-90579195Y154602845D02*
X-90579195Y154888776D01*
X-90579195Y154745810D02*
X-91079575Y154745810D01*
X-91079575Y154745810D02*
X-91008092Y154793466D01*
X-91008092Y154793466D02*
X-90960437Y154841121D01*
X-90960437Y154841121D02*
X-90936609Y154888776D01*
X-91079575Y154293086D02*
X-91079575Y154245431D01*
X-91079575Y154245431D02*
X-91055747Y154197775D01*
X-91055747Y154197775D02*
X-91031920Y154173948D01*
X-91031920Y154173948D02*
X-90984264Y154150120D01*
X-90984264Y154150120D02*
X-90888954Y154126293D01*
X-90888954Y154126293D02*
X-90769816Y154126293D01*
X-90769816Y154126293D02*
X-90674505Y154150120D01*
X-90674505Y154150120D02*
X-90626850Y154173948D01*
X-90626850Y154173948D02*
X-90603022Y154197775D01*
X-90603022Y154197775D02*
X-90579195Y154245431D01*
X-90579195Y154245431D02*
X-90579195Y154293086D01*
X-90579195Y154293086D02*
X-90603022Y154340741D01*
X-90603022Y154340741D02*
X-90626850Y154364569D01*
X-90626850Y154364569D02*
X-90674505Y154388396D01*
X-90674505Y154388396D02*
X-90769816Y154412224D01*
X-90769816Y154412224D02*
X-90888954Y154412224D01*
X-90888954Y154412224D02*
X-90984264Y154388396D01*
X-90984264Y154388396D02*
X-91031920Y154364569D01*
X-91031920Y154364569D02*
X-91055747Y154340741D01*
X-91055747Y154340741D02*
X-91079575Y154293086D01*
X-90579195Y153911844D02*
X-91079575Y153911844D01*
X-90769816Y153864189D02*
X-90579195Y153721223D01*
X-90912782Y153721223D02*
X-90722161Y153911844D01*
X-91960350Y150197396D02*
X-91936522Y150221224D01*
X-91936522Y150221224D02*
X-91912695Y150292706D01*
X-91912695Y150292706D02*
X-91912695Y150340362D01*
X-91912695Y150340362D02*
X-91936522Y150411845D01*
X-91936522Y150411845D02*
X-91984178Y150459500D01*
X-91984178Y150459500D02*
X-92031833Y150483327D01*
X-92031833Y150483327D02*
X-92127143Y150507155D01*
X-92127143Y150507155D02*
X-92198626Y150507155D01*
X-92198626Y150507155D02*
X-92293937Y150483327D01*
X-92293937Y150483327D02*
X-92341592Y150459500D01*
X-92341592Y150459500D02*
X-92389247Y150411845D01*
X-92389247Y150411845D02*
X-92413075Y150340362D01*
X-92413075Y150340362D02*
X-92413075Y150292706D01*
X-92413075Y150292706D02*
X-92389247Y150221224D01*
X-92389247Y150221224D02*
X-92365420Y150197396D01*
X-92365420Y150006775D02*
X-92389247Y149982947D01*
X-92389247Y149982947D02*
X-92413075Y149935292D01*
X-92413075Y149935292D02*
X-92413075Y149816154D01*
X-92413075Y149816154D02*
X-92389247Y149768499D01*
X-92389247Y149768499D02*
X-92365420Y149744671D01*
X-92365420Y149744671D02*
X-92317764Y149720844D01*
X-92317764Y149720844D02*
X-92270109Y149720844D01*
X-92270109Y149720844D02*
X-92198626Y149744671D01*
X-92198626Y149744671D02*
X-91912695Y150030603D01*
X-91912695Y150030603D02*
X-91912695Y149720844D01*
X-91214195Y150650121D02*
X-91214195Y150936052D01*
X-91214195Y150793086D02*
X-91714575Y150793086D01*
X-91714575Y150793086D02*
X-91643092Y150840742D01*
X-91643092Y150840742D02*
X-91595437Y150888397D01*
X-91595437Y150888397D02*
X-91571609Y150936052D01*
X-91714575Y150340362D02*
X-91714575Y150292707D01*
X-91714575Y150292707D02*
X-91690747Y150245051D01*
X-91690747Y150245051D02*
X-91666920Y150221224D01*
X-91666920Y150221224D02*
X-91619264Y150197396D01*
X-91619264Y150197396D02*
X-91523954Y150173569D01*
X-91523954Y150173569D02*
X-91404816Y150173569D01*
X-91404816Y150173569D02*
X-91309505Y150197396D01*
X-91309505Y150197396D02*
X-91261850Y150221224D01*
X-91261850Y150221224D02*
X-91238022Y150245051D01*
X-91238022Y150245051D02*
X-91214195Y150292707D01*
X-91214195Y150292707D02*
X-91214195Y150340362D01*
X-91214195Y150340362D02*
X-91238022Y150388017D01*
X-91238022Y150388017D02*
X-91261850Y150411845D01*
X-91261850Y150411845D02*
X-91309505Y150435672D01*
X-91309505Y150435672D02*
X-91404816Y150459500D01*
X-91404816Y150459500D02*
X-91523954Y150459500D01*
X-91523954Y150459500D02*
X-91619264Y150435672D01*
X-91619264Y150435672D02*
X-91666920Y150411845D01*
X-91666920Y150411845D02*
X-91690747Y150388017D01*
X-91690747Y150388017D02*
X-91714575Y150340362D01*
X-91547782Y149744672D02*
X-91214195Y149744672D01*
X-91547782Y149959120D02*
X-91285678Y149959120D01*
X-91285678Y149959120D02*
X-91238022Y149935293D01*
X-91238022Y149935293D02*
X-91214195Y149887638D01*
X-91214195Y149887638D02*
X-91214195Y149816155D01*
X-91214195Y149816155D02*
X-91238022Y149768499D01*
X-91238022Y149768499D02*
X-91261850Y149744672D01*
X-91476299Y149339602D02*
X-91476299Y149506395D01*
X-91214195Y149506395D02*
X-91714575Y149506395D01*
X-91714575Y149506395D02*
X-91714575Y149268119D01*
X-94754350Y150197396D02*
X-94730522Y150221224D01*
X-94730522Y150221224D02*
X-94706695Y150292706D01*
X-94706695Y150292706D02*
X-94706695Y150340362D01*
X-94706695Y150340362D02*
X-94730522Y150411845D01*
X-94730522Y150411845D02*
X-94778178Y150459500D01*
X-94778178Y150459500D02*
X-94825833Y150483327D01*
X-94825833Y150483327D02*
X-94921143Y150507155D01*
X-94921143Y150507155D02*
X-94992626Y150507155D01*
X-94992626Y150507155D02*
X-95087937Y150483327D01*
X-95087937Y150483327D02*
X-95135592Y150459500D01*
X-95135592Y150459500D02*
X-95183247Y150411845D01*
X-95183247Y150411845D02*
X-95207075Y150340362D01*
X-95207075Y150340362D02*
X-95207075Y150292706D01*
X-95207075Y150292706D02*
X-95183247Y150221224D01*
X-95183247Y150221224D02*
X-95159420Y150197396D01*
X-94706695Y149720844D02*
X-94706695Y150006775D01*
X-94706695Y149863809D02*
X-95207075Y149863809D01*
X-95207075Y149863809D02*
X-95135592Y149911465D01*
X-95135592Y149911465D02*
X-95087937Y149959120D01*
X-95087937Y149959120D02*
X-95064109Y150006775D01*
X-94008195Y150888397D02*
X-94008195Y151174328D01*
X-94008195Y151031362D02*
X-94508575Y151031362D01*
X-94508575Y151031362D02*
X-94437092Y151079018D01*
X-94437092Y151079018D02*
X-94389437Y151126673D01*
X-94389437Y151126673D02*
X-94365609Y151174328D01*
X-94508575Y150578638D02*
X-94508575Y150530983D01*
X-94508575Y150530983D02*
X-94484747Y150483327D01*
X-94484747Y150483327D02*
X-94460920Y150459500D01*
X-94460920Y150459500D02*
X-94413264Y150435672D01*
X-94413264Y150435672D02*
X-94317954Y150411845D01*
X-94317954Y150411845D02*
X-94198816Y150411845D01*
X-94198816Y150411845D02*
X-94103505Y150435672D01*
X-94103505Y150435672D02*
X-94055850Y150459500D01*
X-94055850Y150459500D02*
X-94032022Y150483327D01*
X-94032022Y150483327D02*
X-94008195Y150530983D01*
X-94008195Y150530983D02*
X-94008195Y150578638D01*
X-94008195Y150578638D02*
X-94032022Y150626293D01*
X-94032022Y150626293D02*
X-94055850Y150650121D01*
X-94055850Y150650121D02*
X-94103505Y150673948D01*
X-94103505Y150673948D02*
X-94198816Y150697776D01*
X-94198816Y150697776D02*
X-94317954Y150697776D01*
X-94317954Y150697776D02*
X-94413264Y150673948D01*
X-94413264Y150673948D02*
X-94460920Y150650121D01*
X-94460920Y150650121D02*
X-94484747Y150626293D01*
X-94484747Y150626293D02*
X-94508575Y150578638D01*
X-94508575Y150102086D02*
X-94508575Y150054431D01*
X-94508575Y150054431D02*
X-94484747Y150006775D01*
X-94484747Y150006775D02*
X-94460920Y149982948D01*
X-94460920Y149982948D02*
X-94413264Y149959120D01*
X-94413264Y149959120D02*
X-94317954Y149935293D01*
X-94317954Y149935293D02*
X-94198816Y149935293D01*
X-94198816Y149935293D02*
X-94103505Y149959120D01*
X-94103505Y149959120D02*
X-94055850Y149982948D01*
X-94055850Y149982948D02*
X-94032022Y150006775D01*
X-94032022Y150006775D02*
X-94008195Y150054431D01*
X-94008195Y150054431D02*
X-94008195Y150102086D01*
X-94008195Y150102086D02*
X-94032022Y150149741D01*
X-94032022Y150149741D02*
X-94055850Y150173569D01*
X-94055850Y150173569D02*
X-94103505Y150197396D01*
X-94103505Y150197396D02*
X-94198816Y150221224D01*
X-94198816Y150221224D02*
X-94317954Y150221224D01*
X-94317954Y150221224D02*
X-94413264Y150197396D01*
X-94413264Y150197396D02*
X-94460920Y150173569D01*
X-94460920Y150173569D02*
X-94484747Y150149741D01*
X-94484747Y150149741D02*
X-94508575Y150102086D01*
X-94341782Y149720844D02*
X-94008195Y149720844D01*
X-94294126Y149720844D02*
X-94317954Y149697017D01*
X-94317954Y149697017D02*
X-94341782Y149649362D01*
X-94341782Y149649362D02*
X-94341782Y149577879D01*
X-94341782Y149577879D02*
X-94317954Y149530223D01*
X-94317954Y149530223D02*
X-94270299Y149506396D01*
X-94270299Y149506396D02*
X-94008195Y149506396D01*
X-94270299Y149101326D02*
X-94270299Y149268119D01*
X-94008195Y149268119D02*
X-94508575Y149268119D01*
X-94508575Y149268119D02*
X-94508575Y149029843D01*
X-97452604Y150332694D02*
X-97285811Y150570970D01*
X-97166673Y150332694D02*
X-97166673Y150833074D01*
X-97166673Y150833074D02*
X-97357294Y150833074D01*
X-97357294Y150833074D02*
X-97404949Y150809246D01*
X-97404949Y150809246D02*
X-97428776Y150785419D01*
X-97428776Y150785419D02*
X-97452604Y150737763D01*
X-97452604Y150737763D02*
X-97452604Y150666281D01*
X-97452604Y150666281D02*
X-97428776Y150618625D01*
X-97428776Y150618625D02*
X-97404949Y150594798D01*
X-97404949Y150594798D02*
X-97357294Y150570970D01*
X-97357294Y150570970D02*
X-97166673Y150570970D01*
X-97905329Y150833074D02*
X-97667053Y150833074D01*
X-97667053Y150833074D02*
X-97643225Y150594798D01*
X-97643225Y150594798D02*
X-97667053Y150618625D01*
X-97667053Y150618625D02*
X-97714708Y150642453D01*
X-97714708Y150642453D02*
X-97833846Y150642453D01*
X-97833846Y150642453D02*
X-97881501Y150618625D01*
X-97881501Y150618625D02*
X-97905329Y150594798D01*
X-97905329Y150594798D02*
X-97929156Y150547142D01*
X-97929156Y150547142D02*
X-97929156Y150428004D01*
X-97929156Y150428004D02*
X-97905329Y150380349D01*
X-97905329Y150380349D02*
X-97881501Y150356522D01*
X-97881501Y150356522D02*
X-97833846Y150332694D01*
X-97833846Y150332694D02*
X-97714708Y150332694D01*
X-97714708Y150332694D02*
X-97667053Y150356522D01*
X-97667053Y150356522D02*
X-97643225Y150380349D01*
X-97345380Y149824815D02*
X-97726621Y149824815D01*
X-99992604Y145760694D02*
X-99825811Y145998970D01*
X-99706673Y145760694D02*
X-99706673Y146261074D01*
X-99706673Y146261074D02*
X-99897294Y146261074D01*
X-99897294Y146261074D02*
X-99944949Y146237246D01*
X-99944949Y146237246D02*
X-99968776Y146213419D01*
X-99968776Y146213419D02*
X-99992604Y146165763D01*
X-99992604Y146165763D02*
X-99992604Y146094281D01*
X-99992604Y146094281D02*
X-99968776Y146046625D01*
X-99968776Y146046625D02*
X-99944949Y146022798D01*
X-99944949Y146022798D02*
X-99897294Y145998970D01*
X-99897294Y145998970D02*
X-99706673Y145998970D01*
X-100421501Y146261074D02*
X-100326191Y146261074D01*
X-100326191Y146261074D02*
X-100278535Y146237246D01*
X-100278535Y146237246D02*
X-100254708Y146213419D01*
X-100254708Y146213419D02*
X-100207053Y146141936D01*
X-100207053Y146141936D02*
X-100183225Y146046625D01*
X-100183225Y146046625D02*
X-100183225Y145856004D01*
X-100183225Y145856004D02*
X-100207053Y145808349D01*
X-100207053Y145808349D02*
X-100230880Y145784522D01*
X-100230880Y145784522D02*
X-100278535Y145760694D01*
X-100278535Y145760694D02*
X-100373846Y145760694D01*
X-100373846Y145760694D02*
X-100421501Y145784522D01*
X-100421501Y145784522D02*
X-100445329Y145808349D01*
X-100445329Y145808349D02*
X-100469156Y145856004D01*
X-100469156Y145856004D02*
X-100469156Y145975142D01*
X-100469156Y145975142D02*
X-100445329Y146022798D01*
X-100445329Y146022798D02*
X-100421501Y146046625D01*
X-100421501Y146046625D02*
X-100373846Y146070453D01*
X-100373846Y146070453D02*
X-100278535Y146070453D01*
X-100278535Y146070453D02*
X-100230880Y146046625D01*
X-100230880Y146046625D02*
X-100207053Y146022798D01*
X-100207053Y146022798D02*
X-100183225Y145975142D01*
X-99778155Y145062194D02*
X-99492224Y145062194D01*
X-99635190Y145062194D02*
X-99635190Y145562574D01*
X-99635190Y145562574D02*
X-99587534Y145491091D01*
X-99587534Y145491091D02*
X-99539879Y145443436D01*
X-99539879Y145443436D02*
X-99492224Y145419608D01*
X-100087914Y145562574D02*
X-100135569Y145562574D01*
X-100135569Y145562574D02*
X-100183225Y145538746D01*
X-100183225Y145538746D02*
X-100207052Y145514919D01*
X-100207052Y145514919D02*
X-100230880Y145467263D01*
X-100230880Y145467263D02*
X-100254707Y145371953D01*
X-100254707Y145371953D02*
X-100254707Y145252815D01*
X-100254707Y145252815D02*
X-100230880Y145157504D01*
X-100230880Y145157504D02*
X-100207052Y145109849D01*
X-100207052Y145109849D02*
X-100183225Y145086022D01*
X-100183225Y145086022D02*
X-100135569Y145062194D01*
X-100135569Y145062194D02*
X-100087914Y145062194D01*
X-100087914Y145062194D02*
X-100040259Y145086022D01*
X-100040259Y145086022D02*
X-100016431Y145109849D01*
X-100016431Y145109849D02*
X-99992604Y145157504D01*
X-99992604Y145157504D02*
X-99968776Y145252815D01*
X-99968776Y145252815D02*
X-99968776Y145371953D01*
X-99968776Y145371953D02*
X-99992604Y145467263D01*
X-99992604Y145467263D02*
X-100016431Y145514919D01*
X-100016431Y145514919D02*
X-100040259Y145538746D01*
X-100040259Y145538746D02*
X-100087914Y145562574D01*
X-100469156Y145062194D02*
X-100469156Y145562574D01*
X-100516811Y145252815D02*
X-100659777Y145062194D01*
X-100659777Y145395781D02*
X-100469156Y145205160D01*
X-94912604Y145125694D02*
X-94745811Y145363970D01*
X-94626673Y145125694D02*
X-94626673Y145626074D01*
X-94626673Y145626074D02*
X-94817294Y145626074D01*
X-94817294Y145626074D02*
X-94864949Y145602246D01*
X-94864949Y145602246D02*
X-94888776Y145578419D01*
X-94888776Y145578419D02*
X-94912604Y145530763D01*
X-94912604Y145530763D02*
X-94912604Y145459281D01*
X-94912604Y145459281D02*
X-94888776Y145411625D01*
X-94888776Y145411625D02*
X-94864949Y145387798D01*
X-94864949Y145387798D02*
X-94817294Y145363970D01*
X-94817294Y145363970D02*
X-94626673Y145363970D01*
X-95079397Y145626074D02*
X-95412984Y145626074D01*
X-95412984Y145626074D02*
X-95198535Y145125694D01*
X-94698155Y145824194D02*
X-94412224Y145824194D01*
X-94555190Y145824194D02*
X-94555190Y146324574D01*
X-94555190Y146324574D02*
X-94507534Y146253091D01*
X-94507534Y146253091D02*
X-94459879Y146205436D01*
X-94459879Y146205436D02*
X-94412224Y146181608D01*
X-95007914Y146324574D02*
X-95055569Y146324574D01*
X-95055569Y146324574D02*
X-95103225Y146300746D01*
X-95103225Y146300746D02*
X-95127052Y146276919D01*
X-95127052Y146276919D02*
X-95150880Y146229263D01*
X-95150880Y146229263D02*
X-95174707Y146133953D01*
X-95174707Y146133953D02*
X-95174707Y146014815D01*
X-95174707Y146014815D02*
X-95150880Y145919504D01*
X-95150880Y145919504D02*
X-95127052Y145871849D01*
X-95127052Y145871849D02*
X-95103225Y145848022D01*
X-95103225Y145848022D02*
X-95055569Y145824194D01*
X-95055569Y145824194D02*
X-95007914Y145824194D01*
X-95007914Y145824194D02*
X-94960259Y145848022D01*
X-94960259Y145848022D02*
X-94936431Y145871849D01*
X-94936431Y145871849D02*
X-94912604Y145919504D01*
X-94912604Y145919504D02*
X-94888776Y146014815D01*
X-94888776Y146014815D02*
X-94888776Y146133953D01*
X-94888776Y146133953D02*
X-94912604Y146229263D01*
X-94912604Y146229263D02*
X-94936431Y146276919D01*
X-94936431Y146276919D02*
X-94960259Y146300746D01*
X-94960259Y146300746D02*
X-95007914Y146324574D01*
X-95389156Y145824194D02*
X-95389156Y146324574D01*
X-95436811Y146014815D02*
X-95579777Y145824194D01*
X-95579777Y146157781D02*
X-95389156Y145967160D01*
D12*
X-88210819Y146412856D02*
X-89734819Y146412856D01*
X-89734819Y146412856D02*
X-89734819Y146049999D01*
X-89734819Y146049999D02*
X-89662248Y145832285D01*
X-89662248Y145832285D02*
X-89517105Y145687142D01*
X-89517105Y145687142D02*
X-89371962Y145614571D01*
X-89371962Y145614571D02*
X-89081676Y145541999D01*
X-89081676Y145541999D02*
X-88863962Y145541999D01*
X-88863962Y145541999D02*
X-88573676Y145614571D01*
X-88573676Y145614571D02*
X-88428533Y145687142D01*
X-88428533Y145687142D02*
X-88283390Y145832285D01*
X-88283390Y145832285D02*
X-88210819Y146049999D01*
X-88210819Y146049999D02*
X-88210819Y146412856D01*
X-88210819Y144090571D02*
X-88210819Y144961428D01*
X-88210819Y144525999D02*
X-89734819Y144525999D01*
X-89734819Y144525999D02*
X-89517105Y144671142D01*
X-89517105Y144671142D02*
X-89371962Y144816285D01*
X-89371962Y144816285D02*
X-89299390Y144961428D01*
D13*
X-92525033Y143987277D02*
X-92525033Y143749001D01*
X-92382067Y144034932D02*
X-92882447Y143868139D01*
X-92882447Y143868139D02*
X-92382067Y143701346D01*
X-92382067Y147600911D02*
X-92882447Y147600911D01*
X-92382067Y147314980D02*
X-92667998Y147529429D01*
X-92882447Y147314980D02*
X-92596515Y147600911D01*
%TO.C,R3*%
X-99060000Y148590000D02*
X-99060000Y147066000D01*
X-99060000Y147066000D02*
X-98044000Y147066000D01*
X-98044000Y148590000D02*
X-99060000Y148590000D01*
X-97028000Y147066000D02*
X-96012000Y147066000D01*
X-96012000Y148590000D02*
X-97028000Y148590000D01*
X-96012000Y147066000D02*
X-96012000Y148590000D01*
X-99060000Y148590000D02*
G75*
G02*
X-99314000Y148590000I-127000J0D01*
G01*
X-99314000Y148590000D02*
G75*
G02*
X-99060000Y148590000I127000J0D01*
G01*
D14*
%TO.C,U1*%
X-98767900Y158216600D02*
X-98767900Y154533600D01*
X-98767900Y154533600D02*
X-93433900Y154533600D01*
X-93433900Y158216600D02*
X-98767900Y158216600D01*
X-93433900Y154533600D02*
X-93433900Y158216600D01*
X-97850801Y157596840D02*
G75*
G02*
X-98501359Y157596840I-325279J0D01*
G01*
X-98501359Y157596840D02*
G75*
G02*
X-97850801Y157596840I325279J0D01*
G01*
D13*
%TO.C,R1*%
X-95631000Y168529000D02*
X-95631000Y167005000D01*
X-95631000Y167005000D02*
X-94615000Y167005000D01*
X-94615000Y168529000D02*
X-95631000Y168529000D01*
X-93599000Y167005000D02*
X-92583000Y167005000D01*
X-92583000Y168529000D02*
X-93599000Y168529000D01*
X-92583000Y167005000D02*
X-92583000Y168529000D01*
X-92329000Y167005000D02*
G75*
G02*
X-92583000Y167005000I-127000J0D01*
G01*
X-92583000Y167005000D02*
G75*
G02*
X-92329000Y167005000I127000J0D01*
G01*
%TO.C,R2*%
X-99314000Y168529000D02*
X-99314000Y167005000D01*
X-99314000Y167005000D02*
X-98298000Y167005000D01*
X-98298000Y168529000D02*
X-99314000Y168529000D01*
X-97282000Y167005000D02*
X-96266000Y167005000D01*
X-96266000Y168529000D02*
X-97282000Y168529000D01*
X-96266000Y167005000D02*
X-96266000Y168529000D01*
X-99314000Y168529000D02*
G75*
G02*
X-99568000Y168529000I-127000J0D01*
G01*
X-99568000Y168529000D02*
G75*
G02*
X-99314000Y168529000I127000J0D01*
G01*
%TO.C,R4*%
X-91186000Y155829000D02*
X-91186000Y154813000D01*
X-91186000Y153797000D02*
X-91186000Y152781000D01*
X-91186000Y152781000D02*
X-89662000Y152781000D01*
X-89662000Y155829000D02*
X-91186000Y155829000D01*
X-89662000Y154813000D02*
X-89662000Y155829000D01*
X-89662000Y152781000D02*
X-89662000Y153797000D01*
X-91059000Y152654000D02*
G75*
G02*
X-91313000Y152654000I-127000J0D01*
G01*
X-91313000Y152654000D02*
G75*
G02*
X-91059000Y152654000I127000J0D01*
G01*
%TO.C,C2*%
X-92583000Y151638000D02*
X-92583000Y150622000D01*
X-92583000Y149606000D02*
X-92583000Y148590000D01*
X-92583000Y148590000D02*
X-91059000Y148590000D01*
X-91059000Y151638000D02*
X-92583000Y151638000D01*
X-91059000Y150622000D02*
X-91059000Y151638000D01*
X-91059000Y148590000D02*
X-91059000Y149606000D01*
X-90932000Y151765000D02*
G75*
G02*
X-91186000Y151765000I-127000J0D01*
G01*
X-91186000Y151765000D02*
G75*
G02*
X-90932000Y151765000I127000J0D01*
G01*
%TO.C,C1*%
X-95377000Y151638000D02*
X-95377000Y150622000D01*
X-95377000Y149606000D02*
X-95377000Y148590000D01*
X-95377000Y148590000D02*
X-93853000Y148590000D01*
X-93853000Y151638000D02*
X-95377000Y151638000D01*
X-93853000Y150622000D02*
X-93853000Y151638000D01*
X-93853000Y148590000D02*
X-93853000Y149606000D01*
X-93726000Y151765000D02*
G75*
G02*
X-93980000Y151765000I-127000J0D01*
G01*
X-93980000Y151765000D02*
G75*
G02*
X-93726000Y151765000I127000J0D01*
G01*
%TO.C,R5*%
X-99060000Y151003000D02*
X-99060000Y149479000D01*
X-99060000Y149479000D02*
X-98044000Y149479000D01*
X-98044000Y151003000D02*
X-99060000Y151003000D01*
X-97028000Y149479000D02*
X-96012000Y149479000D01*
X-96012000Y151003000D02*
X-97028000Y151003000D01*
X-96012000Y149479000D02*
X-96012000Y151003000D01*
X-95758000Y149479000D02*
G75*
G02*
X-96012000Y149479000I-127000J0D01*
G01*
X-96012000Y149479000D02*
G75*
G02*
X-95758000Y149479000I127000J0D01*
G01*
D15*
%TO.C,R6*%
X-101600000Y146431000D02*
X-101600000Y144907000D01*
X-101600000Y144907000D02*
X-100584000Y144907000D01*
X-100584000Y146431000D02*
X-101600000Y146431000D01*
X-99568000Y144907000D02*
X-98552000Y144907000D01*
X-98552000Y146431000D02*
X-99568000Y146431000D01*
X-98552000Y144907000D02*
X-98552000Y146431000D01*
X-98298000Y144907000D02*
G75*
G02*
X-98552000Y144907000I-127000J0D01*
G01*
X-98552000Y144907000D02*
G75*
G02*
X-98298000Y144907000I127000J0D01*
G01*
%TO.C,R7*%
X-96520000Y146431000D02*
X-96520000Y144907000D01*
X-96520000Y144907000D02*
X-95504000Y144907000D01*
X-95504000Y146431000D02*
X-96520000Y146431000D01*
X-94488000Y144907000D02*
X-93472000Y144907000D01*
X-93472000Y146431000D02*
X-94488000Y146431000D01*
X-93472000Y144907000D02*
X-93472000Y146431000D01*
X-96520000Y146431000D02*
G75*
G02*
X-96774000Y146431000I-127000J0D01*
G01*
X-96774000Y146431000D02*
G75*
G02*
X-96520000Y146431000I127000J0D01*
G01*
%TO.C,D1*%
X-92059760Y145318480D02*
X-91059000Y146319240D01*
X-91109800Y146319240D02*
X-90058240Y145318480D01*
X-90058240Y145318480D02*
X-92059760Y145318480D01*
X-90009980Y146319240D02*
X-92108020Y146319240D01*
%TD*%
D16*
%TO.C,J3*%
X-104648000Y159639000D03*
X-107188000Y154559000D03*
%TD*%
%TO.C,J2*%
X-100965000Y173482000D03*
%TD*%
M02*
