M48
; DRILL file {KiCad 9.0.1+1} date 2025-08-19T23:02:25+0000
; FORMAT={3:3/ absolute / metric / suppress leading zeros}
; #@! TF.CreationDate,2025-08-19T23:02:25+00:00
; #@! TF.GenerationSoftware,Kicad,Pcbnew,9.0.1+1
; #@! TF.FileFunction,Plated,1,2,PTH
FMAT,2
METRIC,TZ
; #@! TA.AperFunction,Plated,PTH,ViaDrill
T1C0.635
; #@! TA.AperFunction,Plated,PTH,ComponentDrill
T2C0.900
; #@! TA.AperFunction,Plated,PTH,ComponentDrill
T3C3.000
%
G90
G05
T1
X-88773Y153543
T2
X-107188Y164719
X-107188Y162179
X-107188Y159639
X-107188Y157099
X-107188Y154559
X-107188Y152019
X-107188Y149479
X-104648Y164719
X-104648Y162179
X-104648Y159639
X-104648Y157099
X-104648Y154559
X-104648Y152019
X-104648Y149479
X-100965Y173482
X-100965Y170942
X-98552Y143002
X-98552Y140462
X-98425Y173482
X-98425Y170942
X-96012Y143002
X-96012Y140462
X-95885Y173482
X-95885Y170942
X-94361Y164465
X-93345Y173482
X-93345Y170942
X-91821Y164465
X-90805Y173482
X-90805Y170942
X-86995Y161798
X-86995Y159258
X-86995Y156718
X-86995Y152400
X-86995Y149860
X-86995Y147320
X-84455Y161798
X-84455Y159258
X-84455Y156718
X-84455Y152400
X-84455Y149860
X-84455Y147320
T3
X-106045Y172085
X-106045Y141605
X-85725Y172085
X-85725Y141605
M30
