%TF.GenerationSoftware,KiCad,Pcbnew,9.0.6+1*%
%TF.CreationDate,2025-11-30T20:59:48+00:00*%
%TF.ProjectId,I2CSPI01,49324353-5049-4303-912e-6b696361645f,rev?*%
%TF.SameCoordinates,Original*%
%TF.FileFunction,Legend,Top*%
%TF.FilePolarity,Positive*%
%FSLAX46Y46*%
G04 Gerber Fmt 4.6, Leading zero omitted, Abs format (unit mm)*
G04 Created by KiCad (PCBNEW 9.0.6+1) date 2025-11-30 20:59:48*
%MOMM*%
%LPD*%
G01*
G04 APERTURE LIST*
%ADD10C,0.200000*%
%ADD11C,0.304800*%
%ADD12C,0.254000*%
%ADD13R,1.651000X1.651000*%
G04 APERTURE END LIST*
D10*
X-94361000Y165862000D02*
X-94361000Y167513000D01*
X-95885000Y169037000D02*
X-95885000Y169672000D01*
X-94361000Y167513000D02*
X-95885000Y169037000D01*
X-97039327Y150900019D02*
X-96991708Y150852400D01*
X-96991708Y150852400D02*
X-97039327Y150804780D01*
X-97039327Y150804780D02*
X-97086946Y150852400D01*
X-97086946Y150852400D02*
X-97039327Y150900019D01*
X-97039327Y150900019D02*
X-97039327Y150804780D01*
X-97039327Y151423828D02*
X-96991708Y151376209D01*
X-96991708Y151376209D02*
X-97039327Y151328590D01*
X-97039327Y151328590D02*
X-97086946Y151376209D01*
X-97086946Y151376209D02*
X-97039327Y151423828D01*
X-97039327Y151423828D02*
X-97039327Y151328590D01*
X-96372661Y151280971D02*
X-96372661Y150804780D01*
X-96705994Y151804780D02*
X-96372661Y151280971D01*
X-96372661Y151280971D02*
X-96039328Y151804780D01*
X-94753613Y151804780D02*
X-94658375Y151804780D01*
X-94658375Y151804780D02*
X-94563137Y151757161D01*
X-94563137Y151757161D02*
X-94515518Y151709542D01*
X-94515518Y151709542D02*
X-94467899Y151614304D01*
X-94467899Y151614304D02*
X-94420280Y151423828D01*
X-94420280Y151423828D02*
X-94420280Y151185733D01*
X-94420280Y151185733D02*
X-94467899Y150995257D01*
X-94467899Y150995257D02*
X-94515518Y150900019D01*
X-94515518Y150900019D02*
X-94563137Y150852400D01*
X-94563137Y150852400D02*
X-94658375Y150804780D01*
X-94658375Y150804780D02*
X-94753613Y150804780D01*
X-94753613Y150804780D02*
X-94848851Y150852400D01*
X-94848851Y150852400D02*
X-94896470Y150900019D01*
X-94896470Y150900019D02*
X-94944089Y150995257D01*
X-94944089Y150995257D02*
X-94991708Y151185733D01*
X-94991708Y151185733D02*
X-94991708Y151423828D01*
X-94991708Y151423828D02*
X-94944089Y151614304D01*
X-94944089Y151614304D02*
X-94896470Y151709542D01*
X-94896470Y151709542D02*
X-94848851Y151757161D01*
X-94848851Y151757161D02*
X-94753613Y151804780D01*
X-94086946Y151804780D02*
X-93420280Y150804780D01*
X-93420280Y151804780D02*
X-94086946Y150804780D01*
X-93086946Y151709542D02*
X-93039327Y151757161D01*
X-93039327Y151757161D02*
X-92944089Y151804780D01*
X-92944089Y151804780D02*
X-92705994Y151804780D01*
X-92705994Y151804780D02*
X-92610756Y151757161D01*
X-92610756Y151757161D02*
X-92563137Y151709542D01*
X-92563137Y151709542D02*
X-92515518Y151614304D01*
X-92515518Y151614304D02*
X-92515518Y151519066D01*
X-92515518Y151519066D02*
X-92563137Y151376209D01*
X-92563137Y151376209D02*
X-93134565Y150804780D01*
X-93134565Y150804780D02*
X-92515518Y150804780D01*
X-91515518Y150900019D02*
X-91563137Y150852400D01*
X-91563137Y150852400D02*
X-91705994Y150804780D01*
X-91705994Y150804780D02*
X-91801232Y150804780D01*
X-91801232Y150804780D02*
X-91944089Y150852400D01*
X-91944089Y150852400D02*
X-92039327Y150947638D01*
X-92039327Y150947638D02*
X-92086946Y151042876D01*
X-92086946Y151042876D02*
X-92134565Y151233352D01*
X-92134565Y151233352D02*
X-92134565Y151376209D01*
X-92134565Y151376209D02*
X-92086946Y151566685D01*
X-92086946Y151566685D02*
X-92039327Y151661923D01*
X-92039327Y151661923D02*
X-91944089Y151757161D01*
X-91944089Y151757161D02*
X-91801232Y151804780D01*
X-91801232Y151804780D02*
X-91705994Y151804780D01*
X-91705994Y151804780D02*
X-91563137Y151757161D01*
X-91563137Y151757161D02*
X-91515518Y151709542D01*
X-81716781Y146280619D02*
X-82716781Y146280619D01*
X-82716781Y146280619D02*
X-82716781Y146661571D01*
X-82716781Y146661571D02*
X-82669162Y146756809D01*
X-82669162Y146756809D02*
X-82621543Y146804428D01*
X-82621543Y146804428D02*
X-82526305Y146852047D01*
X-82526305Y146852047D02*
X-82383448Y146852047D01*
X-82383448Y146852047D02*
X-82288210Y146804428D01*
X-82288210Y146804428D02*
X-82240591Y146756809D01*
X-82240591Y146756809D02*
X-82192972Y146661571D01*
X-82192972Y146661571D02*
X-82192972Y146280619D01*
X-82716781Y147471095D02*
X-82716781Y147661571D01*
X-82716781Y147661571D02*
X-82669162Y147756809D01*
X-82669162Y147756809D02*
X-82573924Y147852047D01*
X-82573924Y147852047D02*
X-82383448Y147899666D01*
X-82383448Y147899666D02*
X-82050115Y147899666D01*
X-82050115Y147899666D02*
X-81859639Y147852047D01*
X-81859639Y147852047D02*
X-81764400Y147756809D01*
X-81764400Y147756809D02*
X-81716781Y147661571D01*
X-81716781Y147661571D02*
X-81716781Y147471095D01*
X-81716781Y147471095D02*
X-81764400Y147375857D01*
X-81764400Y147375857D02*
X-81859639Y147280619D01*
X-81859639Y147280619D02*
X-82050115Y147233000D01*
X-82050115Y147233000D02*
X-82383448Y147233000D01*
X-82383448Y147233000D02*
X-82573924Y147280619D01*
X-82573924Y147280619D02*
X-82669162Y147375857D01*
X-82669162Y147375857D02*
X-82716781Y147471095D01*
X-82716781Y148233000D02*
X-81716781Y148471095D01*
X-81716781Y148471095D02*
X-82431067Y148661571D01*
X-82431067Y148661571D02*
X-81716781Y148852047D01*
X-81716781Y148852047D02*
X-82716781Y149090143D01*
X-82240591Y149471095D02*
X-82240591Y149804428D01*
X-81716781Y149947285D02*
X-81716781Y149471095D01*
X-81716781Y149471095D02*
X-82716781Y149471095D01*
X-82716781Y149471095D02*
X-82716781Y149947285D01*
X-81716781Y150947285D02*
X-82192972Y150613952D01*
X-81716781Y150375857D02*
X-82716781Y150375857D01*
X-82716781Y150375857D02*
X-82716781Y150756809D01*
X-82716781Y150756809D02*
X-82669162Y150852047D01*
X-82669162Y150852047D02*
X-82621543Y150899666D01*
X-82621543Y150899666D02*
X-82526305Y150947285D01*
X-82526305Y150947285D02*
X-82383448Y150947285D01*
X-82383448Y150947285D02*
X-82288210Y150899666D01*
X-82288210Y150899666D02*
X-82240591Y150852047D01*
X-82240591Y150852047D02*
X-82192972Y150756809D01*
X-82192972Y150756809D02*
X-82192972Y150375857D01*
X-81716781Y152137762D02*
X-82716781Y152137762D01*
X-81716781Y152613952D02*
X-82716781Y152613952D01*
X-82716781Y152613952D02*
X-81716781Y153185380D01*
X-81716781Y153185380D02*
X-82716781Y153185380D01*
X-91832327Y158805780D02*
X-91832327Y159805780D01*
X-91832327Y159805780D02*
X-91498994Y159091495D01*
X-91498994Y159091495D02*
X-91165661Y159805780D01*
X-91165661Y159805780D02*
X-91165661Y158805780D01*
X-90689470Y158805780D02*
X-90689470Y159805780D01*
X-90260899Y158853400D02*
X-90118042Y158805780D01*
X-90118042Y158805780D02*
X-89879947Y158805780D01*
X-89879947Y158805780D02*
X-89784709Y158853400D01*
X-89784709Y158853400D02*
X-89737090Y158901019D01*
X-89737090Y158901019D02*
X-89689471Y158996257D01*
X-89689471Y158996257D02*
X-89689471Y159091495D01*
X-89689471Y159091495D02*
X-89737090Y159186733D01*
X-89737090Y159186733D02*
X-89784709Y159234352D01*
X-89784709Y159234352D02*
X-89879947Y159281971D01*
X-89879947Y159281971D02*
X-90070423Y159329590D01*
X-90070423Y159329590D02*
X-90165661Y159377209D01*
X-90165661Y159377209D02*
X-90213280Y159424828D01*
X-90213280Y159424828D02*
X-90260899Y159520066D01*
X-90260899Y159520066D02*
X-90260899Y159615304D01*
X-90260899Y159615304D02*
X-90213280Y159710542D01*
X-90213280Y159710542D02*
X-90165661Y159758161D01*
X-90165661Y159758161D02*
X-90070423Y159805780D01*
X-90070423Y159805780D02*
X-89832328Y159805780D01*
X-89832328Y159805780D02*
X-89689471Y159758161D01*
X-89070423Y159805780D02*
X-88879947Y159805780D01*
X-88879947Y159805780D02*
X-88784709Y159758161D01*
X-88784709Y159758161D02*
X-88689471Y159662923D01*
X-88689471Y159662923D02*
X-88641852Y159472447D01*
X-88641852Y159472447D02*
X-88641852Y159139114D01*
X-88641852Y159139114D02*
X-88689471Y158948638D01*
X-88689471Y158948638D02*
X-88784709Y158853400D01*
X-88784709Y158853400D02*
X-88879947Y158805780D01*
X-88879947Y158805780D02*
X-89070423Y158805780D01*
X-89070423Y158805780D02*
X-89165661Y158853400D01*
X-89165661Y158853400D02*
X-89260899Y158948638D01*
X-89260899Y158948638D02*
X-89308518Y159139114D01*
X-89308518Y159139114D02*
X-89308518Y159472447D01*
X-89308518Y159472447D02*
X-89260899Y159662923D01*
X-89260899Y159662923D02*
X-89165661Y159758161D01*
X-89165661Y159758161D02*
X-89070423Y159805780D01*
X-91305162Y167136482D02*
X-91352781Y167041244D01*
X-91352781Y167041244D02*
X-91352781Y166898387D01*
X-91352781Y166898387D02*
X-91305162Y166755530D01*
X-91305162Y166755530D02*
X-91209924Y166660292D01*
X-91209924Y166660292D02*
X-91114686Y166612673D01*
X-91114686Y166612673D02*
X-90924210Y166565054D01*
X-90924210Y166565054D02*
X-90781353Y166565054D01*
X-90781353Y166565054D02*
X-90590877Y166612673D01*
X-90590877Y166612673D02*
X-90495639Y166660292D01*
X-90495639Y166660292D02*
X-90400400Y166755530D01*
X-90400400Y166755530D02*
X-90352781Y166898387D01*
X-90352781Y166898387D02*
X-90352781Y166993625D01*
X-90352781Y166993625D02*
X-90400400Y167136482D01*
X-90400400Y167136482D02*
X-90448020Y167184101D01*
X-90448020Y167184101D02*
X-90781353Y167184101D01*
X-90781353Y167184101D02*
X-90781353Y166993625D01*
X-90352781Y167612673D02*
X-91352781Y167612673D01*
X-91352781Y167612673D02*
X-90352781Y168184101D01*
X-90352781Y168184101D02*
X-91352781Y168184101D01*
X-90352781Y168660292D02*
X-91352781Y168660292D01*
X-91352781Y168660292D02*
X-91352781Y168898387D01*
X-91352781Y168898387D02*
X-91305162Y169041244D01*
X-91305162Y169041244D02*
X-91209924Y169136482D01*
X-91209924Y169136482D02*
X-91114686Y169184101D01*
X-91114686Y169184101D02*
X-90924210Y169231720D01*
X-90924210Y169231720D02*
X-90781353Y169231720D01*
X-90781353Y169231720D02*
X-90590877Y169184101D01*
X-90590877Y169184101D02*
X-90495639Y169136482D01*
X-90495639Y169136482D02*
X-90400400Y169041244D01*
X-90400400Y169041244D02*
X-90352781Y168898387D01*
X-90352781Y168898387D02*
X-90352781Y168660292D01*
X-98020400Y166565054D02*
X-97972781Y166707911D01*
X-97972781Y166707911D02*
X-97972781Y166946006D01*
X-97972781Y166946006D02*
X-98020400Y167041244D01*
X-98020400Y167041244D02*
X-98068020Y167088863D01*
X-98068020Y167088863D02*
X-98163258Y167136482D01*
X-98163258Y167136482D02*
X-98258496Y167136482D01*
X-98258496Y167136482D02*
X-98353734Y167088863D01*
X-98353734Y167088863D02*
X-98401353Y167041244D01*
X-98401353Y167041244D02*
X-98448972Y166946006D01*
X-98448972Y166946006D02*
X-98496591Y166755530D01*
X-98496591Y166755530D02*
X-98544210Y166660292D01*
X-98544210Y166660292D02*
X-98591829Y166612673D01*
X-98591829Y166612673D02*
X-98687067Y166565054D01*
X-98687067Y166565054D02*
X-98782305Y166565054D01*
X-98782305Y166565054D02*
X-98877543Y166612673D01*
X-98877543Y166612673D02*
X-98925162Y166660292D01*
X-98925162Y166660292D02*
X-98972781Y166755530D01*
X-98972781Y166755530D02*
X-98972781Y166993625D01*
X-98972781Y166993625D02*
X-98925162Y167136482D01*
X-97972781Y167565054D02*
X-98972781Y167565054D01*
X-98972781Y167565054D02*
X-98972781Y167803149D01*
X-98972781Y167803149D02*
X-98925162Y167946006D01*
X-98925162Y167946006D02*
X-98829924Y168041244D01*
X-98829924Y168041244D02*
X-98734686Y168088863D01*
X-98734686Y168088863D02*
X-98544210Y168136482D01*
X-98544210Y168136482D02*
X-98401353Y168136482D01*
X-98401353Y168136482D02*
X-98210877Y168088863D01*
X-98210877Y168088863D02*
X-98115639Y168041244D01*
X-98115639Y168041244D02*
X-98020400Y167946006D01*
X-98020400Y167946006D02*
X-97972781Y167803149D01*
X-97972781Y167803149D02*
X-97972781Y167565054D01*
X-98258496Y168517435D02*
X-98258496Y168993625D01*
X-97972781Y168422197D02*
X-98972781Y168755530D01*
X-98972781Y168755530D02*
X-97972781Y169088863D01*
X-90098781Y138033572D02*
X-91098781Y138033572D01*
X-91003543Y138462143D02*
X-91051162Y138509762D01*
X-91051162Y138509762D02*
X-91098781Y138605000D01*
X-91098781Y138605000D02*
X-91098781Y138843095D01*
X-91098781Y138843095D02*
X-91051162Y138938333D01*
X-91051162Y138938333D02*
X-91003543Y138985952D01*
X-91003543Y138985952D02*
X-90908305Y139033571D01*
X-90908305Y139033571D02*
X-90813067Y139033571D01*
X-90813067Y139033571D02*
X-90670210Y138985952D01*
X-90670210Y138985952D02*
X-90098781Y138414524D01*
X-90098781Y138414524D02*
X-90098781Y139033571D01*
X-90194020Y140033571D02*
X-90146400Y139985952D01*
X-90146400Y139985952D02*
X-90098781Y139843095D01*
X-90098781Y139843095D02*
X-90098781Y139747857D01*
X-90098781Y139747857D02*
X-90146400Y139605000D01*
X-90146400Y139605000D02*
X-90241639Y139509762D01*
X-90241639Y139509762D02*
X-90336877Y139462143D01*
X-90336877Y139462143D02*
X-90527353Y139414524D01*
X-90527353Y139414524D02*
X-90670210Y139414524D01*
X-90670210Y139414524D02*
X-90860686Y139462143D01*
X-90860686Y139462143D02*
X-90955924Y139509762D01*
X-90955924Y139509762D02*
X-91051162Y139605000D01*
X-91051162Y139605000D02*
X-91098781Y139747857D01*
X-91098781Y139747857D02*
X-91098781Y139843095D01*
X-91098781Y139843095D02*
X-91051162Y139985952D01*
X-91051162Y139985952D02*
X-91003543Y140033571D01*
X-90146400Y140414524D02*
X-90098781Y140557381D01*
X-90098781Y140557381D02*
X-90098781Y140795476D01*
X-90098781Y140795476D02*
X-90146400Y140890714D01*
X-90146400Y140890714D02*
X-90194020Y140938333D01*
X-90194020Y140938333D02*
X-90289258Y140985952D01*
X-90289258Y140985952D02*
X-90384496Y140985952D01*
X-90384496Y140985952D02*
X-90479734Y140938333D01*
X-90479734Y140938333D02*
X-90527353Y140890714D01*
X-90527353Y140890714D02*
X-90574972Y140795476D01*
X-90574972Y140795476D02*
X-90622591Y140605000D01*
X-90622591Y140605000D02*
X-90670210Y140509762D01*
X-90670210Y140509762D02*
X-90717829Y140462143D01*
X-90717829Y140462143D02*
X-90813067Y140414524D01*
X-90813067Y140414524D02*
X-90908305Y140414524D01*
X-90908305Y140414524D02*
X-91003543Y140462143D01*
X-91003543Y140462143D02*
X-91051162Y140509762D01*
X-91051162Y140509762D02*
X-91098781Y140605000D01*
X-91098781Y140605000D02*
X-91098781Y140843095D01*
X-91098781Y140843095D02*
X-91051162Y140985952D01*
X-90098781Y141414524D02*
X-91098781Y141414524D01*
X-91098781Y141414524D02*
X-91098781Y141795476D01*
X-91098781Y141795476D02*
X-91051162Y141890714D01*
X-91051162Y141890714D02*
X-91003543Y141938333D01*
X-91003543Y141938333D02*
X-90908305Y141985952D01*
X-90908305Y141985952D02*
X-90765448Y141985952D01*
X-90765448Y141985952D02*
X-90670210Y141938333D01*
X-90670210Y141938333D02*
X-90622591Y141890714D01*
X-90622591Y141890714D02*
X-90574972Y141795476D01*
X-90574972Y141795476D02*
X-90574972Y141414524D01*
X-90098781Y142414524D02*
X-91098781Y142414524D01*
X-91098781Y143081190D02*
X-91098781Y143176428D01*
X-91098781Y143176428D02*
X-91051162Y143271666D01*
X-91051162Y143271666D02*
X-91003543Y143319285D01*
X-91003543Y143319285D02*
X-90908305Y143366904D01*
X-90908305Y143366904D02*
X-90717829Y143414523D01*
X-90717829Y143414523D02*
X-90479734Y143414523D01*
X-90479734Y143414523D02*
X-90289258Y143366904D01*
X-90289258Y143366904D02*
X-90194020Y143319285D01*
X-90194020Y143319285D02*
X-90146400Y143271666D01*
X-90146400Y143271666D02*
X-90098781Y143176428D01*
X-90098781Y143176428D02*
X-90098781Y143081190D01*
X-90098781Y143081190D02*
X-90146400Y142985952D01*
X-90146400Y142985952D02*
X-90194020Y142938333D01*
X-90194020Y142938333D02*
X-90289258Y142890714D01*
X-90289258Y142890714D02*
X-90479734Y142843095D01*
X-90479734Y142843095D02*
X-90717829Y142843095D01*
X-90717829Y142843095D02*
X-90908305Y142890714D01*
X-90908305Y142890714D02*
X-91003543Y142938333D01*
X-91003543Y142938333D02*
X-91051162Y142985952D01*
X-91051162Y142985952D02*
X-91098781Y143081190D01*
X-90098781Y144366904D02*
X-90098781Y143795476D01*
X-90098781Y144081190D02*
X-91098781Y144081190D01*
X-91098781Y144081190D02*
X-90955924Y143985952D01*
X-90955924Y143985952D02*
X-90860686Y143890714D01*
X-90860686Y143890714D02*
X-90813067Y143795476D01*
X-90384496Y144747857D02*
X-90384496Y145224047D01*
X-90098781Y144652619D02*
X-91098781Y144985952D01*
X-91098781Y144985952D02*
X-90098781Y145319285D01*
X-102103518Y165219161D02*
X-102198756Y165266780D01*
X-102198756Y165266780D02*
X-102341613Y165266780D01*
X-102341613Y165266780D02*
X-102484470Y165219161D01*
X-102484470Y165219161D02*
X-102579708Y165123923D01*
X-102579708Y165123923D02*
X-102627327Y165028685D01*
X-102627327Y165028685D02*
X-102674946Y164838209D01*
X-102674946Y164838209D02*
X-102674946Y164695352D01*
X-102674946Y164695352D02*
X-102627327Y164504876D01*
X-102627327Y164504876D02*
X-102579708Y164409638D01*
X-102579708Y164409638D02*
X-102484470Y164314400D01*
X-102484470Y164314400D02*
X-102341613Y164266780D01*
X-102341613Y164266780D02*
X-102246375Y164266780D01*
X-102246375Y164266780D02*
X-102103518Y164314400D01*
X-102103518Y164314400D02*
X-102055899Y164362019D01*
X-102055899Y164362019D02*
X-102055899Y164695352D01*
X-102055899Y164695352D02*
X-102246375Y164695352D01*
X-101627327Y164266780D02*
X-101627327Y165266780D01*
X-101627327Y165266780D02*
X-101055899Y164266780D01*
X-101055899Y164266780D02*
X-101055899Y165266780D01*
X-100579708Y164266780D02*
X-100579708Y165266780D01*
X-100579708Y165266780D02*
X-100341613Y165266780D01*
X-100341613Y165266780D02*
X-100198756Y165219161D01*
X-100198756Y165219161D02*
X-100103518Y165123923D01*
X-100103518Y165123923D02*
X-100055899Y165028685D01*
X-100055899Y165028685D02*
X-100008280Y164838209D01*
X-100008280Y164838209D02*
X-100008280Y164695352D01*
X-100008280Y164695352D02*
X-100055899Y164504876D01*
X-100055899Y164504876D02*
X-100103518Y164409638D01*
X-100103518Y164409638D02*
X-100198756Y164314400D01*
X-100198756Y164314400D02*
X-100341613Y164266780D01*
X-100341613Y164266780D02*
X-100579708Y164266780D01*
X-85656946Y165806542D02*
X-85609327Y165854161D01*
X-85609327Y165854161D02*
X-85514089Y165901780D01*
X-85514089Y165901780D02*
X-85275994Y165901780D01*
X-85275994Y165901780D02*
X-85180756Y165854161D01*
X-85180756Y165854161D02*
X-85133137Y165806542D01*
X-85133137Y165806542D02*
X-85085518Y165711304D01*
X-85085518Y165711304D02*
X-85085518Y165616066D01*
X-85085518Y165616066D02*
X-85133137Y165473209D01*
X-85133137Y165473209D02*
X-85704565Y164901780D01*
X-85704565Y164901780D02*
X-85085518Y164901780D01*
X-84466470Y165901780D02*
X-84371232Y165901780D01*
X-84371232Y165901780D02*
X-84275994Y165854161D01*
X-84275994Y165854161D02*
X-84228375Y165806542D01*
X-84228375Y165806542D02*
X-84180756Y165711304D01*
X-84180756Y165711304D02*
X-84133137Y165520828D01*
X-84133137Y165520828D02*
X-84133137Y165282733D01*
X-84133137Y165282733D02*
X-84180756Y165092257D01*
X-84180756Y165092257D02*
X-84228375Y164997019D01*
X-84228375Y164997019D02*
X-84275994Y164949400D01*
X-84275994Y164949400D02*
X-84371232Y164901780D01*
X-84371232Y164901780D02*
X-84466470Y164901780D01*
X-84466470Y164901780D02*
X-84561708Y164949400D01*
X-84561708Y164949400D02*
X-84609327Y164997019D01*
X-84609327Y164997019D02*
X-84656946Y165092257D01*
X-84656946Y165092257D02*
X-84704565Y165282733D01*
X-84704565Y165282733D02*
X-84704565Y165520828D01*
X-84704565Y165520828D02*
X-84656946Y165711304D01*
X-84656946Y165711304D02*
X-84609327Y165806542D01*
X-84609327Y165806542D02*
X-84561708Y165854161D01*
X-84561708Y165854161D02*
X-84466470Y165901780D01*
X-83180756Y164901780D02*
X-83752184Y164901780D01*
X-83466470Y164901780D02*
X-83466470Y165901780D01*
X-83466470Y165901780D02*
X-83561708Y165758923D01*
X-83561708Y165758923D02*
X-83656946Y165663685D01*
X-83656946Y165663685D02*
X-83752184Y165616066D01*
X-82275994Y165901780D02*
X-82752184Y165901780D01*
X-82752184Y165901780D02*
X-82799803Y165425590D01*
X-82799803Y165425590D02*
X-82752184Y165473209D01*
X-82752184Y165473209D02*
X-82656946Y165520828D01*
X-82656946Y165520828D02*
X-82418851Y165520828D01*
X-82418851Y165520828D02*
X-82323613Y165473209D01*
X-82323613Y165473209D02*
X-82275994Y165425590D01*
X-82275994Y165425590D02*
X-82228375Y165330352D01*
X-82228375Y165330352D02*
X-82228375Y165092257D01*
X-82228375Y165092257D02*
X-82275994Y164997019D01*
X-82275994Y164997019D02*
X-82323613Y164949400D01*
X-82323613Y164949400D02*
X-82418851Y164901780D01*
X-82418851Y164901780D02*
X-82656946Y164901780D01*
X-82656946Y164901780D02*
X-82752184Y164949400D01*
X-82752184Y164949400D02*
X-82799803Y164997019D01*
X-96658327Y175061780D02*
X-96658327Y176061780D01*
X-96229756Y175966542D02*
X-96182137Y176014161D01*
X-96182137Y176014161D02*
X-96086899Y176061780D01*
X-96086899Y176061780D02*
X-95848804Y176061780D01*
X-95848804Y176061780D02*
X-95753566Y176014161D01*
X-95753566Y176014161D02*
X-95705947Y175966542D01*
X-95705947Y175966542D02*
X-95658328Y175871304D01*
X-95658328Y175871304D02*
X-95658328Y175776066D01*
X-95658328Y175776066D02*
X-95705947Y175633209D01*
X-95705947Y175633209D02*
X-96277375Y175061780D01*
X-96277375Y175061780D02*
X-95658328Y175061780D01*
X-94658328Y175157019D02*
X-94705947Y175109400D01*
X-94705947Y175109400D02*
X-94848804Y175061780D01*
X-94848804Y175061780D02*
X-94944042Y175061780D01*
X-94944042Y175061780D02*
X-95086899Y175109400D01*
X-95086899Y175109400D02*
X-95182137Y175204638D01*
X-95182137Y175204638D02*
X-95229756Y175299876D01*
X-95229756Y175299876D02*
X-95277375Y175490352D01*
X-95277375Y175490352D02*
X-95277375Y175633209D01*
X-95277375Y175633209D02*
X-95229756Y175823685D01*
X-95229756Y175823685D02*
X-95182137Y175918923D01*
X-95182137Y175918923D02*
X-95086899Y176014161D01*
X-95086899Y176014161D02*
X-94944042Y176061780D01*
X-94944042Y176061780D02*
X-94848804Y176061780D01*
X-94848804Y176061780D02*
X-94705947Y176014161D01*
X-94705947Y176014161D02*
X-94658328Y175966542D01*
X-102547946Y157313447D02*
X-101833661Y157313447D01*
X-102262232Y157742019D02*
X-102547946Y156456304D01*
X-101928899Y156884876D02*
X-102643184Y156884876D01*
X-102214613Y156456304D02*
X-101928899Y157742019D01*
X-101547946Y156694400D02*
X-101405089Y156646780D01*
X-101405089Y156646780D02*
X-101166994Y156646780D01*
X-101166994Y156646780D02*
X-101071756Y156694400D01*
X-101071756Y156694400D02*
X-101024137Y156742019D01*
X-101024137Y156742019D02*
X-100976518Y156837257D01*
X-100976518Y156837257D02*
X-100976518Y156932495D01*
X-100976518Y156932495D02*
X-101024137Y157027733D01*
X-101024137Y157027733D02*
X-101071756Y157075352D01*
X-101071756Y157075352D02*
X-101166994Y157122971D01*
X-101166994Y157122971D02*
X-101357470Y157170590D01*
X-101357470Y157170590D02*
X-101452708Y157218209D01*
X-101452708Y157218209D02*
X-101500327Y157265828D01*
X-101500327Y157265828D02*
X-101547946Y157361066D01*
X-101547946Y157361066D02*
X-101547946Y157456304D01*
X-101547946Y157456304D02*
X-101500327Y157551542D01*
X-101500327Y157551542D02*
X-101452708Y157599161D01*
X-101452708Y157599161D02*
X-101357470Y157646780D01*
X-101357470Y157646780D02*
X-101119375Y157646780D01*
X-101119375Y157646780D02*
X-100976518Y157599161D01*
X-100595565Y156694400D02*
X-100452708Y156646780D01*
X-100452708Y156646780D02*
X-100214613Y156646780D01*
X-100214613Y156646780D02*
X-100119375Y156694400D01*
X-100119375Y156694400D02*
X-100071756Y156742019D01*
X-100071756Y156742019D02*
X-100024137Y156837257D01*
X-100024137Y156837257D02*
X-100024137Y156932495D01*
X-100024137Y156932495D02*
X-100071756Y157027733D01*
X-100071756Y157027733D02*
X-100119375Y157075352D01*
X-100119375Y157075352D02*
X-100214613Y157122971D01*
X-100214613Y157122971D02*
X-100405089Y157170590D01*
X-100405089Y157170590D02*
X-100500327Y157218209D01*
X-100500327Y157218209D02*
X-100547946Y157265828D01*
X-100547946Y157265828D02*
X-100595565Y157361066D01*
X-100595565Y157361066D02*
X-100595565Y157456304D01*
X-100595565Y157456304D02*
X-100547946Y157551542D01*
X-100547946Y157551542D02*
X-100500327Y157599161D01*
X-100500327Y157599161D02*
X-100405089Y157646780D01*
X-100405089Y157646780D02*
X-100166994Y157646780D01*
X-100166994Y157646780D02*
X-100024137Y157599161D01*
X-99405089Y157646780D02*
X-99309851Y157646780D01*
X-99309851Y157646780D02*
X-99214613Y157599161D01*
X-99214613Y157599161D02*
X-99166994Y157551542D01*
X-99166994Y157551542D02*
X-99119375Y157456304D01*
X-99119375Y157456304D02*
X-99071756Y157265828D01*
X-99071756Y157265828D02*
X-99071756Y157027733D01*
X-99071756Y157027733D02*
X-99119375Y156837257D01*
X-99119375Y156837257D02*
X-99166994Y156742019D01*
X-99166994Y156742019D02*
X-99214613Y156694400D01*
X-99214613Y156694400D02*
X-99309851Y156646780D01*
X-99309851Y156646780D02*
X-99405089Y156646780D01*
X-99405089Y156646780D02*
X-99500327Y156694400D01*
X-99500327Y156694400D02*
X-99547946Y156742019D01*
X-99547946Y156742019D02*
X-99595565Y156837257D01*
X-99595565Y156837257D02*
X-99643184Y157027733D01*
X-99643184Y157027733D02*
X-99643184Y157265828D01*
X-99643184Y157265828D02*
X-99595565Y157456304D01*
X-99595565Y157456304D02*
X-99547946Y157551542D01*
X-99547946Y157551542D02*
X-99500327Y157599161D01*
X-99500327Y157599161D02*
X-99405089Y157646780D01*
X-89689184Y165012780D02*
X-89355851Y164012780D01*
X-89355851Y164012780D02*
X-89022518Y165012780D01*
X-88689184Y164012780D02*
X-88689184Y165012780D01*
X-88689184Y165012780D02*
X-88451089Y165012780D01*
X-88451089Y165012780D02*
X-88308232Y164965161D01*
X-88308232Y164965161D02*
X-88212994Y164869923D01*
X-88212994Y164869923D02*
X-88165375Y164774685D01*
X-88165375Y164774685D02*
X-88117756Y164584209D01*
X-88117756Y164584209D02*
X-88117756Y164441352D01*
X-88117756Y164441352D02*
X-88165375Y164250876D01*
X-88165375Y164250876D02*
X-88212994Y164155638D01*
X-88212994Y164155638D02*
X-88308232Y164060400D01*
X-88308232Y164060400D02*
X-88451089Y164012780D01*
X-88451089Y164012780D02*
X-88689184Y164012780D01*
X-87689184Y164012780D02*
X-87689184Y165012780D01*
X-87689184Y165012780D02*
X-87451089Y165012780D01*
X-87451089Y165012780D02*
X-87308232Y164965161D01*
X-87308232Y164965161D02*
X-87212994Y164869923D01*
X-87212994Y164869923D02*
X-87165375Y164774685D01*
X-87165375Y164774685D02*
X-87117756Y164584209D01*
X-87117756Y164584209D02*
X-87117756Y164441352D01*
X-87117756Y164441352D02*
X-87165375Y164250876D01*
X-87165375Y164250876D02*
X-87212994Y164155638D01*
X-87212994Y164155638D02*
X-87308232Y164060400D01*
X-87308232Y164060400D02*
X-87451089Y164012780D01*
X-87451089Y164012780D02*
X-87689184Y164012780D01*
X-101465162Y167136482D02*
X-101512781Y167041244D01*
X-101512781Y167041244D02*
X-101512781Y166898387D01*
X-101512781Y166898387D02*
X-101465162Y166755530D01*
X-101465162Y166755530D02*
X-101369924Y166660292D01*
X-101369924Y166660292D02*
X-101274686Y166612673D01*
X-101274686Y166612673D02*
X-101084210Y166565054D01*
X-101084210Y166565054D02*
X-100941353Y166565054D01*
X-100941353Y166565054D02*
X-100750877Y166612673D01*
X-100750877Y166612673D02*
X-100655639Y166660292D01*
X-100655639Y166660292D02*
X-100560400Y166755530D01*
X-100560400Y166755530D02*
X-100512781Y166898387D01*
X-100512781Y166898387D02*
X-100512781Y166993625D01*
X-100512781Y166993625D02*
X-100560400Y167136482D01*
X-100560400Y167136482D02*
X-100608020Y167184101D01*
X-100608020Y167184101D02*
X-100941353Y167184101D01*
X-100941353Y167184101D02*
X-100941353Y166993625D01*
X-100512781Y167612673D02*
X-101512781Y167612673D01*
X-101512781Y167612673D02*
X-100512781Y168184101D01*
X-100512781Y168184101D02*
X-101512781Y168184101D01*
X-100512781Y168660292D02*
X-101512781Y168660292D01*
X-101512781Y168660292D02*
X-101512781Y168898387D01*
X-101512781Y168898387D02*
X-101465162Y169041244D01*
X-101465162Y169041244D02*
X-101369924Y169136482D01*
X-101369924Y169136482D02*
X-101274686Y169184101D01*
X-101274686Y169184101D02*
X-101084210Y169231720D01*
X-101084210Y169231720D02*
X-100941353Y169231720D01*
X-100941353Y169231720D02*
X-100750877Y169184101D01*
X-100750877Y169184101D02*
X-100655639Y169136482D01*
X-100655639Y169136482D02*
X-100560400Y169041244D01*
X-100560400Y169041244D02*
X-100512781Y168898387D01*
X-100512781Y168898387D02*
X-100512781Y168660292D01*
X-98706184Y165012780D02*
X-98372851Y164012780D01*
X-98372851Y164012780D02*
X-98039518Y165012780D01*
X-97134756Y164108019D02*
X-97182375Y164060400D01*
X-97182375Y164060400D02*
X-97325232Y164012780D01*
X-97325232Y164012780D02*
X-97420470Y164012780D01*
X-97420470Y164012780D02*
X-97563327Y164060400D01*
X-97563327Y164060400D02*
X-97658565Y164155638D01*
X-97658565Y164155638D02*
X-97706184Y164250876D01*
X-97706184Y164250876D02*
X-97753803Y164441352D01*
X-97753803Y164441352D02*
X-97753803Y164584209D01*
X-97753803Y164584209D02*
X-97706184Y164774685D01*
X-97706184Y164774685D02*
X-97658565Y164869923D01*
X-97658565Y164869923D02*
X-97563327Y164965161D01*
X-97563327Y164965161D02*
X-97420470Y165012780D01*
X-97420470Y165012780D02*
X-97325232Y165012780D01*
X-97325232Y165012780D02*
X-97182375Y164965161D01*
X-97182375Y164965161D02*
X-97134756Y164917542D01*
X-96134756Y164108019D02*
X-96182375Y164060400D01*
X-96182375Y164060400D02*
X-96325232Y164012780D01*
X-96325232Y164012780D02*
X-96420470Y164012780D01*
X-96420470Y164012780D02*
X-96563327Y164060400D01*
X-96563327Y164060400D02*
X-96658565Y164155638D01*
X-96658565Y164155638D02*
X-96706184Y164250876D01*
X-96706184Y164250876D02*
X-96753803Y164441352D01*
X-96753803Y164441352D02*
X-96753803Y164584209D01*
X-96753803Y164584209D02*
X-96706184Y164774685D01*
X-96706184Y164774685D02*
X-96658565Y164869923D01*
X-96658565Y164869923D02*
X-96563327Y164965161D01*
X-96563327Y164965161D02*
X-96420470Y165012780D01*
X-96420470Y165012780D02*
X-96325232Y165012780D01*
X-96325232Y165012780D02*
X-96182375Y164965161D01*
X-96182375Y164965161D02*
X-96134756Y164917542D01*
X-102547946Y162393447D02*
X-101833661Y162393447D01*
X-102262232Y162822019D02*
X-102547946Y161536304D01*
X-101928899Y161964876D02*
X-102643184Y161964876D01*
X-102214613Y161536304D02*
X-101928899Y162822019D01*
X-100928899Y161726780D02*
X-101262232Y162202971D01*
X-101500327Y161726780D02*
X-101500327Y162726780D01*
X-101500327Y162726780D02*
X-101119375Y162726780D01*
X-101119375Y162726780D02*
X-101024137Y162679161D01*
X-101024137Y162679161D02*
X-100976518Y162631542D01*
X-100976518Y162631542D02*
X-100928899Y162536304D01*
X-100928899Y162536304D02*
X-100928899Y162393447D01*
X-100928899Y162393447D02*
X-100976518Y162298209D01*
X-100976518Y162298209D02*
X-101024137Y162250590D01*
X-101024137Y162250590D02*
X-101119375Y162202971D01*
X-101119375Y162202971D02*
X-101500327Y162202971D01*
X-100500327Y162250590D02*
X-100166994Y162250590D01*
X-100024137Y161726780D02*
X-100500327Y161726780D01*
X-100500327Y161726780D02*
X-100500327Y162726780D01*
X-100500327Y162726780D02*
X-100024137Y162726780D01*
X-99643184Y161774400D02*
X-99500327Y161726780D01*
X-99500327Y161726780D02*
X-99262232Y161726780D01*
X-99262232Y161726780D02*
X-99166994Y161774400D01*
X-99166994Y161774400D02*
X-99119375Y161822019D01*
X-99119375Y161822019D02*
X-99071756Y161917257D01*
X-99071756Y161917257D02*
X-99071756Y162012495D01*
X-99071756Y162012495D02*
X-99119375Y162107733D01*
X-99119375Y162107733D02*
X-99166994Y162155352D01*
X-99166994Y162155352D02*
X-99262232Y162202971D01*
X-99262232Y162202971D02*
X-99452708Y162250590D01*
X-99452708Y162250590D02*
X-99547946Y162298209D01*
X-99547946Y162298209D02*
X-99595565Y162345828D01*
X-99595565Y162345828D02*
X-99643184Y162441066D01*
X-99643184Y162441066D02*
X-99643184Y162536304D01*
X-99643184Y162536304D02*
X-99595565Y162631542D01*
X-99595565Y162631542D02*
X-99547946Y162679161D01*
X-99547946Y162679161D02*
X-99452708Y162726780D01*
X-99452708Y162726780D02*
X-99214613Y162726780D01*
X-99214613Y162726780D02*
X-99071756Y162679161D01*
X-85831613Y167552780D02*
X-85831613Y166838495D01*
X-85831613Y166838495D02*
X-85879232Y166695638D01*
X-85879232Y166695638D02*
X-85974470Y166600400D01*
X-85974470Y166600400D02*
X-86117327Y166552780D01*
X-86117327Y166552780D02*
X-86212565Y166552780D01*
X-85403041Y166838495D02*
X-84926851Y166838495D01*
X-85498279Y166552780D02*
X-85164946Y167552780D01*
X-85164946Y167552780D02*
X-84831613Y166552780D01*
X-83926851Y166648019D02*
X-83974470Y166600400D01*
X-83974470Y166600400D02*
X-84117327Y166552780D01*
X-84117327Y166552780D02*
X-84212565Y166552780D01*
X-84212565Y166552780D02*
X-84355422Y166600400D01*
X-84355422Y166600400D02*
X-84450660Y166695638D01*
X-84450660Y166695638D02*
X-84498279Y166790876D01*
X-84498279Y166790876D02*
X-84545898Y166981352D01*
X-84545898Y166981352D02*
X-84545898Y167124209D01*
X-84545898Y167124209D02*
X-84498279Y167314685D01*
X-84498279Y167314685D02*
X-84450660Y167409923D01*
X-84450660Y167409923D02*
X-84355422Y167505161D01*
X-84355422Y167505161D02*
X-84212565Y167552780D01*
X-84212565Y167552780D02*
X-84117327Y167552780D01*
X-84117327Y167552780D02*
X-83974470Y167505161D01*
X-83974470Y167505161D02*
X-83926851Y167457542D01*
X-83498279Y166552780D02*
X-83498279Y167552780D01*
X-83498279Y167076590D02*
X-82926851Y167076590D01*
X-82926851Y166552780D02*
X-82926851Y167552780D01*
X-82260184Y167552780D02*
X-82069708Y167552780D01*
X-82069708Y167552780D02*
X-81974470Y167505161D01*
X-81974470Y167505161D02*
X-81879232Y167409923D01*
X-81879232Y167409923D02*
X-81831613Y167219447D01*
X-81831613Y167219447D02*
X-81831613Y166886114D01*
X-81831613Y166886114D02*
X-81879232Y166695638D01*
X-81879232Y166695638D02*
X-81974470Y166600400D01*
X-81974470Y166600400D02*
X-82069708Y166552780D01*
X-82069708Y166552780D02*
X-82260184Y166552780D01*
X-82260184Y166552780D02*
X-82355422Y166600400D01*
X-82355422Y166600400D02*
X-82450660Y166695638D01*
X-82450660Y166695638D02*
X-82498279Y166886114D01*
X-82498279Y166886114D02*
X-82498279Y167219447D01*
X-82498279Y167219447D02*
X-82450660Y167409923D01*
X-82450660Y167409923D02*
X-82355422Y167505161D01*
X-82355422Y167505161D02*
X-82260184Y167552780D01*
X-97594946Y154392495D02*
X-97118756Y154392495D01*
X-97690184Y154106780D02*
X-97356851Y155106780D01*
X-97356851Y155106780D02*
X-97023518Y154106780D01*
X-96690184Y154106780D02*
X-96690184Y155106780D01*
X-96690184Y155106780D02*
X-96452089Y155106780D01*
X-96452089Y155106780D02*
X-96309232Y155059161D01*
X-96309232Y155059161D02*
X-96213994Y154963923D01*
X-96213994Y154963923D02*
X-96166375Y154868685D01*
X-96166375Y154868685D02*
X-96118756Y154678209D01*
X-96118756Y154678209D02*
X-96118756Y154535352D01*
X-96118756Y154535352D02*
X-96166375Y154344876D01*
X-96166375Y154344876D02*
X-96213994Y154249638D01*
X-96213994Y154249638D02*
X-96309232Y154154400D01*
X-96309232Y154154400D02*
X-96452089Y154106780D01*
X-96452089Y154106780D02*
X-96690184Y154106780D01*
X-95690184Y154106780D02*
X-95690184Y155106780D01*
X-95690184Y155106780D02*
X-95452089Y155106780D01*
X-95452089Y155106780D02*
X-95309232Y155059161D01*
X-95309232Y155059161D02*
X-95213994Y154963923D01*
X-95213994Y154963923D02*
X-95166375Y154868685D01*
X-95166375Y154868685D02*
X-95118756Y154678209D01*
X-95118756Y154678209D02*
X-95118756Y154535352D01*
X-95118756Y154535352D02*
X-95166375Y154344876D01*
X-95166375Y154344876D02*
X-95213994Y154249638D01*
X-95213994Y154249638D02*
X-95309232Y154154400D01*
X-95309232Y154154400D02*
X-95452089Y154106780D01*
X-95452089Y154106780D02*
X-95690184Y154106780D01*
X-94118756Y154106780D02*
X-94452089Y154582971D01*
X-94690184Y154106780D02*
X-94690184Y155106780D01*
X-94690184Y155106780D02*
X-94309232Y155106780D01*
X-94309232Y155106780D02*
X-94213994Y155059161D01*
X-94213994Y155059161D02*
X-94166375Y155011542D01*
X-94166375Y155011542D02*
X-94118756Y154916304D01*
X-94118756Y154916304D02*
X-94118756Y154773447D01*
X-94118756Y154773447D02*
X-94166375Y154678209D01*
X-94166375Y154678209D02*
X-94213994Y154630590D01*
X-94213994Y154630590D02*
X-94309232Y154582971D01*
X-94309232Y154582971D02*
X-94690184Y154582971D01*
X-93690184Y154630590D02*
X-93356851Y154630590D01*
X-93213994Y154106780D02*
X-93690184Y154106780D01*
X-93690184Y154106780D02*
X-93690184Y155106780D01*
X-93690184Y155106780D02*
X-93213994Y155106780D01*
X-92833041Y154154400D02*
X-92690184Y154106780D01*
X-92690184Y154106780D02*
X-92452089Y154106780D01*
X-92452089Y154106780D02*
X-92356851Y154154400D01*
X-92356851Y154154400D02*
X-92309232Y154202019D01*
X-92309232Y154202019D02*
X-92261613Y154297257D01*
X-92261613Y154297257D02*
X-92261613Y154392495D01*
X-92261613Y154392495D02*
X-92309232Y154487733D01*
X-92309232Y154487733D02*
X-92356851Y154535352D01*
X-92356851Y154535352D02*
X-92452089Y154582971D01*
X-92452089Y154582971D02*
X-92642565Y154630590D01*
X-92642565Y154630590D02*
X-92737803Y154678209D01*
X-92737803Y154678209D02*
X-92785422Y154725828D01*
X-92785422Y154725828D02*
X-92833041Y154821066D01*
X-92833041Y154821066D02*
X-92833041Y154916304D01*
X-92833041Y154916304D02*
X-92785422Y155011542D01*
X-92785422Y155011542D02*
X-92737803Y155059161D01*
X-92737803Y155059161D02*
X-92642565Y155106780D01*
X-92642565Y155106780D02*
X-92404470Y155106780D01*
X-92404470Y155106780D02*
X-92261613Y155059161D01*
X-91880660Y154154400D02*
X-91737803Y154106780D01*
X-91737803Y154106780D02*
X-91499708Y154106780D01*
X-91499708Y154106780D02*
X-91404470Y154154400D01*
X-91404470Y154154400D02*
X-91356851Y154202019D01*
X-91356851Y154202019D02*
X-91309232Y154297257D01*
X-91309232Y154297257D02*
X-91309232Y154392495D01*
X-91309232Y154392495D02*
X-91356851Y154487733D01*
X-91356851Y154487733D02*
X-91404470Y154535352D01*
X-91404470Y154535352D02*
X-91499708Y154582971D01*
X-91499708Y154582971D02*
X-91690184Y154630590D01*
X-91690184Y154630590D02*
X-91785422Y154678209D01*
X-91785422Y154678209D02*
X-91833041Y154725828D01*
X-91833041Y154725828D02*
X-91880660Y154821066D01*
X-91880660Y154821066D02*
X-91880660Y154916304D01*
X-91880660Y154916304D02*
X-91833041Y155011542D01*
X-91833041Y155011542D02*
X-91785422Y155059161D01*
X-91785422Y155059161D02*
X-91690184Y155106780D01*
X-91690184Y155106780D02*
X-91452089Y155106780D01*
X-91452089Y155106780D02*
X-91309232Y155059161D01*
X-97388565Y148756780D02*
X-96721899Y147756780D01*
X-96721899Y148756780D02*
X-97388565Y147756780D01*
X-96150470Y148232971D02*
X-96150470Y147756780D01*
X-96483803Y148756780D02*
X-96150470Y148232971D01*
X-96150470Y148232971D02*
X-95817137Y148756780D01*
X-94531422Y148756780D02*
X-94436184Y148756780D01*
X-94436184Y148756780D02*
X-94340946Y148709161D01*
X-94340946Y148709161D02*
X-94293327Y148661542D01*
X-94293327Y148661542D02*
X-94245708Y148566304D01*
X-94245708Y148566304D02*
X-94198089Y148375828D01*
X-94198089Y148375828D02*
X-94198089Y148137733D01*
X-94198089Y148137733D02*
X-94245708Y147947257D01*
X-94245708Y147947257D02*
X-94293327Y147852019D01*
X-94293327Y147852019D02*
X-94340946Y147804400D01*
X-94340946Y147804400D02*
X-94436184Y147756780D01*
X-94436184Y147756780D02*
X-94531422Y147756780D01*
X-94531422Y147756780D02*
X-94626660Y147804400D01*
X-94626660Y147804400D02*
X-94674279Y147852019D01*
X-94674279Y147852019D02*
X-94721898Y147947257D01*
X-94721898Y147947257D02*
X-94769517Y148137733D01*
X-94769517Y148137733D02*
X-94769517Y148375828D01*
X-94769517Y148375828D02*
X-94721898Y148566304D01*
X-94721898Y148566304D02*
X-94674279Y148661542D01*
X-94674279Y148661542D02*
X-94626660Y148709161D01*
X-94626660Y148709161D02*
X-94531422Y148756780D01*
X-93864755Y148756780D02*
X-93198089Y147756780D01*
X-93198089Y148756780D02*
X-93864755Y147756780D01*
X-92864755Y148661542D02*
X-92817136Y148709161D01*
X-92817136Y148709161D02*
X-92721898Y148756780D01*
X-92721898Y148756780D02*
X-92483803Y148756780D01*
X-92483803Y148756780D02*
X-92388565Y148709161D01*
X-92388565Y148709161D02*
X-92340946Y148661542D01*
X-92340946Y148661542D02*
X-92293327Y148566304D01*
X-92293327Y148566304D02*
X-92293327Y148471066D01*
X-92293327Y148471066D02*
X-92340946Y148328209D01*
X-92340946Y148328209D02*
X-92912374Y147756780D01*
X-92912374Y147756780D02*
X-92293327Y147756780D01*
X-91721898Y148328209D02*
X-91817136Y148375828D01*
X-91817136Y148375828D02*
X-91864755Y148423447D01*
X-91864755Y148423447D02*
X-91912374Y148518685D01*
X-91912374Y148518685D02*
X-91912374Y148566304D01*
X-91912374Y148566304D02*
X-91864755Y148661542D01*
X-91864755Y148661542D02*
X-91817136Y148709161D01*
X-91817136Y148709161D02*
X-91721898Y148756780D01*
X-91721898Y148756780D02*
X-91531422Y148756780D01*
X-91531422Y148756780D02*
X-91436184Y148709161D01*
X-91436184Y148709161D02*
X-91388565Y148661542D01*
X-91388565Y148661542D02*
X-91340946Y148566304D01*
X-91340946Y148566304D02*
X-91340946Y148518685D01*
X-91340946Y148518685D02*
X-91388565Y148423447D01*
X-91388565Y148423447D02*
X-91436184Y148375828D01*
X-91436184Y148375828D02*
X-91531422Y148328209D01*
X-91531422Y148328209D02*
X-91721898Y148328209D01*
X-91721898Y148328209D02*
X-91817136Y148280590D01*
X-91817136Y148280590D02*
X-91864755Y148232971D01*
X-91864755Y148232971D02*
X-91912374Y148137733D01*
X-91912374Y148137733D02*
X-91912374Y147947257D01*
X-91912374Y147947257D02*
X-91864755Y147852019D01*
X-91864755Y147852019D02*
X-91817136Y147804400D01*
X-91817136Y147804400D02*
X-91721898Y147756780D01*
X-91721898Y147756780D02*
X-91531422Y147756780D01*
X-91531422Y147756780D02*
X-91436184Y147804400D01*
X-91436184Y147804400D02*
X-91388565Y147852019D01*
X-91388565Y147852019D02*
X-91340946Y147947257D01*
X-91340946Y147947257D02*
X-91340946Y148137733D01*
X-91340946Y148137733D02*
X-91388565Y148232971D01*
X-91388565Y148232971D02*
X-91436184Y148280590D01*
X-91436184Y148280590D02*
X-91531422Y148328209D01*
X-81764400Y158437054D02*
X-81716781Y158579911D01*
X-81716781Y158579911D02*
X-81716781Y158818006D01*
X-81716781Y158818006D02*
X-81764400Y158913244D01*
X-81764400Y158913244D02*
X-81812020Y158960863D01*
X-81812020Y158960863D02*
X-81907258Y159008482D01*
X-81907258Y159008482D02*
X-82002496Y159008482D01*
X-82002496Y159008482D02*
X-82097734Y158960863D01*
X-82097734Y158960863D02*
X-82145353Y158913244D01*
X-82145353Y158913244D02*
X-82192972Y158818006D01*
X-82192972Y158818006D02*
X-82240591Y158627530D01*
X-82240591Y158627530D02*
X-82288210Y158532292D01*
X-82288210Y158532292D02*
X-82335829Y158484673D01*
X-82335829Y158484673D02*
X-82431067Y158437054D01*
X-82431067Y158437054D02*
X-82526305Y158437054D01*
X-82526305Y158437054D02*
X-82621543Y158484673D01*
X-82621543Y158484673D02*
X-82669162Y158532292D01*
X-82669162Y158532292D02*
X-82716781Y158627530D01*
X-82716781Y158627530D02*
X-82716781Y158865625D01*
X-82716781Y158865625D02*
X-82669162Y159008482D01*
X-81716781Y159437054D02*
X-82716781Y159437054D01*
X-82716781Y159437054D02*
X-82716781Y159818006D01*
X-82716781Y159818006D02*
X-82669162Y159913244D01*
X-82669162Y159913244D02*
X-82621543Y159960863D01*
X-82621543Y159960863D02*
X-82526305Y160008482D01*
X-82526305Y160008482D02*
X-82383448Y160008482D01*
X-82383448Y160008482D02*
X-82288210Y159960863D01*
X-82288210Y159960863D02*
X-82240591Y159913244D01*
X-82240591Y159913244D02*
X-82192972Y159818006D01*
X-82192972Y159818006D02*
X-82192972Y159437054D01*
X-81716781Y160437054D02*
X-82716781Y160437054D01*
X-91832327Y161218780D02*
X-91832327Y162218780D01*
X-91832327Y162218780D02*
X-91498994Y161504495D01*
X-91498994Y161504495D02*
X-91165661Y162218780D01*
X-91165661Y162218780D02*
X-91165661Y161218780D01*
X-90498994Y162218780D02*
X-90308518Y162218780D01*
X-90308518Y162218780D02*
X-90213280Y162171161D01*
X-90213280Y162171161D02*
X-90118042Y162075923D01*
X-90118042Y162075923D02*
X-90070423Y161885447D01*
X-90070423Y161885447D02*
X-90070423Y161552114D01*
X-90070423Y161552114D02*
X-90118042Y161361638D01*
X-90118042Y161361638D02*
X-90213280Y161266400D01*
X-90213280Y161266400D02*
X-90308518Y161218780D01*
X-90308518Y161218780D02*
X-90498994Y161218780D01*
X-90498994Y161218780D02*
X-90594232Y161266400D01*
X-90594232Y161266400D02*
X-90689470Y161361638D01*
X-90689470Y161361638D02*
X-90737089Y161552114D01*
X-90737089Y161552114D02*
X-90737089Y161885447D01*
X-90737089Y161885447D02*
X-90689470Y162075923D01*
X-90689470Y162075923D02*
X-90594232Y162171161D01*
X-90594232Y162171161D02*
X-90498994Y162218780D01*
X-89689470Y161266400D02*
X-89546613Y161218780D01*
X-89546613Y161218780D02*
X-89308518Y161218780D01*
X-89308518Y161218780D02*
X-89213280Y161266400D01*
X-89213280Y161266400D02*
X-89165661Y161314019D01*
X-89165661Y161314019D02*
X-89118042Y161409257D01*
X-89118042Y161409257D02*
X-89118042Y161504495D01*
X-89118042Y161504495D02*
X-89165661Y161599733D01*
X-89165661Y161599733D02*
X-89213280Y161647352D01*
X-89213280Y161647352D02*
X-89308518Y161694971D01*
X-89308518Y161694971D02*
X-89498994Y161742590D01*
X-89498994Y161742590D02*
X-89594232Y161790209D01*
X-89594232Y161790209D02*
X-89641851Y161837828D01*
X-89641851Y161837828D02*
X-89689470Y161933066D01*
X-89689470Y161933066D02*
X-89689470Y162028304D01*
X-89689470Y162028304D02*
X-89641851Y162123542D01*
X-89641851Y162123542D02*
X-89594232Y162171161D01*
X-89594232Y162171161D02*
X-89498994Y162218780D01*
X-89498994Y162218780D02*
X-89260899Y162218780D01*
X-89260899Y162218780D02*
X-89118042Y162171161D01*
X-88689470Y161218780D02*
X-88689470Y162218780D01*
X-88828781Y146494905D02*
X-89828781Y146494905D01*
X-89828781Y146494905D02*
X-89114496Y146828238D01*
X-89114496Y146828238D02*
X-89828781Y147161571D01*
X-89828781Y147161571D02*
X-88828781Y147161571D01*
X-89114496Y147590143D02*
X-89114496Y148066333D01*
X-88828781Y147494905D02*
X-89828781Y147828238D01*
X-89828781Y147828238D02*
X-88828781Y148161571D01*
X-89828781Y148399667D02*
X-88828781Y149066333D01*
X-89828781Y149066333D02*
X-88828781Y148399667D01*
X-89828781Y150113953D02*
X-89828781Y150733000D01*
X-89828781Y150733000D02*
X-89447829Y150399667D01*
X-89447829Y150399667D02*
X-89447829Y150542524D01*
X-89447829Y150542524D02*
X-89400210Y150637762D01*
X-89400210Y150637762D02*
X-89352591Y150685381D01*
X-89352591Y150685381D02*
X-89257353Y150733000D01*
X-89257353Y150733000D02*
X-89019258Y150733000D01*
X-89019258Y150733000D02*
X-88924020Y150685381D01*
X-88924020Y150685381D02*
X-88876400Y150637762D01*
X-88876400Y150637762D02*
X-88828781Y150542524D01*
X-88828781Y150542524D02*
X-88828781Y150256810D01*
X-88828781Y150256810D02*
X-88876400Y150161572D01*
X-88876400Y150161572D02*
X-88924020Y150113953D01*
X-88924020Y151161572D02*
X-88876400Y151209191D01*
X-88876400Y151209191D02*
X-88828781Y151161572D01*
X-88828781Y151161572D02*
X-88876400Y151113953D01*
X-88876400Y151113953D02*
X-88924020Y151161572D01*
X-88924020Y151161572D02*
X-88828781Y151161572D01*
X-89828781Y152066333D02*
X-89828781Y151875857D01*
X-89828781Y151875857D02*
X-89781162Y151780619D01*
X-89781162Y151780619D02*
X-89733543Y151733000D01*
X-89733543Y151733000D02*
X-89590686Y151637762D01*
X-89590686Y151637762D02*
X-89400210Y151590143D01*
X-89400210Y151590143D02*
X-89019258Y151590143D01*
X-89019258Y151590143D02*
X-88924020Y151637762D01*
X-88924020Y151637762D02*
X-88876400Y151685381D01*
X-88876400Y151685381D02*
X-88828781Y151780619D01*
X-88828781Y151780619D02*
X-88828781Y151971095D01*
X-88828781Y151971095D02*
X-88876400Y152066333D01*
X-88876400Y152066333D02*
X-88924020Y152113952D01*
X-88924020Y152113952D02*
X-89019258Y152161571D01*
X-89019258Y152161571D02*
X-89257353Y152161571D01*
X-89257353Y152161571D02*
X-89352591Y152113952D01*
X-89352591Y152113952D02*
X-89400210Y152066333D01*
X-89400210Y152066333D02*
X-89447829Y151971095D01*
X-89447829Y151971095D02*
X-89447829Y151780619D01*
X-89447829Y151780619D02*
X-89400210Y151685381D01*
X-89400210Y151685381D02*
X-89352591Y151637762D01*
X-89352591Y151637762D02*
X-89257353Y151590143D01*
X-89828781Y152447286D02*
X-88828781Y152780619D01*
X-88828781Y152780619D02*
X-89828781Y153113952D01*
X-102547946Y154773447D02*
X-101833661Y154773447D01*
X-102262232Y155202019D02*
X-102547946Y153916304D01*
X-101928899Y154344876D02*
X-102643184Y154344876D01*
X-102214613Y153916304D02*
X-101928899Y155202019D01*
X-101500327Y154106780D02*
X-101500327Y155106780D01*
X-101024137Y154106780D02*
X-101024137Y155106780D01*
X-101024137Y155106780D02*
X-100452709Y154106780D01*
X-100452709Y154106780D02*
X-100452709Y155106780D01*
X-100119375Y155106780D02*
X-99547947Y155106780D01*
X-99833661Y154106780D02*
X-99833661Y155106780D01*
X-100337572Y144756400D02*
X-100194715Y144708780D01*
X-100194715Y144708780D02*
X-99956620Y144708780D01*
X-99956620Y144708780D02*
X-99861382Y144756400D01*
X-99861382Y144756400D02*
X-99813763Y144804019D01*
X-99813763Y144804019D02*
X-99766144Y144899257D01*
X-99766144Y144899257D02*
X-99766144Y144994495D01*
X-99766144Y144994495D02*
X-99813763Y145089733D01*
X-99813763Y145089733D02*
X-99861382Y145137352D01*
X-99861382Y145137352D02*
X-99956620Y145184971D01*
X-99956620Y145184971D02*
X-100147096Y145232590D01*
X-100147096Y145232590D02*
X-100242334Y145280209D01*
X-100242334Y145280209D02*
X-100289953Y145327828D01*
X-100289953Y145327828D02*
X-100337572Y145423066D01*
X-100337572Y145423066D02*
X-100337572Y145518304D01*
X-100337572Y145518304D02*
X-100289953Y145613542D01*
X-100289953Y145613542D02*
X-100242334Y145661161D01*
X-100242334Y145661161D02*
X-100147096Y145708780D01*
X-100147096Y145708780D02*
X-99909001Y145708780D01*
X-99909001Y145708780D02*
X-99766144Y145661161D01*
X-99337572Y145232590D02*
X-99004239Y145232590D01*
X-98861382Y144708780D02*
X-99337572Y144708780D01*
X-99337572Y144708780D02*
X-99337572Y145708780D01*
X-99337572Y145708780D02*
X-98861382Y145708780D01*
X-98575667Y145708780D02*
X-98004239Y145708780D01*
X-98289953Y144708780D02*
X-98289953Y145708780D01*
X-96956619Y144994495D02*
X-96480429Y144994495D01*
X-97051857Y144708780D02*
X-96718524Y145708780D01*
X-96718524Y145708780D02*
X-96385191Y144708780D01*
X-96051857Y144708780D02*
X-96051857Y145708780D01*
X-96051857Y145708780D02*
X-95813762Y145708780D01*
X-95813762Y145708780D02*
X-95670905Y145661161D01*
X-95670905Y145661161D02*
X-95575667Y145565923D01*
X-95575667Y145565923D02*
X-95528048Y145470685D01*
X-95528048Y145470685D02*
X-95480429Y145280209D01*
X-95480429Y145280209D02*
X-95480429Y145137352D01*
X-95480429Y145137352D02*
X-95528048Y144946876D01*
X-95528048Y144946876D02*
X-95575667Y144851638D01*
X-95575667Y144851638D02*
X-95670905Y144756400D01*
X-95670905Y144756400D02*
X-95813762Y144708780D01*
X-95813762Y144708780D02*
X-96051857Y144708780D01*
X-94480429Y144708780D02*
X-94813762Y145184971D01*
X-95051857Y144708780D02*
X-95051857Y145708780D01*
X-95051857Y145708780D02*
X-94670905Y145708780D01*
X-94670905Y145708780D02*
X-94575667Y145661161D01*
X-94575667Y145661161D02*
X-94528048Y145613542D01*
X-94528048Y145613542D02*
X-94480429Y145518304D01*
X-94480429Y145518304D02*
X-94480429Y145375447D01*
X-94480429Y145375447D02*
X-94528048Y145280209D01*
X-94528048Y145280209D02*
X-94575667Y145232590D01*
X-94575667Y145232590D02*
X-94670905Y145184971D01*
X-94670905Y145184971D02*
X-95051857Y145184971D01*
X-92940400Y166819054D02*
X-92892781Y166961911D01*
X-92892781Y166961911D02*
X-92892781Y167200006D01*
X-92892781Y167200006D02*
X-92940400Y167295244D01*
X-92940400Y167295244D02*
X-92988020Y167342863D01*
X-92988020Y167342863D02*
X-93083258Y167390482D01*
X-93083258Y167390482D02*
X-93178496Y167390482D01*
X-93178496Y167390482D02*
X-93273734Y167342863D01*
X-93273734Y167342863D02*
X-93321353Y167295244D01*
X-93321353Y167295244D02*
X-93368972Y167200006D01*
X-93368972Y167200006D02*
X-93416591Y167009530D01*
X-93416591Y167009530D02*
X-93464210Y166914292D01*
X-93464210Y166914292D02*
X-93511829Y166866673D01*
X-93511829Y166866673D02*
X-93607067Y166819054D01*
X-93607067Y166819054D02*
X-93702305Y166819054D01*
X-93702305Y166819054D02*
X-93797543Y166866673D01*
X-93797543Y166866673D02*
X-93845162Y166914292D01*
X-93845162Y166914292D02*
X-93892781Y167009530D01*
X-93892781Y167009530D02*
X-93892781Y167247625D01*
X-93892781Y167247625D02*
X-93845162Y167390482D01*
X-92988020Y168390482D02*
X-92940400Y168342863D01*
X-92940400Y168342863D02*
X-92892781Y168200006D01*
X-92892781Y168200006D02*
X-92892781Y168104768D01*
X-92892781Y168104768D02*
X-92940400Y167961911D01*
X-92940400Y167961911D02*
X-93035639Y167866673D01*
X-93035639Y167866673D02*
X-93130877Y167819054D01*
X-93130877Y167819054D02*
X-93321353Y167771435D01*
X-93321353Y167771435D02*
X-93464210Y167771435D01*
X-93464210Y167771435D02*
X-93654686Y167819054D01*
X-93654686Y167819054D02*
X-93749924Y167866673D01*
X-93749924Y167866673D02*
X-93845162Y167961911D01*
X-93845162Y167961911D02*
X-93892781Y168104768D01*
X-93892781Y168104768D02*
X-93892781Y168200006D01*
X-93892781Y168200006D02*
X-93845162Y168342863D01*
X-93845162Y168342863D02*
X-93797543Y168390482D01*
X-92892781Y169295244D02*
X-92892781Y168819054D01*
X-92892781Y168819054D02*
X-93892781Y168819054D01*
X-95832851Y138072971D02*
X-95832851Y137596780D01*
X-96166184Y138596780D02*
X-95832851Y138072971D01*
X-95832851Y138072971D02*
X-95499518Y138596780D01*
X-102547946Y159853447D02*
X-101833661Y159853447D01*
X-102262232Y160282019D02*
X-102547946Y158996304D01*
X-101928899Y159424876D02*
X-102643184Y159424876D01*
X-102214613Y158996304D02*
X-101928899Y160282019D01*
X-101547946Y159234400D02*
X-101405089Y159186780D01*
X-101405089Y159186780D02*
X-101166994Y159186780D01*
X-101166994Y159186780D02*
X-101071756Y159234400D01*
X-101071756Y159234400D02*
X-101024137Y159282019D01*
X-101024137Y159282019D02*
X-100976518Y159377257D01*
X-100976518Y159377257D02*
X-100976518Y159472495D01*
X-100976518Y159472495D02*
X-101024137Y159567733D01*
X-101024137Y159567733D02*
X-101071756Y159615352D01*
X-101071756Y159615352D02*
X-101166994Y159662971D01*
X-101166994Y159662971D02*
X-101357470Y159710590D01*
X-101357470Y159710590D02*
X-101452708Y159758209D01*
X-101452708Y159758209D02*
X-101500327Y159805828D01*
X-101500327Y159805828D02*
X-101547946Y159901066D01*
X-101547946Y159901066D02*
X-101547946Y159996304D01*
X-101547946Y159996304D02*
X-101500327Y160091542D01*
X-101500327Y160091542D02*
X-101452708Y160139161D01*
X-101452708Y160139161D02*
X-101357470Y160186780D01*
X-101357470Y160186780D02*
X-101119375Y160186780D01*
X-101119375Y160186780D02*
X-100976518Y160139161D01*
X-100595565Y159234400D02*
X-100452708Y159186780D01*
X-100452708Y159186780D02*
X-100214613Y159186780D01*
X-100214613Y159186780D02*
X-100119375Y159234400D01*
X-100119375Y159234400D02*
X-100071756Y159282019D01*
X-100071756Y159282019D02*
X-100024137Y159377257D01*
X-100024137Y159377257D02*
X-100024137Y159472495D01*
X-100024137Y159472495D02*
X-100071756Y159567733D01*
X-100071756Y159567733D02*
X-100119375Y159615352D01*
X-100119375Y159615352D02*
X-100214613Y159662971D01*
X-100214613Y159662971D02*
X-100405089Y159710590D01*
X-100405089Y159710590D02*
X-100500327Y159758209D01*
X-100500327Y159758209D02*
X-100547946Y159805828D01*
X-100547946Y159805828D02*
X-100595565Y159901066D01*
X-100595565Y159901066D02*
X-100595565Y159996304D01*
X-100595565Y159996304D02*
X-100547946Y160091542D01*
X-100547946Y160091542D02*
X-100500327Y160139161D01*
X-100500327Y160139161D02*
X-100405089Y160186780D01*
X-100405089Y160186780D02*
X-100166994Y160186780D01*
X-100166994Y160186780D02*
X-100024137Y160139161D01*
X-99071756Y159186780D02*
X-99643184Y159186780D01*
X-99357470Y159186780D02*
X-99357470Y160186780D01*
X-99357470Y160186780D02*
X-99452708Y160043923D01*
X-99452708Y160043923D02*
X-99547946Y159948685D01*
X-99547946Y159948685D02*
X-99643184Y159901066D01*
X-102547946Y152233447D02*
X-101833661Y152233447D01*
X-102262232Y152662019D02*
X-102547946Y151376304D01*
X-101928899Y151804876D02*
X-102643184Y151804876D01*
X-102214613Y151376304D02*
X-101928899Y152662019D01*
X-101547946Y151614400D02*
X-101405089Y151566780D01*
X-101405089Y151566780D02*
X-101166994Y151566780D01*
X-101166994Y151566780D02*
X-101071756Y151614400D01*
X-101071756Y151614400D02*
X-101024137Y151662019D01*
X-101024137Y151662019D02*
X-100976518Y151757257D01*
X-100976518Y151757257D02*
X-100976518Y151852495D01*
X-100976518Y151852495D02*
X-101024137Y151947733D01*
X-101024137Y151947733D02*
X-101071756Y151995352D01*
X-101071756Y151995352D02*
X-101166994Y152042971D01*
X-101166994Y152042971D02*
X-101357470Y152090590D01*
X-101357470Y152090590D02*
X-101452708Y152138209D01*
X-101452708Y152138209D02*
X-101500327Y152185828D01*
X-101500327Y152185828D02*
X-101547946Y152281066D01*
X-101547946Y152281066D02*
X-101547946Y152376304D01*
X-101547946Y152376304D02*
X-101500327Y152471542D01*
X-101500327Y152471542D02*
X-101452708Y152519161D01*
X-101452708Y152519161D02*
X-101357470Y152566780D01*
X-101357470Y152566780D02*
X-101119375Y152566780D01*
X-101119375Y152566780D02*
X-100976518Y152519161D01*
X-100595565Y151614400D02*
X-100452708Y151566780D01*
X-100452708Y151566780D02*
X-100214613Y151566780D01*
X-100214613Y151566780D02*
X-100119375Y151614400D01*
X-100119375Y151614400D02*
X-100071756Y151662019D01*
X-100071756Y151662019D02*
X-100024137Y151757257D01*
X-100024137Y151757257D02*
X-100024137Y151852495D01*
X-100024137Y151852495D02*
X-100071756Y151947733D01*
X-100071756Y151947733D02*
X-100119375Y151995352D01*
X-100119375Y151995352D02*
X-100214613Y152042971D01*
X-100214613Y152042971D02*
X-100405089Y152090590D01*
X-100405089Y152090590D02*
X-100500327Y152138209D01*
X-100500327Y152138209D02*
X-100547946Y152185828D01*
X-100547946Y152185828D02*
X-100595565Y152281066D01*
X-100595565Y152281066D02*
X-100595565Y152376304D01*
X-100595565Y152376304D02*
X-100547946Y152471542D01*
X-100547946Y152471542D02*
X-100500327Y152519161D01*
X-100500327Y152519161D02*
X-100405089Y152566780D01*
X-100405089Y152566780D02*
X-100166994Y152566780D01*
X-100166994Y152566780D02*
X-100024137Y152519161D01*
X-99643184Y152471542D02*
X-99595565Y152519161D01*
X-99595565Y152519161D02*
X-99500327Y152566780D01*
X-99500327Y152566780D02*
X-99262232Y152566780D01*
X-99262232Y152566780D02*
X-99166994Y152519161D01*
X-99166994Y152519161D02*
X-99119375Y152471542D01*
X-99119375Y152471542D02*
X-99071756Y152376304D01*
X-99071756Y152376304D02*
X-99071756Y152281066D01*
X-99071756Y152281066D02*
X-99119375Y152138209D01*
X-99119375Y152138209D02*
X-99690803Y151566780D01*
X-99690803Y151566780D02*
X-99071756Y151566780D01*
X-91876781Y138866905D02*
X-92876781Y138866905D01*
X-92876781Y138866905D02*
X-92162496Y139200238D01*
X-92162496Y139200238D02*
X-92876781Y139533571D01*
X-92876781Y139533571D02*
X-91876781Y139533571D01*
X-91876781Y140485952D02*
X-91876781Y140009762D01*
X-91876781Y140009762D02*
X-92876781Y140009762D01*
X-92162496Y140771667D02*
X-92162496Y141247857D01*
X-91876781Y140676429D02*
X-92876781Y141009762D01*
X-92876781Y141009762D02*
X-91876781Y141343095D01*
X-92400591Y142009762D02*
X-92352972Y142152619D01*
X-92352972Y142152619D02*
X-92305353Y142200238D01*
X-92305353Y142200238D02*
X-92210115Y142247857D01*
X-92210115Y142247857D02*
X-92067258Y142247857D01*
X-92067258Y142247857D02*
X-91972020Y142200238D01*
X-91972020Y142200238D02*
X-91924400Y142152619D01*
X-91924400Y142152619D02*
X-91876781Y142057381D01*
X-91876781Y142057381D02*
X-91876781Y141676429D01*
X-91876781Y141676429D02*
X-92876781Y141676429D01*
X-92876781Y141676429D02*
X-92876781Y142009762D01*
X-92876781Y142009762D02*
X-92829162Y142105000D01*
X-92829162Y142105000D02*
X-92781543Y142152619D01*
X-92781543Y142152619D02*
X-92686305Y142200238D01*
X-92686305Y142200238D02*
X-92591067Y142200238D01*
X-92591067Y142200238D02*
X-92495829Y142152619D01*
X-92495829Y142152619D02*
X-92448210Y142105000D01*
X-92448210Y142105000D02*
X-92400591Y142009762D01*
X-92400591Y142009762D02*
X-92400591Y141676429D01*
X-91972020Y142676429D02*
X-91924400Y142724048D01*
X-91924400Y142724048D02*
X-91876781Y142676429D01*
X-91876781Y142676429D02*
X-91924400Y142628810D01*
X-91924400Y142628810D02*
X-91972020Y142676429D01*
X-91972020Y142676429D02*
X-91876781Y142676429D01*
X-91924400Y143581190D02*
X-91876781Y143485952D01*
X-91876781Y143485952D02*
X-91876781Y143295476D01*
X-91876781Y143295476D02*
X-91924400Y143200238D01*
X-91924400Y143200238D02*
X-91972020Y143152619D01*
X-91972020Y143152619D02*
X-92067258Y143105000D01*
X-92067258Y143105000D02*
X-92352972Y143105000D01*
X-92352972Y143105000D02*
X-92448210Y143152619D01*
X-92448210Y143152619D02*
X-92495829Y143200238D01*
X-92495829Y143200238D02*
X-92543448Y143295476D01*
X-92543448Y143295476D02*
X-92543448Y143485952D01*
X-92543448Y143485952D02*
X-92495829Y143581190D01*
X-92543448Y143914524D02*
X-92543448Y144438333D01*
X-92543448Y144438333D02*
X-91876781Y143914524D01*
X-91876781Y143914524D02*
X-91876781Y144438333D01*
X-90498899Y156234019D02*
X-90546518Y156186400D01*
X-90546518Y156186400D02*
X-90689375Y156138780D01*
X-90689375Y156138780D02*
X-90784613Y156138780D01*
X-90784613Y156138780D02*
X-90927470Y156186400D01*
X-90927470Y156186400D02*
X-91022708Y156281638D01*
X-91022708Y156281638D02*
X-91070327Y156376876D01*
X-91070327Y156376876D02*
X-91117946Y156567352D01*
X-91117946Y156567352D02*
X-91117946Y156710209D01*
X-91117946Y156710209D02*
X-91070327Y156900685D01*
X-91070327Y156900685D02*
X-91022708Y156995923D01*
X-91022708Y156995923D02*
X-90927470Y157091161D01*
X-90927470Y157091161D02*
X-90784613Y157138780D01*
X-90784613Y157138780D02*
X-90689375Y157138780D01*
X-90689375Y157138780D02*
X-90546518Y157091161D01*
X-90546518Y157091161D02*
X-90498899Y157043542D01*
X-89594137Y156138780D02*
X-90070327Y156138780D01*
X-90070327Y156138780D02*
X-90070327Y157138780D01*
X-89260803Y156138780D02*
X-89260803Y157138780D01*
X-88689375Y156138780D02*
X-89117946Y156710209D01*
X-88689375Y157138780D02*
X-89260803Y156567352D01*
X-98658565Y138596780D02*
X-97991899Y137596780D01*
X-97991899Y138596780D02*
X-98658565Y137596780D01*
X-102547946Y149693447D02*
X-101833661Y149693447D01*
X-102262232Y150122019D02*
X-102547946Y148836304D01*
X-101928899Y149264876D02*
X-102643184Y149264876D01*
X-102214613Y148836304D02*
X-101928899Y150122019D01*
X-101547946Y149074400D02*
X-101405089Y149026780D01*
X-101405089Y149026780D02*
X-101166994Y149026780D01*
X-101166994Y149026780D02*
X-101071756Y149074400D01*
X-101071756Y149074400D02*
X-101024137Y149122019D01*
X-101024137Y149122019D02*
X-100976518Y149217257D01*
X-100976518Y149217257D02*
X-100976518Y149312495D01*
X-100976518Y149312495D02*
X-101024137Y149407733D01*
X-101024137Y149407733D02*
X-101071756Y149455352D01*
X-101071756Y149455352D02*
X-101166994Y149502971D01*
X-101166994Y149502971D02*
X-101357470Y149550590D01*
X-101357470Y149550590D02*
X-101452708Y149598209D01*
X-101452708Y149598209D02*
X-101500327Y149645828D01*
X-101500327Y149645828D02*
X-101547946Y149741066D01*
X-101547946Y149741066D02*
X-101547946Y149836304D01*
X-101547946Y149836304D02*
X-101500327Y149931542D01*
X-101500327Y149931542D02*
X-101452708Y149979161D01*
X-101452708Y149979161D02*
X-101357470Y150026780D01*
X-101357470Y150026780D02*
X-101119375Y150026780D01*
X-101119375Y150026780D02*
X-100976518Y149979161D01*
X-100595565Y149074400D02*
X-100452708Y149026780D01*
X-100452708Y149026780D02*
X-100214613Y149026780D01*
X-100214613Y149026780D02*
X-100119375Y149074400D01*
X-100119375Y149074400D02*
X-100071756Y149122019D01*
X-100071756Y149122019D02*
X-100024137Y149217257D01*
X-100024137Y149217257D02*
X-100024137Y149312495D01*
X-100024137Y149312495D02*
X-100071756Y149407733D01*
X-100071756Y149407733D02*
X-100119375Y149455352D01*
X-100119375Y149455352D02*
X-100214613Y149502971D01*
X-100214613Y149502971D02*
X-100405089Y149550590D01*
X-100405089Y149550590D02*
X-100500327Y149598209D01*
X-100500327Y149598209D02*
X-100547946Y149645828D01*
X-100547946Y149645828D02*
X-100595565Y149741066D01*
X-100595565Y149741066D02*
X-100595565Y149836304D01*
X-100595565Y149836304D02*
X-100547946Y149931542D01*
X-100547946Y149931542D02*
X-100500327Y149979161D01*
X-100500327Y149979161D02*
X-100405089Y150026780D01*
X-100405089Y150026780D02*
X-100166994Y150026780D01*
X-100166994Y150026780D02*
X-100024137Y149979161D01*
X-99690803Y150026780D02*
X-99071756Y150026780D01*
X-99071756Y150026780D02*
X-99405089Y149645828D01*
X-99405089Y149645828D02*
X-99262232Y149645828D01*
X-99262232Y149645828D02*
X-99166994Y149598209D01*
X-99166994Y149598209D02*
X-99119375Y149550590D01*
X-99119375Y149550590D02*
X-99071756Y149455352D01*
X-99071756Y149455352D02*
X-99071756Y149217257D01*
X-99071756Y149217257D02*
X-99119375Y149122019D01*
X-99119375Y149122019D02*
X-99166994Y149074400D01*
X-99166994Y149074400D02*
X-99262232Y149026780D01*
X-99262232Y149026780D02*
X-99547946Y149026780D01*
X-99547946Y149026780D02*
X-99643184Y149074400D01*
X-99643184Y149074400D02*
X-99690803Y149122019D01*
X-97134565Y150280780D02*
X-96467899Y149280780D01*
X-96467899Y150280780D02*
X-97134565Y149280780D01*
X-96086946Y149376019D02*
X-96039327Y149328400D01*
X-96039327Y149328400D02*
X-96086946Y149280780D01*
X-96086946Y149280780D02*
X-96134565Y149328400D01*
X-96134565Y149328400D02*
X-96086946Y149376019D01*
X-96086946Y149376019D02*
X-96086946Y149280780D01*
X-96086946Y149899828D02*
X-96039327Y149852209D01*
X-96039327Y149852209D02*
X-96086946Y149804590D01*
X-96086946Y149804590D02*
X-96134565Y149852209D01*
X-96134565Y149852209D02*
X-96086946Y149899828D01*
X-96086946Y149899828D02*
X-96086946Y149804590D01*
X-94658375Y150280780D02*
X-94563137Y150280780D01*
X-94563137Y150280780D02*
X-94467899Y150233161D01*
X-94467899Y150233161D02*
X-94420280Y150185542D01*
X-94420280Y150185542D02*
X-94372661Y150090304D01*
X-94372661Y150090304D02*
X-94325042Y149899828D01*
X-94325042Y149899828D02*
X-94325042Y149661733D01*
X-94325042Y149661733D02*
X-94372661Y149471257D01*
X-94372661Y149471257D02*
X-94420280Y149376019D01*
X-94420280Y149376019D02*
X-94467899Y149328400D01*
X-94467899Y149328400D02*
X-94563137Y149280780D01*
X-94563137Y149280780D02*
X-94658375Y149280780D01*
X-94658375Y149280780D02*
X-94753613Y149328400D01*
X-94753613Y149328400D02*
X-94801232Y149376019D01*
X-94801232Y149376019D02*
X-94848851Y149471257D01*
X-94848851Y149471257D02*
X-94896470Y149661733D01*
X-94896470Y149661733D02*
X-94896470Y149899828D01*
X-94896470Y149899828D02*
X-94848851Y150090304D01*
X-94848851Y150090304D02*
X-94801232Y150185542D01*
X-94801232Y150185542D02*
X-94753613Y150233161D01*
X-94753613Y150233161D02*
X-94658375Y150280780D01*
X-93991708Y150280780D02*
X-93325042Y149280780D01*
X-93325042Y150280780D02*
X-93991708Y149280780D01*
X-92991708Y150185542D02*
X-92944089Y150233161D01*
X-92944089Y150233161D02*
X-92848851Y150280780D01*
X-92848851Y150280780D02*
X-92610756Y150280780D01*
X-92610756Y150280780D02*
X-92515518Y150233161D01*
X-92515518Y150233161D02*
X-92467899Y150185542D01*
X-92467899Y150185542D02*
X-92420280Y150090304D01*
X-92420280Y150090304D02*
X-92420280Y149995066D01*
X-92420280Y149995066D02*
X-92467899Y149852209D01*
X-92467899Y149852209D02*
X-93039327Y149280780D01*
X-93039327Y149280780D02*
X-92420280Y149280780D01*
X-92039327Y149566495D02*
X-91563137Y149566495D01*
X-92134565Y149280780D02*
X-91801232Y150280780D01*
X-91801232Y150280780D02*
X-91467899Y149280780D01*
X-96531327Y152424019D02*
X-96483708Y152376400D01*
X-96483708Y152376400D02*
X-96531327Y152328780D01*
X-96531327Y152328780D02*
X-96578946Y152376400D01*
X-96578946Y152376400D02*
X-96531327Y152424019D01*
X-96531327Y152424019D02*
X-96531327Y152328780D01*
X-96531327Y152947828D02*
X-96483708Y152900209D01*
X-96483708Y152900209D02*
X-96531327Y152852590D01*
X-96531327Y152852590D02*
X-96578946Y152900209D01*
X-96578946Y152900209D02*
X-96531327Y152947828D01*
X-96531327Y152947828D02*
X-96531327Y152852590D01*
X-96055137Y152424019D02*
X-96007518Y152376400D01*
X-96007518Y152376400D02*
X-96055137Y152328780D01*
X-96055137Y152328780D02*
X-96102756Y152376400D01*
X-96102756Y152376400D02*
X-96055137Y152424019D01*
X-96055137Y152424019D02*
X-96055137Y152328780D01*
X-96055137Y152947828D02*
X-96007518Y152900209D01*
X-96007518Y152900209D02*
X-96055137Y152852590D01*
X-96055137Y152852590D02*
X-96102756Y152900209D01*
X-96102756Y152900209D02*
X-96055137Y152947828D01*
X-96055137Y152947828D02*
X-96055137Y152852590D01*
X-94626566Y153328780D02*
X-94531328Y153328780D01*
X-94531328Y153328780D02*
X-94436090Y153281161D01*
X-94436090Y153281161D02*
X-94388471Y153233542D01*
X-94388471Y153233542D02*
X-94340852Y153138304D01*
X-94340852Y153138304D02*
X-94293233Y152947828D01*
X-94293233Y152947828D02*
X-94293233Y152709733D01*
X-94293233Y152709733D02*
X-94340852Y152519257D01*
X-94340852Y152519257D02*
X-94388471Y152424019D01*
X-94388471Y152424019D02*
X-94436090Y152376400D01*
X-94436090Y152376400D02*
X-94531328Y152328780D01*
X-94531328Y152328780D02*
X-94626566Y152328780D01*
X-94626566Y152328780D02*
X-94721804Y152376400D01*
X-94721804Y152376400D02*
X-94769423Y152424019D01*
X-94769423Y152424019D02*
X-94817042Y152519257D01*
X-94817042Y152519257D02*
X-94864661Y152709733D01*
X-94864661Y152709733D02*
X-94864661Y152947828D01*
X-94864661Y152947828D02*
X-94817042Y153138304D01*
X-94817042Y153138304D02*
X-94769423Y153233542D01*
X-94769423Y153233542D02*
X-94721804Y153281161D01*
X-94721804Y153281161D02*
X-94626566Y153328780D01*
X-93959899Y153328780D02*
X-93293233Y152328780D01*
X-93293233Y153328780D02*
X-93959899Y152328780D01*
X-92959899Y153233542D02*
X-92912280Y153281161D01*
X-92912280Y153281161D02*
X-92817042Y153328780D01*
X-92817042Y153328780D02*
X-92578947Y153328780D01*
X-92578947Y153328780D02*
X-92483709Y153281161D01*
X-92483709Y153281161D02*
X-92436090Y153233542D01*
X-92436090Y153233542D02*
X-92388471Y153138304D01*
X-92388471Y153138304D02*
X-92388471Y153043066D01*
X-92388471Y153043066D02*
X-92436090Y152900209D01*
X-92436090Y152900209D02*
X-93007518Y152328780D01*
X-93007518Y152328780D02*
X-92388471Y152328780D01*
X-91959899Y152852590D02*
X-91626566Y152852590D01*
X-91483709Y152328780D02*
X-91959899Y152328780D01*
X-91959899Y152328780D02*
X-91959899Y153328780D01*
X-91959899Y153328780D02*
X-91483709Y153328780D01*
D11*
X-86672057Y140992018D02*
X-86672057Y142516018D01*
X-86672057Y142516018D02*
X-86091486Y142516018D01*
X-86091486Y142516018D02*
X-85946343Y142443447D01*
X-85946343Y142443447D02*
X-85873772Y142370875D01*
X-85873772Y142370875D02*
X-85801200Y142225732D01*
X-85801200Y142225732D02*
X-85801200Y142008018D01*
X-85801200Y142008018D02*
X-85873772Y141862875D01*
X-85873772Y141862875D02*
X-85946343Y141790304D01*
X-85946343Y141790304D02*
X-86091486Y141717732D01*
X-86091486Y141717732D02*
X-86672057Y141717732D01*
X-84349772Y140992018D02*
X-85220629Y140992018D01*
X-84785200Y140992018D02*
X-84785200Y142516018D01*
X-84785200Y142516018D02*
X-84930343Y142298304D01*
X-84930343Y142298304D02*
X-85075486Y142153161D01*
X-85075486Y142153161D02*
X-85220629Y142080590D01*
X-106992057Y171472018D02*
X-106992057Y172996018D01*
X-106992057Y172996018D02*
X-106411486Y172996018D01*
X-106411486Y172996018D02*
X-106266343Y172923447D01*
X-106266343Y172923447D02*
X-106193772Y172850875D01*
X-106193772Y172850875D02*
X-106121200Y172705732D01*
X-106121200Y172705732D02*
X-106121200Y172488018D01*
X-106121200Y172488018D02*
X-106193772Y172342875D01*
X-106193772Y172342875D02*
X-106266343Y172270304D01*
X-106266343Y172270304D02*
X-106411486Y172197732D01*
X-106411486Y172197732D02*
X-106992057Y172197732D01*
X-105540629Y172850875D02*
X-105468057Y172923447D01*
X-105468057Y172923447D02*
X-105322914Y172996018D01*
X-105322914Y172996018D02*
X-104960057Y172996018D01*
X-104960057Y172996018D02*
X-104814914Y172923447D01*
X-104814914Y172923447D02*
X-104742343Y172850875D01*
X-104742343Y172850875D02*
X-104669772Y172705732D01*
X-104669772Y172705732D02*
X-104669772Y172560590D01*
X-104669772Y172560590D02*
X-104742343Y172342875D01*
X-104742343Y172342875D02*
X-105613200Y171472018D01*
X-105613200Y171472018D02*
X-104669772Y171472018D01*
X-106992057Y140992018D02*
X-106992057Y142516018D01*
X-106992057Y142516018D02*
X-106411486Y142516018D01*
X-106411486Y142516018D02*
X-106266343Y142443447D01*
X-106266343Y142443447D02*
X-106193772Y142370875D01*
X-106193772Y142370875D02*
X-106121200Y142225732D01*
X-106121200Y142225732D02*
X-106121200Y142008018D01*
X-106121200Y142008018D02*
X-106193772Y141862875D01*
X-106193772Y141862875D02*
X-106266343Y141790304D01*
X-106266343Y141790304D02*
X-106411486Y141717732D01*
X-106411486Y141717732D02*
X-106992057Y141717732D01*
X-105613200Y142516018D02*
X-104669772Y142516018D01*
X-104669772Y142516018D02*
X-105177772Y141935447D01*
X-105177772Y141935447D02*
X-104960057Y141935447D01*
X-104960057Y141935447D02*
X-104814914Y141862875D01*
X-104814914Y141862875D02*
X-104742343Y141790304D01*
X-104742343Y141790304D02*
X-104669772Y141645161D01*
X-104669772Y141645161D02*
X-104669772Y141282304D01*
X-104669772Y141282304D02*
X-104742343Y141137161D01*
X-104742343Y141137161D02*
X-104814914Y141064590D01*
X-104814914Y141064590D02*
X-104960057Y140992018D01*
X-104960057Y140992018D02*
X-105395486Y140992018D01*
X-105395486Y140992018D02*
X-105540629Y141064590D01*
X-105540629Y141064590D02*
X-105613200Y141137161D01*
X-86672057Y171472018D02*
X-86672057Y172996018D01*
X-86672057Y172996018D02*
X-86091486Y172996018D01*
X-86091486Y172996018D02*
X-85946343Y172923447D01*
X-85946343Y172923447D02*
X-85873772Y172850875D01*
X-85873772Y172850875D02*
X-85801200Y172705732D01*
X-85801200Y172705732D02*
X-85801200Y172488018D01*
X-85801200Y172488018D02*
X-85873772Y172342875D01*
X-85873772Y172342875D02*
X-85946343Y172270304D01*
X-85946343Y172270304D02*
X-86091486Y172197732D01*
X-86091486Y172197732D02*
X-86672057Y172197732D01*
X-84494914Y172488018D02*
X-84494914Y171472018D01*
X-84857772Y173068590D02*
X-85220629Y171980018D01*
X-85220629Y171980018D02*
X-84277200Y171980018D01*
D12*
%TO.C,J1*%
X-88265000Y163068000D02*
X-88265000Y157988000D01*
X-88265000Y157988000D02*
X-88265000Y155448000D01*
X-88265000Y155448000D02*
X-85725000Y155448000D01*
X-83185000Y163068000D02*
X-88265000Y163068000D01*
X-83185000Y155448000D02*
X-85725000Y155448000D01*
X-83185000Y155448000D02*
X-83185000Y163068000D01*
%TO.C,J4*%
X-88265000Y153670000D02*
X-88265000Y148590000D01*
X-88265000Y148590000D02*
X-88265000Y146050000D01*
X-88265000Y146050000D02*
X-85725000Y146050000D01*
X-83185000Y153670000D02*
X-88265000Y153670000D01*
X-83185000Y146050000D02*
X-85725000Y146050000D01*
X-83185000Y146050000D02*
X-83185000Y153670000D01*
%TO.C,J3*%
X-108458000Y163449000D02*
X-108458000Y165989000D01*
X-108458000Y163449000D02*
X-108458000Y165989000D01*
X-108458000Y160909000D02*
X-108458000Y163449000D01*
X-108458000Y160909000D02*
X-108458000Y163449000D01*
X-108458000Y159639000D02*
X-108458000Y154559000D01*
X-108458000Y158369000D02*
X-108458000Y160909000D01*
X-108458000Y158369000D02*
X-108458000Y160909000D01*
X-108458000Y157099000D02*
X-108458000Y159639000D01*
X-108458000Y157099000D02*
X-108458000Y159639000D01*
X-108458000Y157099000D02*
X-108458000Y159639000D01*
X-108458000Y157099000D02*
X-108458000Y159639000D01*
X-108458000Y154559000D02*
X-108458000Y152019000D01*
X-108458000Y150749000D02*
X-108458000Y152019000D01*
X-108458000Y148209000D02*
X-108458000Y150749000D01*
X-108458000Y148209000D02*
X-105918000Y148209000D01*
X-103378000Y165989000D02*
X-108458000Y165989000D01*
X-103378000Y165989000D02*
X-108458000Y165989000D01*
X-103378000Y163449000D02*
X-103378000Y165989000D01*
X-103378000Y163449000D02*
X-103378000Y165989000D01*
X-103378000Y160909000D02*
X-103378000Y163449000D01*
X-103378000Y160909000D02*
X-103378000Y163449000D01*
X-103378000Y158369000D02*
X-103378000Y160909000D01*
X-103378000Y158369000D02*
X-103378000Y160909000D01*
X-103378000Y155829000D02*
X-103378000Y158369000D01*
X-103378000Y155829000D02*
X-103378000Y158369000D01*
X-103378000Y153289000D02*
X-103378000Y155829000D01*
X-103378000Y153289000D02*
X-103378000Y155829000D01*
X-103378000Y148209000D02*
X-105918000Y148209000D01*
X-103378000Y148209000D02*
X-103378000Y155829000D01*
%TO.C,J2*%
X-102235000Y174752000D02*
X-102235000Y169672000D01*
X-102235000Y174752000D02*
X-102235000Y169672000D01*
X-100965000Y169672000D02*
X-95885000Y169672000D01*
X-99695000Y174752000D02*
X-102235000Y174752000D01*
X-99695000Y174752000D02*
X-102235000Y174752000D01*
X-99695000Y169672000D02*
X-102235000Y169672000D01*
X-99695000Y169672000D02*
X-102235000Y169672000D01*
X-98425000Y169672000D02*
X-100965000Y169672000D01*
X-98425000Y169672000D02*
X-100965000Y169672000D01*
X-98425000Y169672000D02*
X-100965000Y169672000D01*
X-98425000Y169672000D02*
X-100965000Y169672000D01*
X-97155000Y174752000D02*
X-99695000Y174752000D01*
X-97155000Y174752000D02*
X-99695000Y174752000D01*
X-95885000Y169672000D02*
X-93345000Y169672000D01*
X-94615000Y174752000D02*
X-97155000Y174752000D01*
X-94615000Y174752000D02*
X-97155000Y174752000D01*
X-92075000Y169672000D02*
X-93345000Y169672000D01*
X-89535000Y174752000D02*
X-97155000Y174752000D01*
X-89535000Y174752000D02*
X-89535000Y172212000D01*
X-89535000Y169672000D02*
X-92075000Y169672000D01*
X-89535000Y169672000D02*
X-89535000Y172212000D01*
%TO.C,J5*%
X-95631000Y165735000D02*
X-95631000Y163195000D01*
X-95631000Y165735000D02*
X-93091000Y165735000D01*
X-95631000Y163195000D02*
X-93091000Y163195000D01*
X-93091000Y165735000D02*
X-90551000Y165735000D01*
X-93091000Y163195000D02*
X-90551000Y163195000D01*
X-90551000Y163195000D02*
X-90551000Y165735000D01*
%TO.C,J6*%
X-99822000Y144272000D02*
X-99822000Y141732000D01*
X-99822000Y141732000D02*
X-99822000Y139192000D01*
X-99822000Y139192000D02*
X-97282000Y139192000D01*
X-97282000Y144272000D02*
X-99822000Y144272000D01*
X-97282000Y144272000D02*
X-97282000Y141732000D01*
X-97282000Y141732000D02*
X-97282000Y139192000D01*
%TO.C,J7*%
X-97282000Y141732000D02*
X-97282000Y144272000D01*
X-97282000Y139192000D02*
X-97282000Y141732000D01*
X-97282000Y139192000D02*
X-94742000Y139192000D01*
X-94742000Y144272000D02*
X-97282000Y144272000D01*
X-94742000Y141732000D02*
X-94742000Y144272000D01*
X-94742000Y139192000D02*
X-94742000Y141732000D01*
%TD*%
D13*
%TO.C,J1*%
X-84455000Y156718000D03*
X-84455000Y159258000D03*
X-84455000Y161798000D03*
X-86995000Y161798000D03*
X-86995000Y159258000D03*
X-86995000Y156718000D03*
%TD*%
%TO.C,J4*%
X-84455000Y147320000D03*
X-84455000Y149860000D03*
X-84455000Y152400000D03*
X-86995000Y152400000D03*
X-86995000Y149860000D03*
X-86995000Y147320000D03*
%TD*%
%TO.C,J3*%
X-104648000Y149479000D03*
X-104648000Y152019000D03*
X-104648000Y154559000D03*
X-104648000Y157099000D03*
X-104648000Y159639000D03*
X-104648000Y162179000D03*
X-104648000Y164719000D03*
X-107188000Y164719000D03*
X-107188000Y162179000D03*
X-107188000Y159639000D03*
X-107188000Y157099000D03*
X-107188000Y154559000D03*
X-107188000Y152019000D03*
X-107188000Y149479000D03*
%TD*%
%TO.C,J2*%
X-90805000Y173482000D03*
X-93345000Y173482000D03*
X-95885000Y173482000D03*
X-98425000Y173482000D03*
X-100965000Y173482000D03*
X-100965000Y170942000D03*
X-98425000Y170942000D03*
X-95885000Y170942000D03*
X-93345000Y170942000D03*
X-90805000Y170942000D03*
%TD*%
%TO.C,J5*%
X-94361000Y164465000D03*
X-91821000Y164465000D03*
%TD*%
%TO.C,J6*%
X-98552000Y143002000D03*
X-98552000Y140462000D03*
%TD*%
%TO.C,J7*%
X-96012000Y140462000D03*
X-96012000Y143002000D03*
%TD*%
M02*
